G75*
%MOIN*%
%OFA0B0*%
%FSLAX25Y25*%
%IPPOS*%
%LPD*%
%AMOC8*
5,1,8,0,0,1.08239X$1,22.5*
%
%ADD10C,0.07600*%
%ADD11R,0.07600X0.07600*%
%ADD12C,0.07600*%
%ADD13C,0.06791*%
%ADD14C,0.04362*%
%ADD15C,0.04756*%
%ADD16C,0.06000*%
%ADD17C,0.03150*%
%ADD18C,0.03000*%
%ADD19OC8,0.07500*%
%ADD20C,0.02600*%
%ADD21OC8,0.08000*%
%ADD22C,0.02000*%
%ADD23C,0.02800*%
D10*
X0124500Y0113200D02*
X0124500Y0120800D01*
X0134500Y0120800D02*
X0134500Y0113200D01*
X0144500Y0113200D02*
X0144500Y0120800D01*
X0154500Y0120800D02*
X0154500Y0113200D01*
X0164500Y0113200D02*
X0164500Y0120800D01*
X0174500Y0120800D02*
X0174500Y0113200D01*
X0184500Y0113200D02*
X0184500Y0120800D01*
X0194500Y0120800D02*
X0194500Y0113200D01*
X0199500Y0173200D02*
X0199500Y0180800D01*
X0209500Y0180800D02*
X0209500Y0173200D01*
X0219500Y0173200D02*
X0219500Y0180800D01*
X0229500Y0180800D02*
X0229500Y0173200D01*
X0239500Y0173200D02*
X0239500Y0180800D01*
X0249500Y0180800D02*
X0249500Y0173200D01*
X0259500Y0173200D02*
X0259500Y0180800D01*
X0269500Y0180800D02*
X0269500Y0173200D01*
X0269500Y0228200D02*
X0269500Y0235800D01*
X0259500Y0235800D02*
X0259500Y0228200D01*
X0249500Y0228200D02*
X0249500Y0235800D01*
X0239500Y0235800D02*
X0239500Y0228200D01*
X0229500Y0228200D02*
X0229500Y0235800D01*
X0219500Y0235800D02*
X0219500Y0228200D01*
X0209500Y0228200D02*
X0209500Y0235800D01*
X0199500Y0235800D02*
X0199500Y0228200D01*
X0129500Y0228200D02*
X0129500Y0235800D01*
X0119500Y0235800D02*
X0119500Y0228200D01*
X0109500Y0228200D02*
X0109500Y0235800D01*
X0099500Y0235800D02*
X0099500Y0228200D01*
X0089500Y0228200D02*
X0089500Y0235800D01*
X0079500Y0235800D02*
X0079500Y0228200D01*
X0069500Y0228200D02*
X0069500Y0235800D01*
X0059500Y0235800D02*
X0059500Y0228200D01*
X0059500Y0180800D02*
X0059500Y0173200D01*
X0069500Y0173200D02*
X0069500Y0180800D01*
X0079500Y0180800D02*
X0079500Y0173200D01*
X0089500Y0173200D02*
X0089500Y0180800D01*
X0099500Y0180800D02*
X0099500Y0173200D01*
X0109500Y0173200D02*
X0109500Y0180800D01*
X0119500Y0180800D02*
X0119500Y0173200D01*
X0129500Y0173200D02*
X0129500Y0180800D01*
D11*
X0082453Y0063693D03*
D12*
X0092453Y0063693D03*
X0102453Y0063693D03*
X0112453Y0063693D03*
X0122453Y0063693D03*
X0132453Y0063693D03*
X0142453Y0063693D03*
X0152453Y0063693D03*
X0162453Y0063693D03*
X0172453Y0063693D03*
X0182453Y0063693D03*
X0192453Y0063693D03*
X0202453Y0063693D03*
X0212453Y0063693D03*
X0222453Y0063693D03*
X0232453Y0063693D03*
X0242453Y0063693D03*
X0252453Y0063693D03*
X0262453Y0063693D03*
X0272453Y0063693D03*
X0272453Y0073693D03*
X0262453Y0073693D03*
X0252453Y0073693D03*
X0242453Y0073693D03*
X0232453Y0073693D03*
X0222453Y0073693D03*
X0212453Y0073693D03*
X0202453Y0073693D03*
X0192453Y0073693D03*
X0182453Y0073693D03*
X0172453Y0073693D03*
X0162453Y0073693D03*
X0152453Y0073693D03*
X0142453Y0073693D03*
X0132453Y0073693D03*
X0122453Y0073693D03*
X0112453Y0073693D03*
X0102453Y0073693D03*
X0092453Y0073693D03*
X0082453Y0073693D03*
D13*
X0276104Y0129500D02*
X0282896Y0129500D01*
X0282896Y0139500D02*
X0276104Y0139500D01*
X0276104Y0149500D02*
X0282896Y0149500D01*
X0323604Y0097000D02*
X0330396Y0097000D01*
X0330396Y0087000D02*
X0323604Y0087000D01*
D14*
X0329819Y0135031D02*
X0334181Y0135031D01*
X0334181Y0163969D02*
X0329819Y0163969D01*
D15*
X0322567Y0158260D02*
X0317811Y0158260D01*
X0317811Y0140740D02*
X0322567Y0140740D01*
D16*
X0282500Y0119500D02*
X0276500Y0119500D01*
X0276500Y0109500D02*
X0282500Y0109500D01*
D17*
X0272000Y0079500D02*
X0272000Y0073875D01*
X0272453Y0073693D01*
X0262453Y0073693D02*
X0262000Y0073875D01*
X0260750Y0075125D01*
X0262453Y0063693D02*
X0262625Y0063250D01*
X0268250Y0057625D01*
X0262625Y0053250D02*
X0252625Y0063250D01*
X0252453Y0063693D01*
X0242625Y0063250D02*
X0242453Y0063693D01*
X0232453Y0073693D02*
X0232625Y0073875D01*
X0242625Y0041375D02*
X0083875Y0041375D01*
X0072000Y0055750D01*
X0072000Y0078250D01*
X0075750Y0082000D01*
X0075750Y0173250D01*
X0079500Y0177000D01*
X0089500Y0177000D02*
X0089500Y0232000D01*
X0099500Y0232000D02*
X0099500Y0177000D01*
X0109500Y0177000D02*
X0109500Y0232000D01*
X0129500Y0232000D02*
X0129500Y0177000D01*
X0129500Y0174500D01*
X0118250Y0163250D01*
X0118250Y0089500D01*
X0102625Y0073875D01*
X0102453Y0073693D01*
X0152453Y0073693D02*
X0152625Y0073875D01*
X0184500Y0105750D01*
X0184500Y0117000D01*
X0174500Y0117000D02*
X0174500Y0127000D01*
X0202000Y0127000D01*
X0245750Y0170750D01*
X0245750Y0172625D01*
X0248875Y0175750D01*
X0249500Y0177000D01*
X0249500Y0232000D01*
X0239500Y0232000D02*
X0239500Y0177000D01*
X0238875Y0175750D01*
X0235750Y0172625D01*
X0235750Y0170750D01*
X0196375Y0131375D01*
X0164500Y0131375D01*
X0164500Y0117000D01*
X0128250Y0120750D02*
X0128250Y0123250D01*
X0181375Y0176375D01*
X0198250Y0176375D01*
X0199500Y0177000D01*
X0199500Y0232000D01*
X0219500Y0232000D02*
X0219500Y0242000D01*
X0272000Y0242000D01*
X0288875Y0225125D01*
X0293250Y0227000D02*
X0273875Y0246375D01*
X0259500Y0232000D02*
X0259500Y0229500D01*
X0229500Y0232000D02*
X0229500Y0177000D01*
X0229500Y0171375D01*
X0247000Y0162000D02*
X0259500Y0174500D01*
X0259500Y0177000D01*
X0128250Y0120750D02*
X0124500Y0117000D01*
X0172453Y0063693D02*
X0172000Y0063250D01*
X0182000Y0063250D02*
X0182453Y0063693D01*
X0192453Y0063693D02*
X0192625Y0063250D01*
X0059500Y0177000D02*
X0059500Y0232000D01*
D18*
X0079500Y0232000D02*
X0079500Y0244500D01*
X0084500Y0249500D01*
X0272000Y0249500D01*
X0272000Y0248250D01*
X0273875Y0246375D01*
X0293250Y0227000D02*
X0294500Y0225750D01*
X0294500Y0057000D01*
X0290750Y0053250D01*
X0262625Y0053250D01*
X0268250Y0057625D02*
X0287625Y0057625D01*
X0289500Y0059500D01*
X0289500Y0224500D01*
X0288875Y0225125D01*
X0237000Y0149500D02*
X0237000Y0122000D01*
X0227000Y0112000D01*
X0199500Y0112000D01*
X0194500Y0117000D01*
X0192625Y0063250D02*
X0192625Y0056375D01*
X0199500Y0049500D01*
X0214500Y0049500D01*
X0232453Y0054047D02*
X0239500Y0047000D01*
X0239500Y0047550D01*
X0242625Y0041375D02*
X0246375Y0041375D01*
X0249500Y0044500D01*
X0249500Y0049500D01*
X0242453Y0056547D01*
X0242453Y0063693D01*
X0232453Y0063693D02*
X0232453Y0054047D01*
X0172453Y0059953D02*
X0164500Y0052000D01*
X0172453Y0059953D02*
X0172453Y0063693D01*
X0152453Y0063693D02*
X0152453Y0055253D01*
X0144500Y0047300D01*
D19*
X0144500Y0047300D03*
X0164500Y0052000D03*
X0214500Y0049500D03*
X0247000Y0087000D03*
X0269500Y0084500D03*
X0302000Y0097000D03*
X0312000Y0167000D03*
X0302000Y0172000D03*
X0277000Y0194500D03*
X0259500Y0199500D03*
X0204500Y0157000D03*
D20*
X0214500Y0157000D01*
X0229500Y0172000D01*
X0229500Y0177000D01*
X0247000Y0162000D02*
X0247000Y0114500D01*
X0232453Y0099953D01*
X0232453Y0073693D01*
X0247000Y0079146D02*
X0247000Y0087000D01*
X0247000Y0079146D02*
X0252453Y0073693D01*
X0253175Y0074415D01*
X0257000Y0079146D02*
X0257000Y0152000D01*
X0260750Y0155750D01*
X0312000Y0167000D02*
X0312000Y0094500D01*
X0319500Y0087000D01*
X0327000Y0087000D01*
X0272000Y0079500D02*
X0269500Y0084500D01*
X0262453Y0073693D02*
X0257000Y0079146D01*
X0182453Y0063693D02*
X0182453Y0052453D01*
X0179500Y0049500D01*
X0087000Y0129500D02*
X0099500Y0142000D01*
X0099500Y0177000D01*
X0157000Y0174500D02*
X0157000Y0227000D01*
X0139500Y0244500D01*
X0124500Y0244500D01*
X0119500Y0239500D01*
X0119500Y0232000D01*
D21*
X0157000Y0174500D03*
X0087000Y0129500D03*
X0179500Y0049500D03*
X0239500Y0047550D03*
X0237000Y0149500D03*
D22*
X0031069Y0039813D02*
X0030342Y0040342D01*
X0029813Y0041069D01*
X0029535Y0041924D01*
X0029500Y0042374D01*
X0029500Y0277827D01*
X0029535Y0278276D01*
X0029813Y0279132D01*
X0030342Y0279859D01*
X0031069Y0280388D01*
X0031924Y0280665D01*
X0032374Y0280701D01*
X0039652Y0280701D01*
X0036938Y0279576D01*
X0034424Y0277062D01*
X0033063Y0273778D01*
X0033063Y0270222D01*
X0034424Y0266938D01*
X0036938Y0264424D01*
X0040222Y0263063D01*
X0043778Y0263063D01*
X0047062Y0264424D01*
X0049576Y0266938D01*
X0050937Y0270222D01*
X0050937Y0273778D01*
X0049576Y0277062D01*
X0047062Y0279576D01*
X0044348Y0280701D01*
X0322152Y0280701D01*
X0319438Y0279576D01*
X0316924Y0277062D01*
X0315563Y0273778D01*
X0315563Y0270222D01*
X0316924Y0266938D01*
X0319438Y0264424D01*
X0322722Y0263063D01*
X0326278Y0263063D01*
X0329562Y0264424D01*
X0332076Y0266938D01*
X0333437Y0270222D01*
X0333437Y0273778D01*
X0332076Y0277062D01*
X0329562Y0279576D01*
X0326848Y0280701D01*
X0331547Y0280701D01*
X0331997Y0280665D01*
X0332852Y0280388D01*
X0333579Y0279859D01*
X0334108Y0279132D01*
X0334386Y0278276D01*
X0334421Y0277827D01*
X0334421Y0167750D01*
X0329067Y0167750D01*
X0327677Y0167174D01*
X0326613Y0166110D01*
X0326038Y0164721D01*
X0326038Y0163216D01*
X0326613Y0161827D01*
X0327677Y0160763D01*
X0329067Y0160187D01*
X0334421Y0160187D01*
X0334421Y0138813D01*
X0329067Y0138813D01*
X0327677Y0138237D01*
X0326613Y0137173D01*
X0326038Y0135784D01*
X0326038Y0134279D01*
X0326613Y0132890D01*
X0327677Y0131826D01*
X0329067Y0131250D01*
X0334421Y0131250D01*
X0334421Y0100605D01*
X0333911Y0101116D01*
X0333224Y0101615D01*
X0332467Y0102000D01*
X0331659Y0102263D01*
X0330820Y0102396D01*
X0327132Y0102396D01*
X0327132Y0097132D01*
X0326868Y0097132D01*
X0326868Y0102396D01*
X0323180Y0102396D01*
X0322341Y0102263D01*
X0321533Y0102000D01*
X0320776Y0101615D01*
X0320089Y0101116D01*
X0319489Y0100515D01*
X0318990Y0099828D01*
X0318604Y0099071D01*
X0318342Y0098263D01*
X0318209Y0097425D01*
X0318209Y0097132D01*
X0326868Y0097132D01*
X0326868Y0096868D01*
X0318209Y0096868D01*
X0318209Y0096575D01*
X0318342Y0095737D01*
X0318604Y0094929D01*
X0318990Y0094172D01*
X0319489Y0093485D01*
X0320089Y0092884D01*
X0320776Y0092385D01*
X0321533Y0092000D01*
X0322142Y0091802D01*
X0320775Y0091235D01*
X0320342Y0090803D01*
X0315284Y0095860D01*
X0315284Y0137641D01*
X0315558Y0137368D01*
X0317020Y0136762D01*
X0323358Y0136762D01*
X0324820Y0137368D01*
X0325939Y0138487D01*
X0326545Y0139949D01*
X0326545Y0141531D01*
X0325939Y0142993D01*
X0324820Y0144112D01*
X0323358Y0144718D01*
X0317020Y0144718D01*
X0315558Y0144112D01*
X0315284Y0143839D01*
X0315284Y0155161D01*
X0315558Y0154888D01*
X0317020Y0154282D01*
X0323358Y0154282D01*
X0324820Y0154888D01*
X0325939Y0156007D01*
X0326545Y0157469D01*
X0326545Y0159051D01*
X0325939Y0160513D01*
X0324820Y0161632D01*
X0323358Y0162238D01*
X0317020Y0162238D01*
X0315558Y0161632D01*
X0315284Y0161359D01*
X0315284Y0162718D01*
X0317350Y0164784D01*
X0317350Y0169216D01*
X0314216Y0172350D01*
X0309784Y0172350D01*
X0307350Y0169916D01*
X0307350Y0174216D01*
X0304216Y0177350D01*
X0299784Y0177350D01*
X0297984Y0175550D01*
X0297984Y0226443D01*
X0297454Y0227724D01*
X0296342Y0228835D01*
X0296267Y0229016D01*
X0275891Y0249392D01*
X0275710Y0249467D01*
X0275484Y0249693D01*
X0275484Y0250193D01*
X0274954Y0251474D01*
X0273974Y0252454D01*
X0272693Y0252984D01*
X0083807Y0252984D01*
X0082526Y0252454D01*
X0076546Y0246474D01*
X0076016Y0245193D01*
X0076016Y0239952D01*
X0074922Y0238859D01*
X0074500Y0237840D01*
X0074078Y0238859D01*
X0072559Y0240378D01*
X0070574Y0241200D01*
X0068426Y0241200D01*
X0066441Y0240378D01*
X0064922Y0238859D01*
X0064500Y0237840D01*
X0064078Y0238859D01*
X0062559Y0240378D01*
X0060574Y0241200D01*
X0058426Y0241200D01*
X0056441Y0240378D01*
X0054922Y0238859D01*
X0054100Y0236874D01*
X0054100Y0227126D01*
X0054922Y0225141D01*
X0055941Y0224122D01*
X0055941Y0184878D01*
X0054922Y0183859D01*
X0054100Y0181874D01*
X0054100Y0172126D01*
X0054922Y0170141D01*
X0056441Y0168622D01*
X0058426Y0167800D01*
X0060574Y0167800D01*
X0062559Y0168622D01*
X0064078Y0170141D01*
X0064500Y0171160D01*
X0064922Y0170141D01*
X0066441Y0168622D01*
X0068426Y0167800D01*
X0070574Y0167800D01*
X0072191Y0168470D01*
X0072191Y0083474D01*
X0069984Y0081267D01*
X0068983Y0080266D01*
X0068441Y0078958D01*
X0068441Y0055919D01*
X0068390Y0055383D01*
X0068441Y0055216D01*
X0068441Y0055042D01*
X0068647Y0054544D01*
X0068805Y0054029D01*
X0068916Y0053895D01*
X0068983Y0053734D01*
X0069364Y0053353D01*
X0080791Y0039520D01*
X0080799Y0039500D01*
X0044639Y0039500D01*
X0047076Y0041938D01*
X0048437Y0045222D01*
X0048437Y0048778D01*
X0047076Y0052062D01*
X0044562Y0054576D01*
X0041278Y0055937D01*
X0037722Y0055937D01*
X0034438Y0054576D01*
X0031924Y0052062D01*
X0030563Y0048778D01*
X0030563Y0045222D01*
X0031924Y0041938D01*
X0034361Y0039500D01*
X0032374Y0039500D01*
X0031924Y0039535D01*
X0031069Y0039813D01*
X0029866Y0040997D02*
X0032864Y0040997D01*
X0031485Y0042996D02*
X0029500Y0042996D01*
X0029500Y0044994D02*
X0030658Y0044994D01*
X0030563Y0046993D02*
X0029500Y0046993D01*
X0029500Y0048991D02*
X0030651Y0048991D01*
X0031479Y0050990D02*
X0029500Y0050990D01*
X0029500Y0052988D02*
X0032849Y0052988D01*
X0035428Y0054987D02*
X0029500Y0054987D01*
X0029500Y0056985D02*
X0068441Y0056985D01*
X0068464Y0054987D02*
X0043572Y0054987D01*
X0046151Y0052988D02*
X0069665Y0052988D01*
X0071316Y0050990D02*
X0047521Y0050990D01*
X0048349Y0048991D02*
X0072967Y0048991D01*
X0074618Y0046993D02*
X0048437Y0046993D01*
X0048342Y0044994D02*
X0076269Y0044994D01*
X0077920Y0042996D02*
X0047515Y0042996D01*
X0046136Y0040997D02*
X0079571Y0040997D01*
X0085502Y0044994D02*
X0139240Y0044994D01*
X0139300Y0044934D02*
X0085551Y0044934D01*
X0075559Y0057030D01*
X0075559Y0076776D01*
X0078767Y0079984D01*
X0079309Y0081292D01*
X0079309Y0167800D01*
X0080574Y0167800D01*
X0082559Y0168622D01*
X0084078Y0170141D01*
X0084500Y0171160D01*
X0084922Y0170141D01*
X0086441Y0168622D01*
X0088426Y0167800D01*
X0090574Y0167800D01*
X0092559Y0168622D01*
X0094078Y0170141D01*
X0094500Y0171160D01*
X0094922Y0170141D01*
X0096216Y0168848D01*
X0096216Y0143360D01*
X0087955Y0135100D01*
X0084680Y0135100D01*
X0081400Y0131820D01*
X0081400Y0127180D01*
X0084680Y0123900D01*
X0089320Y0123900D01*
X0092600Y0127180D01*
X0092600Y0130455D01*
X0101360Y0139216D01*
X0102284Y0140140D01*
X0102784Y0141347D01*
X0102784Y0168848D01*
X0104078Y0170141D01*
X0104500Y0171160D01*
X0104922Y0170141D01*
X0106441Y0168622D01*
X0108426Y0167800D01*
X0110574Y0167800D01*
X0112559Y0168622D01*
X0114078Y0170141D01*
X0114500Y0171160D01*
X0114922Y0170141D01*
X0116441Y0168622D01*
X0118426Y0167800D01*
X0120574Y0167800D01*
X0122559Y0168622D01*
X0124078Y0170141D01*
X0124289Y0170651D01*
X0124539Y0170160D01*
X0125076Y0169422D01*
X0125722Y0168776D01*
X0126460Y0168239D01*
X0127274Y0167825D01*
X0128142Y0167543D01*
X0129044Y0167400D01*
X0129368Y0167400D01*
X0129368Y0176868D01*
X0129632Y0176868D01*
X0129632Y0177132D01*
X0129368Y0177132D01*
X0129368Y0186600D01*
X0129044Y0186600D01*
X0128142Y0186457D01*
X0127274Y0186175D01*
X0126460Y0185761D01*
X0125722Y0185224D01*
X0125076Y0184578D01*
X0124539Y0183840D01*
X0124289Y0183349D01*
X0124078Y0183859D01*
X0122559Y0185378D01*
X0120574Y0186200D01*
X0118426Y0186200D01*
X0116441Y0185378D01*
X0114922Y0183859D01*
X0114500Y0182840D01*
X0114078Y0183859D01*
X0113059Y0184878D01*
X0113059Y0224122D01*
X0114078Y0225141D01*
X0114500Y0226160D01*
X0114922Y0225141D01*
X0116441Y0223622D01*
X0118426Y0222800D01*
X0120574Y0222800D01*
X0122559Y0223622D01*
X0124078Y0225141D01*
X0124289Y0225651D01*
X0124539Y0225160D01*
X0125076Y0224422D01*
X0125722Y0223776D01*
X0126460Y0223239D01*
X0127274Y0222825D01*
X0128142Y0222543D01*
X0129044Y0222400D01*
X0129368Y0222400D01*
X0129368Y0231868D01*
X0129632Y0231868D01*
X0129632Y0232132D01*
X0135300Y0232132D01*
X0135300Y0236256D01*
X0135157Y0237158D01*
X0134875Y0238026D01*
X0134461Y0238840D01*
X0133924Y0239578D01*
X0133278Y0240224D01*
X0132540Y0240761D01*
X0131726Y0241175D01*
X0131601Y0241216D01*
X0138140Y0241216D01*
X0153716Y0225640D01*
X0153716Y0179135D01*
X0151400Y0176820D01*
X0151400Y0172180D01*
X0154680Y0168900D01*
X0159320Y0168900D01*
X0162600Y0172180D01*
X0162600Y0176820D01*
X0160284Y0179135D01*
X0160284Y0227653D01*
X0159784Y0228860D01*
X0158860Y0229784D01*
X0142629Y0246016D01*
X0269307Y0246016D01*
X0269763Y0245559D01*
X0218792Y0245559D01*
X0217484Y0245017D01*
X0216483Y0244016D01*
X0215941Y0242708D01*
X0215941Y0239878D01*
X0214922Y0238859D01*
X0214500Y0237840D01*
X0214078Y0238859D01*
X0212559Y0240378D01*
X0210574Y0241200D01*
X0208426Y0241200D01*
X0206441Y0240378D01*
X0204922Y0238859D01*
X0204500Y0237840D01*
X0204078Y0238859D01*
X0202559Y0240378D01*
X0200574Y0241200D01*
X0198426Y0241200D01*
X0196441Y0240378D01*
X0194922Y0238859D01*
X0194100Y0236874D01*
X0194100Y0227126D01*
X0194922Y0225141D01*
X0195941Y0224122D01*
X0195941Y0184878D01*
X0194922Y0183859D01*
X0194100Y0181874D01*
X0194100Y0179934D01*
X0180667Y0179934D01*
X0179359Y0179392D01*
X0178358Y0178391D01*
X0125993Y0126026D01*
X0125574Y0126200D01*
X0123426Y0126200D01*
X0121441Y0125378D01*
X0119922Y0123859D01*
X0119100Y0121874D01*
X0119100Y0112126D01*
X0119922Y0110141D01*
X0121441Y0108622D01*
X0123426Y0107800D01*
X0125574Y0107800D01*
X0127559Y0108622D01*
X0129078Y0110141D01*
X0129500Y0111160D01*
X0129922Y0110141D01*
X0131441Y0108622D01*
X0133426Y0107800D01*
X0135574Y0107800D01*
X0137559Y0108622D01*
X0139078Y0110141D01*
X0139500Y0111160D01*
X0139922Y0110141D01*
X0141441Y0108622D01*
X0143426Y0107800D01*
X0145574Y0107800D01*
X0147559Y0108622D01*
X0149078Y0110141D01*
X0149500Y0111160D01*
X0149922Y0110141D01*
X0151441Y0108622D01*
X0153426Y0107800D01*
X0155574Y0107800D01*
X0157559Y0108622D01*
X0159078Y0110141D01*
X0159500Y0111160D01*
X0159922Y0110141D01*
X0161441Y0108622D01*
X0163426Y0107800D01*
X0165574Y0107800D01*
X0167559Y0108622D01*
X0169078Y0110141D01*
X0169500Y0111160D01*
X0169922Y0110141D01*
X0171441Y0108622D01*
X0173426Y0107800D01*
X0175574Y0107800D01*
X0177559Y0108622D01*
X0179078Y0110141D01*
X0179500Y0111160D01*
X0179922Y0110141D01*
X0180941Y0109122D01*
X0180941Y0107224D01*
X0152810Y0079093D01*
X0151379Y0079093D01*
X0149394Y0078271D01*
X0147875Y0076752D01*
X0147453Y0075733D01*
X0147031Y0076752D01*
X0145512Y0078271D01*
X0143527Y0079093D01*
X0141379Y0079093D01*
X0139394Y0078271D01*
X0137875Y0076752D01*
X0137453Y0075733D01*
X0137031Y0076752D01*
X0135512Y0078271D01*
X0133527Y0079093D01*
X0131379Y0079093D01*
X0129394Y0078271D01*
X0127875Y0076752D01*
X0127453Y0075733D01*
X0127031Y0076752D01*
X0125512Y0078271D01*
X0123527Y0079093D01*
X0121379Y0079093D01*
X0119394Y0078271D01*
X0117875Y0076752D01*
X0117453Y0075733D01*
X0117031Y0076752D01*
X0115512Y0078271D01*
X0113527Y0079093D01*
X0111379Y0079093D01*
X0109394Y0078271D01*
X0107875Y0076752D01*
X0107664Y0076242D01*
X0107413Y0076733D01*
X0106877Y0077471D01*
X0106231Y0078117D01*
X0105493Y0078654D01*
X0104679Y0079068D01*
X0103811Y0079350D01*
X0102909Y0079493D01*
X0102453Y0079493D01*
X0102453Y0073693D01*
X0102453Y0073693D01*
X0102453Y0079493D01*
X0101996Y0079493D01*
X0101095Y0079350D01*
X0100226Y0079068D01*
X0099413Y0078654D01*
X0098674Y0078117D01*
X0098029Y0077471D01*
X0097492Y0076733D01*
X0097242Y0076242D01*
X0097031Y0076752D01*
X0095512Y0078271D01*
X0093527Y0079093D01*
X0091379Y0079093D01*
X0089394Y0078271D01*
X0087875Y0076752D01*
X0087453Y0075733D01*
X0087031Y0076752D01*
X0085512Y0078271D01*
X0083527Y0079093D01*
X0081379Y0079093D01*
X0079394Y0078271D01*
X0077875Y0076752D01*
X0077053Y0074767D01*
X0077053Y0072619D01*
X0077875Y0070634D01*
X0079394Y0069115D01*
X0079447Y0069093D01*
X0077990Y0069093D01*
X0077053Y0068156D01*
X0077053Y0059230D01*
X0077990Y0058293D01*
X0086915Y0058293D01*
X0087853Y0059230D01*
X0087853Y0060687D01*
X0087875Y0060634D01*
X0089394Y0059115D01*
X0091379Y0058293D01*
X0093527Y0058293D01*
X0095512Y0059115D01*
X0097031Y0060634D01*
X0097453Y0061653D01*
X0097875Y0060634D01*
X0099394Y0059115D01*
X0101379Y0058293D01*
X0103527Y0058293D01*
X0105512Y0059115D01*
X0107031Y0060634D01*
X0107453Y0061653D01*
X0107875Y0060634D01*
X0109394Y0059115D01*
X0111379Y0058293D01*
X0113527Y0058293D01*
X0115512Y0059115D01*
X0117031Y0060634D01*
X0117453Y0061653D01*
X0117875Y0060634D01*
X0119394Y0059115D01*
X0121379Y0058293D01*
X0123527Y0058293D01*
X0125512Y0059115D01*
X0127031Y0060634D01*
X0127453Y0061653D01*
X0127875Y0060634D01*
X0129394Y0059115D01*
X0131379Y0058293D01*
X0133527Y0058293D01*
X0135512Y0059115D01*
X0137031Y0060634D01*
X0137453Y0061653D01*
X0137875Y0060634D01*
X0139394Y0059115D01*
X0141379Y0058293D01*
X0143527Y0058293D01*
X0145512Y0059115D01*
X0147031Y0060634D01*
X0147453Y0061653D01*
X0147875Y0060634D01*
X0148969Y0059540D01*
X0148969Y0056696D01*
X0144923Y0052650D01*
X0142284Y0052650D01*
X0139150Y0049516D01*
X0139150Y0045084D01*
X0139300Y0044934D01*
X0139150Y0046993D02*
X0083851Y0046993D01*
X0082200Y0048991D02*
X0139150Y0048991D01*
X0140624Y0050990D02*
X0080549Y0050990D01*
X0078898Y0052988D02*
X0145261Y0052988D01*
X0147259Y0054987D02*
X0077247Y0054987D01*
X0075596Y0056985D02*
X0148969Y0056985D01*
X0148969Y0058984D02*
X0145194Y0058984D01*
X0147175Y0060982D02*
X0147731Y0060982D01*
X0139711Y0058984D02*
X0135194Y0058984D01*
X0137175Y0060982D02*
X0137731Y0060982D01*
X0129711Y0058984D02*
X0125194Y0058984D01*
X0127175Y0060982D02*
X0127731Y0060982D01*
X0119711Y0058984D02*
X0115194Y0058984D01*
X0117175Y0060982D02*
X0117731Y0060982D01*
X0109711Y0058984D02*
X0105194Y0058984D01*
X0107175Y0060982D02*
X0107731Y0060982D01*
X0099711Y0058984D02*
X0095194Y0058984D01*
X0097175Y0060982D02*
X0097731Y0060982D01*
X0089711Y0058984D02*
X0087606Y0058984D01*
X0077299Y0058984D02*
X0075559Y0058984D01*
X0075559Y0060982D02*
X0077053Y0060982D01*
X0077053Y0062981D02*
X0075559Y0062981D01*
X0075559Y0064979D02*
X0077053Y0064979D01*
X0077053Y0066978D02*
X0075559Y0066978D01*
X0075559Y0068976D02*
X0077873Y0068976D01*
X0077734Y0070975D02*
X0075559Y0070975D01*
X0075559Y0072973D02*
X0077053Y0072973D01*
X0077138Y0074972D02*
X0075559Y0074972D01*
X0075753Y0076970D02*
X0078093Y0076970D01*
X0077752Y0078969D02*
X0081079Y0078969D01*
X0083827Y0078969D02*
X0091079Y0078969D01*
X0093827Y0078969D02*
X0100032Y0078969D01*
X0102453Y0078969D02*
X0102453Y0078969D01*
X0102453Y0076970D02*
X0102453Y0076970D01*
X0102453Y0074972D02*
X0102453Y0074972D01*
X0104874Y0078969D02*
X0111079Y0078969D01*
X0113827Y0078969D02*
X0121079Y0078969D01*
X0123827Y0078969D02*
X0131079Y0078969D01*
X0133827Y0078969D02*
X0141079Y0078969D01*
X0143827Y0078969D02*
X0151079Y0078969D01*
X0148093Y0076970D02*
X0146812Y0076970D01*
X0138093Y0076970D02*
X0136812Y0076970D01*
X0128093Y0076970D02*
X0126812Y0076970D01*
X0118093Y0076970D02*
X0116812Y0076970D01*
X0108093Y0076970D02*
X0107241Y0076970D01*
X0097665Y0076970D02*
X0096812Y0076970D01*
X0088093Y0076970D02*
X0086812Y0076970D01*
X0079174Y0080967D02*
X0154684Y0080967D01*
X0156683Y0082966D02*
X0079309Y0082966D01*
X0079309Y0084964D02*
X0158681Y0084964D01*
X0160680Y0086963D02*
X0079309Y0086963D01*
X0079309Y0088961D02*
X0162678Y0088961D01*
X0164677Y0090960D02*
X0079309Y0090960D01*
X0079309Y0092958D02*
X0166675Y0092958D01*
X0168674Y0094957D02*
X0079309Y0094957D01*
X0079309Y0096955D02*
X0170672Y0096955D01*
X0172671Y0098954D02*
X0079309Y0098954D01*
X0079309Y0100952D02*
X0174669Y0100952D01*
X0176668Y0102951D02*
X0079309Y0102951D01*
X0079309Y0104949D02*
X0178666Y0104949D01*
X0180665Y0106948D02*
X0079309Y0106948D01*
X0079309Y0108946D02*
X0121117Y0108946D01*
X0119589Y0110945D02*
X0079309Y0110945D01*
X0079309Y0112943D02*
X0119100Y0112943D01*
X0119100Y0114942D02*
X0079309Y0114942D01*
X0079309Y0116940D02*
X0119100Y0116940D01*
X0119100Y0118939D02*
X0079309Y0118939D01*
X0079309Y0120937D02*
X0119100Y0120937D01*
X0119540Y0122936D02*
X0079309Y0122936D01*
X0079309Y0124934D02*
X0083646Y0124934D01*
X0081647Y0126933D02*
X0079309Y0126933D01*
X0079309Y0128932D02*
X0081400Y0128932D01*
X0081400Y0130930D02*
X0079309Y0130930D01*
X0079309Y0132929D02*
X0082509Y0132929D01*
X0084507Y0134927D02*
X0079309Y0134927D01*
X0079309Y0136926D02*
X0089781Y0136926D01*
X0091779Y0138924D02*
X0079309Y0138924D01*
X0079309Y0140923D02*
X0093778Y0140923D01*
X0095776Y0142921D02*
X0079309Y0142921D01*
X0079309Y0144920D02*
X0096216Y0144920D01*
X0096216Y0146918D02*
X0079309Y0146918D01*
X0079309Y0148917D02*
X0096216Y0148917D01*
X0096216Y0150915D02*
X0079309Y0150915D01*
X0079309Y0152914D02*
X0096216Y0152914D01*
X0096216Y0154912D02*
X0079309Y0154912D01*
X0079309Y0156911D02*
X0096216Y0156911D01*
X0096216Y0158909D02*
X0079309Y0158909D01*
X0079309Y0160908D02*
X0096216Y0160908D01*
X0096216Y0162906D02*
X0079309Y0162906D01*
X0079309Y0164905D02*
X0096216Y0164905D01*
X0096216Y0166903D02*
X0079309Y0166903D01*
X0082838Y0168902D02*
X0086161Y0168902D01*
X0084608Y0170900D02*
X0084392Y0170900D01*
X0092838Y0168902D02*
X0096161Y0168902D01*
X0094608Y0170900D02*
X0094392Y0170900D01*
X0102838Y0168902D02*
X0106161Y0168902D01*
X0104608Y0170900D02*
X0104392Y0170900D01*
X0102784Y0166903D02*
X0166870Y0166903D01*
X0164871Y0164905D02*
X0102784Y0164905D01*
X0102784Y0162906D02*
X0162873Y0162906D01*
X0160874Y0160908D02*
X0102784Y0160908D01*
X0102784Y0158909D02*
X0158876Y0158909D01*
X0156877Y0156911D02*
X0102784Y0156911D01*
X0102784Y0154912D02*
X0154879Y0154912D01*
X0152880Y0152914D02*
X0102784Y0152914D01*
X0102784Y0150915D02*
X0150882Y0150915D01*
X0148883Y0148917D02*
X0102784Y0148917D01*
X0102784Y0146918D02*
X0146885Y0146918D01*
X0144886Y0144920D02*
X0102784Y0144920D01*
X0102784Y0142921D02*
X0142888Y0142921D01*
X0140889Y0140923D02*
X0102609Y0140923D01*
X0101069Y0138924D02*
X0138891Y0138924D01*
X0136892Y0136926D02*
X0099070Y0136926D01*
X0097072Y0134927D02*
X0134894Y0134927D01*
X0132895Y0132929D02*
X0095073Y0132929D01*
X0093075Y0130930D02*
X0130897Y0130930D01*
X0128898Y0128932D02*
X0092600Y0128932D01*
X0092353Y0126933D02*
X0126900Y0126933D01*
X0120998Y0124934D02*
X0090354Y0124934D01*
X0072191Y0124934D02*
X0029500Y0124934D01*
X0029500Y0122936D02*
X0072191Y0122936D01*
X0072191Y0120937D02*
X0029500Y0120937D01*
X0029500Y0118939D02*
X0072191Y0118939D01*
X0072191Y0116940D02*
X0029500Y0116940D01*
X0029500Y0114942D02*
X0072191Y0114942D01*
X0072191Y0112943D02*
X0029500Y0112943D01*
X0029500Y0110945D02*
X0072191Y0110945D01*
X0072191Y0108946D02*
X0029500Y0108946D01*
X0029500Y0106948D02*
X0072191Y0106948D01*
X0072191Y0104949D02*
X0029500Y0104949D01*
X0029500Y0102951D02*
X0072191Y0102951D01*
X0072191Y0100952D02*
X0029500Y0100952D01*
X0029500Y0098954D02*
X0072191Y0098954D01*
X0072191Y0096955D02*
X0029500Y0096955D01*
X0029500Y0094957D02*
X0072191Y0094957D01*
X0072191Y0092958D02*
X0029500Y0092958D01*
X0029500Y0090960D02*
X0072191Y0090960D01*
X0072191Y0088961D02*
X0029500Y0088961D01*
X0029500Y0086963D02*
X0072191Y0086963D01*
X0072191Y0084964D02*
X0029500Y0084964D01*
X0029500Y0082966D02*
X0071683Y0082966D01*
X0069684Y0080967D02*
X0029500Y0080967D01*
X0029500Y0078969D02*
X0068445Y0078969D01*
X0068441Y0076970D02*
X0029500Y0076970D01*
X0029500Y0074972D02*
X0068441Y0074972D01*
X0068441Y0072973D02*
X0029500Y0072973D01*
X0029500Y0070975D02*
X0068441Y0070975D01*
X0068441Y0068976D02*
X0029500Y0068976D01*
X0029500Y0066978D02*
X0068441Y0066978D01*
X0068441Y0064979D02*
X0029500Y0064979D01*
X0029500Y0062981D02*
X0068441Y0062981D01*
X0068441Y0060982D02*
X0029500Y0060982D01*
X0029500Y0058984D02*
X0068441Y0058984D01*
X0127883Y0108946D02*
X0131117Y0108946D01*
X0129589Y0110945D02*
X0129411Y0110945D01*
X0137883Y0108946D02*
X0141117Y0108946D01*
X0139589Y0110945D02*
X0139411Y0110945D01*
X0147883Y0108946D02*
X0151117Y0108946D01*
X0149589Y0110945D02*
X0149411Y0110945D01*
X0157883Y0108946D02*
X0161117Y0108946D01*
X0159589Y0110945D02*
X0159411Y0110945D01*
X0167883Y0108946D02*
X0171117Y0108946D01*
X0169589Y0110945D02*
X0169411Y0110945D01*
X0177883Y0108946D02*
X0180941Y0108946D01*
X0179589Y0110945D02*
X0179411Y0110945D01*
X0188059Y0105042D02*
X0187517Y0103734D01*
X0186516Y0102733D01*
X0162876Y0079093D01*
X0163527Y0079093D01*
X0165512Y0078271D01*
X0167031Y0076752D01*
X0167453Y0075733D01*
X0167875Y0076752D01*
X0169394Y0078271D01*
X0171379Y0079093D01*
X0173527Y0079093D01*
X0175512Y0078271D01*
X0177031Y0076752D01*
X0177453Y0075733D01*
X0177875Y0076752D01*
X0179394Y0078271D01*
X0181379Y0079093D01*
X0183527Y0079093D01*
X0185512Y0078271D01*
X0187031Y0076752D01*
X0187453Y0075733D01*
X0187875Y0076752D01*
X0189394Y0078271D01*
X0191379Y0079093D01*
X0193527Y0079093D01*
X0195512Y0078271D01*
X0197031Y0076752D01*
X0197453Y0075733D01*
X0197875Y0076752D01*
X0199394Y0078271D01*
X0201379Y0079093D01*
X0203527Y0079093D01*
X0205512Y0078271D01*
X0207031Y0076752D01*
X0207453Y0075733D01*
X0207875Y0076752D01*
X0209394Y0078271D01*
X0211379Y0079093D01*
X0213527Y0079093D01*
X0215512Y0078271D01*
X0217031Y0076752D01*
X0217453Y0075733D01*
X0217875Y0076752D01*
X0219394Y0078271D01*
X0221379Y0079093D01*
X0223527Y0079093D01*
X0225512Y0078271D01*
X0227031Y0076752D01*
X0227453Y0075733D01*
X0227875Y0076752D01*
X0229169Y0078045D01*
X0229169Y0100606D01*
X0229669Y0101813D01*
X0243716Y0115860D01*
X0243716Y0160629D01*
X0243441Y0161292D01*
X0243441Y0162708D01*
X0243936Y0163903D01*
X0205017Y0124984D01*
X0204016Y0123983D01*
X0202708Y0123441D01*
X0199664Y0123441D01*
X0199875Y0123026D01*
X0200157Y0122158D01*
X0200300Y0121256D01*
X0200300Y0117132D01*
X0194632Y0117132D01*
X0194632Y0116868D01*
X0200300Y0116868D01*
X0200300Y0112744D01*
X0200157Y0111842D01*
X0199875Y0110974D01*
X0199461Y0110160D01*
X0198924Y0109422D01*
X0198278Y0108776D01*
X0197540Y0108239D01*
X0196726Y0107825D01*
X0195858Y0107543D01*
X0194956Y0107400D01*
X0194632Y0107400D01*
X0194632Y0116868D01*
X0194368Y0116868D01*
X0194368Y0107400D01*
X0194044Y0107400D01*
X0193142Y0107543D01*
X0192274Y0107825D01*
X0191460Y0108239D01*
X0190722Y0108776D01*
X0190076Y0109422D01*
X0189539Y0110160D01*
X0189289Y0110651D01*
X0189078Y0110141D01*
X0188059Y0109122D01*
X0188059Y0105042D01*
X0188021Y0104949D02*
X0232805Y0104949D01*
X0230806Y0102951D02*
X0186734Y0102951D01*
X0184736Y0100952D02*
X0229312Y0100952D01*
X0229169Y0098954D02*
X0182737Y0098954D01*
X0180739Y0096955D02*
X0229169Y0096955D01*
X0229169Y0094957D02*
X0178740Y0094957D01*
X0176742Y0092958D02*
X0229169Y0092958D01*
X0229169Y0090960D02*
X0174743Y0090960D01*
X0172745Y0088961D02*
X0229169Y0088961D01*
X0229169Y0086963D02*
X0170746Y0086963D01*
X0168748Y0084964D02*
X0229169Y0084964D01*
X0229169Y0082966D02*
X0166749Y0082966D01*
X0164750Y0080967D02*
X0229169Y0080967D01*
X0229169Y0078969D02*
X0223827Y0078969D01*
X0221079Y0078969D02*
X0213827Y0078969D01*
X0211079Y0078969D02*
X0203827Y0078969D01*
X0201079Y0078969D02*
X0193827Y0078969D01*
X0191079Y0078969D02*
X0183827Y0078969D01*
X0181079Y0078969D02*
X0173827Y0078969D01*
X0171079Y0078969D02*
X0163827Y0078969D01*
X0166812Y0076970D02*
X0168093Y0076970D01*
X0176812Y0076970D02*
X0178093Y0076970D01*
X0186812Y0076970D02*
X0188093Y0076970D01*
X0196812Y0076970D02*
X0198093Y0076970D01*
X0206812Y0076970D02*
X0208093Y0076970D01*
X0216812Y0076970D02*
X0218093Y0076970D01*
X0226812Y0076970D02*
X0228093Y0076970D01*
X0235737Y0078045D02*
X0237031Y0076752D01*
X0237453Y0075733D01*
X0237875Y0076752D01*
X0239394Y0078271D01*
X0241379Y0079093D01*
X0243527Y0079093D01*
X0243716Y0079015D01*
X0243716Y0082718D01*
X0241650Y0084784D01*
X0241650Y0089216D01*
X0244784Y0092350D01*
X0249216Y0092350D01*
X0252350Y0089216D01*
X0252350Y0084784D01*
X0250284Y0082718D01*
X0250284Y0080506D01*
X0251697Y0079093D01*
X0253527Y0079093D01*
X0253716Y0079015D01*
X0253716Y0152653D01*
X0254216Y0153860D01*
X0257781Y0157426D01*
X0257881Y0157667D01*
X0260083Y0159869D01*
X0261327Y0160384D01*
X0275598Y0160384D01*
X0281116Y0165902D01*
X0281116Y0191050D01*
X0279216Y0189150D01*
X0274784Y0189150D01*
X0271650Y0192284D01*
X0271650Y0195064D01*
X0270598Y0196116D01*
X0263682Y0196116D01*
X0261716Y0194150D01*
X0257284Y0194150D01*
X0254150Y0197284D01*
X0254150Y0201716D01*
X0257284Y0204850D01*
X0261716Y0204850D01*
X0263682Y0202884D01*
X0272673Y0202884D01*
X0273917Y0202369D01*
X0274869Y0201417D01*
X0274869Y0201417D01*
X0276436Y0199850D01*
X0279216Y0199850D01*
X0281116Y0197950D01*
X0281116Y0210598D01*
X0280598Y0211116D01*
X0268827Y0211116D01*
X0267583Y0211631D01*
X0266631Y0212583D01*
X0256631Y0222583D01*
X0256116Y0223827D01*
X0256116Y0223948D01*
X0254922Y0225141D01*
X0254500Y0226160D01*
X0254078Y0225141D01*
X0253059Y0224122D01*
X0253059Y0184878D01*
X0254078Y0183859D01*
X0254500Y0182840D01*
X0254922Y0183859D01*
X0256441Y0185378D01*
X0258426Y0186200D01*
X0260574Y0186200D01*
X0262559Y0185378D01*
X0264078Y0183859D01*
X0264289Y0183349D01*
X0264539Y0183840D01*
X0265076Y0184578D01*
X0265722Y0185224D01*
X0266460Y0185761D01*
X0267274Y0186175D01*
X0268142Y0186457D01*
X0269044Y0186600D01*
X0269368Y0186600D01*
X0269368Y0177132D01*
X0269632Y0177132D01*
X0269632Y0186600D01*
X0269956Y0186600D01*
X0270858Y0186457D01*
X0271726Y0186175D01*
X0272540Y0185761D01*
X0273278Y0185224D01*
X0273924Y0184578D01*
X0274461Y0183840D01*
X0274875Y0183026D01*
X0275157Y0182158D01*
X0275300Y0181256D01*
X0275300Y0177132D01*
X0269632Y0177132D01*
X0269632Y0176868D01*
X0275300Y0176868D01*
X0275300Y0172744D01*
X0275157Y0171842D01*
X0274875Y0170974D01*
X0274461Y0170160D01*
X0273924Y0169422D01*
X0273278Y0168776D01*
X0272540Y0168239D01*
X0271726Y0167825D01*
X0270858Y0167543D01*
X0269956Y0167400D01*
X0269632Y0167400D01*
X0269632Y0176868D01*
X0269368Y0176868D01*
X0269368Y0167400D01*
X0269044Y0167400D01*
X0268142Y0167543D01*
X0267274Y0167825D01*
X0266460Y0168239D01*
X0265722Y0168776D01*
X0265076Y0169422D01*
X0264539Y0170160D01*
X0264289Y0170651D01*
X0264078Y0170141D01*
X0262559Y0168622D01*
X0260574Y0167800D01*
X0258426Y0167800D01*
X0258007Y0167974D01*
X0250284Y0160251D01*
X0250284Y0113847D01*
X0249784Y0112640D01*
X0235737Y0098592D01*
X0235737Y0078045D01*
X0235737Y0078969D02*
X0241079Y0078969D01*
X0243716Y0080967D02*
X0235737Y0080967D01*
X0235737Y0082966D02*
X0243468Y0082966D01*
X0241650Y0084964D02*
X0235737Y0084964D01*
X0235737Y0086963D02*
X0241650Y0086963D01*
X0241650Y0088961D02*
X0235737Y0088961D01*
X0235737Y0090960D02*
X0243394Y0090960D01*
X0250606Y0090960D02*
X0253716Y0090960D01*
X0253716Y0092958D02*
X0235737Y0092958D01*
X0235737Y0094957D02*
X0253716Y0094957D01*
X0253716Y0096955D02*
X0235737Y0096955D01*
X0236098Y0098954D02*
X0253716Y0098954D01*
X0253716Y0100952D02*
X0238097Y0100952D01*
X0240095Y0102951D02*
X0253716Y0102951D01*
X0253716Y0104949D02*
X0242094Y0104949D01*
X0244093Y0106948D02*
X0253716Y0106948D01*
X0253716Y0108946D02*
X0246091Y0108946D01*
X0248090Y0110945D02*
X0253716Y0110945D01*
X0253716Y0112943D02*
X0249910Y0112943D01*
X0250284Y0114942D02*
X0253716Y0114942D01*
X0253716Y0116940D02*
X0250284Y0116940D01*
X0250284Y0118939D02*
X0253716Y0118939D01*
X0253716Y0120937D02*
X0250284Y0120937D01*
X0250284Y0122936D02*
X0253716Y0122936D01*
X0253716Y0124934D02*
X0250284Y0124934D01*
X0250284Y0126933D02*
X0253716Y0126933D01*
X0253716Y0128932D02*
X0250284Y0128932D01*
X0250284Y0130930D02*
X0253716Y0130930D01*
X0253716Y0132929D02*
X0250284Y0132929D01*
X0250284Y0134927D02*
X0253716Y0134927D01*
X0253716Y0136926D02*
X0250284Y0136926D01*
X0250284Y0138924D02*
X0253716Y0138924D01*
X0253716Y0140923D02*
X0250284Y0140923D01*
X0250284Y0142921D02*
X0253716Y0142921D01*
X0253716Y0144920D02*
X0250284Y0144920D01*
X0250284Y0146918D02*
X0253716Y0146918D01*
X0253716Y0148917D02*
X0250284Y0148917D01*
X0250284Y0150915D02*
X0253716Y0150915D01*
X0253824Y0152914D02*
X0250284Y0152914D01*
X0250284Y0154912D02*
X0255268Y0154912D01*
X0257266Y0156911D02*
X0250284Y0156911D01*
X0250284Y0158909D02*
X0259123Y0158909D01*
X0263402Y0153616D02*
X0273155Y0153616D01*
X0271869Y0152330D01*
X0271109Y0150494D01*
X0271109Y0148506D01*
X0271869Y0146670D01*
X0273275Y0145265D01*
X0275111Y0144504D01*
X0283889Y0144504D01*
X0285725Y0145265D01*
X0286016Y0145555D01*
X0286016Y0143445D01*
X0285725Y0143735D01*
X0283889Y0144496D01*
X0275111Y0144496D01*
X0273275Y0143735D01*
X0271869Y0142330D01*
X0271109Y0140494D01*
X0271109Y0138506D01*
X0271869Y0136670D01*
X0273275Y0135265D01*
X0275111Y0134504D01*
X0283889Y0134504D01*
X0285725Y0135265D01*
X0286016Y0135555D01*
X0286016Y0133445D01*
X0285725Y0133735D01*
X0283889Y0134496D01*
X0275111Y0134496D01*
X0273275Y0133735D01*
X0271869Y0132330D01*
X0271109Y0130494D01*
X0271109Y0128506D01*
X0271869Y0126670D01*
X0273275Y0125265D01*
X0275111Y0124504D01*
X0283889Y0124504D01*
X0285725Y0125265D01*
X0286016Y0125555D01*
X0286016Y0123055D01*
X0285757Y0123314D01*
X0285121Y0123776D01*
X0284419Y0124134D01*
X0283671Y0124377D01*
X0282894Y0124500D01*
X0279500Y0124500D01*
X0279500Y0119500D01*
X0279500Y0119500D01*
X0279500Y0114500D01*
X0282894Y0114500D01*
X0283671Y0114623D01*
X0284419Y0114866D01*
X0285121Y0115224D01*
X0285757Y0115686D01*
X0286016Y0115945D01*
X0286016Y0112490D01*
X0285106Y0113400D01*
X0283415Y0114100D01*
X0275585Y0114100D01*
X0273894Y0113400D01*
X0272600Y0112106D01*
X0271900Y0110415D01*
X0271900Y0108585D01*
X0272600Y0106894D01*
X0273894Y0105600D01*
X0275585Y0104900D01*
X0283415Y0104900D01*
X0285106Y0105600D01*
X0286016Y0106510D01*
X0286016Y0061109D01*
X0277227Y0061109D01*
X0277853Y0062619D01*
X0277853Y0064767D01*
X0277031Y0066752D01*
X0275512Y0068271D01*
X0274493Y0068693D01*
X0275512Y0069115D01*
X0277031Y0070634D01*
X0277853Y0072619D01*
X0277853Y0074767D01*
X0277031Y0076752D01*
X0275559Y0078223D01*
X0275559Y0080208D01*
X0275017Y0081516D01*
X0274550Y0081984D01*
X0274850Y0082284D01*
X0274850Y0086716D01*
X0271716Y0089850D01*
X0267284Y0089850D01*
X0264150Y0086716D01*
X0264150Y0082284D01*
X0267284Y0079150D01*
X0268441Y0079150D01*
X0268441Y0077318D01*
X0267875Y0076752D01*
X0267453Y0075733D01*
X0267031Y0076752D01*
X0265512Y0078271D01*
X0263527Y0079093D01*
X0261697Y0079093D01*
X0260284Y0080506D01*
X0260284Y0150640D01*
X0262426Y0152781D01*
X0262667Y0152881D01*
X0263402Y0153616D01*
X0262700Y0152914D02*
X0272453Y0152914D01*
X0271283Y0150915D02*
X0260560Y0150915D01*
X0260284Y0148917D02*
X0271109Y0148917D01*
X0271766Y0146918D02*
X0260284Y0146918D01*
X0260284Y0144920D02*
X0274108Y0144920D01*
X0272460Y0142921D02*
X0260284Y0142921D01*
X0260284Y0140923D02*
X0271286Y0140923D01*
X0271109Y0138924D02*
X0260284Y0138924D01*
X0260284Y0136926D02*
X0271763Y0136926D01*
X0274090Y0134927D02*
X0260284Y0134927D01*
X0260284Y0132929D02*
X0272468Y0132929D01*
X0271289Y0130930D02*
X0260284Y0130930D01*
X0260284Y0128932D02*
X0271109Y0128932D01*
X0271760Y0126933D02*
X0260284Y0126933D01*
X0260284Y0124934D02*
X0274072Y0124934D01*
X0274581Y0124134D02*
X0273879Y0123776D01*
X0273243Y0123314D01*
X0272686Y0122757D01*
X0272224Y0122121D01*
X0271866Y0121419D01*
X0271623Y0120671D01*
X0271500Y0119894D01*
X0271500Y0119500D01*
X0279500Y0119500D01*
X0279500Y0119500D01*
X0279500Y0119500D01*
X0279500Y0124500D01*
X0276106Y0124500D01*
X0275329Y0124377D01*
X0274581Y0124134D01*
X0272865Y0122936D02*
X0260284Y0122936D01*
X0260284Y0120937D02*
X0271710Y0120937D01*
X0271500Y0119500D02*
X0271500Y0119106D01*
X0271623Y0118329D01*
X0271866Y0117581D01*
X0272224Y0116879D01*
X0272686Y0116243D01*
X0273243Y0115686D01*
X0273879Y0115224D01*
X0274581Y0114866D01*
X0275329Y0114623D01*
X0276106Y0114500D01*
X0279500Y0114500D01*
X0279500Y0119500D01*
X0271500Y0119500D01*
X0271527Y0118939D02*
X0260284Y0118939D01*
X0260284Y0116940D02*
X0272193Y0116940D01*
X0274432Y0114942D02*
X0260284Y0114942D01*
X0260284Y0112943D02*
X0273438Y0112943D01*
X0272120Y0110945D02*
X0260284Y0110945D01*
X0260284Y0108946D02*
X0271900Y0108946D01*
X0272578Y0106948D02*
X0260284Y0106948D01*
X0260284Y0104949D02*
X0275466Y0104949D01*
X0283534Y0104949D02*
X0286016Y0104949D01*
X0286016Y0102951D02*
X0260284Y0102951D01*
X0260284Y0100952D02*
X0286016Y0100952D01*
X0286016Y0098954D02*
X0260284Y0098954D01*
X0260284Y0096955D02*
X0286016Y0096955D01*
X0286016Y0094957D02*
X0260284Y0094957D01*
X0260284Y0092958D02*
X0286016Y0092958D01*
X0286016Y0090960D02*
X0260284Y0090960D01*
X0260284Y0088961D02*
X0266395Y0088961D01*
X0264397Y0086963D02*
X0260284Y0086963D01*
X0260284Y0084964D02*
X0264150Y0084964D01*
X0264150Y0082966D02*
X0260284Y0082966D01*
X0260284Y0080967D02*
X0265467Y0080967D01*
X0263827Y0078969D02*
X0268441Y0078969D01*
X0268093Y0076970D02*
X0266812Y0076970D01*
X0275559Y0078969D02*
X0286016Y0078969D01*
X0286016Y0080967D02*
X0275245Y0080967D01*
X0274850Y0082966D02*
X0286016Y0082966D01*
X0286016Y0084964D02*
X0274850Y0084964D01*
X0274603Y0086963D02*
X0286016Y0086963D01*
X0286016Y0088961D02*
X0272605Y0088961D01*
X0276812Y0076970D02*
X0286016Y0076970D01*
X0286016Y0074972D02*
X0277768Y0074972D01*
X0277853Y0072973D02*
X0286016Y0072973D01*
X0286016Y0070975D02*
X0277172Y0070975D01*
X0275176Y0068976D02*
X0286016Y0068976D01*
X0286016Y0066978D02*
X0276805Y0066978D01*
X0277765Y0064979D02*
X0286016Y0064979D01*
X0286016Y0062981D02*
X0277853Y0062981D01*
X0253716Y0080967D02*
X0250284Y0080967D01*
X0250532Y0082966D02*
X0253716Y0082966D01*
X0253716Y0084964D02*
X0252350Y0084964D01*
X0252350Y0086963D02*
X0253716Y0086963D01*
X0253716Y0088961D02*
X0252350Y0088961D01*
X0238093Y0076970D02*
X0236812Y0076970D01*
X0234803Y0106948D02*
X0188059Y0106948D01*
X0188059Y0108946D02*
X0190551Y0108946D01*
X0194368Y0108946D02*
X0194632Y0108946D01*
X0194632Y0110945D02*
X0194368Y0110945D01*
X0194368Y0112943D02*
X0194632Y0112943D01*
X0194632Y0114942D02*
X0194368Y0114942D01*
X0194632Y0116940D02*
X0243716Y0116940D01*
X0243716Y0118939D02*
X0200300Y0118939D01*
X0200300Y0120937D02*
X0243716Y0120937D01*
X0243716Y0122936D02*
X0199904Y0122936D01*
X0204968Y0124934D02*
X0243716Y0124934D01*
X0243716Y0126933D02*
X0206966Y0126933D01*
X0208965Y0128932D02*
X0243716Y0128932D01*
X0243716Y0130930D02*
X0210963Y0130930D01*
X0212962Y0132929D02*
X0243716Y0132929D01*
X0243716Y0134927D02*
X0214960Y0134927D01*
X0216959Y0136926D02*
X0243716Y0136926D01*
X0243716Y0138924D02*
X0218957Y0138924D01*
X0220956Y0140923D02*
X0243716Y0140923D01*
X0243716Y0142921D02*
X0222954Y0142921D01*
X0224953Y0144920D02*
X0243716Y0144920D01*
X0243716Y0146918D02*
X0226951Y0146918D01*
X0228950Y0148917D02*
X0243716Y0148917D01*
X0243716Y0150915D02*
X0230948Y0150915D01*
X0232947Y0152914D02*
X0243716Y0152914D01*
X0243716Y0154912D02*
X0234945Y0154912D01*
X0236944Y0156911D02*
X0243716Y0156911D01*
X0243716Y0158909D02*
X0238942Y0158909D01*
X0240941Y0160908D02*
X0243600Y0160908D01*
X0243523Y0162906D02*
X0242939Y0162906D01*
X0250941Y0160908D02*
X0276122Y0160908D01*
X0278120Y0162906D02*
X0252939Y0162906D01*
X0254938Y0164905D02*
X0280119Y0164905D01*
X0281116Y0166903D02*
X0256936Y0166903D01*
X0262838Y0168902D02*
X0265596Y0168902D01*
X0269368Y0168902D02*
X0269632Y0168902D01*
X0269632Y0170900D02*
X0269368Y0170900D01*
X0269368Y0172899D02*
X0269632Y0172899D01*
X0269632Y0174897D02*
X0269368Y0174897D01*
X0269632Y0176896D02*
X0281116Y0176896D01*
X0281116Y0178894D02*
X0275300Y0178894D01*
X0275300Y0180893D02*
X0281116Y0180893D01*
X0281116Y0182891D02*
X0274919Y0182891D01*
X0273613Y0184890D02*
X0281116Y0184890D01*
X0281116Y0186888D02*
X0253059Y0186888D01*
X0253059Y0184890D02*
X0255953Y0184890D01*
X0254521Y0182891D02*
X0254479Y0182891D01*
X0253059Y0188887D02*
X0281116Y0188887D01*
X0281116Y0190885D02*
X0280951Y0190885D01*
X0273049Y0190885D02*
X0253059Y0190885D01*
X0253059Y0192884D02*
X0271650Y0192884D01*
X0271650Y0194882D02*
X0262448Y0194882D01*
X0256552Y0194882D02*
X0253059Y0194882D01*
X0253059Y0196881D02*
X0254553Y0196881D01*
X0254150Y0198879D02*
X0253059Y0198879D01*
X0253059Y0200878D02*
X0254150Y0200878D01*
X0253059Y0202876D02*
X0255310Y0202876D01*
X0253059Y0204875D02*
X0281116Y0204875D01*
X0281116Y0206873D02*
X0253059Y0206873D01*
X0253059Y0208872D02*
X0281116Y0208872D01*
X0280843Y0210870D02*
X0253059Y0210870D01*
X0253059Y0212869D02*
X0266345Y0212869D01*
X0264346Y0214868D02*
X0253059Y0214868D01*
X0253059Y0216866D02*
X0262348Y0216866D01*
X0260349Y0218865D02*
X0253059Y0218865D01*
X0253059Y0220863D02*
X0258351Y0220863D01*
X0256516Y0222862D02*
X0253059Y0222862D01*
X0253797Y0224860D02*
X0255203Y0224860D01*
X0263861Y0224925D02*
X0264078Y0225141D01*
X0264289Y0225651D01*
X0264539Y0225160D01*
X0265076Y0224422D01*
X0265722Y0223776D01*
X0266460Y0223239D01*
X0267274Y0222825D01*
X0268142Y0222543D01*
X0269044Y0222400D01*
X0269368Y0222400D01*
X0269368Y0231868D01*
X0269632Y0231868D01*
X0269632Y0232132D01*
X0275300Y0232132D01*
X0275300Y0233667D01*
X0286016Y0222951D01*
X0286016Y0215270D01*
X0283917Y0217369D01*
X0282673Y0217884D01*
X0270902Y0217884D01*
X0263861Y0224925D01*
X0263926Y0224860D02*
X0264757Y0224860D01*
X0265924Y0222862D02*
X0267202Y0222862D01*
X0267923Y0220863D02*
X0286016Y0220863D01*
X0286016Y0218865D02*
X0269922Y0218865D01*
X0269956Y0222400D02*
X0270858Y0222543D01*
X0271726Y0222825D01*
X0272540Y0223239D01*
X0273278Y0223776D01*
X0273924Y0224422D01*
X0274461Y0225160D01*
X0274875Y0225974D01*
X0275157Y0226842D01*
X0275300Y0227744D01*
X0275300Y0231868D01*
X0269632Y0231868D01*
X0269632Y0222400D01*
X0269956Y0222400D01*
X0269632Y0222862D02*
X0269368Y0222862D01*
X0269368Y0224860D02*
X0269632Y0224860D01*
X0269632Y0226859D02*
X0269368Y0226859D01*
X0269368Y0228857D02*
X0269632Y0228857D01*
X0269632Y0230856D02*
X0269368Y0230856D01*
X0275300Y0230856D02*
X0278111Y0230856D01*
X0276113Y0232854D02*
X0275300Y0232854D01*
X0275300Y0228857D02*
X0280110Y0228857D01*
X0282108Y0226859D02*
X0275160Y0226859D01*
X0274243Y0224860D02*
X0284107Y0224860D01*
X0286016Y0222862D02*
X0271798Y0222862D01*
X0284420Y0216866D02*
X0286016Y0216866D01*
X0297984Y0216866D02*
X0334421Y0216866D01*
X0334421Y0214868D02*
X0297984Y0214868D01*
X0297984Y0212869D02*
X0334421Y0212869D01*
X0334421Y0210870D02*
X0297984Y0210870D01*
X0297984Y0208872D02*
X0334421Y0208872D01*
X0334421Y0206873D02*
X0297984Y0206873D01*
X0297984Y0204875D02*
X0334421Y0204875D01*
X0334421Y0202876D02*
X0297984Y0202876D01*
X0297984Y0200878D02*
X0334421Y0200878D01*
X0334421Y0198879D02*
X0297984Y0198879D01*
X0297984Y0196881D02*
X0334421Y0196881D01*
X0334421Y0194882D02*
X0297984Y0194882D01*
X0297984Y0192884D02*
X0334421Y0192884D01*
X0334421Y0190885D02*
X0297984Y0190885D01*
X0297984Y0188887D02*
X0334421Y0188887D01*
X0334421Y0186888D02*
X0297984Y0186888D01*
X0297984Y0184890D02*
X0334421Y0184890D01*
X0334421Y0182891D02*
X0297984Y0182891D01*
X0297984Y0180893D02*
X0334421Y0180893D01*
X0334421Y0178894D02*
X0297984Y0178894D01*
X0297984Y0176896D02*
X0299330Y0176896D01*
X0304670Y0176896D02*
X0334421Y0176896D01*
X0334421Y0174897D02*
X0306669Y0174897D01*
X0307350Y0172899D02*
X0334421Y0172899D01*
X0334421Y0170900D02*
X0315666Y0170900D01*
X0317350Y0168902D02*
X0334421Y0168902D01*
X0327406Y0166903D02*
X0317350Y0166903D01*
X0317350Y0164905D02*
X0326114Y0164905D01*
X0326166Y0162906D02*
X0315472Y0162906D01*
X0315533Y0154912D02*
X0315284Y0154912D01*
X0315284Y0152914D02*
X0334421Y0152914D01*
X0334421Y0154912D02*
X0324845Y0154912D01*
X0326314Y0156911D02*
X0334421Y0156911D01*
X0334421Y0158909D02*
X0326545Y0158909D01*
X0327532Y0160908D02*
X0325545Y0160908D01*
X0334421Y0150915D02*
X0315284Y0150915D01*
X0315284Y0148917D02*
X0334421Y0148917D01*
X0334421Y0146918D02*
X0315284Y0146918D01*
X0315284Y0144920D02*
X0334421Y0144920D01*
X0334421Y0142921D02*
X0325969Y0142921D01*
X0326545Y0140923D02*
X0334421Y0140923D01*
X0334421Y0138924D02*
X0326120Y0138924D01*
X0326511Y0136926D02*
X0323753Y0136926D01*
X0326038Y0134927D02*
X0315284Y0134927D01*
X0315284Y0132929D02*
X0326597Y0132929D01*
X0334421Y0130930D02*
X0315284Y0130930D01*
X0315284Y0128932D02*
X0334421Y0128932D01*
X0334421Y0126933D02*
X0315284Y0126933D01*
X0315284Y0124934D02*
X0334421Y0124934D01*
X0334421Y0122936D02*
X0315284Y0122936D01*
X0315284Y0120937D02*
X0334421Y0120937D01*
X0334421Y0118939D02*
X0315284Y0118939D01*
X0315284Y0116940D02*
X0334421Y0116940D01*
X0334421Y0114942D02*
X0315284Y0114942D01*
X0315284Y0112943D02*
X0334421Y0112943D01*
X0334421Y0110945D02*
X0315284Y0110945D01*
X0315284Y0108946D02*
X0334421Y0108946D01*
X0334421Y0106948D02*
X0315284Y0106948D01*
X0315284Y0104949D02*
X0334421Y0104949D01*
X0334421Y0102951D02*
X0315284Y0102951D01*
X0315284Y0100952D02*
X0319926Y0100952D01*
X0318566Y0098954D02*
X0315284Y0098954D01*
X0315284Y0096955D02*
X0326868Y0096955D01*
X0326868Y0098954D02*
X0327132Y0098954D01*
X0327132Y0100952D02*
X0326868Y0100952D01*
X0334074Y0100952D02*
X0334421Y0100952D01*
X0320015Y0092958D02*
X0318186Y0092958D01*
X0318595Y0094957D02*
X0316188Y0094957D01*
X0320185Y0090960D02*
X0320499Y0090960D01*
X0286016Y0112943D02*
X0285562Y0112943D01*
X0286016Y0114942D02*
X0284568Y0114942D01*
X0279500Y0114942D02*
X0279500Y0114942D01*
X0279500Y0116940D02*
X0279500Y0116940D01*
X0279500Y0118939D02*
X0279500Y0118939D01*
X0279500Y0120937D02*
X0279500Y0120937D01*
X0279500Y0122936D02*
X0279500Y0122936D01*
X0284928Y0124934D02*
X0286016Y0124934D01*
X0286016Y0134927D02*
X0284910Y0134927D01*
X0284892Y0144920D02*
X0286016Y0144920D01*
X0315284Y0136926D02*
X0316625Y0136926D01*
X0281116Y0168902D02*
X0273404Y0168902D01*
X0274838Y0170900D02*
X0281116Y0170900D01*
X0281116Y0172899D02*
X0275300Y0172899D01*
X0275300Y0174897D02*
X0281116Y0174897D01*
X0269632Y0178894D02*
X0269368Y0178894D01*
X0269368Y0180893D02*
X0269632Y0180893D01*
X0269632Y0182891D02*
X0269368Y0182891D01*
X0269368Y0184890D02*
X0269632Y0184890D01*
X0265387Y0184890D02*
X0263047Y0184890D01*
X0280187Y0198879D02*
X0281116Y0198879D01*
X0281116Y0200878D02*
X0275408Y0200878D01*
X0272692Y0202876D02*
X0281116Y0202876D01*
X0297984Y0218865D02*
X0334421Y0218865D01*
X0334421Y0220863D02*
X0297984Y0220863D01*
X0297984Y0222862D02*
X0334421Y0222862D01*
X0334421Y0224860D02*
X0297984Y0224860D01*
X0297812Y0226859D02*
X0334421Y0226859D01*
X0334421Y0228857D02*
X0296333Y0228857D01*
X0294428Y0230856D02*
X0334421Y0230856D01*
X0334421Y0232854D02*
X0292429Y0232854D01*
X0290431Y0234853D02*
X0334421Y0234853D01*
X0334421Y0236851D02*
X0288432Y0236851D01*
X0286434Y0238850D02*
X0334421Y0238850D01*
X0334421Y0240848D02*
X0284435Y0240848D01*
X0282437Y0242847D02*
X0334421Y0242847D01*
X0334421Y0244845D02*
X0280438Y0244845D01*
X0278440Y0246844D02*
X0334421Y0246844D01*
X0334421Y0248842D02*
X0276441Y0248842D01*
X0275216Y0250841D02*
X0334421Y0250841D01*
X0334421Y0252839D02*
X0273043Y0252839D01*
X0316141Y0268827D02*
X0050359Y0268827D01*
X0050937Y0270826D02*
X0315563Y0270826D01*
X0315563Y0272824D02*
X0050937Y0272824D01*
X0050504Y0274823D02*
X0315996Y0274823D01*
X0316824Y0276821D02*
X0049676Y0276821D01*
X0047819Y0278820D02*
X0318681Y0278820D01*
X0330319Y0278820D02*
X0334209Y0278820D01*
X0334421Y0276821D02*
X0332176Y0276821D01*
X0333004Y0274823D02*
X0334421Y0274823D01*
X0334421Y0272824D02*
X0333437Y0272824D01*
X0333437Y0270826D02*
X0334421Y0270826D01*
X0334421Y0268827D02*
X0332859Y0268827D01*
X0331968Y0266829D02*
X0334421Y0266829D01*
X0334421Y0264830D02*
X0329969Y0264830D01*
X0334421Y0262832D02*
X0029500Y0262832D01*
X0029500Y0264830D02*
X0036531Y0264830D01*
X0034532Y0266829D02*
X0029500Y0266829D01*
X0029500Y0268827D02*
X0033641Y0268827D01*
X0033063Y0270826D02*
X0029500Y0270826D01*
X0029500Y0272824D02*
X0033063Y0272824D01*
X0033496Y0274823D02*
X0029500Y0274823D01*
X0029500Y0276821D02*
X0034324Y0276821D01*
X0036181Y0278820D02*
X0029712Y0278820D01*
X0047469Y0264830D02*
X0319031Y0264830D01*
X0317032Y0266829D02*
X0049468Y0266829D01*
X0029500Y0260833D02*
X0334421Y0260833D01*
X0334421Y0258835D02*
X0029500Y0258835D01*
X0029500Y0256836D02*
X0334421Y0256836D01*
X0334421Y0254838D02*
X0029500Y0254838D01*
X0029500Y0252839D02*
X0083457Y0252839D01*
X0080913Y0250841D02*
X0029500Y0250841D01*
X0029500Y0248842D02*
X0078915Y0248842D01*
X0076916Y0246844D02*
X0029500Y0246844D01*
X0029500Y0244845D02*
X0076016Y0244845D01*
X0076016Y0242847D02*
X0029500Y0242847D01*
X0029500Y0240848D02*
X0057576Y0240848D01*
X0054918Y0238850D02*
X0029500Y0238850D01*
X0029500Y0236851D02*
X0054100Y0236851D01*
X0054100Y0234853D02*
X0029500Y0234853D01*
X0029500Y0232854D02*
X0054100Y0232854D01*
X0054100Y0230856D02*
X0029500Y0230856D01*
X0029500Y0228857D02*
X0054100Y0228857D01*
X0054211Y0226859D02*
X0029500Y0226859D01*
X0029500Y0224860D02*
X0055203Y0224860D01*
X0055941Y0222862D02*
X0029500Y0222862D01*
X0029500Y0220863D02*
X0055941Y0220863D01*
X0055941Y0218865D02*
X0029500Y0218865D01*
X0029500Y0216866D02*
X0055941Y0216866D01*
X0055941Y0214868D02*
X0029500Y0214868D01*
X0029500Y0212869D02*
X0055941Y0212869D01*
X0055941Y0210870D02*
X0029500Y0210870D01*
X0029500Y0208872D02*
X0055941Y0208872D01*
X0055941Y0206873D02*
X0029500Y0206873D01*
X0029500Y0204875D02*
X0055941Y0204875D01*
X0055941Y0202876D02*
X0029500Y0202876D01*
X0029500Y0200878D02*
X0055941Y0200878D01*
X0055941Y0198879D02*
X0029500Y0198879D01*
X0029500Y0196881D02*
X0055941Y0196881D01*
X0055941Y0194882D02*
X0029500Y0194882D01*
X0029500Y0192884D02*
X0055941Y0192884D01*
X0055941Y0190885D02*
X0029500Y0190885D01*
X0029500Y0188887D02*
X0055941Y0188887D01*
X0055941Y0186888D02*
X0029500Y0186888D01*
X0029500Y0184890D02*
X0055941Y0184890D01*
X0054521Y0182891D02*
X0029500Y0182891D01*
X0029500Y0180893D02*
X0054100Y0180893D01*
X0054100Y0178894D02*
X0029500Y0178894D01*
X0029500Y0176896D02*
X0054100Y0176896D01*
X0054100Y0174897D02*
X0029500Y0174897D01*
X0029500Y0172899D02*
X0054100Y0172899D01*
X0054608Y0170900D02*
X0029500Y0170900D01*
X0029500Y0168902D02*
X0056161Y0168902D01*
X0062838Y0168902D02*
X0066161Y0168902D01*
X0064608Y0170900D02*
X0064392Y0170900D01*
X0072191Y0166903D02*
X0029500Y0166903D01*
X0029500Y0164905D02*
X0072191Y0164905D01*
X0072191Y0162906D02*
X0029500Y0162906D01*
X0029500Y0160908D02*
X0072191Y0160908D01*
X0072191Y0158909D02*
X0029500Y0158909D01*
X0029500Y0156911D02*
X0072191Y0156911D01*
X0072191Y0154912D02*
X0029500Y0154912D01*
X0029500Y0152914D02*
X0072191Y0152914D01*
X0072191Y0150915D02*
X0029500Y0150915D01*
X0029500Y0148917D02*
X0072191Y0148917D01*
X0072191Y0146918D02*
X0029500Y0146918D01*
X0029500Y0144920D02*
X0072191Y0144920D01*
X0072191Y0142921D02*
X0029500Y0142921D01*
X0029500Y0140923D02*
X0072191Y0140923D01*
X0072191Y0138924D02*
X0029500Y0138924D01*
X0029500Y0136926D02*
X0072191Y0136926D01*
X0072191Y0134927D02*
X0029500Y0134927D01*
X0029500Y0132929D02*
X0072191Y0132929D01*
X0072191Y0130930D02*
X0029500Y0130930D01*
X0029500Y0128932D02*
X0072191Y0128932D01*
X0072191Y0126933D02*
X0029500Y0126933D01*
X0112838Y0168902D02*
X0116161Y0168902D01*
X0114608Y0170900D02*
X0114392Y0170900D01*
X0122838Y0168902D02*
X0125596Y0168902D01*
X0129368Y0168902D02*
X0129632Y0168902D01*
X0129632Y0167400D02*
X0129956Y0167400D01*
X0130858Y0167543D01*
X0131726Y0167825D01*
X0132540Y0168239D01*
X0133278Y0168776D01*
X0133924Y0169422D01*
X0134461Y0170160D01*
X0134875Y0170974D01*
X0135157Y0171842D01*
X0135300Y0172744D01*
X0135300Y0176868D01*
X0129632Y0176868D01*
X0129632Y0167400D01*
X0129632Y0170900D02*
X0129368Y0170900D01*
X0129368Y0172899D02*
X0129632Y0172899D01*
X0129632Y0174897D02*
X0129368Y0174897D01*
X0129632Y0176896D02*
X0151476Y0176896D01*
X0151400Y0174897D02*
X0135300Y0174897D01*
X0135300Y0172899D02*
X0151400Y0172899D01*
X0152680Y0170900D02*
X0134838Y0170900D01*
X0133404Y0168902D02*
X0154679Y0168902D01*
X0159321Y0168902D02*
X0168868Y0168902D01*
X0170867Y0170900D02*
X0161320Y0170900D01*
X0162600Y0172899D02*
X0172866Y0172899D01*
X0174864Y0174897D02*
X0162600Y0174897D01*
X0162524Y0176896D02*
X0176863Y0176896D01*
X0178861Y0178894D02*
X0160525Y0178894D01*
X0160284Y0180893D02*
X0194100Y0180893D01*
X0194521Y0182891D02*
X0160284Y0182891D01*
X0160284Y0184890D02*
X0195941Y0184890D01*
X0195941Y0186888D02*
X0160284Y0186888D01*
X0160284Y0188887D02*
X0195941Y0188887D01*
X0195941Y0190885D02*
X0160284Y0190885D01*
X0160284Y0192884D02*
X0195941Y0192884D01*
X0195941Y0194882D02*
X0160284Y0194882D01*
X0160284Y0196881D02*
X0195941Y0196881D01*
X0195941Y0198879D02*
X0160284Y0198879D01*
X0160284Y0200878D02*
X0195941Y0200878D01*
X0195941Y0202876D02*
X0160284Y0202876D01*
X0160284Y0204875D02*
X0195941Y0204875D01*
X0195941Y0206873D02*
X0160284Y0206873D01*
X0160284Y0208872D02*
X0195941Y0208872D01*
X0195941Y0210870D02*
X0160284Y0210870D01*
X0160284Y0212869D02*
X0195941Y0212869D01*
X0195941Y0214868D02*
X0160284Y0214868D01*
X0160284Y0216866D02*
X0195941Y0216866D01*
X0195941Y0218865D02*
X0160284Y0218865D01*
X0160284Y0220863D02*
X0195941Y0220863D01*
X0195941Y0222862D02*
X0160284Y0222862D01*
X0160284Y0224860D02*
X0195203Y0224860D01*
X0194211Y0226859D02*
X0160284Y0226859D01*
X0159786Y0228857D02*
X0194100Y0228857D01*
X0194100Y0230856D02*
X0157789Y0230856D01*
X0155791Y0232854D02*
X0194100Y0232854D01*
X0194100Y0234853D02*
X0153792Y0234853D01*
X0151793Y0236851D02*
X0194100Y0236851D01*
X0194918Y0238850D02*
X0149795Y0238850D01*
X0147796Y0240848D02*
X0197576Y0240848D01*
X0201424Y0240848D02*
X0207576Y0240848D01*
X0204918Y0238850D02*
X0204082Y0238850D01*
X0211424Y0240848D02*
X0215941Y0240848D01*
X0215998Y0242847D02*
X0145798Y0242847D01*
X0143799Y0244845D02*
X0217312Y0244845D01*
X0214918Y0238850D02*
X0214082Y0238850D01*
X0153716Y0224860D02*
X0134243Y0224860D01*
X0134461Y0225160D02*
X0134875Y0225974D01*
X0135157Y0226842D01*
X0135300Y0227744D01*
X0135300Y0231868D01*
X0129632Y0231868D01*
X0129632Y0222400D01*
X0129956Y0222400D01*
X0130858Y0222543D01*
X0131726Y0222825D01*
X0132540Y0223239D01*
X0133278Y0223776D01*
X0133924Y0224422D01*
X0134461Y0225160D01*
X0135160Y0226859D02*
X0152497Y0226859D01*
X0150498Y0228857D02*
X0135300Y0228857D01*
X0135300Y0230856D02*
X0148500Y0230856D01*
X0146501Y0232854D02*
X0135300Y0232854D01*
X0135300Y0234853D02*
X0144503Y0234853D01*
X0142504Y0236851D02*
X0135206Y0236851D01*
X0134453Y0238850D02*
X0140506Y0238850D01*
X0138507Y0240848D02*
X0132368Y0240848D01*
X0129632Y0230856D02*
X0129368Y0230856D01*
X0129368Y0228857D02*
X0129632Y0228857D01*
X0129632Y0226859D02*
X0129368Y0226859D01*
X0129368Y0224860D02*
X0129632Y0224860D01*
X0129632Y0222862D02*
X0129368Y0222862D01*
X0127202Y0222862D02*
X0120723Y0222862D01*
X0118277Y0222862D02*
X0113059Y0222862D01*
X0113059Y0220863D02*
X0153716Y0220863D01*
X0153716Y0218865D02*
X0113059Y0218865D01*
X0113059Y0216866D02*
X0153716Y0216866D01*
X0153716Y0214868D02*
X0113059Y0214868D01*
X0113059Y0212869D02*
X0153716Y0212869D01*
X0153716Y0210870D02*
X0113059Y0210870D01*
X0113059Y0208872D02*
X0153716Y0208872D01*
X0153716Y0206873D02*
X0113059Y0206873D01*
X0113059Y0204875D02*
X0153716Y0204875D01*
X0153716Y0202876D02*
X0113059Y0202876D01*
X0113059Y0200878D02*
X0153716Y0200878D01*
X0153716Y0198879D02*
X0113059Y0198879D01*
X0113059Y0196881D02*
X0153716Y0196881D01*
X0153716Y0194882D02*
X0113059Y0194882D01*
X0113059Y0192884D02*
X0153716Y0192884D01*
X0153716Y0190885D02*
X0113059Y0190885D01*
X0113059Y0188887D02*
X0153716Y0188887D01*
X0153716Y0186888D02*
X0113059Y0186888D01*
X0113059Y0184890D02*
X0115953Y0184890D01*
X0114521Y0182891D02*
X0114479Y0182891D01*
X0123047Y0184890D02*
X0125387Y0184890D01*
X0129368Y0184890D02*
X0129632Y0184890D01*
X0129632Y0186600D02*
X0129632Y0177132D01*
X0135300Y0177132D01*
X0135300Y0181256D01*
X0135157Y0182158D01*
X0134875Y0183026D01*
X0134461Y0183840D01*
X0133924Y0184578D01*
X0133278Y0185224D01*
X0132540Y0185761D01*
X0131726Y0186175D01*
X0130858Y0186457D01*
X0129956Y0186600D01*
X0129632Y0186600D01*
X0129632Y0182891D02*
X0129368Y0182891D01*
X0129368Y0180893D02*
X0129632Y0180893D01*
X0129632Y0178894D02*
X0129368Y0178894D01*
X0135300Y0178894D02*
X0153475Y0178894D01*
X0153716Y0180893D02*
X0135300Y0180893D01*
X0134919Y0182891D02*
X0153716Y0182891D01*
X0153716Y0184890D02*
X0133613Y0184890D01*
X0131798Y0222862D02*
X0153716Y0222862D01*
X0124757Y0224860D02*
X0123797Y0224860D01*
X0115203Y0224860D02*
X0113797Y0224860D01*
X0076016Y0240848D02*
X0071424Y0240848D01*
X0074082Y0238850D02*
X0074918Y0238850D01*
X0067576Y0240848D02*
X0061424Y0240848D01*
X0064082Y0238850D02*
X0064918Y0238850D01*
X0200300Y0114942D02*
X0242797Y0114942D01*
X0240799Y0112943D02*
X0200300Y0112943D01*
X0199860Y0110945D02*
X0238800Y0110945D01*
X0236802Y0108946D02*
X0198449Y0108946D01*
X0307350Y0170900D02*
X0308334Y0170900D01*
D23*
X0302000Y0172000D02*
X0302000Y0097000D01*
X0277000Y0157000D02*
X0262000Y0157000D01*
X0260750Y0155750D01*
X0277000Y0157000D02*
X0284500Y0164500D01*
X0284500Y0212000D01*
X0282000Y0214500D01*
X0269500Y0214500D01*
X0259500Y0224500D01*
X0259500Y0232000D01*
X0259500Y0199500D02*
X0272000Y0199500D01*
X0277000Y0194500D01*
M02*
