G75*
%MOIN*%
%OFA0B0*%
%FSLAX25Y25*%
%IPPOS*%
%LPD*%
%AMOC8*
5,1,8,0,0,1.08239X$1,22.5*
%
%ADD10C,0.00000*%
D10*
X0032374Y0034500D02*
X0331547Y0034500D01*
X0331737Y0034502D01*
X0331927Y0034509D01*
X0332117Y0034521D01*
X0332307Y0034537D01*
X0332496Y0034557D01*
X0332685Y0034583D01*
X0332873Y0034612D01*
X0333060Y0034647D01*
X0333246Y0034686D01*
X0333431Y0034729D01*
X0333616Y0034777D01*
X0333799Y0034829D01*
X0333980Y0034885D01*
X0334160Y0034946D01*
X0334339Y0035012D01*
X0334516Y0035081D01*
X0334692Y0035155D01*
X0334865Y0035233D01*
X0335037Y0035316D01*
X0335206Y0035402D01*
X0335374Y0035492D01*
X0335539Y0035587D01*
X0335702Y0035685D01*
X0335862Y0035788D01*
X0336020Y0035894D01*
X0336175Y0036004D01*
X0336328Y0036117D01*
X0336478Y0036235D01*
X0336624Y0036356D01*
X0336768Y0036480D01*
X0336909Y0036608D01*
X0337047Y0036739D01*
X0337182Y0036874D01*
X0337313Y0037012D01*
X0337441Y0037153D01*
X0337565Y0037297D01*
X0337686Y0037443D01*
X0337804Y0037593D01*
X0337917Y0037746D01*
X0338027Y0037901D01*
X0338133Y0038059D01*
X0338236Y0038219D01*
X0338334Y0038382D01*
X0338429Y0038547D01*
X0338519Y0038715D01*
X0338605Y0038884D01*
X0338688Y0039056D01*
X0338766Y0039229D01*
X0338840Y0039405D01*
X0338909Y0039582D01*
X0338975Y0039761D01*
X0339036Y0039941D01*
X0339092Y0040122D01*
X0339144Y0040305D01*
X0339192Y0040490D01*
X0339235Y0040675D01*
X0339274Y0040861D01*
X0339309Y0041048D01*
X0339338Y0041236D01*
X0339364Y0041425D01*
X0339384Y0041614D01*
X0339400Y0041804D01*
X0339412Y0041994D01*
X0339419Y0042184D01*
X0339421Y0042374D01*
X0339421Y0277827D01*
X0339419Y0278017D01*
X0339412Y0278207D01*
X0339400Y0278397D01*
X0339384Y0278587D01*
X0339364Y0278776D01*
X0339338Y0278965D01*
X0339309Y0279153D01*
X0339274Y0279340D01*
X0339235Y0279526D01*
X0339192Y0279711D01*
X0339144Y0279896D01*
X0339092Y0280079D01*
X0339036Y0280260D01*
X0338975Y0280440D01*
X0338909Y0280619D01*
X0338840Y0280796D01*
X0338766Y0280972D01*
X0338688Y0281145D01*
X0338605Y0281317D01*
X0338519Y0281486D01*
X0338429Y0281654D01*
X0338334Y0281819D01*
X0338236Y0281982D01*
X0338133Y0282142D01*
X0338027Y0282300D01*
X0337917Y0282455D01*
X0337804Y0282608D01*
X0337686Y0282758D01*
X0337565Y0282904D01*
X0337441Y0283048D01*
X0337313Y0283189D01*
X0337182Y0283327D01*
X0337047Y0283462D01*
X0336909Y0283593D01*
X0336768Y0283721D01*
X0336624Y0283845D01*
X0336478Y0283966D01*
X0336328Y0284084D01*
X0336175Y0284197D01*
X0336020Y0284307D01*
X0335862Y0284413D01*
X0335702Y0284516D01*
X0335539Y0284614D01*
X0335374Y0284709D01*
X0335206Y0284799D01*
X0335037Y0284885D01*
X0334865Y0284968D01*
X0334692Y0285046D01*
X0334516Y0285120D01*
X0334339Y0285189D01*
X0334160Y0285255D01*
X0333980Y0285316D01*
X0333799Y0285372D01*
X0333616Y0285424D01*
X0333431Y0285472D01*
X0333246Y0285515D01*
X0333060Y0285554D01*
X0332873Y0285589D01*
X0332685Y0285618D01*
X0332496Y0285644D01*
X0332307Y0285664D01*
X0332117Y0285680D01*
X0331927Y0285692D01*
X0331737Y0285699D01*
X0331547Y0285701D01*
X0032374Y0285701D01*
X0032184Y0285699D01*
X0031994Y0285692D01*
X0031804Y0285680D01*
X0031614Y0285664D01*
X0031425Y0285644D01*
X0031236Y0285618D01*
X0031048Y0285589D01*
X0030861Y0285554D01*
X0030675Y0285515D01*
X0030490Y0285472D01*
X0030305Y0285424D01*
X0030122Y0285372D01*
X0029941Y0285316D01*
X0029761Y0285255D01*
X0029582Y0285189D01*
X0029405Y0285120D01*
X0029229Y0285046D01*
X0029056Y0284968D01*
X0028884Y0284885D01*
X0028715Y0284799D01*
X0028547Y0284709D01*
X0028382Y0284614D01*
X0028219Y0284516D01*
X0028059Y0284413D01*
X0027901Y0284307D01*
X0027746Y0284197D01*
X0027593Y0284084D01*
X0027443Y0283966D01*
X0027297Y0283845D01*
X0027153Y0283721D01*
X0027012Y0283593D01*
X0026874Y0283462D01*
X0026739Y0283327D01*
X0026608Y0283189D01*
X0026480Y0283048D01*
X0026356Y0282904D01*
X0026235Y0282758D01*
X0026117Y0282608D01*
X0026004Y0282455D01*
X0025894Y0282300D01*
X0025788Y0282142D01*
X0025685Y0281982D01*
X0025587Y0281819D01*
X0025492Y0281654D01*
X0025402Y0281486D01*
X0025316Y0281317D01*
X0025233Y0281145D01*
X0025155Y0280972D01*
X0025081Y0280796D01*
X0025012Y0280619D01*
X0024946Y0280440D01*
X0024885Y0280260D01*
X0024829Y0280079D01*
X0024777Y0279896D01*
X0024729Y0279711D01*
X0024686Y0279526D01*
X0024647Y0279340D01*
X0024612Y0279153D01*
X0024583Y0278965D01*
X0024557Y0278776D01*
X0024537Y0278587D01*
X0024521Y0278397D01*
X0024509Y0278207D01*
X0024502Y0278017D01*
X0024500Y0277827D01*
X0024500Y0042374D01*
X0024502Y0042184D01*
X0024509Y0041994D01*
X0024521Y0041804D01*
X0024537Y0041614D01*
X0024557Y0041425D01*
X0024583Y0041236D01*
X0024612Y0041048D01*
X0024647Y0040861D01*
X0024686Y0040675D01*
X0024729Y0040490D01*
X0024777Y0040305D01*
X0024829Y0040122D01*
X0024885Y0039941D01*
X0024946Y0039761D01*
X0025012Y0039582D01*
X0025081Y0039405D01*
X0025155Y0039229D01*
X0025233Y0039056D01*
X0025316Y0038884D01*
X0025402Y0038715D01*
X0025492Y0038547D01*
X0025587Y0038382D01*
X0025685Y0038219D01*
X0025788Y0038059D01*
X0025894Y0037901D01*
X0026004Y0037746D01*
X0026117Y0037593D01*
X0026235Y0037443D01*
X0026356Y0037297D01*
X0026480Y0037153D01*
X0026608Y0037012D01*
X0026739Y0036874D01*
X0026874Y0036739D01*
X0027012Y0036608D01*
X0027153Y0036480D01*
X0027297Y0036356D01*
X0027443Y0036235D01*
X0027593Y0036117D01*
X0027746Y0036004D01*
X0027901Y0035894D01*
X0028059Y0035788D01*
X0028219Y0035685D01*
X0028382Y0035587D01*
X0028547Y0035492D01*
X0028715Y0035402D01*
X0028884Y0035316D01*
X0029056Y0035233D01*
X0029229Y0035155D01*
X0029405Y0035081D01*
X0029582Y0035012D01*
X0029761Y0034946D01*
X0029941Y0034885D01*
X0030122Y0034829D01*
X0030305Y0034777D01*
X0030490Y0034729D01*
X0030675Y0034686D01*
X0030861Y0034647D01*
X0031048Y0034612D01*
X0031236Y0034583D01*
X0031425Y0034557D01*
X0031614Y0034537D01*
X0031804Y0034521D01*
X0031994Y0034509D01*
X0032184Y0034502D01*
X0032374Y0034500D01*
X0035563Y0047000D02*
X0035565Y0047125D01*
X0035571Y0047250D01*
X0035581Y0047374D01*
X0035595Y0047498D01*
X0035612Y0047622D01*
X0035634Y0047745D01*
X0035660Y0047867D01*
X0035689Y0047989D01*
X0035722Y0048109D01*
X0035760Y0048228D01*
X0035800Y0048347D01*
X0035845Y0048463D01*
X0035893Y0048578D01*
X0035945Y0048692D01*
X0036001Y0048804D01*
X0036060Y0048914D01*
X0036122Y0049022D01*
X0036188Y0049129D01*
X0036257Y0049233D01*
X0036330Y0049334D01*
X0036405Y0049434D01*
X0036484Y0049531D01*
X0036566Y0049625D01*
X0036651Y0049717D01*
X0036738Y0049806D01*
X0036829Y0049892D01*
X0036922Y0049975D01*
X0037018Y0050056D01*
X0037116Y0050133D01*
X0037216Y0050207D01*
X0037319Y0050278D01*
X0037424Y0050345D01*
X0037532Y0050410D01*
X0037641Y0050470D01*
X0037752Y0050528D01*
X0037865Y0050581D01*
X0037979Y0050631D01*
X0038095Y0050678D01*
X0038212Y0050720D01*
X0038331Y0050759D01*
X0038451Y0050795D01*
X0038572Y0050826D01*
X0038694Y0050854D01*
X0038816Y0050877D01*
X0038940Y0050897D01*
X0039064Y0050913D01*
X0039188Y0050925D01*
X0039313Y0050933D01*
X0039438Y0050937D01*
X0039562Y0050937D01*
X0039687Y0050933D01*
X0039812Y0050925D01*
X0039936Y0050913D01*
X0040060Y0050897D01*
X0040184Y0050877D01*
X0040306Y0050854D01*
X0040428Y0050826D01*
X0040549Y0050795D01*
X0040669Y0050759D01*
X0040788Y0050720D01*
X0040905Y0050678D01*
X0041021Y0050631D01*
X0041135Y0050581D01*
X0041248Y0050528D01*
X0041359Y0050470D01*
X0041469Y0050410D01*
X0041576Y0050345D01*
X0041681Y0050278D01*
X0041784Y0050207D01*
X0041884Y0050133D01*
X0041982Y0050056D01*
X0042078Y0049975D01*
X0042171Y0049892D01*
X0042262Y0049806D01*
X0042349Y0049717D01*
X0042434Y0049625D01*
X0042516Y0049531D01*
X0042595Y0049434D01*
X0042670Y0049334D01*
X0042743Y0049233D01*
X0042812Y0049129D01*
X0042878Y0049022D01*
X0042940Y0048914D01*
X0042999Y0048804D01*
X0043055Y0048692D01*
X0043107Y0048578D01*
X0043155Y0048463D01*
X0043200Y0048347D01*
X0043240Y0048228D01*
X0043278Y0048109D01*
X0043311Y0047989D01*
X0043340Y0047867D01*
X0043366Y0047745D01*
X0043388Y0047622D01*
X0043405Y0047498D01*
X0043419Y0047374D01*
X0043429Y0047250D01*
X0043435Y0047125D01*
X0043437Y0047000D01*
X0043435Y0046875D01*
X0043429Y0046750D01*
X0043419Y0046626D01*
X0043405Y0046502D01*
X0043388Y0046378D01*
X0043366Y0046255D01*
X0043340Y0046133D01*
X0043311Y0046011D01*
X0043278Y0045891D01*
X0043240Y0045772D01*
X0043200Y0045653D01*
X0043155Y0045537D01*
X0043107Y0045422D01*
X0043055Y0045308D01*
X0042999Y0045196D01*
X0042940Y0045086D01*
X0042878Y0044978D01*
X0042812Y0044871D01*
X0042743Y0044767D01*
X0042670Y0044666D01*
X0042595Y0044566D01*
X0042516Y0044469D01*
X0042434Y0044375D01*
X0042349Y0044283D01*
X0042262Y0044194D01*
X0042171Y0044108D01*
X0042078Y0044025D01*
X0041982Y0043944D01*
X0041884Y0043867D01*
X0041784Y0043793D01*
X0041681Y0043722D01*
X0041576Y0043655D01*
X0041468Y0043590D01*
X0041359Y0043530D01*
X0041248Y0043472D01*
X0041135Y0043419D01*
X0041021Y0043369D01*
X0040905Y0043322D01*
X0040788Y0043280D01*
X0040669Y0043241D01*
X0040549Y0043205D01*
X0040428Y0043174D01*
X0040306Y0043146D01*
X0040184Y0043123D01*
X0040060Y0043103D01*
X0039936Y0043087D01*
X0039812Y0043075D01*
X0039687Y0043067D01*
X0039562Y0043063D01*
X0039438Y0043063D01*
X0039313Y0043067D01*
X0039188Y0043075D01*
X0039064Y0043087D01*
X0038940Y0043103D01*
X0038816Y0043123D01*
X0038694Y0043146D01*
X0038572Y0043174D01*
X0038451Y0043205D01*
X0038331Y0043241D01*
X0038212Y0043280D01*
X0038095Y0043322D01*
X0037979Y0043369D01*
X0037865Y0043419D01*
X0037752Y0043472D01*
X0037641Y0043530D01*
X0037531Y0043590D01*
X0037424Y0043655D01*
X0037319Y0043722D01*
X0037216Y0043793D01*
X0037116Y0043867D01*
X0037018Y0043944D01*
X0036922Y0044025D01*
X0036829Y0044108D01*
X0036738Y0044194D01*
X0036651Y0044283D01*
X0036566Y0044375D01*
X0036484Y0044469D01*
X0036405Y0044566D01*
X0036330Y0044666D01*
X0036257Y0044767D01*
X0036188Y0044871D01*
X0036122Y0044978D01*
X0036060Y0045086D01*
X0036001Y0045196D01*
X0035945Y0045308D01*
X0035893Y0045422D01*
X0035845Y0045537D01*
X0035800Y0045653D01*
X0035760Y0045772D01*
X0035722Y0045891D01*
X0035689Y0046011D01*
X0035660Y0046133D01*
X0035634Y0046255D01*
X0035612Y0046378D01*
X0035595Y0046502D01*
X0035581Y0046626D01*
X0035571Y0046750D01*
X0035565Y0046875D01*
X0035563Y0047000D01*
X0038063Y0272000D02*
X0038065Y0272125D01*
X0038071Y0272250D01*
X0038081Y0272374D01*
X0038095Y0272498D01*
X0038112Y0272622D01*
X0038134Y0272745D01*
X0038160Y0272867D01*
X0038189Y0272989D01*
X0038222Y0273109D01*
X0038260Y0273228D01*
X0038300Y0273347D01*
X0038345Y0273463D01*
X0038393Y0273578D01*
X0038445Y0273692D01*
X0038501Y0273804D01*
X0038560Y0273914D01*
X0038622Y0274022D01*
X0038688Y0274129D01*
X0038757Y0274233D01*
X0038830Y0274334D01*
X0038905Y0274434D01*
X0038984Y0274531D01*
X0039066Y0274625D01*
X0039151Y0274717D01*
X0039238Y0274806D01*
X0039329Y0274892D01*
X0039422Y0274975D01*
X0039518Y0275056D01*
X0039616Y0275133D01*
X0039716Y0275207D01*
X0039819Y0275278D01*
X0039924Y0275345D01*
X0040032Y0275410D01*
X0040141Y0275470D01*
X0040252Y0275528D01*
X0040365Y0275581D01*
X0040479Y0275631D01*
X0040595Y0275678D01*
X0040712Y0275720D01*
X0040831Y0275759D01*
X0040951Y0275795D01*
X0041072Y0275826D01*
X0041194Y0275854D01*
X0041316Y0275877D01*
X0041440Y0275897D01*
X0041564Y0275913D01*
X0041688Y0275925D01*
X0041813Y0275933D01*
X0041938Y0275937D01*
X0042062Y0275937D01*
X0042187Y0275933D01*
X0042312Y0275925D01*
X0042436Y0275913D01*
X0042560Y0275897D01*
X0042684Y0275877D01*
X0042806Y0275854D01*
X0042928Y0275826D01*
X0043049Y0275795D01*
X0043169Y0275759D01*
X0043288Y0275720D01*
X0043405Y0275678D01*
X0043521Y0275631D01*
X0043635Y0275581D01*
X0043748Y0275528D01*
X0043859Y0275470D01*
X0043969Y0275410D01*
X0044076Y0275345D01*
X0044181Y0275278D01*
X0044284Y0275207D01*
X0044384Y0275133D01*
X0044482Y0275056D01*
X0044578Y0274975D01*
X0044671Y0274892D01*
X0044762Y0274806D01*
X0044849Y0274717D01*
X0044934Y0274625D01*
X0045016Y0274531D01*
X0045095Y0274434D01*
X0045170Y0274334D01*
X0045243Y0274233D01*
X0045312Y0274129D01*
X0045378Y0274022D01*
X0045440Y0273914D01*
X0045499Y0273804D01*
X0045555Y0273692D01*
X0045607Y0273578D01*
X0045655Y0273463D01*
X0045700Y0273347D01*
X0045740Y0273228D01*
X0045778Y0273109D01*
X0045811Y0272989D01*
X0045840Y0272867D01*
X0045866Y0272745D01*
X0045888Y0272622D01*
X0045905Y0272498D01*
X0045919Y0272374D01*
X0045929Y0272250D01*
X0045935Y0272125D01*
X0045937Y0272000D01*
X0045935Y0271875D01*
X0045929Y0271750D01*
X0045919Y0271626D01*
X0045905Y0271502D01*
X0045888Y0271378D01*
X0045866Y0271255D01*
X0045840Y0271133D01*
X0045811Y0271011D01*
X0045778Y0270891D01*
X0045740Y0270772D01*
X0045700Y0270653D01*
X0045655Y0270537D01*
X0045607Y0270422D01*
X0045555Y0270308D01*
X0045499Y0270196D01*
X0045440Y0270086D01*
X0045378Y0269978D01*
X0045312Y0269871D01*
X0045243Y0269767D01*
X0045170Y0269666D01*
X0045095Y0269566D01*
X0045016Y0269469D01*
X0044934Y0269375D01*
X0044849Y0269283D01*
X0044762Y0269194D01*
X0044671Y0269108D01*
X0044578Y0269025D01*
X0044482Y0268944D01*
X0044384Y0268867D01*
X0044284Y0268793D01*
X0044181Y0268722D01*
X0044076Y0268655D01*
X0043968Y0268590D01*
X0043859Y0268530D01*
X0043748Y0268472D01*
X0043635Y0268419D01*
X0043521Y0268369D01*
X0043405Y0268322D01*
X0043288Y0268280D01*
X0043169Y0268241D01*
X0043049Y0268205D01*
X0042928Y0268174D01*
X0042806Y0268146D01*
X0042684Y0268123D01*
X0042560Y0268103D01*
X0042436Y0268087D01*
X0042312Y0268075D01*
X0042187Y0268067D01*
X0042062Y0268063D01*
X0041938Y0268063D01*
X0041813Y0268067D01*
X0041688Y0268075D01*
X0041564Y0268087D01*
X0041440Y0268103D01*
X0041316Y0268123D01*
X0041194Y0268146D01*
X0041072Y0268174D01*
X0040951Y0268205D01*
X0040831Y0268241D01*
X0040712Y0268280D01*
X0040595Y0268322D01*
X0040479Y0268369D01*
X0040365Y0268419D01*
X0040252Y0268472D01*
X0040141Y0268530D01*
X0040031Y0268590D01*
X0039924Y0268655D01*
X0039819Y0268722D01*
X0039716Y0268793D01*
X0039616Y0268867D01*
X0039518Y0268944D01*
X0039422Y0269025D01*
X0039329Y0269108D01*
X0039238Y0269194D01*
X0039151Y0269283D01*
X0039066Y0269375D01*
X0038984Y0269469D01*
X0038905Y0269566D01*
X0038830Y0269666D01*
X0038757Y0269767D01*
X0038688Y0269871D01*
X0038622Y0269978D01*
X0038560Y0270086D01*
X0038501Y0270196D01*
X0038445Y0270308D01*
X0038393Y0270422D01*
X0038345Y0270537D01*
X0038300Y0270653D01*
X0038260Y0270772D01*
X0038222Y0270891D01*
X0038189Y0271011D01*
X0038160Y0271133D01*
X0038134Y0271255D01*
X0038112Y0271378D01*
X0038095Y0271502D01*
X0038081Y0271626D01*
X0038071Y0271750D01*
X0038065Y0271875D01*
X0038063Y0272000D01*
X0320563Y0272000D02*
X0320565Y0272125D01*
X0320571Y0272250D01*
X0320581Y0272374D01*
X0320595Y0272498D01*
X0320612Y0272622D01*
X0320634Y0272745D01*
X0320660Y0272867D01*
X0320689Y0272989D01*
X0320722Y0273109D01*
X0320760Y0273228D01*
X0320800Y0273347D01*
X0320845Y0273463D01*
X0320893Y0273578D01*
X0320945Y0273692D01*
X0321001Y0273804D01*
X0321060Y0273914D01*
X0321122Y0274022D01*
X0321188Y0274129D01*
X0321257Y0274233D01*
X0321330Y0274334D01*
X0321405Y0274434D01*
X0321484Y0274531D01*
X0321566Y0274625D01*
X0321651Y0274717D01*
X0321738Y0274806D01*
X0321829Y0274892D01*
X0321922Y0274975D01*
X0322018Y0275056D01*
X0322116Y0275133D01*
X0322216Y0275207D01*
X0322319Y0275278D01*
X0322424Y0275345D01*
X0322532Y0275410D01*
X0322641Y0275470D01*
X0322752Y0275528D01*
X0322865Y0275581D01*
X0322979Y0275631D01*
X0323095Y0275678D01*
X0323212Y0275720D01*
X0323331Y0275759D01*
X0323451Y0275795D01*
X0323572Y0275826D01*
X0323694Y0275854D01*
X0323816Y0275877D01*
X0323940Y0275897D01*
X0324064Y0275913D01*
X0324188Y0275925D01*
X0324313Y0275933D01*
X0324438Y0275937D01*
X0324562Y0275937D01*
X0324687Y0275933D01*
X0324812Y0275925D01*
X0324936Y0275913D01*
X0325060Y0275897D01*
X0325184Y0275877D01*
X0325306Y0275854D01*
X0325428Y0275826D01*
X0325549Y0275795D01*
X0325669Y0275759D01*
X0325788Y0275720D01*
X0325905Y0275678D01*
X0326021Y0275631D01*
X0326135Y0275581D01*
X0326248Y0275528D01*
X0326359Y0275470D01*
X0326469Y0275410D01*
X0326576Y0275345D01*
X0326681Y0275278D01*
X0326784Y0275207D01*
X0326884Y0275133D01*
X0326982Y0275056D01*
X0327078Y0274975D01*
X0327171Y0274892D01*
X0327262Y0274806D01*
X0327349Y0274717D01*
X0327434Y0274625D01*
X0327516Y0274531D01*
X0327595Y0274434D01*
X0327670Y0274334D01*
X0327743Y0274233D01*
X0327812Y0274129D01*
X0327878Y0274022D01*
X0327940Y0273914D01*
X0327999Y0273804D01*
X0328055Y0273692D01*
X0328107Y0273578D01*
X0328155Y0273463D01*
X0328200Y0273347D01*
X0328240Y0273228D01*
X0328278Y0273109D01*
X0328311Y0272989D01*
X0328340Y0272867D01*
X0328366Y0272745D01*
X0328388Y0272622D01*
X0328405Y0272498D01*
X0328419Y0272374D01*
X0328429Y0272250D01*
X0328435Y0272125D01*
X0328437Y0272000D01*
X0328435Y0271875D01*
X0328429Y0271750D01*
X0328419Y0271626D01*
X0328405Y0271502D01*
X0328388Y0271378D01*
X0328366Y0271255D01*
X0328340Y0271133D01*
X0328311Y0271011D01*
X0328278Y0270891D01*
X0328240Y0270772D01*
X0328200Y0270653D01*
X0328155Y0270537D01*
X0328107Y0270422D01*
X0328055Y0270308D01*
X0327999Y0270196D01*
X0327940Y0270086D01*
X0327878Y0269978D01*
X0327812Y0269871D01*
X0327743Y0269767D01*
X0327670Y0269666D01*
X0327595Y0269566D01*
X0327516Y0269469D01*
X0327434Y0269375D01*
X0327349Y0269283D01*
X0327262Y0269194D01*
X0327171Y0269108D01*
X0327078Y0269025D01*
X0326982Y0268944D01*
X0326884Y0268867D01*
X0326784Y0268793D01*
X0326681Y0268722D01*
X0326576Y0268655D01*
X0326468Y0268590D01*
X0326359Y0268530D01*
X0326248Y0268472D01*
X0326135Y0268419D01*
X0326021Y0268369D01*
X0325905Y0268322D01*
X0325788Y0268280D01*
X0325669Y0268241D01*
X0325549Y0268205D01*
X0325428Y0268174D01*
X0325306Y0268146D01*
X0325184Y0268123D01*
X0325060Y0268103D01*
X0324936Y0268087D01*
X0324812Y0268075D01*
X0324687Y0268067D01*
X0324562Y0268063D01*
X0324438Y0268063D01*
X0324313Y0268067D01*
X0324188Y0268075D01*
X0324064Y0268087D01*
X0323940Y0268103D01*
X0323816Y0268123D01*
X0323694Y0268146D01*
X0323572Y0268174D01*
X0323451Y0268205D01*
X0323331Y0268241D01*
X0323212Y0268280D01*
X0323095Y0268322D01*
X0322979Y0268369D01*
X0322865Y0268419D01*
X0322752Y0268472D01*
X0322641Y0268530D01*
X0322531Y0268590D01*
X0322424Y0268655D01*
X0322319Y0268722D01*
X0322216Y0268793D01*
X0322116Y0268867D01*
X0322018Y0268944D01*
X0321922Y0269025D01*
X0321829Y0269108D01*
X0321738Y0269194D01*
X0321651Y0269283D01*
X0321566Y0269375D01*
X0321484Y0269469D01*
X0321405Y0269566D01*
X0321330Y0269666D01*
X0321257Y0269767D01*
X0321188Y0269871D01*
X0321122Y0269978D01*
X0321060Y0270086D01*
X0321001Y0270196D01*
X0320945Y0270308D01*
X0320893Y0270422D01*
X0320845Y0270537D01*
X0320800Y0270653D01*
X0320760Y0270772D01*
X0320722Y0270891D01*
X0320689Y0271011D01*
X0320660Y0271133D01*
X0320634Y0271255D01*
X0320612Y0271378D01*
X0320595Y0271502D01*
X0320581Y0271626D01*
X0320571Y0271750D01*
X0320565Y0271875D01*
X0320563Y0272000D01*
X0320563Y0047000D02*
X0320565Y0047125D01*
X0320571Y0047250D01*
X0320581Y0047374D01*
X0320595Y0047498D01*
X0320612Y0047622D01*
X0320634Y0047745D01*
X0320660Y0047867D01*
X0320689Y0047989D01*
X0320722Y0048109D01*
X0320760Y0048228D01*
X0320800Y0048347D01*
X0320845Y0048463D01*
X0320893Y0048578D01*
X0320945Y0048692D01*
X0321001Y0048804D01*
X0321060Y0048914D01*
X0321122Y0049022D01*
X0321188Y0049129D01*
X0321257Y0049233D01*
X0321330Y0049334D01*
X0321405Y0049434D01*
X0321484Y0049531D01*
X0321566Y0049625D01*
X0321651Y0049717D01*
X0321738Y0049806D01*
X0321829Y0049892D01*
X0321922Y0049975D01*
X0322018Y0050056D01*
X0322116Y0050133D01*
X0322216Y0050207D01*
X0322319Y0050278D01*
X0322424Y0050345D01*
X0322532Y0050410D01*
X0322641Y0050470D01*
X0322752Y0050528D01*
X0322865Y0050581D01*
X0322979Y0050631D01*
X0323095Y0050678D01*
X0323212Y0050720D01*
X0323331Y0050759D01*
X0323451Y0050795D01*
X0323572Y0050826D01*
X0323694Y0050854D01*
X0323816Y0050877D01*
X0323940Y0050897D01*
X0324064Y0050913D01*
X0324188Y0050925D01*
X0324313Y0050933D01*
X0324438Y0050937D01*
X0324562Y0050937D01*
X0324687Y0050933D01*
X0324812Y0050925D01*
X0324936Y0050913D01*
X0325060Y0050897D01*
X0325184Y0050877D01*
X0325306Y0050854D01*
X0325428Y0050826D01*
X0325549Y0050795D01*
X0325669Y0050759D01*
X0325788Y0050720D01*
X0325905Y0050678D01*
X0326021Y0050631D01*
X0326135Y0050581D01*
X0326248Y0050528D01*
X0326359Y0050470D01*
X0326469Y0050410D01*
X0326576Y0050345D01*
X0326681Y0050278D01*
X0326784Y0050207D01*
X0326884Y0050133D01*
X0326982Y0050056D01*
X0327078Y0049975D01*
X0327171Y0049892D01*
X0327262Y0049806D01*
X0327349Y0049717D01*
X0327434Y0049625D01*
X0327516Y0049531D01*
X0327595Y0049434D01*
X0327670Y0049334D01*
X0327743Y0049233D01*
X0327812Y0049129D01*
X0327878Y0049022D01*
X0327940Y0048914D01*
X0327999Y0048804D01*
X0328055Y0048692D01*
X0328107Y0048578D01*
X0328155Y0048463D01*
X0328200Y0048347D01*
X0328240Y0048228D01*
X0328278Y0048109D01*
X0328311Y0047989D01*
X0328340Y0047867D01*
X0328366Y0047745D01*
X0328388Y0047622D01*
X0328405Y0047498D01*
X0328419Y0047374D01*
X0328429Y0047250D01*
X0328435Y0047125D01*
X0328437Y0047000D01*
X0328435Y0046875D01*
X0328429Y0046750D01*
X0328419Y0046626D01*
X0328405Y0046502D01*
X0328388Y0046378D01*
X0328366Y0046255D01*
X0328340Y0046133D01*
X0328311Y0046011D01*
X0328278Y0045891D01*
X0328240Y0045772D01*
X0328200Y0045653D01*
X0328155Y0045537D01*
X0328107Y0045422D01*
X0328055Y0045308D01*
X0327999Y0045196D01*
X0327940Y0045086D01*
X0327878Y0044978D01*
X0327812Y0044871D01*
X0327743Y0044767D01*
X0327670Y0044666D01*
X0327595Y0044566D01*
X0327516Y0044469D01*
X0327434Y0044375D01*
X0327349Y0044283D01*
X0327262Y0044194D01*
X0327171Y0044108D01*
X0327078Y0044025D01*
X0326982Y0043944D01*
X0326884Y0043867D01*
X0326784Y0043793D01*
X0326681Y0043722D01*
X0326576Y0043655D01*
X0326468Y0043590D01*
X0326359Y0043530D01*
X0326248Y0043472D01*
X0326135Y0043419D01*
X0326021Y0043369D01*
X0325905Y0043322D01*
X0325788Y0043280D01*
X0325669Y0043241D01*
X0325549Y0043205D01*
X0325428Y0043174D01*
X0325306Y0043146D01*
X0325184Y0043123D01*
X0325060Y0043103D01*
X0324936Y0043087D01*
X0324812Y0043075D01*
X0324687Y0043067D01*
X0324562Y0043063D01*
X0324438Y0043063D01*
X0324313Y0043067D01*
X0324188Y0043075D01*
X0324064Y0043087D01*
X0323940Y0043103D01*
X0323816Y0043123D01*
X0323694Y0043146D01*
X0323572Y0043174D01*
X0323451Y0043205D01*
X0323331Y0043241D01*
X0323212Y0043280D01*
X0323095Y0043322D01*
X0322979Y0043369D01*
X0322865Y0043419D01*
X0322752Y0043472D01*
X0322641Y0043530D01*
X0322531Y0043590D01*
X0322424Y0043655D01*
X0322319Y0043722D01*
X0322216Y0043793D01*
X0322116Y0043867D01*
X0322018Y0043944D01*
X0321922Y0044025D01*
X0321829Y0044108D01*
X0321738Y0044194D01*
X0321651Y0044283D01*
X0321566Y0044375D01*
X0321484Y0044469D01*
X0321405Y0044566D01*
X0321330Y0044666D01*
X0321257Y0044767D01*
X0321188Y0044871D01*
X0321122Y0044978D01*
X0321060Y0045086D01*
X0321001Y0045196D01*
X0320945Y0045308D01*
X0320893Y0045422D01*
X0320845Y0045537D01*
X0320800Y0045653D01*
X0320760Y0045772D01*
X0320722Y0045891D01*
X0320689Y0046011D01*
X0320660Y0046133D01*
X0320634Y0046255D01*
X0320612Y0046378D01*
X0320595Y0046502D01*
X0320581Y0046626D01*
X0320571Y0046750D01*
X0320565Y0046875D01*
X0320563Y0047000D01*
M02*
