%
M48
M72
T01C0.02362
T02C0.02756
T03C0.03150
T04C0.03937
T05C0.04000
T06C0.04528
T07C0.07874
%
T01
X332000Y135031
X332000Y163969
T02
X320189Y158260
X320189Y140740
T03
X312000Y167000
X302000Y172000
X277000Y194500
X259500Y199500
X204500Y157000
X237000Y149500
X302000Y97000
X269500Y84500
X247000Y87000
X214500Y49500
X239500Y47550
X179500Y49500
X164500Y52000
X144500Y47300
X87000Y129500
X157000Y174500
T04
X152453Y73693
X142453Y73693
X142453Y63693
X152453Y63693
X162453Y63693
X172453Y63693
X182453Y63693
X192453Y63693
X202453Y63693
X212453Y63693
X222453Y63693
X232453Y63693
X242453Y63693
X252453Y63693
X262453Y63693
X272453Y63693
X272453Y73693
X262453Y73693
X252453Y73693
X242453Y73693
X232453Y73693
X222453Y73693
X212453Y73693
X202453Y73693
X192453Y73693
X182453Y73693
X172453Y73693
X162453Y73693
X132453Y73693
X122453Y73693
X122453Y63693
X132453Y63693
X112453Y63693
X102453Y63693
X102453Y73693
X112453Y73693
X92453Y73693
X82453Y73693
X82453Y63693
X92453Y63693
T05
X279500Y109500
X279500Y119500
T06
X279500Y129500
X279500Y139500
X279500Y149500
X269500Y177000
X259500Y177000
X249500Y177000
X239500Y177000
X229500Y177000
X219500Y177000
X209500Y177000
X199500Y177000
X129500Y177000
X119500Y177000
X109500Y177000
X99500Y177000
X89500Y177000
X79500Y177000
X69500Y177000
X59500Y177000
X59500Y232000
X69500Y232000
X79500Y232000
X89500Y232000
X99500Y232000
X109500Y232000
X119500Y232000
X129500Y232000
X199500Y232000
X209500Y232000
X219500Y232000
X229500Y232000
X239500Y232000
X249500Y232000
X259500Y232000
X269500Y232000
X194500Y117000
X184500Y117000
X174500Y117000
X164500Y117000
X154500Y117000
X144500Y117000
X134500Y117000
X124500Y117000
X327000Y97000
X327000Y87000
T07
X39500Y47000
X324500Y47000
X324500Y272000
X42000Y272000
M30
