G75*
%MOIN*%
%OFA0B0*%
%FSLAX25Y25*%
%IPPOS*%
%LPD*%
%AMOC8*
5,1,8,0,0,1.08239X$1,22.5*
%
%ADD10C,0.08858*%
%ADD11C,0.02362*%
%ADD12R,0.07000X0.07000*%
%ADD13C,0.01600*%
%ADD14R,0.08000X0.08000*%
D10*
X0054681Y0045252D02*
X0054681Y0054110D01*
X0064681Y0054110D02*
X0064681Y0045252D01*
X0074681Y0045252D02*
X0074681Y0054110D01*
X0084681Y0054110D02*
X0084681Y0045252D01*
X0094681Y0045252D02*
X0094681Y0054110D01*
X0104681Y0054110D02*
X0104681Y0045252D01*
X0114681Y0045252D02*
X0114681Y0054110D01*
X0124681Y0054110D02*
X0124681Y0045252D01*
D11*
X0031437Y0024119D02*
X0031437Y0123244D01*
X0031838Y0122275D01*
X0034275Y0119838D01*
X0037458Y0118520D01*
X0040904Y0118520D01*
X0044087Y0119838D01*
X0046524Y0122275D01*
X0047843Y0125458D01*
X0047843Y0128904D01*
X0046524Y0132087D01*
X0044485Y0134126D01*
X0146877Y0134126D01*
X0144838Y0132087D01*
X0143520Y0128904D01*
X0143520Y0125458D01*
X0144838Y0122275D01*
X0147275Y0119838D01*
X0150458Y0118520D01*
X0153904Y0118520D01*
X0157087Y0119838D01*
X0159524Y0122275D01*
X0159846Y0123054D01*
X0159846Y0024309D01*
X0159524Y0025087D01*
X0157087Y0027524D01*
X0153904Y0028843D01*
X0150458Y0028843D01*
X0147275Y0027524D01*
X0144838Y0025087D01*
X0143520Y0021904D01*
X0143520Y0018458D01*
X0144838Y0015275D01*
X0147275Y0012838D01*
X0148244Y0012437D01*
X0043119Y0012437D01*
X0044087Y0012838D01*
X0046524Y0015275D01*
X0047843Y0018458D01*
X0047843Y0021904D01*
X0046524Y0025087D01*
X0044087Y0027524D01*
X0040904Y0028843D01*
X0037458Y0028843D01*
X0034275Y0027524D01*
X0031838Y0025087D01*
X0031437Y0024119D01*
X0031437Y0025542D02*
X0032293Y0025542D01*
X0031437Y0027903D02*
X0035189Y0027903D01*
X0031437Y0030263D02*
X0159846Y0030263D01*
X0159846Y0032624D02*
X0031437Y0032624D01*
X0031437Y0034985D02*
X0159846Y0034985D01*
X0159846Y0037345D02*
X0031437Y0037345D01*
X0031437Y0039706D02*
X0051842Y0039706D01*
X0051163Y0039987D02*
X0049416Y0041734D01*
X0048471Y0044017D01*
X0048471Y0055346D01*
X0049416Y0057628D01*
X0051163Y0059375D01*
X0053446Y0060320D01*
X0055916Y0060320D01*
X0058199Y0059375D01*
X0059681Y0057893D01*
X0061163Y0059375D01*
X0063446Y0060320D01*
X0065916Y0060320D01*
X0068199Y0059375D01*
X0069681Y0057893D01*
X0071163Y0059375D01*
X0073446Y0060320D01*
X0075916Y0060320D01*
X0078199Y0059375D01*
X0079681Y0057893D01*
X0081163Y0059375D01*
X0083446Y0060320D01*
X0085916Y0060320D01*
X0088199Y0059375D01*
X0089681Y0057893D01*
X0091163Y0059375D01*
X0093446Y0060320D01*
X0095916Y0060320D01*
X0098199Y0059375D01*
X0099681Y0057893D01*
X0101163Y0059375D01*
X0103446Y0060320D01*
X0105916Y0060320D01*
X0108199Y0059375D01*
X0109681Y0057893D01*
X0111163Y0059375D01*
X0113446Y0060320D01*
X0115916Y0060320D01*
X0118199Y0059375D01*
X0119438Y0058136D01*
X0119701Y0058478D01*
X0120313Y0059091D01*
X0121001Y0059618D01*
X0121751Y0060051D01*
X0122552Y0060383D01*
X0123389Y0060607D01*
X0124248Y0060720D01*
X0124386Y0060720D01*
X0124386Y0049976D01*
X0124976Y0049976D01*
X0124976Y0060720D01*
X0125114Y0060720D01*
X0125973Y0060607D01*
X0126810Y0060383D01*
X0127611Y0060051D01*
X0128361Y0059618D01*
X0129049Y0059091D01*
X0129662Y0058478D01*
X0130189Y0057791D01*
X0130622Y0057040D01*
X0130954Y0056240D01*
X0131178Y0055403D01*
X0131291Y0054543D01*
X0131291Y0049976D01*
X0124976Y0049976D01*
X0124976Y0049386D01*
X0124976Y0038642D01*
X0125114Y0038642D01*
X0125973Y0038755D01*
X0126810Y0038979D01*
X0127611Y0039311D01*
X0128361Y0039744D01*
X0129049Y0040271D01*
X0129662Y0040884D01*
X0130189Y0041572D01*
X0130622Y0042322D01*
X0130954Y0043123D01*
X0131178Y0043960D01*
X0131291Y0044819D01*
X0131291Y0049386D01*
X0124976Y0049386D01*
X0124386Y0049386D01*
X0124386Y0038642D01*
X0124248Y0038642D01*
X0123389Y0038755D01*
X0122552Y0038979D01*
X0121751Y0039311D01*
X0121001Y0039744D01*
X0120313Y0040271D01*
X0119701Y0040884D01*
X0119438Y0041226D01*
X0118199Y0039987D01*
X0115916Y0039042D01*
X0113446Y0039042D01*
X0111163Y0039987D01*
X0109681Y0041469D01*
X0108199Y0039987D01*
X0105916Y0039042D01*
X0103446Y0039042D01*
X0101163Y0039987D01*
X0099681Y0041469D01*
X0098199Y0039987D01*
X0095916Y0039042D01*
X0093446Y0039042D01*
X0091163Y0039987D01*
X0089681Y0041469D01*
X0088199Y0039987D01*
X0085916Y0039042D01*
X0083446Y0039042D01*
X0081163Y0039987D01*
X0079681Y0041469D01*
X0078199Y0039987D01*
X0075916Y0039042D01*
X0073446Y0039042D01*
X0071163Y0039987D01*
X0069681Y0041469D01*
X0068199Y0039987D01*
X0065916Y0039042D01*
X0063446Y0039042D01*
X0061163Y0039987D01*
X0059681Y0041469D01*
X0058199Y0039987D01*
X0055916Y0039042D01*
X0053446Y0039042D01*
X0051163Y0039987D01*
X0049279Y0042067D02*
X0031437Y0042067D01*
X0031437Y0044428D02*
X0048471Y0044428D01*
X0048471Y0046788D02*
X0031437Y0046788D01*
X0031437Y0049149D02*
X0048471Y0049149D01*
X0048471Y0051510D02*
X0031437Y0051510D01*
X0031437Y0053870D02*
X0048471Y0053870D01*
X0048838Y0056231D02*
X0031437Y0056231D01*
X0031437Y0058592D02*
X0050380Y0058592D01*
X0058982Y0058592D02*
X0060380Y0058592D01*
X0068982Y0058592D02*
X0070380Y0058592D01*
X0078982Y0058592D02*
X0080380Y0058592D01*
X0088982Y0058592D02*
X0090380Y0058592D01*
X0098982Y0058592D02*
X0100380Y0058592D01*
X0108982Y0058592D02*
X0110380Y0058592D01*
X0118982Y0058592D02*
X0119814Y0058592D01*
X0124386Y0058592D02*
X0124976Y0058592D01*
X0124976Y0056231D02*
X0124386Y0056231D01*
X0124386Y0053870D02*
X0124976Y0053870D01*
X0124976Y0051510D02*
X0124386Y0051510D01*
X0124386Y0049149D02*
X0124976Y0049149D01*
X0124976Y0046788D02*
X0124386Y0046788D01*
X0124386Y0044428D02*
X0124976Y0044428D01*
X0124976Y0042067D02*
X0124386Y0042067D01*
X0124386Y0039706D02*
X0124976Y0039706D01*
X0128296Y0039706D02*
X0159846Y0039706D01*
X0159846Y0042067D02*
X0130475Y0042067D01*
X0131240Y0044428D02*
X0159846Y0044428D01*
X0159846Y0046788D02*
X0131291Y0046788D01*
X0131291Y0049149D02*
X0159846Y0049149D01*
X0159846Y0051510D02*
X0131291Y0051510D01*
X0131291Y0053870D02*
X0159846Y0053870D01*
X0159846Y0056231D02*
X0130956Y0056231D01*
X0129548Y0058592D02*
X0159846Y0058592D01*
X0159846Y0060953D02*
X0031437Y0060953D01*
X0031437Y0063313D02*
X0159846Y0063313D01*
X0159846Y0065674D02*
X0031437Y0065674D01*
X0031437Y0068035D02*
X0159846Y0068035D01*
X0159846Y0070395D02*
X0031437Y0070395D01*
X0031437Y0072756D02*
X0159846Y0072756D01*
X0159846Y0075117D02*
X0031437Y0075117D01*
X0031437Y0077478D02*
X0159846Y0077478D01*
X0159846Y0079838D02*
X0031437Y0079838D01*
X0031437Y0082199D02*
X0159846Y0082199D01*
X0159846Y0084560D02*
X0031437Y0084560D01*
X0031437Y0086920D02*
X0159846Y0086920D01*
X0159846Y0089281D02*
X0031437Y0089281D01*
X0031437Y0091642D02*
X0159846Y0091642D01*
X0159846Y0094003D02*
X0031437Y0094003D01*
X0031437Y0096363D02*
X0159846Y0096363D01*
X0159846Y0098724D02*
X0031437Y0098724D01*
X0031437Y0101085D02*
X0159846Y0101085D01*
X0159846Y0103445D02*
X0031437Y0103445D01*
X0031437Y0105806D02*
X0159846Y0105806D01*
X0159846Y0108167D02*
X0031437Y0108167D01*
X0031437Y0110528D02*
X0159846Y0110528D01*
X0159846Y0112888D02*
X0031437Y0112888D01*
X0031437Y0115249D02*
X0159846Y0115249D01*
X0159846Y0117610D02*
X0031437Y0117610D01*
X0031437Y0119970D02*
X0034143Y0119970D01*
X0031815Y0122331D02*
X0031437Y0122331D01*
X0044220Y0119970D02*
X0147143Y0119970D01*
X0144815Y0122331D02*
X0046547Y0122331D01*
X0047525Y0124692D02*
X0143837Y0124692D01*
X0143520Y0127053D02*
X0047843Y0127053D01*
X0047632Y0129413D02*
X0143731Y0129413D01*
X0144709Y0131774D02*
X0046654Y0131774D01*
X0057520Y0039706D02*
X0061842Y0039706D01*
X0067520Y0039706D02*
X0071842Y0039706D01*
X0077520Y0039706D02*
X0081842Y0039706D01*
X0087520Y0039706D02*
X0091842Y0039706D01*
X0097520Y0039706D02*
X0101842Y0039706D01*
X0107520Y0039706D02*
X0111842Y0039706D01*
X0117520Y0039706D02*
X0121066Y0039706D01*
X0144049Y0023181D02*
X0047314Y0023181D01*
X0046069Y0025542D02*
X0145293Y0025542D01*
X0148189Y0027903D02*
X0043173Y0027903D01*
X0047843Y0020820D02*
X0143520Y0020820D01*
X0143520Y0018460D02*
X0047843Y0018460D01*
X0046865Y0016099D02*
X0144497Y0016099D01*
X0146375Y0013738D02*
X0044987Y0013738D01*
X0156173Y0027903D02*
X0159846Y0027903D01*
X0159846Y0025542D02*
X0159069Y0025542D01*
X0159846Y0119970D02*
X0157220Y0119970D01*
X0159547Y0122331D02*
X0159846Y0122331D01*
D12*
X0122181Y0079681D03*
X0065681Y0076173D03*
D13*
X0066173Y0075673D01*
X0065681Y0075181D01*
X0117681Y0075181D01*
X0122181Y0079681D01*
X0152681Y0110181D01*
X0152681Y0110681D01*
D14*
X0152681Y0110681D03*
M02*
