G75*
%MOIN*%
%OFA0B0*%
%FSLAX25Y25*%
%IPPOS*%
%LPD*%
%AMOC8*
5,1,8,0,0,1.08239X$1,22.5*
%
%ADD10C,0.00000*%
D10*
X0028681Y0021492D02*
X0028681Y0125071D01*
X0033275Y0127181D02*
X0033277Y0127334D01*
X0033283Y0127488D01*
X0033293Y0127641D01*
X0033307Y0127793D01*
X0033325Y0127946D01*
X0033347Y0128097D01*
X0033372Y0128248D01*
X0033402Y0128399D01*
X0033436Y0128549D01*
X0033473Y0128697D01*
X0033514Y0128845D01*
X0033559Y0128991D01*
X0033608Y0129137D01*
X0033661Y0129281D01*
X0033717Y0129423D01*
X0033777Y0129564D01*
X0033841Y0129704D01*
X0033908Y0129842D01*
X0033979Y0129978D01*
X0034054Y0130112D01*
X0034131Y0130244D01*
X0034213Y0130374D01*
X0034297Y0130502D01*
X0034385Y0130628D01*
X0034476Y0130751D01*
X0034570Y0130872D01*
X0034668Y0130990D01*
X0034768Y0131106D01*
X0034872Y0131219D01*
X0034978Y0131330D01*
X0035087Y0131438D01*
X0035199Y0131543D01*
X0035313Y0131644D01*
X0035431Y0131743D01*
X0035550Y0131839D01*
X0035672Y0131932D01*
X0035797Y0132021D01*
X0035924Y0132108D01*
X0036053Y0132190D01*
X0036184Y0132270D01*
X0036317Y0132346D01*
X0036452Y0132419D01*
X0036589Y0132488D01*
X0036728Y0132553D01*
X0036868Y0132615D01*
X0037010Y0132673D01*
X0037153Y0132728D01*
X0037298Y0132779D01*
X0037444Y0132826D01*
X0037591Y0132869D01*
X0037739Y0132908D01*
X0037888Y0132944D01*
X0038038Y0132975D01*
X0038189Y0133003D01*
X0038340Y0133027D01*
X0038493Y0133047D01*
X0038645Y0133063D01*
X0038798Y0133075D01*
X0038951Y0133083D01*
X0039104Y0133087D01*
X0039258Y0133087D01*
X0039411Y0133083D01*
X0039564Y0133075D01*
X0039717Y0133063D01*
X0039869Y0133047D01*
X0040022Y0133027D01*
X0040173Y0133003D01*
X0040324Y0132975D01*
X0040474Y0132944D01*
X0040623Y0132908D01*
X0040771Y0132869D01*
X0040918Y0132826D01*
X0041064Y0132779D01*
X0041209Y0132728D01*
X0041352Y0132673D01*
X0041494Y0132615D01*
X0041634Y0132553D01*
X0041773Y0132488D01*
X0041910Y0132419D01*
X0042045Y0132346D01*
X0042178Y0132270D01*
X0042309Y0132190D01*
X0042438Y0132108D01*
X0042565Y0132021D01*
X0042690Y0131932D01*
X0042812Y0131839D01*
X0042931Y0131743D01*
X0043049Y0131644D01*
X0043163Y0131543D01*
X0043275Y0131438D01*
X0043384Y0131330D01*
X0043490Y0131219D01*
X0043594Y0131106D01*
X0043694Y0130990D01*
X0043792Y0130872D01*
X0043886Y0130751D01*
X0043977Y0130628D01*
X0044065Y0130502D01*
X0044149Y0130374D01*
X0044231Y0130244D01*
X0044308Y0130112D01*
X0044383Y0129978D01*
X0044454Y0129842D01*
X0044521Y0129704D01*
X0044585Y0129564D01*
X0044645Y0129423D01*
X0044701Y0129281D01*
X0044754Y0129137D01*
X0044803Y0128991D01*
X0044848Y0128845D01*
X0044889Y0128697D01*
X0044926Y0128549D01*
X0044960Y0128399D01*
X0044990Y0128248D01*
X0045015Y0128097D01*
X0045037Y0127946D01*
X0045055Y0127793D01*
X0045069Y0127641D01*
X0045079Y0127488D01*
X0045085Y0127334D01*
X0045087Y0127181D01*
X0045085Y0127028D01*
X0045079Y0126874D01*
X0045069Y0126721D01*
X0045055Y0126569D01*
X0045037Y0126416D01*
X0045015Y0126265D01*
X0044990Y0126114D01*
X0044960Y0125963D01*
X0044926Y0125813D01*
X0044889Y0125665D01*
X0044848Y0125517D01*
X0044803Y0125371D01*
X0044754Y0125225D01*
X0044701Y0125081D01*
X0044645Y0124939D01*
X0044585Y0124798D01*
X0044521Y0124658D01*
X0044454Y0124520D01*
X0044383Y0124384D01*
X0044308Y0124250D01*
X0044231Y0124118D01*
X0044149Y0123988D01*
X0044065Y0123860D01*
X0043977Y0123734D01*
X0043886Y0123611D01*
X0043792Y0123490D01*
X0043694Y0123372D01*
X0043594Y0123256D01*
X0043490Y0123143D01*
X0043384Y0123032D01*
X0043275Y0122924D01*
X0043163Y0122819D01*
X0043049Y0122718D01*
X0042931Y0122619D01*
X0042812Y0122523D01*
X0042690Y0122430D01*
X0042565Y0122341D01*
X0042438Y0122254D01*
X0042309Y0122172D01*
X0042178Y0122092D01*
X0042045Y0122016D01*
X0041910Y0121943D01*
X0041773Y0121874D01*
X0041634Y0121809D01*
X0041494Y0121747D01*
X0041352Y0121689D01*
X0041209Y0121634D01*
X0041064Y0121583D01*
X0040918Y0121536D01*
X0040771Y0121493D01*
X0040623Y0121454D01*
X0040474Y0121418D01*
X0040324Y0121387D01*
X0040173Y0121359D01*
X0040022Y0121335D01*
X0039869Y0121315D01*
X0039717Y0121299D01*
X0039564Y0121287D01*
X0039411Y0121279D01*
X0039258Y0121275D01*
X0039104Y0121275D01*
X0038951Y0121279D01*
X0038798Y0121287D01*
X0038645Y0121299D01*
X0038493Y0121315D01*
X0038340Y0121335D01*
X0038189Y0121359D01*
X0038038Y0121387D01*
X0037888Y0121418D01*
X0037739Y0121454D01*
X0037591Y0121493D01*
X0037444Y0121536D01*
X0037298Y0121583D01*
X0037153Y0121634D01*
X0037010Y0121689D01*
X0036868Y0121747D01*
X0036728Y0121809D01*
X0036589Y0121874D01*
X0036452Y0121943D01*
X0036317Y0122016D01*
X0036184Y0122092D01*
X0036053Y0122172D01*
X0035924Y0122254D01*
X0035797Y0122341D01*
X0035672Y0122430D01*
X0035550Y0122523D01*
X0035431Y0122619D01*
X0035313Y0122718D01*
X0035199Y0122819D01*
X0035087Y0122924D01*
X0034978Y0123032D01*
X0034872Y0123143D01*
X0034768Y0123256D01*
X0034668Y0123372D01*
X0034570Y0123490D01*
X0034476Y0123611D01*
X0034385Y0123734D01*
X0034297Y0123860D01*
X0034213Y0123988D01*
X0034131Y0124118D01*
X0034054Y0124250D01*
X0033979Y0124384D01*
X0033908Y0124520D01*
X0033841Y0124658D01*
X0033777Y0124798D01*
X0033717Y0124939D01*
X0033661Y0125081D01*
X0033608Y0125225D01*
X0033559Y0125371D01*
X0033514Y0125517D01*
X0033473Y0125665D01*
X0033436Y0125813D01*
X0033402Y0125963D01*
X0033372Y0126114D01*
X0033347Y0126265D01*
X0033325Y0126416D01*
X0033307Y0126569D01*
X0033293Y0126721D01*
X0033283Y0126874D01*
X0033277Y0127028D01*
X0033275Y0127181D01*
X0028681Y0125071D02*
X0028684Y0125356D01*
X0028695Y0125642D01*
X0028712Y0125927D01*
X0028736Y0126211D01*
X0028767Y0126495D01*
X0028805Y0126778D01*
X0028850Y0127059D01*
X0028901Y0127340D01*
X0028959Y0127620D01*
X0029024Y0127898D01*
X0029096Y0128174D01*
X0029174Y0128448D01*
X0029259Y0128721D01*
X0029351Y0128991D01*
X0029449Y0129259D01*
X0029553Y0129525D01*
X0029664Y0129788D01*
X0029781Y0130048D01*
X0029904Y0130306D01*
X0030034Y0130560D01*
X0030170Y0130811D01*
X0030311Y0131059D01*
X0030459Y0131303D01*
X0030612Y0131544D01*
X0030772Y0131780D01*
X0030937Y0132013D01*
X0031107Y0132242D01*
X0031283Y0132467D01*
X0031465Y0132687D01*
X0031651Y0132903D01*
X0031843Y0133114D01*
X0032040Y0133321D01*
X0032242Y0133523D01*
X0032449Y0133720D01*
X0032660Y0133912D01*
X0032876Y0134098D01*
X0033096Y0134280D01*
X0033321Y0134456D01*
X0033550Y0134626D01*
X0033783Y0134791D01*
X0034019Y0134951D01*
X0034260Y0135104D01*
X0034504Y0135252D01*
X0034752Y0135393D01*
X0035003Y0135529D01*
X0035257Y0135659D01*
X0035515Y0135782D01*
X0035775Y0135899D01*
X0036038Y0136010D01*
X0036304Y0136114D01*
X0036572Y0136212D01*
X0036842Y0136304D01*
X0037115Y0136389D01*
X0037389Y0136467D01*
X0037665Y0136539D01*
X0037943Y0136604D01*
X0038223Y0136662D01*
X0038504Y0136713D01*
X0038785Y0136758D01*
X0039068Y0136796D01*
X0039352Y0136827D01*
X0039636Y0136851D01*
X0039921Y0136868D01*
X0040207Y0136879D01*
X0040492Y0136882D01*
X0150791Y0136882D01*
X0146275Y0127181D02*
X0146277Y0127334D01*
X0146283Y0127488D01*
X0146293Y0127641D01*
X0146307Y0127793D01*
X0146325Y0127946D01*
X0146347Y0128097D01*
X0146372Y0128248D01*
X0146402Y0128399D01*
X0146436Y0128549D01*
X0146473Y0128697D01*
X0146514Y0128845D01*
X0146559Y0128991D01*
X0146608Y0129137D01*
X0146661Y0129281D01*
X0146717Y0129423D01*
X0146777Y0129564D01*
X0146841Y0129704D01*
X0146908Y0129842D01*
X0146979Y0129978D01*
X0147054Y0130112D01*
X0147131Y0130244D01*
X0147213Y0130374D01*
X0147297Y0130502D01*
X0147385Y0130628D01*
X0147476Y0130751D01*
X0147570Y0130872D01*
X0147668Y0130990D01*
X0147768Y0131106D01*
X0147872Y0131219D01*
X0147978Y0131330D01*
X0148087Y0131438D01*
X0148199Y0131543D01*
X0148313Y0131644D01*
X0148431Y0131743D01*
X0148550Y0131839D01*
X0148672Y0131932D01*
X0148797Y0132021D01*
X0148924Y0132108D01*
X0149053Y0132190D01*
X0149184Y0132270D01*
X0149317Y0132346D01*
X0149452Y0132419D01*
X0149589Y0132488D01*
X0149728Y0132553D01*
X0149868Y0132615D01*
X0150010Y0132673D01*
X0150153Y0132728D01*
X0150298Y0132779D01*
X0150444Y0132826D01*
X0150591Y0132869D01*
X0150739Y0132908D01*
X0150888Y0132944D01*
X0151038Y0132975D01*
X0151189Y0133003D01*
X0151340Y0133027D01*
X0151493Y0133047D01*
X0151645Y0133063D01*
X0151798Y0133075D01*
X0151951Y0133083D01*
X0152104Y0133087D01*
X0152258Y0133087D01*
X0152411Y0133083D01*
X0152564Y0133075D01*
X0152717Y0133063D01*
X0152869Y0133047D01*
X0153022Y0133027D01*
X0153173Y0133003D01*
X0153324Y0132975D01*
X0153474Y0132944D01*
X0153623Y0132908D01*
X0153771Y0132869D01*
X0153918Y0132826D01*
X0154064Y0132779D01*
X0154209Y0132728D01*
X0154352Y0132673D01*
X0154494Y0132615D01*
X0154634Y0132553D01*
X0154773Y0132488D01*
X0154910Y0132419D01*
X0155045Y0132346D01*
X0155178Y0132270D01*
X0155309Y0132190D01*
X0155438Y0132108D01*
X0155565Y0132021D01*
X0155690Y0131932D01*
X0155812Y0131839D01*
X0155931Y0131743D01*
X0156049Y0131644D01*
X0156163Y0131543D01*
X0156275Y0131438D01*
X0156384Y0131330D01*
X0156490Y0131219D01*
X0156594Y0131106D01*
X0156694Y0130990D01*
X0156792Y0130872D01*
X0156886Y0130751D01*
X0156977Y0130628D01*
X0157065Y0130502D01*
X0157149Y0130374D01*
X0157231Y0130244D01*
X0157308Y0130112D01*
X0157383Y0129978D01*
X0157454Y0129842D01*
X0157521Y0129704D01*
X0157585Y0129564D01*
X0157645Y0129423D01*
X0157701Y0129281D01*
X0157754Y0129137D01*
X0157803Y0128991D01*
X0157848Y0128845D01*
X0157889Y0128697D01*
X0157926Y0128549D01*
X0157960Y0128399D01*
X0157990Y0128248D01*
X0158015Y0128097D01*
X0158037Y0127946D01*
X0158055Y0127793D01*
X0158069Y0127641D01*
X0158079Y0127488D01*
X0158085Y0127334D01*
X0158087Y0127181D01*
X0158085Y0127028D01*
X0158079Y0126874D01*
X0158069Y0126721D01*
X0158055Y0126569D01*
X0158037Y0126416D01*
X0158015Y0126265D01*
X0157990Y0126114D01*
X0157960Y0125963D01*
X0157926Y0125813D01*
X0157889Y0125665D01*
X0157848Y0125517D01*
X0157803Y0125371D01*
X0157754Y0125225D01*
X0157701Y0125081D01*
X0157645Y0124939D01*
X0157585Y0124798D01*
X0157521Y0124658D01*
X0157454Y0124520D01*
X0157383Y0124384D01*
X0157308Y0124250D01*
X0157231Y0124118D01*
X0157149Y0123988D01*
X0157065Y0123860D01*
X0156977Y0123734D01*
X0156886Y0123611D01*
X0156792Y0123490D01*
X0156694Y0123372D01*
X0156594Y0123256D01*
X0156490Y0123143D01*
X0156384Y0123032D01*
X0156275Y0122924D01*
X0156163Y0122819D01*
X0156049Y0122718D01*
X0155931Y0122619D01*
X0155812Y0122523D01*
X0155690Y0122430D01*
X0155565Y0122341D01*
X0155438Y0122254D01*
X0155309Y0122172D01*
X0155178Y0122092D01*
X0155045Y0122016D01*
X0154910Y0121943D01*
X0154773Y0121874D01*
X0154634Y0121809D01*
X0154494Y0121747D01*
X0154352Y0121689D01*
X0154209Y0121634D01*
X0154064Y0121583D01*
X0153918Y0121536D01*
X0153771Y0121493D01*
X0153623Y0121454D01*
X0153474Y0121418D01*
X0153324Y0121387D01*
X0153173Y0121359D01*
X0153022Y0121335D01*
X0152869Y0121315D01*
X0152717Y0121299D01*
X0152564Y0121287D01*
X0152411Y0121279D01*
X0152258Y0121275D01*
X0152104Y0121275D01*
X0151951Y0121279D01*
X0151798Y0121287D01*
X0151645Y0121299D01*
X0151493Y0121315D01*
X0151340Y0121335D01*
X0151189Y0121359D01*
X0151038Y0121387D01*
X0150888Y0121418D01*
X0150739Y0121454D01*
X0150591Y0121493D01*
X0150444Y0121536D01*
X0150298Y0121583D01*
X0150153Y0121634D01*
X0150010Y0121689D01*
X0149868Y0121747D01*
X0149728Y0121809D01*
X0149589Y0121874D01*
X0149452Y0121943D01*
X0149317Y0122016D01*
X0149184Y0122092D01*
X0149053Y0122172D01*
X0148924Y0122254D01*
X0148797Y0122341D01*
X0148672Y0122430D01*
X0148550Y0122523D01*
X0148431Y0122619D01*
X0148313Y0122718D01*
X0148199Y0122819D01*
X0148087Y0122924D01*
X0147978Y0123032D01*
X0147872Y0123143D01*
X0147768Y0123256D01*
X0147668Y0123372D01*
X0147570Y0123490D01*
X0147476Y0123611D01*
X0147385Y0123734D01*
X0147297Y0123860D01*
X0147213Y0123988D01*
X0147131Y0124118D01*
X0147054Y0124250D01*
X0146979Y0124384D01*
X0146908Y0124520D01*
X0146841Y0124658D01*
X0146777Y0124798D01*
X0146717Y0124939D01*
X0146661Y0125081D01*
X0146608Y0125225D01*
X0146559Y0125371D01*
X0146514Y0125517D01*
X0146473Y0125665D01*
X0146436Y0125813D01*
X0146402Y0125963D01*
X0146372Y0126114D01*
X0146347Y0126265D01*
X0146325Y0126416D01*
X0146307Y0126569D01*
X0146293Y0126721D01*
X0146283Y0126874D01*
X0146277Y0127028D01*
X0146275Y0127181D01*
X0150791Y0136882D02*
X0151076Y0136879D01*
X0151362Y0136868D01*
X0151647Y0136851D01*
X0151931Y0136827D01*
X0152215Y0136796D01*
X0152498Y0136758D01*
X0152779Y0136713D01*
X0153060Y0136662D01*
X0153340Y0136604D01*
X0153618Y0136539D01*
X0153894Y0136467D01*
X0154168Y0136389D01*
X0154441Y0136304D01*
X0154711Y0136212D01*
X0154979Y0136114D01*
X0155245Y0136010D01*
X0155508Y0135899D01*
X0155768Y0135782D01*
X0156026Y0135659D01*
X0156280Y0135529D01*
X0156531Y0135393D01*
X0156779Y0135252D01*
X0157023Y0135104D01*
X0157264Y0134951D01*
X0157500Y0134791D01*
X0157733Y0134626D01*
X0157962Y0134456D01*
X0158187Y0134280D01*
X0158407Y0134098D01*
X0158623Y0133912D01*
X0158834Y0133720D01*
X0159041Y0133523D01*
X0159243Y0133321D01*
X0159440Y0133114D01*
X0159632Y0132903D01*
X0159818Y0132687D01*
X0160000Y0132467D01*
X0160176Y0132242D01*
X0160346Y0132013D01*
X0160511Y0131780D01*
X0160671Y0131544D01*
X0160824Y0131303D01*
X0160972Y0131059D01*
X0161113Y0130811D01*
X0161249Y0130560D01*
X0161379Y0130306D01*
X0161502Y0130048D01*
X0161619Y0129788D01*
X0161730Y0129525D01*
X0161834Y0129259D01*
X0161932Y0128991D01*
X0162024Y0128721D01*
X0162109Y0128448D01*
X0162187Y0128174D01*
X0162259Y0127898D01*
X0162324Y0127620D01*
X0162382Y0127340D01*
X0162433Y0127059D01*
X0162478Y0126778D01*
X0162516Y0126495D01*
X0162547Y0126211D01*
X0162571Y0125927D01*
X0162588Y0125642D01*
X0162599Y0125356D01*
X0162602Y0125071D01*
X0162602Y0021492D01*
X0146275Y0020181D02*
X0146277Y0020334D01*
X0146283Y0020488D01*
X0146293Y0020641D01*
X0146307Y0020793D01*
X0146325Y0020946D01*
X0146347Y0021097D01*
X0146372Y0021248D01*
X0146402Y0021399D01*
X0146436Y0021549D01*
X0146473Y0021697D01*
X0146514Y0021845D01*
X0146559Y0021991D01*
X0146608Y0022137D01*
X0146661Y0022281D01*
X0146717Y0022423D01*
X0146777Y0022564D01*
X0146841Y0022704D01*
X0146908Y0022842D01*
X0146979Y0022978D01*
X0147054Y0023112D01*
X0147131Y0023244D01*
X0147213Y0023374D01*
X0147297Y0023502D01*
X0147385Y0023628D01*
X0147476Y0023751D01*
X0147570Y0023872D01*
X0147668Y0023990D01*
X0147768Y0024106D01*
X0147872Y0024219D01*
X0147978Y0024330D01*
X0148087Y0024438D01*
X0148199Y0024543D01*
X0148313Y0024644D01*
X0148431Y0024743D01*
X0148550Y0024839D01*
X0148672Y0024932D01*
X0148797Y0025021D01*
X0148924Y0025108D01*
X0149053Y0025190D01*
X0149184Y0025270D01*
X0149317Y0025346D01*
X0149452Y0025419D01*
X0149589Y0025488D01*
X0149728Y0025553D01*
X0149868Y0025615D01*
X0150010Y0025673D01*
X0150153Y0025728D01*
X0150298Y0025779D01*
X0150444Y0025826D01*
X0150591Y0025869D01*
X0150739Y0025908D01*
X0150888Y0025944D01*
X0151038Y0025975D01*
X0151189Y0026003D01*
X0151340Y0026027D01*
X0151493Y0026047D01*
X0151645Y0026063D01*
X0151798Y0026075D01*
X0151951Y0026083D01*
X0152104Y0026087D01*
X0152258Y0026087D01*
X0152411Y0026083D01*
X0152564Y0026075D01*
X0152717Y0026063D01*
X0152869Y0026047D01*
X0153022Y0026027D01*
X0153173Y0026003D01*
X0153324Y0025975D01*
X0153474Y0025944D01*
X0153623Y0025908D01*
X0153771Y0025869D01*
X0153918Y0025826D01*
X0154064Y0025779D01*
X0154209Y0025728D01*
X0154352Y0025673D01*
X0154494Y0025615D01*
X0154634Y0025553D01*
X0154773Y0025488D01*
X0154910Y0025419D01*
X0155045Y0025346D01*
X0155178Y0025270D01*
X0155309Y0025190D01*
X0155438Y0025108D01*
X0155565Y0025021D01*
X0155690Y0024932D01*
X0155812Y0024839D01*
X0155931Y0024743D01*
X0156049Y0024644D01*
X0156163Y0024543D01*
X0156275Y0024438D01*
X0156384Y0024330D01*
X0156490Y0024219D01*
X0156594Y0024106D01*
X0156694Y0023990D01*
X0156792Y0023872D01*
X0156886Y0023751D01*
X0156977Y0023628D01*
X0157065Y0023502D01*
X0157149Y0023374D01*
X0157231Y0023244D01*
X0157308Y0023112D01*
X0157383Y0022978D01*
X0157454Y0022842D01*
X0157521Y0022704D01*
X0157585Y0022564D01*
X0157645Y0022423D01*
X0157701Y0022281D01*
X0157754Y0022137D01*
X0157803Y0021991D01*
X0157848Y0021845D01*
X0157889Y0021697D01*
X0157926Y0021549D01*
X0157960Y0021399D01*
X0157990Y0021248D01*
X0158015Y0021097D01*
X0158037Y0020946D01*
X0158055Y0020793D01*
X0158069Y0020641D01*
X0158079Y0020488D01*
X0158085Y0020334D01*
X0158087Y0020181D01*
X0158085Y0020028D01*
X0158079Y0019874D01*
X0158069Y0019721D01*
X0158055Y0019569D01*
X0158037Y0019416D01*
X0158015Y0019265D01*
X0157990Y0019114D01*
X0157960Y0018963D01*
X0157926Y0018813D01*
X0157889Y0018665D01*
X0157848Y0018517D01*
X0157803Y0018371D01*
X0157754Y0018225D01*
X0157701Y0018081D01*
X0157645Y0017939D01*
X0157585Y0017798D01*
X0157521Y0017658D01*
X0157454Y0017520D01*
X0157383Y0017384D01*
X0157308Y0017250D01*
X0157231Y0017118D01*
X0157149Y0016988D01*
X0157065Y0016860D01*
X0156977Y0016734D01*
X0156886Y0016611D01*
X0156792Y0016490D01*
X0156694Y0016372D01*
X0156594Y0016256D01*
X0156490Y0016143D01*
X0156384Y0016032D01*
X0156275Y0015924D01*
X0156163Y0015819D01*
X0156049Y0015718D01*
X0155931Y0015619D01*
X0155812Y0015523D01*
X0155690Y0015430D01*
X0155565Y0015341D01*
X0155438Y0015254D01*
X0155309Y0015172D01*
X0155178Y0015092D01*
X0155045Y0015016D01*
X0154910Y0014943D01*
X0154773Y0014874D01*
X0154634Y0014809D01*
X0154494Y0014747D01*
X0154352Y0014689D01*
X0154209Y0014634D01*
X0154064Y0014583D01*
X0153918Y0014536D01*
X0153771Y0014493D01*
X0153623Y0014454D01*
X0153474Y0014418D01*
X0153324Y0014387D01*
X0153173Y0014359D01*
X0153022Y0014335D01*
X0152869Y0014315D01*
X0152717Y0014299D01*
X0152564Y0014287D01*
X0152411Y0014279D01*
X0152258Y0014275D01*
X0152104Y0014275D01*
X0151951Y0014279D01*
X0151798Y0014287D01*
X0151645Y0014299D01*
X0151493Y0014315D01*
X0151340Y0014335D01*
X0151189Y0014359D01*
X0151038Y0014387D01*
X0150888Y0014418D01*
X0150739Y0014454D01*
X0150591Y0014493D01*
X0150444Y0014536D01*
X0150298Y0014583D01*
X0150153Y0014634D01*
X0150010Y0014689D01*
X0149868Y0014747D01*
X0149728Y0014809D01*
X0149589Y0014874D01*
X0149452Y0014943D01*
X0149317Y0015016D01*
X0149184Y0015092D01*
X0149053Y0015172D01*
X0148924Y0015254D01*
X0148797Y0015341D01*
X0148672Y0015430D01*
X0148550Y0015523D01*
X0148431Y0015619D01*
X0148313Y0015718D01*
X0148199Y0015819D01*
X0148087Y0015924D01*
X0147978Y0016032D01*
X0147872Y0016143D01*
X0147768Y0016256D01*
X0147668Y0016372D01*
X0147570Y0016490D01*
X0147476Y0016611D01*
X0147385Y0016734D01*
X0147297Y0016860D01*
X0147213Y0016988D01*
X0147131Y0017118D01*
X0147054Y0017250D01*
X0146979Y0017384D01*
X0146908Y0017520D01*
X0146841Y0017658D01*
X0146777Y0017798D01*
X0146717Y0017939D01*
X0146661Y0018081D01*
X0146608Y0018225D01*
X0146559Y0018371D01*
X0146514Y0018517D01*
X0146473Y0018665D01*
X0146436Y0018813D01*
X0146402Y0018963D01*
X0146372Y0019114D01*
X0146347Y0019265D01*
X0146325Y0019416D01*
X0146307Y0019569D01*
X0146293Y0019721D01*
X0146283Y0019874D01*
X0146277Y0020028D01*
X0146275Y0020181D01*
X0150791Y0009681D02*
X0151076Y0009684D01*
X0151362Y0009695D01*
X0151647Y0009712D01*
X0151931Y0009736D01*
X0152215Y0009767D01*
X0152498Y0009805D01*
X0152779Y0009850D01*
X0153060Y0009901D01*
X0153340Y0009959D01*
X0153618Y0010024D01*
X0153894Y0010096D01*
X0154168Y0010174D01*
X0154441Y0010259D01*
X0154711Y0010351D01*
X0154979Y0010449D01*
X0155245Y0010553D01*
X0155508Y0010664D01*
X0155768Y0010781D01*
X0156026Y0010904D01*
X0156280Y0011034D01*
X0156531Y0011170D01*
X0156779Y0011311D01*
X0157023Y0011459D01*
X0157264Y0011612D01*
X0157500Y0011772D01*
X0157733Y0011937D01*
X0157962Y0012107D01*
X0158187Y0012283D01*
X0158407Y0012465D01*
X0158623Y0012651D01*
X0158834Y0012843D01*
X0159041Y0013040D01*
X0159243Y0013242D01*
X0159440Y0013449D01*
X0159632Y0013660D01*
X0159818Y0013876D01*
X0160000Y0014096D01*
X0160176Y0014321D01*
X0160346Y0014550D01*
X0160511Y0014783D01*
X0160671Y0015019D01*
X0160824Y0015260D01*
X0160972Y0015504D01*
X0161113Y0015752D01*
X0161249Y0016003D01*
X0161379Y0016257D01*
X0161502Y0016515D01*
X0161619Y0016775D01*
X0161730Y0017038D01*
X0161834Y0017304D01*
X0161932Y0017572D01*
X0162024Y0017842D01*
X0162109Y0018115D01*
X0162187Y0018389D01*
X0162259Y0018665D01*
X0162324Y0018943D01*
X0162382Y0019223D01*
X0162433Y0019504D01*
X0162478Y0019785D01*
X0162516Y0020068D01*
X0162547Y0020352D01*
X0162571Y0020636D01*
X0162588Y0020921D01*
X0162599Y0021207D01*
X0162602Y0021492D01*
X0150791Y0009681D02*
X0040492Y0009681D01*
X0033275Y0020181D02*
X0033277Y0020334D01*
X0033283Y0020488D01*
X0033293Y0020641D01*
X0033307Y0020793D01*
X0033325Y0020946D01*
X0033347Y0021097D01*
X0033372Y0021248D01*
X0033402Y0021399D01*
X0033436Y0021549D01*
X0033473Y0021697D01*
X0033514Y0021845D01*
X0033559Y0021991D01*
X0033608Y0022137D01*
X0033661Y0022281D01*
X0033717Y0022423D01*
X0033777Y0022564D01*
X0033841Y0022704D01*
X0033908Y0022842D01*
X0033979Y0022978D01*
X0034054Y0023112D01*
X0034131Y0023244D01*
X0034213Y0023374D01*
X0034297Y0023502D01*
X0034385Y0023628D01*
X0034476Y0023751D01*
X0034570Y0023872D01*
X0034668Y0023990D01*
X0034768Y0024106D01*
X0034872Y0024219D01*
X0034978Y0024330D01*
X0035087Y0024438D01*
X0035199Y0024543D01*
X0035313Y0024644D01*
X0035431Y0024743D01*
X0035550Y0024839D01*
X0035672Y0024932D01*
X0035797Y0025021D01*
X0035924Y0025108D01*
X0036053Y0025190D01*
X0036184Y0025270D01*
X0036317Y0025346D01*
X0036452Y0025419D01*
X0036589Y0025488D01*
X0036728Y0025553D01*
X0036868Y0025615D01*
X0037010Y0025673D01*
X0037153Y0025728D01*
X0037298Y0025779D01*
X0037444Y0025826D01*
X0037591Y0025869D01*
X0037739Y0025908D01*
X0037888Y0025944D01*
X0038038Y0025975D01*
X0038189Y0026003D01*
X0038340Y0026027D01*
X0038493Y0026047D01*
X0038645Y0026063D01*
X0038798Y0026075D01*
X0038951Y0026083D01*
X0039104Y0026087D01*
X0039258Y0026087D01*
X0039411Y0026083D01*
X0039564Y0026075D01*
X0039717Y0026063D01*
X0039869Y0026047D01*
X0040022Y0026027D01*
X0040173Y0026003D01*
X0040324Y0025975D01*
X0040474Y0025944D01*
X0040623Y0025908D01*
X0040771Y0025869D01*
X0040918Y0025826D01*
X0041064Y0025779D01*
X0041209Y0025728D01*
X0041352Y0025673D01*
X0041494Y0025615D01*
X0041634Y0025553D01*
X0041773Y0025488D01*
X0041910Y0025419D01*
X0042045Y0025346D01*
X0042178Y0025270D01*
X0042309Y0025190D01*
X0042438Y0025108D01*
X0042565Y0025021D01*
X0042690Y0024932D01*
X0042812Y0024839D01*
X0042931Y0024743D01*
X0043049Y0024644D01*
X0043163Y0024543D01*
X0043275Y0024438D01*
X0043384Y0024330D01*
X0043490Y0024219D01*
X0043594Y0024106D01*
X0043694Y0023990D01*
X0043792Y0023872D01*
X0043886Y0023751D01*
X0043977Y0023628D01*
X0044065Y0023502D01*
X0044149Y0023374D01*
X0044231Y0023244D01*
X0044308Y0023112D01*
X0044383Y0022978D01*
X0044454Y0022842D01*
X0044521Y0022704D01*
X0044585Y0022564D01*
X0044645Y0022423D01*
X0044701Y0022281D01*
X0044754Y0022137D01*
X0044803Y0021991D01*
X0044848Y0021845D01*
X0044889Y0021697D01*
X0044926Y0021549D01*
X0044960Y0021399D01*
X0044990Y0021248D01*
X0045015Y0021097D01*
X0045037Y0020946D01*
X0045055Y0020793D01*
X0045069Y0020641D01*
X0045079Y0020488D01*
X0045085Y0020334D01*
X0045087Y0020181D01*
X0045085Y0020028D01*
X0045079Y0019874D01*
X0045069Y0019721D01*
X0045055Y0019569D01*
X0045037Y0019416D01*
X0045015Y0019265D01*
X0044990Y0019114D01*
X0044960Y0018963D01*
X0044926Y0018813D01*
X0044889Y0018665D01*
X0044848Y0018517D01*
X0044803Y0018371D01*
X0044754Y0018225D01*
X0044701Y0018081D01*
X0044645Y0017939D01*
X0044585Y0017798D01*
X0044521Y0017658D01*
X0044454Y0017520D01*
X0044383Y0017384D01*
X0044308Y0017250D01*
X0044231Y0017118D01*
X0044149Y0016988D01*
X0044065Y0016860D01*
X0043977Y0016734D01*
X0043886Y0016611D01*
X0043792Y0016490D01*
X0043694Y0016372D01*
X0043594Y0016256D01*
X0043490Y0016143D01*
X0043384Y0016032D01*
X0043275Y0015924D01*
X0043163Y0015819D01*
X0043049Y0015718D01*
X0042931Y0015619D01*
X0042812Y0015523D01*
X0042690Y0015430D01*
X0042565Y0015341D01*
X0042438Y0015254D01*
X0042309Y0015172D01*
X0042178Y0015092D01*
X0042045Y0015016D01*
X0041910Y0014943D01*
X0041773Y0014874D01*
X0041634Y0014809D01*
X0041494Y0014747D01*
X0041352Y0014689D01*
X0041209Y0014634D01*
X0041064Y0014583D01*
X0040918Y0014536D01*
X0040771Y0014493D01*
X0040623Y0014454D01*
X0040474Y0014418D01*
X0040324Y0014387D01*
X0040173Y0014359D01*
X0040022Y0014335D01*
X0039869Y0014315D01*
X0039717Y0014299D01*
X0039564Y0014287D01*
X0039411Y0014279D01*
X0039258Y0014275D01*
X0039104Y0014275D01*
X0038951Y0014279D01*
X0038798Y0014287D01*
X0038645Y0014299D01*
X0038493Y0014315D01*
X0038340Y0014335D01*
X0038189Y0014359D01*
X0038038Y0014387D01*
X0037888Y0014418D01*
X0037739Y0014454D01*
X0037591Y0014493D01*
X0037444Y0014536D01*
X0037298Y0014583D01*
X0037153Y0014634D01*
X0037010Y0014689D01*
X0036868Y0014747D01*
X0036728Y0014809D01*
X0036589Y0014874D01*
X0036452Y0014943D01*
X0036317Y0015016D01*
X0036184Y0015092D01*
X0036053Y0015172D01*
X0035924Y0015254D01*
X0035797Y0015341D01*
X0035672Y0015430D01*
X0035550Y0015523D01*
X0035431Y0015619D01*
X0035313Y0015718D01*
X0035199Y0015819D01*
X0035087Y0015924D01*
X0034978Y0016032D01*
X0034872Y0016143D01*
X0034768Y0016256D01*
X0034668Y0016372D01*
X0034570Y0016490D01*
X0034476Y0016611D01*
X0034385Y0016734D01*
X0034297Y0016860D01*
X0034213Y0016988D01*
X0034131Y0017118D01*
X0034054Y0017250D01*
X0033979Y0017384D01*
X0033908Y0017520D01*
X0033841Y0017658D01*
X0033777Y0017798D01*
X0033717Y0017939D01*
X0033661Y0018081D01*
X0033608Y0018225D01*
X0033559Y0018371D01*
X0033514Y0018517D01*
X0033473Y0018665D01*
X0033436Y0018813D01*
X0033402Y0018963D01*
X0033372Y0019114D01*
X0033347Y0019265D01*
X0033325Y0019416D01*
X0033307Y0019569D01*
X0033293Y0019721D01*
X0033283Y0019874D01*
X0033277Y0020028D01*
X0033275Y0020181D01*
X0028681Y0021492D02*
X0028684Y0021207D01*
X0028695Y0020921D01*
X0028712Y0020636D01*
X0028736Y0020352D01*
X0028767Y0020068D01*
X0028805Y0019785D01*
X0028850Y0019504D01*
X0028901Y0019223D01*
X0028959Y0018943D01*
X0029024Y0018665D01*
X0029096Y0018389D01*
X0029174Y0018115D01*
X0029259Y0017842D01*
X0029351Y0017572D01*
X0029449Y0017304D01*
X0029553Y0017038D01*
X0029664Y0016775D01*
X0029781Y0016515D01*
X0029904Y0016257D01*
X0030034Y0016003D01*
X0030170Y0015752D01*
X0030311Y0015504D01*
X0030459Y0015260D01*
X0030612Y0015019D01*
X0030772Y0014783D01*
X0030937Y0014550D01*
X0031107Y0014321D01*
X0031283Y0014096D01*
X0031465Y0013876D01*
X0031651Y0013660D01*
X0031843Y0013449D01*
X0032040Y0013242D01*
X0032242Y0013040D01*
X0032449Y0012843D01*
X0032660Y0012651D01*
X0032876Y0012465D01*
X0033096Y0012283D01*
X0033321Y0012107D01*
X0033550Y0011937D01*
X0033783Y0011772D01*
X0034019Y0011612D01*
X0034260Y0011459D01*
X0034504Y0011311D01*
X0034752Y0011170D01*
X0035003Y0011034D01*
X0035257Y0010904D01*
X0035515Y0010781D01*
X0035775Y0010664D01*
X0036038Y0010553D01*
X0036304Y0010449D01*
X0036572Y0010351D01*
X0036842Y0010259D01*
X0037115Y0010174D01*
X0037389Y0010096D01*
X0037665Y0010024D01*
X0037943Y0009959D01*
X0038223Y0009901D01*
X0038504Y0009850D01*
X0038785Y0009805D01*
X0039068Y0009767D01*
X0039352Y0009736D01*
X0039636Y0009712D01*
X0039921Y0009695D01*
X0040207Y0009684D01*
X0040492Y0009681D01*
M02*
