G75*
%MOIN*%
%OFA0B0*%
%FSLAX25Y25*%
%IPPOS*%
%LPD*%
%AMOC8*
5,1,8,0,0,1.08239X$1,22.5*
%
%ADD10C,0.07600*%
%ADD11C,0.02362*%
%ADD12R,0.07000X0.07000*%
%ADD13C,0.01600*%
%ADD14R,0.08000X0.08000*%
%ADD15C,0.02100*%
D10*
X0054681Y0047381D02*
X0054681Y0054981D01*
X0064681Y0054981D02*
X0064681Y0047381D01*
X0074681Y0047381D02*
X0074681Y0054981D01*
X0084681Y0054981D02*
X0084681Y0047381D01*
X0094681Y0047381D02*
X0094681Y0054981D01*
X0104681Y0054981D02*
X0104681Y0047381D01*
X0114681Y0047381D02*
X0114681Y0054981D01*
X0124681Y0054981D02*
X0124681Y0047381D01*
D11*
X0031514Y0020310D02*
X0032126Y0018027D01*
X0033308Y0015980D01*
X0034980Y0014308D01*
X0037027Y0013126D01*
X0039310Y0012514D01*
X0040492Y0012437D01*
X0150791Y0012437D01*
X0151973Y0012514D01*
X0154257Y0013126D01*
X0156304Y0014308D01*
X0157975Y0015980D01*
X0159157Y0018027D01*
X0159769Y0020310D01*
X0159846Y0021492D01*
X0159846Y0125071D01*
X0159769Y0126253D01*
X0159157Y0128536D01*
X0158120Y0130332D01*
X0158874Y0128512D01*
X0158874Y0125850D01*
X0157855Y0123390D01*
X0155972Y0121507D01*
X0153512Y0120488D01*
X0150850Y0120488D01*
X0148390Y0121507D01*
X0146507Y0123390D01*
X0145488Y0125850D01*
X0145488Y0128512D01*
X0146507Y0130972D01*
X0148390Y0132855D01*
X0150850Y0133874D01*
X0152625Y0133874D01*
X0151973Y0134049D01*
X0150791Y0134126D01*
X0040492Y0134126D01*
X0039310Y0134049D01*
X0038659Y0133874D01*
X0040512Y0133874D01*
X0042972Y0132855D01*
X0044855Y0130972D01*
X0045874Y0128512D01*
X0045874Y0125850D01*
X0044855Y0123390D01*
X0042972Y0121507D01*
X0040512Y0120488D01*
X0037850Y0120488D01*
X0035390Y0121507D01*
X0033507Y0123390D01*
X0032488Y0125850D01*
X0032488Y0128512D01*
X0033373Y0130648D01*
X0033308Y0130583D01*
X0032126Y0128536D01*
X0032126Y0128536D01*
X0031514Y0126253D01*
X0031437Y0125071D01*
X0031437Y0022040D01*
X0031437Y0021492D01*
X0031514Y0020310D01*
X0031481Y0020820D02*
X0032488Y0020820D01*
X0032488Y0021512D02*
X0032488Y0018850D01*
X0033507Y0016390D01*
X0035390Y0014507D01*
X0037850Y0013488D01*
X0040512Y0013488D01*
X0042972Y0014507D01*
X0044855Y0016390D01*
X0045874Y0018850D01*
X0045874Y0021512D01*
X0044855Y0023972D01*
X0042972Y0025855D01*
X0040512Y0026874D01*
X0037850Y0026874D01*
X0035390Y0025855D01*
X0033507Y0023972D01*
X0032488Y0021512D01*
X0033179Y0023181D02*
X0031437Y0023181D01*
X0031437Y0025542D02*
X0035077Y0025542D01*
X0031437Y0027903D02*
X0159846Y0027903D01*
X0159846Y0025542D02*
X0156286Y0025542D01*
X0155972Y0025855D02*
X0153512Y0026874D01*
X0150850Y0026874D01*
X0148390Y0025855D01*
X0146507Y0023972D01*
X0145488Y0021512D01*
X0145488Y0018850D01*
X0146507Y0016390D01*
X0148390Y0014507D01*
X0150850Y0013488D01*
X0153512Y0013488D01*
X0155972Y0014507D01*
X0157855Y0016390D01*
X0158874Y0018850D01*
X0158874Y0021512D01*
X0157855Y0023972D01*
X0155972Y0025855D01*
X0158183Y0023181D02*
X0159846Y0023181D01*
X0159802Y0020820D02*
X0158874Y0020820D01*
X0158712Y0018460D02*
X0159273Y0018460D01*
X0158044Y0016099D02*
X0157564Y0016099D01*
X0155317Y0013738D02*
X0154116Y0013738D01*
X0150246Y0013738D02*
X0041116Y0013738D01*
X0037246Y0013738D02*
X0035967Y0013738D01*
X0033798Y0016099D02*
X0033239Y0016099D01*
X0032650Y0018460D02*
X0032010Y0018460D01*
X0043286Y0025542D02*
X0148077Y0025542D01*
X0146179Y0023181D02*
X0045183Y0023181D01*
X0045874Y0020820D02*
X0145488Y0020820D01*
X0145650Y0018460D02*
X0045712Y0018460D01*
X0044564Y0016099D02*
X0146798Y0016099D01*
X0159846Y0030263D02*
X0031437Y0030263D01*
X0031437Y0032624D02*
X0159846Y0032624D01*
X0159846Y0034985D02*
X0031437Y0034985D01*
X0031437Y0037345D02*
X0159846Y0037345D01*
X0159846Y0039706D02*
X0031437Y0039706D01*
X0031437Y0042067D02*
X0052927Y0042067D01*
X0053571Y0041800D02*
X0051520Y0042650D01*
X0049950Y0044220D01*
X0049100Y0046271D01*
X0049100Y0056091D01*
X0049950Y0058143D01*
X0051520Y0059713D01*
X0053571Y0060562D01*
X0055791Y0060562D01*
X0057843Y0059713D01*
X0059413Y0058143D01*
X0059681Y0057494D01*
X0059950Y0058143D01*
X0061520Y0059713D01*
X0063571Y0060562D01*
X0065791Y0060562D01*
X0067843Y0059713D01*
X0069413Y0058143D01*
X0069681Y0057494D01*
X0069950Y0058143D01*
X0071520Y0059713D01*
X0073571Y0060562D01*
X0075791Y0060562D01*
X0077843Y0059713D01*
X0079413Y0058143D01*
X0079681Y0057494D01*
X0079950Y0058143D01*
X0081520Y0059713D01*
X0083571Y0060562D01*
X0085791Y0060562D01*
X0087843Y0059713D01*
X0089413Y0058143D01*
X0089681Y0057494D01*
X0089950Y0058143D01*
X0091520Y0059713D01*
X0093571Y0060562D01*
X0095791Y0060562D01*
X0097843Y0059713D01*
X0099413Y0058143D01*
X0099681Y0057494D01*
X0099950Y0058143D01*
X0101520Y0059713D01*
X0103571Y0060562D01*
X0105791Y0060562D01*
X0107843Y0059713D01*
X0109413Y0058143D01*
X0109681Y0057494D01*
X0109950Y0058143D01*
X0111520Y0059713D01*
X0113571Y0060562D01*
X0115791Y0060562D01*
X0117843Y0059713D01*
X0119413Y0058143D01*
X0119487Y0057962D01*
X0119566Y0058116D01*
X0120119Y0058878D01*
X0120785Y0059543D01*
X0121546Y0060097D01*
X0122385Y0060524D01*
X0123281Y0060815D01*
X0124210Y0060962D01*
X0124681Y0060962D01*
X0124681Y0051181D01*
X0124681Y0051181D01*
X0124681Y0041400D01*
X0124210Y0041400D01*
X0123281Y0041547D01*
X0122385Y0041838D01*
X0121546Y0042266D01*
X0120785Y0042819D01*
X0120119Y0043485D01*
X0119566Y0044246D01*
X0119487Y0044400D01*
X0119413Y0044220D01*
X0117843Y0042650D01*
X0115791Y0041800D01*
X0113571Y0041800D01*
X0111520Y0042650D01*
X0109950Y0044220D01*
X0109681Y0044868D01*
X0109413Y0044220D01*
X0107843Y0042650D01*
X0105791Y0041800D01*
X0103571Y0041800D01*
X0101520Y0042650D01*
X0099950Y0044220D01*
X0099681Y0044868D01*
X0099413Y0044220D01*
X0097843Y0042650D01*
X0095791Y0041800D01*
X0093571Y0041800D01*
X0091520Y0042650D01*
X0089950Y0044220D01*
X0089681Y0044868D01*
X0089413Y0044220D01*
X0087843Y0042650D01*
X0085791Y0041800D01*
X0083571Y0041800D01*
X0081520Y0042650D01*
X0079950Y0044220D01*
X0079681Y0044868D01*
X0079413Y0044220D01*
X0077843Y0042650D01*
X0075791Y0041800D01*
X0073571Y0041800D01*
X0071520Y0042650D01*
X0069950Y0044220D01*
X0069681Y0044868D01*
X0069413Y0044220D01*
X0067843Y0042650D01*
X0065791Y0041800D01*
X0063571Y0041800D01*
X0061520Y0042650D01*
X0059950Y0044220D01*
X0059681Y0044868D01*
X0059413Y0044220D01*
X0057843Y0042650D01*
X0055791Y0041800D01*
X0053571Y0041800D01*
X0056435Y0042067D02*
X0062927Y0042067D01*
X0066435Y0042067D02*
X0072927Y0042067D01*
X0069864Y0044428D02*
X0069499Y0044428D01*
X0076435Y0042067D02*
X0082927Y0042067D01*
X0086435Y0042067D02*
X0092927Y0042067D01*
X0089864Y0044428D02*
X0089499Y0044428D01*
X0096435Y0042067D02*
X0102927Y0042067D01*
X0106435Y0042067D02*
X0112927Y0042067D01*
X0109864Y0044428D02*
X0109499Y0044428D01*
X0116435Y0042067D02*
X0121936Y0042067D01*
X0124681Y0042067D02*
X0124681Y0042067D01*
X0124681Y0041400D02*
X0125152Y0041400D01*
X0126082Y0041547D01*
X0126977Y0041838D01*
X0127816Y0042266D01*
X0128578Y0042819D01*
X0129243Y0043485D01*
X0129797Y0044246D01*
X0130224Y0045085D01*
X0130515Y0045981D01*
X0130662Y0046910D01*
X0130662Y0051181D01*
X0124681Y0051181D01*
X0124681Y0041400D01*
X0127426Y0042067D02*
X0159846Y0042067D01*
X0159846Y0044428D02*
X0129889Y0044428D01*
X0130643Y0046788D02*
X0159846Y0046788D01*
X0159846Y0049149D02*
X0130662Y0049149D01*
X0130662Y0051181D02*
X0130662Y0055452D01*
X0130515Y0056382D01*
X0130224Y0057277D01*
X0129797Y0058116D01*
X0129243Y0058878D01*
X0128578Y0059543D01*
X0127816Y0060097D01*
X0126977Y0060524D01*
X0126082Y0060815D01*
X0125152Y0060962D01*
X0124681Y0060962D01*
X0124681Y0051181D01*
X0124681Y0051181D01*
X0124681Y0051181D01*
X0130662Y0051181D01*
X0130662Y0051510D02*
X0159846Y0051510D01*
X0159846Y0053870D02*
X0130662Y0053870D01*
X0130539Y0056231D02*
X0159846Y0056231D01*
X0159846Y0058592D02*
X0129451Y0058592D01*
X0124681Y0058592D02*
X0124681Y0058592D01*
X0124681Y0056231D02*
X0124681Y0056231D01*
X0124681Y0053870D02*
X0124681Y0053870D01*
X0124681Y0051510D02*
X0124681Y0051510D01*
X0124681Y0049149D02*
X0124681Y0049149D01*
X0124681Y0046788D02*
X0124681Y0046788D01*
X0124681Y0044428D02*
X0124681Y0044428D01*
X0119911Y0058592D02*
X0118963Y0058592D01*
X0124150Y0060953D02*
X0031437Y0060953D01*
X0031437Y0063313D02*
X0159846Y0063313D01*
X0159846Y0060953D02*
X0125213Y0060953D01*
X0124681Y0060953D02*
X0124681Y0060953D01*
X0110399Y0058592D02*
X0108963Y0058592D01*
X0100399Y0058592D02*
X0098963Y0058592D01*
X0090399Y0058592D02*
X0088963Y0058592D01*
X0080399Y0058592D02*
X0078963Y0058592D01*
X0070399Y0058592D02*
X0068963Y0058592D01*
X0060399Y0058592D02*
X0058963Y0058592D01*
X0050399Y0058592D02*
X0031437Y0058592D01*
X0031437Y0056231D02*
X0049158Y0056231D01*
X0049100Y0053870D02*
X0031437Y0053870D01*
X0031437Y0051510D02*
X0049100Y0051510D01*
X0049100Y0049149D02*
X0031437Y0049149D01*
X0031437Y0046788D02*
X0049100Y0046788D01*
X0049864Y0044428D02*
X0031437Y0044428D01*
X0031437Y0065674D02*
X0159846Y0065674D01*
X0159846Y0068035D02*
X0031437Y0068035D01*
X0031437Y0070395D02*
X0159846Y0070395D01*
X0159846Y0072756D02*
X0031437Y0072756D01*
X0031437Y0075117D02*
X0159846Y0075117D01*
X0159846Y0077478D02*
X0031437Y0077478D01*
X0031437Y0079838D02*
X0159846Y0079838D01*
X0159846Y0082199D02*
X0031437Y0082199D01*
X0031437Y0084560D02*
X0159846Y0084560D01*
X0159846Y0086920D02*
X0031437Y0086920D01*
X0031437Y0089281D02*
X0159846Y0089281D01*
X0159846Y0091642D02*
X0031437Y0091642D01*
X0031437Y0094003D02*
X0159846Y0094003D01*
X0159846Y0096363D02*
X0031437Y0096363D01*
X0031437Y0098724D02*
X0159846Y0098724D01*
X0159846Y0101085D02*
X0031437Y0101085D01*
X0031437Y0103445D02*
X0159846Y0103445D01*
X0159846Y0105806D02*
X0031437Y0105806D01*
X0031437Y0108167D02*
X0159846Y0108167D01*
X0159846Y0110528D02*
X0031437Y0110528D01*
X0031437Y0112888D02*
X0159846Y0112888D01*
X0159846Y0115249D02*
X0031437Y0115249D01*
X0031437Y0117610D02*
X0159846Y0117610D01*
X0159846Y0119970D02*
X0031437Y0119970D01*
X0031437Y0122331D02*
X0034566Y0122331D01*
X0032968Y0124692D02*
X0031437Y0124692D01*
X0031729Y0127053D02*
X0032488Y0127053D01*
X0032633Y0129413D02*
X0032861Y0129413D01*
X0043796Y0122331D02*
X0147566Y0122331D01*
X0145968Y0124692D02*
X0045394Y0124692D01*
X0045874Y0127053D02*
X0145488Y0127053D01*
X0145861Y0129413D02*
X0045501Y0129413D01*
X0044053Y0131774D02*
X0147309Y0131774D01*
X0158501Y0129413D02*
X0158651Y0129413D01*
X0158874Y0127053D02*
X0159555Y0127053D01*
X0159846Y0124692D02*
X0158394Y0124692D01*
X0159846Y0122331D02*
X0156796Y0122331D01*
X0099864Y0044428D02*
X0099499Y0044428D01*
X0079864Y0044428D02*
X0079499Y0044428D01*
X0059864Y0044428D02*
X0059499Y0044428D01*
D12*
X0065681Y0076173D03*
X0122181Y0079681D03*
D13*
X0117681Y0075181D01*
X0152681Y0110181D02*
X0152681Y0110681D01*
X0066173Y0075673D02*
X0065681Y0076173D01*
X0066173Y0075673D02*
X0065681Y0075181D01*
D14*
X0152681Y0110681D03*
D15*
X0152681Y0110181D02*
X0122181Y0079681D01*
X0117681Y0075181D02*
X0065681Y0075181D01*
M02*
