%
M48
M72
T01C0.02362
T02C0.02756
T03C0.03150
T04C0.03200
T05C0.03937
T06C0.11811
%
T01
X23800Y43863
X23800Y76737
T02
X35611Y69060
X35611Y51540
T03
X62800Y97800
X62800Y107800
X62800Y117800
X62800Y127800
X62800Y137800
X62800Y147800
X62800Y157800
X62800Y167800
X62800Y177800
X62800Y187800
X62800Y197800
X62800Y207800
X77800Y182800
X77800Y172800
X77800Y142800
X77800Y132800
X77800Y87800
X67800Y87800
X87800Y87800
X97800Y87800
X107800Y87800
X117800Y87800
X122800Y97800
X122800Y107800
X122800Y117800
X122800Y127800
X122800Y137800
X122800Y147800
X122800Y157800
X122800Y167800
X122800Y177800
X122800Y187800
X122800Y197800
X122800Y207800
X99300Y61800
X99300Y51800
X99300Y41800
X99300Y31800
T04
X140800Y46800
X140800Y56800
X140800Y66800
X140800Y76800
X140800Y86800
T05
X140694Y207662
X135414Y294001
X60800Y221300
X51300Y306800
T06
X30300Y308800
X156800Y310300
X154300Y28300
X31800Y27800
M30
