G75*
%MOIN*%
%OFA0B0*%
%FSLAX25Y25*%
%IPPOS*%
%LPD*%
%AMOC8*
5,1,8,0,0,1.08239X$1,22.5*
%
%ADD10C,0.00600*%
%ADD11C,0.00400*%
D10*
X0027100Y0086356D02*
X0027100Y0088134D01*
X0027100Y0086356D02*
X0033500Y0086356D01*
X0030656Y0086356D02*
X0030656Y0088134D01*
X0030654Y0088217D01*
X0030648Y0088300D01*
X0030638Y0088383D01*
X0030625Y0088466D01*
X0030607Y0088547D01*
X0030586Y0088628D01*
X0030561Y0088707D01*
X0030532Y0088785D01*
X0030500Y0088862D01*
X0030464Y0088937D01*
X0030425Y0089011D01*
X0030382Y0089082D01*
X0030336Y0089152D01*
X0030286Y0089219D01*
X0030234Y0089284D01*
X0030179Y0089346D01*
X0030120Y0089406D01*
X0030059Y0089463D01*
X0029996Y0089517D01*
X0029930Y0089568D01*
X0029861Y0089615D01*
X0029791Y0089660D01*
X0029718Y0089701D01*
X0029644Y0089738D01*
X0029568Y0089773D01*
X0029490Y0089803D01*
X0029412Y0089830D01*
X0029331Y0089853D01*
X0029250Y0089873D01*
X0029168Y0089888D01*
X0029086Y0089900D01*
X0029003Y0089908D01*
X0028920Y0089912D01*
X0028836Y0089912D01*
X0028753Y0089908D01*
X0028670Y0089900D01*
X0028588Y0089888D01*
X0028506Y0089873D01*
X0028425Y0089853D01*
X0028344Y0089830D01*
X0028266Y0089803D01*
X0028188Y0089773D01*
X0028112Y0089738D01*
X0028038Y0089701D01*
X0027965Y0089660D01*
X0027895Y0089615D01*
X0027826Y0089568D01*
X0027760Y0089517D01*
X0027697Y0089463D01*
X0027636Y0089406D01*
X0027577Y0089346D01*
X0027522Y0089284D01*
X0027470Y0089219D01*
X0027420Y0089152D01*
X0027374Y0089082D01*
X0027331Y0089011D01*
X0027292Y0088937D01*
X0027256Y0088862D01*
X0027224Y0088785D01*
X0027195Y0088707D01*
X0027170Y0088628D01*
X0027149Y0088547D01*
X0027131Y0088466D01*
X0027118Y0088383D01*
X0027108Y0088300D01*
X0027102Y0088217D01*
X0027100Y0088134D01*
X0030656Y0092168D02*
X0032078Y0092168D01*
X0032152Y0092170D01*
X0032227Y0092176D01*
X0032300Y0092186D01*
X0032374Y0092199D01*
X0032446Y0092216D01*
X0032517Y0092238D01*
X0032588Y0092262D01*
X0032656Y0092291D01*
X0032724Y0092323D01*
X0032789Y0092359D01*
X0032852Y0092397D01*
X0032914Y0092440D01*
X0032973Y0092485D01*
X0033030Y0092533D01*
X0033084Y0092584D01*
X0033135Y0092638D01*
X0033183Y0092695D01*
X0033228Y0092754D01*
X0033271Y0092816D01*
X0033309Y0092879D01*
X0033345Y0092944D01*
X0033377Y0093012D01*
X0033406Y0093080D01*
X0033430Y0093151D01*
X0033452Y0093222D01*
X0033469Y0093294D01*
X0033482Y0093368D01*
X0033492Y0093441D01*
X0033498Y0093516D01*
X0033500Y0093590D01*
X0033498Y0093664D01*
X0033492Y0093739D01*
X0033482Y0093812D01*
X0033469Y0093886D01*
X0033452Y0093958D01*
X0033430Y0094029D01*
X0033406Y0094100D01*
X0033377Y0094168D01*
X0033345Y0094236D01*
X0033309Y0094301D01*
X0033271Y0094364D01*
X0033228Y0094426D01*
X0033183Y0094485D01*
X0033135Y0094542D01*
X0033084Y0094596D01*
X0033030Y0094647D01*
X0032973Y0094695D01*
X0032914Y0094740D01*
X0032852Y0094783D01*
X0032789Y0094821D01*
X0032724Y0094857D01*
X0032656Y0094889D01*
X0032588Y0094918D01*
X0032517Y0094942D01*
X0032446Y0094964D01*
X0032374Y0094981D01*
X0032300Y0094994D01*
X0032227Y0095004D01*
X0032152Y0095010D01*
X0032078Y0095012D01*
X0030656Y0095012D01*
X0030582Y0095010D01*
X0030507Y0095004D01*
X0030434Y0094994D01*
X0030360Y0094981D01*
X0030288Y0094964D01*
X0030217Y0094942D01*
X0030146Y0094918D01*
X0030078Y0094889D01*
X0030010Y0094857D01*
X0029945Y0094821D01*
X0029882Y0094783D01*
X0029820Y0094740D01*
X0029761Y0094695D01*
X0029704Y0094647D01*
X0029650Y0094596D01*
X0029599Y0094542D01*
X0029551Y0094485D01*
X0029506Y0094426D01*
X0029463Y0094364D01*
X0029425Y0094301D01*
X0029389Y0094236D01*
X0029357Y0094168D01*
X0029328Y0094100D01*
X0029304Y0094029D01*
X0029282Y0093958D01*
X0029265Y0093886D01*
X0029252Y0093812D01*
X0029242Y0093739D01*
X0029236Y0093664D01*
X0029234Y0093590D01*
X0029236Y0093516D01*
X0029242Y0093441D01*
X0029252Y0093368D01*
X0029265Y0093294D01*
X0029282Y0093222D01*
X0029304Y0093151D01*
X0029328Y0093080D01*
X0029357Y0093012D01*
X0029389Y0092944D01*
X0029425Y0092879D01*
X0029463Y0092816D01*
X0029506Y0092754D01*
X0029551Y0092695D01*
X0029599Y0092638D01*
X0029650Y0092584D01*
X0029704Y0092533D01*
X0029761Y0092485D01*
X0029820Y0092440D01*
X0029882Y0092397D01*
X0029945Y0092359D01*
X0030010Y0092323D01*
X0030078Y0092291D01*
X0030146Y0092262D01*
X0030217Y0092238D01*
X0030288Y0092216D01*
X0030360Y0092199D01*
X0030434Y0092186D01*
X0030507Y0092176D01*
X0030582Y0092170D01*
X0030656Y0092168D01*
X0029233Y0097405D02*
X0033500Y0098472D01*
X0030656Y0099539D01*
X0033500Y0100605D01*
X0029233Y0101672D01*
X0030656Y0104065D02*
X0032433Y0104065D01*
X0031367Y0104065D02*
X0031367Y0106910D01*
X0030656Y0106910D01*
X0030582Y0106908D01*
X0030507Y0106902D01*
X0030434Y0106892D01*
X0030360Y0106879D01*
X0030288Y0106862D01*
X0030217Y0106840D01*
X0030146Y0106816D01*
X0030078Y0106787D01*
X0030010Y0106755D01*
X0029945Y0106719D01*
X0029882Y0106681D01*
X0029820Y0106638D01*
X0029761Y0106593D01*
X0029704Y0106545D01*
X0029650Y0106494D01*
X0029599Y0106440D01*
X0029551Y0106383D01*
X0029506Y0106324D01*
X0029463Y0106262D01*
X0029425Y0106199D01*
X0029389Y0106134D01*
X0029357Y0106066D01*
X0029328Y0105998D01*
X0029304Y0105927D01*
X0029282Y0105856D01*
X0029265Y0105784D01*
X0029252Y0105710D01*
X0029242Y0105637D01*
X0029236Y0105562D01*
X0029234Y0105488D01*
X0029236Y0105414D01*
X0029242Y0105339D01*
X0029252Y0105266D01*
X0029265Y0105192D01*
X0029282Y0105120D01*
X0029304Y0105049D01*
X0029328Y0104978D01*
X0029357Y0104910D01*
X0029389Y0104842D01*
X0029425Y0104777D01*
X0029463Y0104714D01*
X0029506Y0104652D01*
X0029551Y0104593D01*
X0029599Y0104536D01*
X0029650Y0104482D01*
X0029704Y0104431D01*
X0029761Y0104383D01*
X0029820Y0104338D01*
X0029882Y0104295D01*
X0029945Y0104257D01*
X0030010Y0104221D01*
X0030078Y0104189D01*
X0030146Y0104160D01*
X0030217Y0104136D01*
X0030288Y0104114D01*
X0030360Y0104097D01*
X0030434Y0104084D01*
X0030507Y0104074D01*
X0030582Y0104068D01*
X0030656Y0104066D01*
X0032433Y0104065D02*
X0032497Y0104067D01*
X0032562Y0104073D01*
X0032625Y0104082D01*
X0032688Y0104096D01*
X0032750Y0104113D01*
X0032811Y0104134D01*
X0032871Y0104159D01*
X0032929Y0104187D01*
X0032985Y0104219D01*
X0033039Y0104254D01*
X0033091Y0104292D01*
X0033141Y0104333D01*
X0033187Y0104378D01*
X0033232Y0104424D01*
X0033273Y0104474D01*
X0033311Y0104526D01*
X0033346Y0104580D01*
X0033378Y0104636D01*
X0033406Y0104694D01*
X0033431Y0104754D01*
X0033452Y0104815D01*
X0033469Y0104877D01*
X0033483Y0104940D01*
X0033492Y0105003D01*
X0033498Y0105068D01*
X0033500Y0105132D01*
X0033500Y0106910D01*
X0033500Y0109637D02*
X0029233Y0109637D01*
X0029233Y0111771D01*
X0029944Y0111771D01*
X0029233Y0116975D02*
X0033500Y0116975D01*
X0033500Y0119656D02*
X0029233Y0119656D01*
X0029233Y0121433D01*
X0029235Y0121497D01*
X0029241Y0121562D01*
X0029250Y0121625D01*
X0029264Y0121688D01*
X0029281Y0121750D01*
X0029302Y0121811D01*
X0029327Y0121871D01*
X0029355Y0121929D01*
X0029387Y0121985D01*
X0029422Y0122039D01*
X0029460Y0122091D01*
X0029501Y0122141D01*
X0029546Y0122187D01*
X0029592Y0122232D01*
X0029642Y0122273D01*
X0029694Y0122311D01*
X0029748Y0122346D01*
X0029804Y0122378D01*
X0029862Y0122406D01*
X0029922Y0122431D01*
X0029983Y0122452D01*
X0030045Y0122469D01*
X0030108Y0122483D01*
X0030171Y0122492D01*
X0030236Y0122498D01*
X0030300Y0122500D01*
X0033500Y0122500D01*
X0027456Y0117153D02*
X0027456Y0116797D01*
X0027100Y0116797D01*
X0027100Y0117153D01*
X0027456Y0117153D01*
X0027100Y0158100D02*
X0030656Y0160233D01*
X0027100Y0162367D01*
X0033500Y0162367D01*
X0033500Y0165157D02*
X0029233Y0165157D01*
X0027456Y0165334D02*
X0027456Y0164979D01*
X0027100Y0164979D01*
X0027100Y0165334D01*
X0027456Y0165334D01*
X0027100Y0167903D02*
X0033500Y0167903D01*
X0031367Y0167903D02*
X0029233Y0170748D01*
X0030478Y0169148D02*
X0033500Y0170748D01*
X0033500Y0174181D02*
X0033500Y0175781D01*
X0030300Y0175781D01*
X0031011Y0175781D02*
X0031011Y0174181D01*
X0030300Y0175781D02*
X0030236Y0175779D01*
X0030171Y0175773D01*
X0030108Y0175764D01*
X0030045Y0175750D01*
X0029983Y0175733D01*
X0029922Y0175712D01*
X0029862Y0175687D01*
X0029804Y0175659D01*
X0029748Y0175627D01*
X0029694Y0175592D01*
X0029642Y0175554D01*
X0029592Y0175513D01*
X0029546Y0175468D01*
X0029501Y0175422D01*
X0029460Y0175372D01*
X0029422Y0175320D01*
X0029387Y0175266D01*
X0029355Y0175210D01*
X0029327Y0175152D01*
X0029302Y0175092D01*
X0029281Y0175031D01*
X0029264Y0174969D01*
X0029250Y0174906D01*
X0029241Y0174843D01*
X0029235Y0174778D01*
X0029233Y0174714D01*
X0029233Y0173292D01*
X0031012Y0174181D02*
X0031014Y0174111D01*
X0031020Y0174042D01*
X0031030Y0173973D01*
X0031043Y0173904D01*
X0031061Y0173837D01*
X0031082Y0173770D01*
X0031107Y0173705D01*
X0031135Y0173641D01*
X0031167Y0173579D01*
X0031203Y0173519D01*
X0031241Y0173461D01*
X0031283Y0173405D01*
X0031328Y0173352D01*
X0031376Y0173301D01*
X0031427Y0173253D01*
X0031480Y0173208D01*
X0031536Y0173166D01*
X0031594Y0173128D01*
X0031654Y0173092D01*
X0031716Y0173060D01*
X0031780Y0173032D01*
X0031845Y0173007D01*
X0031912Y0172986D01*
X0031979Y0172968D01*
X0032048Y0172955D01*
X0032117Y0172945D01*
X0032186Y0172939D01*
X0032256Y0172937D01*
X0032326Y0172939D01*
X0032395Y0172945D01*
X0032464Y0172955D01*
X0032533Y0172968D01*
X0032600Y0172986D01*
X0032667Y0173007D01*
X0032732Y0173032D01*
X0032796Y0173060D01*
X0032858Y0173092D01*
X0032918Y0173128D01*
X0032976Y0173166D01*
X0033032Y0173208D01*
X0033085Y0173253D01*
X0033136Y0173301D01*
X0033184Y0173352D01*
X0033229Y0173405D01*
X0033271Y0173461D01*
X0033309Y0173519D01*
X0033345Y0173579D01*
X0033377Y0173641D01*
X0033405Y0173705D01*
X0033430Y0173770D01*
X0033451Y0173837D01*
X0033469Y0173904D01*
X0033482Y0173973D01*
X0033492Y0174042D01*
X0033498Y0174111D01*
X0033500Y0174181D01*
X0032433Y0178504D02*
X0030656Y0178504D01*
X0031367Y0178504D02*
X0031367Y0181348D01*
X0030656Y0181348D01*
X0030582Y0181346D01*
X0030507Y0181340D01*
X0030434Y0181330D01*
X0030360Y0181317D01*
X0030288Y0181300D01*
X0030217Y0181278D01*
X0030146Y0181254D01*
X0030078Y0181225D01*
X0030010Y0181193D01*
X0029945Y0181157D01*
X0029882Y0181119D01*
X0029820Y0181076D01*
X0029761Y0181031D01*
X0029704Y0180983D01*
X0029650Y0180932D01*
X0029599Y0180878D01*
X0029551Y0180821D01*
X0029506Y0180762D01*
X0029463Y0180700D01*
X0029425Y0180637D01*
X0029389Y0180572D01*
X0029357Y0180504D01*
X0029328Y0180436D01*
X0029304Y0180365D01*
X0029282Y0180294D01*
X0029265Y0180222D01*
X0029252Y0180148D01*
X0029242Y0180075D01*
X0029236Y0180000D01*
X0029234Y0179926D01*
X0029236Y0179852D01*
X0029242Y0179777D01*
X0029252Y0179704D01*
X0029265Y0179630D01*
X0029282Y0179558D01*
X0029304Y0179487D01*
X0029328Y0179416D01*
X0029357Y0179348D01*
X0029389Y0179280D01*
X0029425Y0179215D01*
X0029463Y0179152D01*
X0029506Y0179090D01*
X0029551Y0179031D01*
X0029599Y0178974D01*
X0029650Y0178920D01*
X0029704Y0178869D01*
X0029761Y0178821D01*
X0029820Y0178776D01*
X0029882Y0178733D01*
X0029945Y0178695D01*
X0030010Y0178659D01*
X0030078Y0178627D01*
X0030146Y0178598D01*
X0030217Y0178574D01*
X0030288Y0178552D01*
X0030360Y0178535D01*
X0030434Y0178522D01*
X0030507Y0178512D01*
X0030582Y0178506D01*
X0030656Y0178504D01*
X0032433Y0178504D02*
X0032497Y0178506D01*
X0032562Y0178512D01*
X0032625Y0178521D01*
X0032688Y0178535D01*
X0032750Y0178552D01*
X0032811Y0178573D01*
X0032871Y0178598D01*
X0032929Y0178626D01*
X0032985Y0178658D01*
X0033039Y0178693D01*
X0033091Y0178731D01*
X0033141Y0178772D01*
X0033187Y0178817D01*
X0033232Y0178863D01*
X0033273Y0178913D01*
X0033311Y0178965D01*
X0033346Y0179019D01*
X0033378Y0179075D01*
X0033406Y0179133D01*
X0033431Y0179193D01*
X0033452Y0179254D01*
X0033469Y0179316D01*
X0033483Y0179379D01*
X0033492Y0179442D01*
X0033498Y0179507D01*
X0033500Y0179571D01*
X0033500Y0181348D01*
X0032433Y0183931D02*
X0027100Y0183931D01*
X0028700Y0191093D02*
X0033500Y0194115D01*
X0033322Y0192160D02*
X0031367Y0194826D01*
X0028700Y0192871D02*
X0031900Y0190738D01*
X0031946Y0190705D01*
X0031995Y0190675D01*
X0032046Y0190649D01*
X0032098Y0190625D01*
X0032152Y0190606D01*
X0032207Y0190589D01*
X0032262Y0190577D01*
X0032319Y0190567D01*
X0032376Y0190562D01*
X0032433Y0190560D01*
X0032433Y0190559D02*
X0032497Y0190561D01*
X0032562Y0190567D01*
X0032625Y0190576D01*
X0032688Y0190590D01*
X0032750Y0190607D01*
X0032811Y0190628D01*
X0032871Y0190653D01*
X0032929Y0190681D01*
X0032985Y0190713D01*
X0033039Y0190748D01*
X0033091Y0190786D01*
X0033141Y0190827D01*
X0033187Y0190872D01*
X0033232Y0190918D01*
X0033273Y0190968D01*
X0033311Y0191020D01*
X0033346Y0191074D01*
X0033378Y0191130D01*
X0033406Y0191188D01*
X0033431Y0191248D01*
X0033452Y0191309D01*
X0033469Y0191371D01*
X0033483Y0191434D01*
X0033492Y0191497D01*
X0033498Y0191562D01*
X0033500Y0191626D01*
X0033498Y0191683D01*
X0033493Y0191740D01*
X0033483Y0191797D01*
X0033471Y0191852D01*
X0033454Y0191907D01*
X0033435Y0191961D01*
X0033411Y0192013D01*
X0033385Y0192064D01*
X0033355Y0192113D01*
X0033322Y0192159D01*
X0033500Y0184997D02*
X0033498Y0184933D01*
X0033492Y0184868D01*
X0033483Y0184805D01*
X0033469Y0184742D01*
X0033452Y0184680D01*
X0033431Y0184619D01*
X0033406Y0184559D01*
X0033378Y0184501D01*
X0033346Y0184445D01*
X0033311Y0184391D01*
X0033273Y0184339D01*
X0033232Y0184289D01*
X0033187Y0184243D01*
X0033141Y0184198D01*
X0033091Y0184157D01*
X0033039Y0184119D01*
X0032985Y0184084D01*
X0032929Y0184052D01*
X0032871Y0184024D01*
X0032811Y0183999D01*
X0032750Y0183978D01*
X0032688Y0183961D01*
X0032625Y0183947D01*
X0032562Y0183938D01*
X0032497Y0183932D01*
X0032433Y0183930D01*
X0027100Y0191982D02*
X0027102Y0192046D01*
X0027108Y0192109D01*
X0027117Y0192172D01*
X0027131Y0192234D01*
X0027148Y0192295D01*
X0027169Y0192355D01*
X0027193Y0192414D01*
X0027221Y0192471D01*
X0027253Y0192527D01*
X0027288Y0192580D01*
X0027325Y0192631D01*
X0027366Y0192680D01*
X0027410Y0192726D01*
X0027457Y0192769D01*
X0027506Y0192810D01*
X0027557Y0192847D01*
X0027611Y0192881D01*
X0027667Y0192912D01*
X0027724Y0192940D01*
X0027783Y0192964D01*
X0027843Y0192984D01*
X0027905Y0193001D01*
X0027967Y0193013D01*
X0028030Y0193022D01*
X0028093Y0193028D01*
X0028157Y0193029D01*
X0028221Y0193026D01*
X0028284Y0193020D01*
X0028347Y0193010D01*
X0028409Y0192996D01*
X0028470Y0192978D01*
X0028530Y0192957D01*
X0028588Y0192931D01*
X0028645Y0192903D01*
X0028700Y0192871D01*
X0028700Y0191093D02*
X0028645Y0191061D01*
X0028588Y0191033D01*
X0028530Y0191007D01*
X0028470Y0190986D01*
X0028409Y0190968D01*
X0028347Y0190954D01*
X0028284Y0190944D01*
X0028221Y0190938D01*
X0028157Y0190935D01*
X0028093Y0190936D01*
X0028030Y0190942D01*
X0027967Y0190951D01*
X0027905Y0190963D01*
X0027843Y0190980D01*
X0027783Y0191000D01*
X0027724Y0191024D01*
X0027667Y0191052D01*
X0027611Y0191083D01*
X0027557Y0191117D01*
X0027506Y0191154D01*
X0027457Y0191195D01*
X0027410Y0191238D01*
X0027366Y0191284D01*
X0027325Y0191333D01*
X0027288Y0191384D01*
X0027253Y0191437D01*
X0027221Y0191493D01*
X0027193Y0191550D01*
X0027169Y0191609D01*
X0027148Y0191669D01*
X0027131Y0191730D01*
X0027117Y0191792D01*
X0027108Y0191855D01*
X0027102Y0191918D01*
X0027100Y0191982D01*
X0027100Y0200109D02*
X0027100Y0202954D01*
X0027100Y0204980D02*
X0027100Y0205335D01*
X0027456Y0205335D01*
X0027456Y0204980D01*
X0027100Y0204980D01*
X0029233Y0205158D02*
X0033500Y0205158D01*
X0032433Y0207726D02*
X0027100Y0207726D01*
X0027100Y0210724D02*
X0027100Y0211079D01*
X0027456Y0211079D01*
X0027456Y0210724D01*
X0027100Y0210724D01*
X0029233Y0210901D02*
X0033500Y0210901D01*
X0033500Y0208793D02*
X0033498Y0208729D01*
X0033492Y0208664D01*
X0033483Y0208601D01*
X0033469Y0208538D01*
X0033452Y0208476D01*
X0033431Y0208415D01*
X0033406Y0208355D01*
X0033378Y0208297D01*
X0033346Y0208241D01*
X0033311Y0208187D01*
X0033273Y0208135D01*
X0033232Y0208085D01*
X0033187Y0208039D01*
X0033141Y0207994D01*
X0033091Y0207953D01*
X0033039Y0207915D01*
X0032985Y0207880D01*
X0032929Y0207848D01*
X0032871Y0207820D01*
X0032811Y0207795D01*
X0032750Y0207774D01*
X0032688Y0207757D01*
X0032625Y0207743D01*
X0032562Y0207734D01*
X0032497Y0207728D01*
X0032433Y0207726D01*
X0033500Y0213611D02*
X0033500Y0215389D01*
X0033498Y0215453D01*
X0033492Y0215518D01*
X0033483Y0215581D01*
X0033469Y0215644D01*
X0033452Y0215706D01*
X0033431Y0215767D01*
X0033406Y0215827D01*
X0033378Y0215885D01*
X0033346Y0215941D01*
X0033311Y0215995D01*
X0033273Y0216047D01*
X0033232Y0216097D01*
X0033187Y0216143D01*
X0033141Y0216188D01*
X0033091Y0216229D01*
X0033039Y0216267D01*
X0032985Y0216302D01*
X0032929Y0216334D01*
X0032871Y0216362D01*
X0032811Y0216387D01*
X0032750Y0216408D01*
X0032688Y0216425D01*
X0032625Y0216439D01*
X0032562Y0216448D01*
X0032497Y0216454D01*
X0032433Y0216456D01*
X0032433Y0216455D02*
X0030300Y0216455D01*
X0030300Y0216456D02*
X0030236Y0216454D01*
X0030171Y0216448D01*
X0030108Y0216439D01*
X0030045Y0216425D01*
X0029983Y0216408D01*
X0029922Y0216387D01*
X0029862Y0216362D01*
X0029804Y0216334D01*
X0029748Y0216302D01*
X0029694Y0216267D01*
X0029642Y0216229D01*
X0029592Y0216188D01*
X0029546Y0216143D01*
X0029501Y0216097D01*
X0029460Y0216047D01*
X0029422Y0215995D01*
X0029387Y0215941D01*
X0029355Y0215885D01*
X0029327Y0215827D01*
X0029302Y0215767D01*
X0029281Y0215706D01*
X0029264Y0215644D01*
X0029250Y0215581D01*
X0029241Y0215518D01*
X0029235Y0215453D01*
X0029233Y0215389D01*
X0029233Y0213611D01*
X0035633Y0213611D01*
X0029944Y0202954D02*
X0029944Y0200109D01*
X0027100Y0200109D02*
X0033500Y0200109D01*
X0033500Y0158100D02*
X0027100Y0158100D01*
X0141600Y0130153D02*
X0141956Y0130153D01*
X0141956Y0129797D01*
X0141600Y0129797D01*
X0141600Y0130153D01*
X0143733Y0129975D02*
X0148000Y0129975D01*
X0148000Y0132656D02*
X0143733Y0132656D01*
X0143733Y0134433D01*
X0143735Y0134497D01*
X0143741Y0134562D01*
X0143750Y0134625D01*
X0143764Y0134688D01*
X0143781Y0134750D01*
X0143802Y0134811D01*
X0143827Y0134871D01*
X0143855Y0134929D01*
X0143887Y0134985D01*
X0143922Y0135039D01*
X0143960Y0135091D01*
X0144001Y0135141D01*
X0144046Y0135187D01*
X0144092Y0135232D01*
X0144142Y0135273D01*
X0144194Y0135311D01*
X0144248Y0135346D01*
X0144304Y0135378D01*
X0144362Y0135406D01*
X0144422Y0135431D01*
X0144483Y0135452D01*
X0144545Y0135469D01*
X0144608Y0135483D01*
X0144671Y0135492D01*
X0144736Y0135498D01*
X0144800Y0135500D01*
X0148000Y0135500D01*
X0148000Y0123984D02*
X0148000Y0122206D01*
X0147998Y0122142D01*
X0147992Y0122077D01*
X0147983Y0122014D01*
X0147969Y0121951D01*
X0147952Y0121889D01*
X0147931Y0121828D01*
X0147906Y0121768D01*
X0147878Y0121710D01*
X0147846Y0121654D01*
X0147811Y0121600D01*
X0147773Y0121548D01*
X0147732Y0121498D01*
X0147687Y0121452D01*
X0147641Y0121407D01*
X0147591Y0121366D01*
X0147539Y0121328D01*
X0147485Y0121293D01*
X0147429Y0121261D01*
X0147371Y0121233D01*
X0147311Y0121208D01*
X0147250Y0121187D01*
X0147188Y0121170D01*
X0147125Y0121156D01*
X0147062Y0121147D01*
X0146997Y0121141D01*
X0146933Y0121139D01*
X0144800Y0121139D01*
X0144736Y0121141D01*
X0144671Y0121147D01*
X0144608Y0121156D01*
X0144545Y0121170D01*
X0144483Y0121187D01*
X0144422Y0121208D01*
X0144362Y0121233D01*
X0144304Y0121261D01*
X0144248Y0121293D01*
X0144194Y0121328D01*
X0144142Y0121366D01*
X0144092Y0121407D01*
X0144046Y0121452D01*
X0144001Y0121498D01*
X0143960Y0121548D01*
X0143922Y0121600D01*
X0143887Y0121654D01*
X0143855Y0121710D01*
X0143827Y0121768D01*
X0143802Y0121828D01*
X0143781Y0121889D01*
X0143764Y0121951D01*
X0143750Y0122014D01*
X0143741Y0122077D01*
X0143735Y0122142D01*
X0143733Y0122206D01*
X0143733Y0123984D01*
X0149067Y0123984D01*
X0149131Y0123982D01*
X0149196Y0123976D01*
X0149259Y0123967D01*
X0149322Y0123953D01*
X0149384Y0123936D01*
X0149445Y0123915D01*
X0149505Y0123890D01*
X0149563Y0123862D01*
X0149619Y0123830D01*
X0149673Y0123795D01*
X0149725Y0123757D01*
X0149775Y0123716D01*
X0149821Y0123671D01*
X0149866Y0123625D01*
X0149907Y0123575D01*
X0149945Y0123523D01*
X0149980Y0123469D01*
X0150012Y0123413D01*
X0150040Y0123355D01*
X0150065Y0123295D01*
X0150086Y0123234D01*
X0150103Y0123172D01*
X0150117Y0123109D01*
X0150126Y0123046D01*
X0150132Y0122981D01*
X0150134Y0122917D01*
X0150133Y0122917D02*
X0150133Y0121495D01*
X0146578Y0118679D02*
X0145156Y0118679D01*
X0145082Y0118677D01*
X0145007Y0118671D01*
X0144934Y0118661D01*
X0144860Y0118648D01*
X0144788Y0118631D01*
X0144717Y0118609D01*
X0144646Y0118585D01*
X0144578Y0118556D01*
X0144510Y0118524D01*
X0144445Y0118488D01*
X0144382Y0118450D01*
X0144320Y0118407D01*
X0144261Y0118362D01*
X0144204Y0118314D01*
X0144150Y0118263D01*
X0144099Y0118209D01*
X0144051Y0118152D01*
X0144006Y0118093D01*
X0143963Y0118031D01*
X0143925Y0117968D01*
X0143889Y0117903D01*
X0143857Y0117835D01*
X0143828Y0117767D01*
X0143804Y0117696D01*
X0143782Y0117625D01*
X0143765Y0117553D01*
X0143752Y0117479D01*
X0143742Y0117406D01*
X0143736Y0117331D01*
X0143734Y0117257D01*
X0143736Y0117183D01*
X0143742Y0117108D01*
X0143752Y0117035D01*
X0143765Y0116961D01*
X0143782Y0116889D01*
X0143804Y0116818D01*
X0143828Y0116747D01*
X0143857Y0116679D01*
X0143889Y0116611D01*
X0143925Y0116546D01*
X0143963Y0116483D01*
X0144006Y0116421D01*
X0144051Y0116362D01*
X0144099Y0116305D01*
X0144150Y0116251D01*
X0144204Y0116200D01*
X0144261Y0116152D01*
X0144320Y0116107D01*
X0144382Y0116064D01*
X0144445Y0116026D01*
X0144510Y0115990D01*
X0144578Y0115958D01*
X0144646Y0115929D01*
X0144717Y0115905D01*
X0144788Y0115883D01*
X0144860Y0115866D01*
X0144934Y0115853D01*
X0145007Y0115843D01*
X0145082Y0115837D01*
X0145156Y0115835D01*
X0146578Y0115835D01*
X0146652Y0115837D01*
X0146727Y0115843D01*
X0146800Y0115853D01*
X0146874Y0115866D01*
X0146946Y0115883D01*
X0147017Y0115905D01*
X0147088Y0115929D01*
X0147156Y0115958D01*
X0147224Y0115990D01*
X0147289Y0116026D01*
X0147352Y0116064D01*
X0147414Y0116107D01*
X0147473Y0116152D01*
X0147530Y0116200D01*
X0147584Y0116251D01*
X0147635Y0116305D01*
X0147683Y0116362D01*
X0147728Y0116421D01*
X0147771Y0116483D01*
X0147809Y0116546D01*
X0147845Y0116611D01*
X0147877Y0116679D01*
X0147906Y0116747D01*
X0147930Y0116818D01*
X0147952Y0116889D01*
X0147969Y0116961D01*
X0147982Y0117035D01*
X0147992Y0117108D01*
X0147998Y0117183D01*
X0148000Y0117257D01*
X0147998Y0117331D01*
X0147992Y0117406D01*
X0147982Y0117479D01*
X0147969Y0117553D01*
X0147952Y0117625D01*
X0147930Y0117696D01*
X0147906Y0117767D01*
X0147877Y0117835D01*
X0147845Y0117903D01*
X0147809Y0117968D01*
X0147771Y0118031D01*
X0147728Y0118093D01*
X0147683Y0118152D01*
X0147635Y0118209D01*
X0147584Y0118263D01*
X0147530Y0118314D01*
X0147473Y0118362D01*
X0147414Y0118407D01*
X0147352Y0118450D01*
X0147289Y0118488D01*
X0147224Y0118524D01*
X0147156Y0118556D01*
X0147088Y0118585D01*
X0147017Y0118609D01*
X0146946Y0118631D01*
X0146874Y0118648D01*
X0146800Y0118661D01*
X0146727Y0118671D01*
X0146652Y0118677D01*
X0146578Y0118679D01*
X0144444Y0113899D02*
X0143733Y0113899D01*
X0143733Y0111765D01*
X0148000Y0111765D01*
X0145156Y0107493D02*
X0145156Y0105716D01*
X0145156Y0107493D02*
X0145154Y0107576D01*
X0145148Y0107659D01*
X0145138Y0107742D01*
X0145125Y0107825D01*
X0145107Y0107906D01*
X0145086Y0107987D01*
X0145061Y0108066D01*
X0145032Y0108144D01*
X0145000Y0108221D01*
X0144964Y0108296D01*
X0144925Y0108370D01*
X0144882Y0108441D01*
X0144836Y0108511D01*
X0144786Y0108578D01*
X0144734Y0108643D01*
X0144679Y0108705D01*
X0144620Y0108765D01*
X0144559Y0108822D01*
X0144496Y0108876D01*
X0144430Y0108927D01*
X0144361Y0108974D01*
X0144291Y0109019D01*
X0144218Y0109060D01*
X0144144Y0109097D01*
X0144068Y0109132D01*
X0143990Y0109162D01*
X0143912Y0109189D01*
X0143831Y0109212D01*
X0143750Y0109232D01*
X0143668Y0109247D01*
X0143586Y0109259D01*
X0143503Y0109267D01*
X0143420Y0109271D01*
X0143336Y0109271D01*
X0143253Y0109267D01*
X0143170Y0109259D01*
X0143088Y0109247D01*
X0143006Y0109232D01*
X0142925Y0109212D01*
X0142844Y0109189D01*
X0142766Y0109162D01*
X0142688Y0109132D01*
X0142612Y0109097D01*
X0142538Y0109060D01*
X0142465Y0109019D01*
X0142395Y0108974D01*
X0142326Y0108927D01*
X0142260Y0108876D01*
X0142197Y0108822D01*
X0142136Y0108765D01*
X0142077Y0108705D01*
X0142022Y0108643D01*
X0141970Y0108578D01*
X0141920Y0108511D01*
X0141874Y0108441D01*
X0141831Y0108370D01*
X0141792Y0108296D01*
X0141756Y0108221D01*
X0141724Y0108144D01*
X0141695Y0108066D01*
X0141670Y0107987D01*
X0141649Y0107906D01*
X0141631Y0107825D01*
X0141618Y0107742D01*
X0141608Y0107659D01*
X0141602Y0107576D01*
X0141600Y0107493D01*
X0141600Y0105716D01*
X0148000Y0105716D01*
D11*
X0151022Y0090600D02*
X0152556Y0090600D01*
X0151022Y0090600D02*
X0150960Y0090598D01*
X0150899Y0090593D01*
X0150838Y0090583D01*
X0150777Y0090570D01*
X0150718Y0090554D01*
X0150660Y0090534D01*
X0150603Y0090510D01*
X0150547Y0090483D01*
X0150493Y0090453D01*
X0150441Y0090419D01*
X0150392Y0090382D01*
X0150344Y0090343D01*
X0150299Y0090301D01*
X0150257Y0090256D01*
X0150217Y0090208D01*
X0150181Y0090159D01*
X0150147Y0090107D01*
X0150117Y0090053D01*
X0150090Y0089997D01*
X0150066Y0089940D01*
X0150046Y0089882D01*
X0150030Y0089823D01*
X0150017Y0089762D01*
X0150007Y0089701D01*
X0150002Y0089640D01*
X0150000Y0089578D01*
X0150000Y0087022D01*
X0150002Y0086960D01*
X0150007Y0086899D01*
X0150017Y0086838D01*
X0150030Y0086777D01*
X0150046Y0086718D01*
X0150066Y0086660D01*
X0150090Y0086603D01*
X0150117Y0086547D01*
X0150147Y0086493D01*
X0150181Y0086441D01*
X0150217Y0086392D01*
X0150257Y0086344D01*
X0150299Y0086299D01*
X0150344Y0086257D01*
X0150392Y0086217D01*
X0150441Y0086181D01*
X0150493Y0086147D01*
X0150547Y0086117D01*
X0150603Y0086090D01*
X0150660Y0086066D01*
X0150718Y0086046D01*
X0150777Y0086030D01*
X0150838Y0086017D01*
X0150899Y0086007D01*
X0150960Y0086002D01*
X0151022Y0086000D01*
X0152556Y0086000D01*
X0152556Y0088556D01*
X0151789Y0088556D01*
X0154800Y0090600D02*
X0154800Y0086000D01*
X0157356Y0086000D02*
X0154800Y0090600D01*
X0157356Y0090600D02*
X0157356Y0086000D01*
X0156787Y0080600D02*
X0155765Y0080600D01*
X0155703Y0080598D01*
X0155642Y0080593D01*
X0155581Y0080583D01*
X0155520Y0080570D01*
X0155461Y0080554D01*
X0155403Y0080534D01*
X0155346Y0080510D01*
X0155290Y0080483D01*
X0155236Y0080453D01*
X0155184Y0080419D01*
X0155135Y0080382D01*
X0155087Y0080343D01*
X0155042Y0080301D01*
X0155000Y0080256D01*
X0154960Y0080208D01*
X0154924Y0080159D01*
X0154890Y0080107D01*
X0154860Y0080053D01*
X0154833Y0079997D01*
X0154809Y0079940D01*
X0154789Y0079882D01*
X0154773Y0079823D01*
X0154760Y0079762D01*
X0154750Y0079701D01*
X0154745Y0079640D01*
X0154743Y0079578D01*
X0154742Y0079578D02*
X0154742Y0077022D01*
X0154743Y0077022D02*
X0154745Y0076960D01*
X0154750Y0076899D01*
X0154760Y0076838D01*
X0154773Y0076777D01*
X0154789Y0076718D01*
X0154809Y0076660D01*
X0154833Y0076603D01*
X0154860Y0076547D01*
X0154890Y0076493D01*
X0154924Y0076441D01*
X0154960Y0076392D01*
X0155000Y0076344D01*
X0155042Y0076299D01*
X0155087Y0076257D01*
X0155135Y0076217D01*
X0155184Y0076181D01*
X0155236Y0076147D01*
X0155290Y0076117D01*
X0155346Y0076090D01*
X0155403Y0076066D01*
X0155461Y0076046D01*
X0155520Y0076030D01*
X0155581Y0076017D01*
X0155642Y0076007D01*
X0155703Y0076002D01*
X0155765Y0076000D01*
X0156787Y0076000D01*
X0158492Y0077022D02*
X0158492Y0079578D01*
X0158493Y0079578D02*
X0158495Y0079640D01*
X0158500Y0079701D01*
X0158510Y0079762D01*
X0158523Y0079823D01*
X0158539Y0079882D01*
X0158559Y0079940D01*
X0158583Y0079997D01*
X0158610Y0080053D01*
X0158640Y0080107D01*
X0158674Y0080159D01*
X0158710Y0080208D01*
X0158750Y0080256D01*
X0158792Y0080301D01*
X0158837Y0080343D01*
X0158885Y0080382D01*
X0158934Y0080419D01*
X0158986Y0080453D01*
X0159040Y0080483D01*
X0159096Y0080510D01*
X0159153Y0080534D01*
X0159211Y0080554D01*
X0159270Y0080570D01*
X0159331Y0080583D01*
X0159392Y0080593D01*
X0159453Y0080598D01*
X0159515Y0080600D01*
X0160537Y0080600D01*
X0158493Y0077022D02*
X0158495Y0076960D01*
X0158500Y0076899D01*
X0158510Y0076838D01*
X0158523Y0076777D01*
X0158539Y0076718D01*
X0158559Y0076660D01*
X0158583Y0076603D01*
X0158610Y0076547D01*
X0158640Y0076493D01*
X0158674Y0076441D01*
X0158710Y0076392D01*
X0158750Y0076344D01*
X0158792Y0076299D01*
X0158837Y0076257D01*
X0158885Y0076217D01*
X0158934Y0076181D01*
X0158986Y0076147D01*
X0159040Y0076117D01*
X0159096Y0076090D01*
X0159153Y0076066D01*
X0159211Y0076046D01*
X0159270Y0076030D01*
X0159331Y0076017D01*
X0159392Y0076007D01*
X0159453Y0076002D01*
X0159515Y0076000D01*
X0160537Y0076000D01*
X0157782Y0071100D02*
X0154715Y0066500D01*
X0153056Y0066500D02*
X0152033Y0068544D01*
X0151778Y0068544D02*
X0150500Y0068544D01*
X0151778Y0068544D02*
X0151848Y0068546D01*
X0151919Y0068552D01*
X0151988Y0068561D01*
X0152057Y0068575D01*
X0152126Y0068592D01*
X0152193Y0068613D01*
X0152259Y0068638D01*
X0152323Y0068666D01*
X0152386Y0068698D01*
X0152447Y0068733D01*
X0152506Y0068772D01*
X0152563Y0068813D01*
X0152617Y0068858D01*
X0152669Y0068906D01*
X0152718Y0068956D01*
X0152765Y0069010D01*
X0152808Y0069065D01*
X0152848Y0069123D01*
X0152885Y0069183D01*
X0152918Y0069245D01*
X0152948Y0069309D01*
X0152975Y0069374D01*
X0152998Y0069440D01*
X0153017Y0069508D01*
X0153032Y0069577D01*
X0153044Y0069646D01*
X0153052Y0069716D01*
X0153056Y0069787D01*
X0153056Y0069857D01*
X0153052Y0069928D01*
X0153044Y0069998D01*
X0153032Y0070067D01*
X0153017Y0070136D01*
X0152998Y0070204D01*
X0152975Y0070270D01*
X0152948Y0070335D01*
X0152918Y0070399D01*
X0152885Y0070461D01*
X0152848Y0070521D01*
X0152808Y0070579D01*
X0152765Y0070634D01*
X0152718Y0070688D01*
X0152669Y0070738D01*
X0152617Y0070786D01*
X0152563Y0070831D01*
X0152506Y0070872D01*
X0152447Y0070911D01*
X0152386Y0070946D01*
X0152323Y0070978D01*
X0152259Y0071006D01*
X0152193Y0071031D01*
X0152126Y0071052D01*
X0152057Y0071069D01*
X0151988Y0071083D01*
X0151919Y0071092D01*
X0151848Y0071098D01*
X0151778Y0071100D01*
X0150500Y0071100D01*
X0150500Y0066500D01*
X0150500Y0060600D02*
X0153056Y0060600D01*
X0151778Y0060600D02*
X0151778Y0056000D01*
X0154444Y0056000D02*
X0157511Y0060600D01*
X0154444Y0060600D02*
X0157511Y0056000D01*
X0158871Y0050100D02*
X0161427Y0050100D01*
X0160149Y0050100D02*
X0160149Y0045500D01*
X0156865Y0047417D02*
X0155460Y0048183D01*
X0155971Y0050100D02*
X0156053Y0050098D01*
X0156135Y0050093D01*
X0156217Y0050084D01*
X0156298Y0050072D01*
X0156379Y0050056D01*
X0156459Y0050037D01*
X0156538Y0050014D01*
X0156616Y0049988D01*
X0156693Y0049959D01*
X0156768Y0049926D01*
X0156842Y0049890D01*
X0156915Y0049852D01*
X0156986Y0049810D01*
X0157054Y0049765D01*
X0157121Y0049717D01*
X0155460Y0048184D02*
X0155406Y0048218D01*
X0155355Y0048255D01*
X0155306Y0048295D01*
X0155259Y0048338D01*
X0155216Y0048384D01*
X0155175Y0048432D01*
X0155137Y0048483D01*
X0155102Y0048536D01*
X0155070Y0048591D01*
X0155042Y0048648D01*
X0155018Y0048706D01*
X0154997Y0048766D01*
X0154980Y0048827D01*
X0154966Y0048889D01*
X0154957Y0048952D01*
X0154951Y0049015D01*
X0154949Y0049078D01*
X0154951Y0049140D01*
X0154956Y0049201D01*
X0154966Y0049262D01*
X0154979Y0049323D01*
X0154995Y0049382D01*
X0155015Y0049440D01*
X0155039Y0049497D01*
X0155066Y0049553D01*
X0155096Y0049607D01*
X0155130Y0049659D01*
X0155167Y0049708D01*
X0155206Y0049756D01*
X0155248Y0049801D01*
X0155293Y0049843D01*
X0155341Y0049883D01*
X0155390Y0049919D01*
X0155442Y0049953D01*
X0155496Y0049983D01*
X0155552Y0050010D01*
X0155609Y0050034D01*
X0155667Y0050054D01*
X0155726Y0050070D01*
X0155787Y0050083D01*
X0155848Y0050093D01*
X0155909Y0050098D01*
X0155971Y0050100D01*
X0154821Y0046139D02*
X0154885Y0046076D01*
X0154953Y0046017D01*
X0155022Y0045960D01*
X0155094Y0045906D01*
X0155168Y0045855D01*
X0155244Y0045807D01*
X0155321Y0045763D01*
X0155401Y0045722D01*
X0155482Y0045684D01*
X0155565Y0045649D01*
X0155649Y0045618D01*
X0155735Y0045591D01*
X0155821Y0045567D01*
X0155909Y0045546D01*
X0155997Y0045530D01*
X0156086Y0045517D01*
X0156175Y0045507D01*
X0156264Y0045502D01*
X0156354Y0045500D01*
X0156416Y0045502D01*
X0156477Y0045507D01*
X0156538Y0045517D01*
X0156599Y0045530D01*
X0156658Y0045546D01*
X0156716Y0045566D01*
X0156773Y0045590D01*
X0156829Y0045617D01*
X0156883Y0045647D01*
X0156935Y0045681D01*
X0156984Y0045717D01*
X0157032Y0045757D01*
X0157077Y0045799D01*
X0157119Y0045844D01*
X0157159Y0045892D01*
X0157195Y0045941D01*
X0157229Y0045993D01*
X0157259Y0046047D01*
X0157286Y0046103D01*
X0157310Y0046160D01*
X0157330Y0046218D01*
X0157346Y0046277D01*
X0157359Y0046338D01*
X0157369Y0046399D01*
X0157374Y0046460D01*
X0157376Y0046522D01*
X0157374Y0046585D01*
X0157368Y0046648D01*
X0157359Y0046711D01*
X0157345Y0046773D01*
X0157328Y0046834D01*
X0157307Y0046894D01*
X0157283Y0046952D01*
X0157255Y0047009D01*
X0157223Y0047064D01*
X0157188Y0047117D01*
X0157150Y0047168D01*
X0157109Y0047216D01*
X0157066Y0047262D01*
X0157019Y0047305D01*
X0156970Y0047345D01*
X0156919Y0047382D01*
X0156865Y0047416D01*
X0153056Y0045500D02*
X0152033Y0047544D01*
X0151778Y0047544D02*
X0150500Y0047544D01*
X0151778Y0047544D02*
X0151848Y0047546D01*
X0151919Y0047552D01*
X0151988Y0047561D01*
X0152057Y0047575D01*
X0152126Y0047592D01*
X0152193Y0047613D01*
X0152259Y0047638D01*
X0152323Y0047666D01*
X0152386Y0047698D01*
X0152447Y0047733D01*
X0152506Y0047772D01*
X0152563Y0047813D01*
X0152617Y0047858D01*
X0152669Y0047906D01*
X0152718Y0047956D01*
X0152765Y0048010D01*
X0152808Y0048065D01*
X0152848Y0048123D01*
X0152885Y0048183D01*
X0152918Y0048245D01*
X0152948Y0048309D01*
X0152975Y0048374D01*
X0152998Y0048440D01*
X0153017Y0048508D01*
X0153032Y0048577D01*
X0153044Y0048646D01*
X0153052Y0048716D01*
X0153056Y0048787D01*
X0153056Y0048857D01*
X0153052Y0048928D01*
X0153044Y0048998D01*
X0153032Y0049067D01*
X0153017Y0049136D01*
X0152998Y0049204D01*
X0152975Y0049270D01*
X0152948Y0049335D01*
X0152918Y0049399D01*
X0152885Y0049461D01*
X0152848Y0049521D01*
X0152808Y0049579D01*
X0152765Y0049634D01*
X0152718Y0049688D01*
X0152669Y0049738D01*
X0152617Y0049786D01*
X0152563Y0049831D01*
X0152506Y0049872D01*
X0152447Y0049911D01*
X0152386Y0049946D01*
X0152323Y0049978D01*
X0152259Y0050006D01*
X0152193Y0050031D01*
X0152126Y0050052D01*
X0152057Y0050069D01*
X0151988Y0050083D01*
X0151919Y0050092D01*
X0151848Y0050098D01*
X0151778Y0050100D01*
X0150500Y0050100D01*
X0150500Y0045500D01*
X0157782Y0066500D02*
X0154715Y0071100D01*
X0151533Y0076000D02*
X0153067Y0080600D01*
X0150000Y0080600D02*
X0151533Y0076000D01*
X0159600Y0086000D02*
X0160878Y0086000D01*
X0160947Y0086002D01*
X0161016Y0086007D01*
X0161085Y0086017D01*
X0161153Y0086030D01*
X0161220Y0086047D01*
X0161286Y0086067D01*
X0161351Y0086091D01*
X0161415Y0086118D01*
X0161477Y0086149D01*
X0161537Y0086183D01*
X0161595Y0086220D01*
X0161651Y0086261D01*
X0161705Y0086304D01*
X0161757Y0086350D01*
X0161806Y0086399D01*
X0161852Y0086451D01*
X0161895Y0086505D01*
X0161936Y0086561D01*
X0161973Y0086619D01*
X0162007Y0086679D01*
X0162038Y0086741D01*
X0162065Y0086805D01*
X0162089Y0086870D01*
X0162109Y0086936D01*
X0162126Y0087003D01*
X0162139Y0087071D01*
X0162149Y0087140D01*
X0162154Y0087209D01*
X0162156Y0087278D01*
X0162156Y0089322D01*
X0162154Y0089391D01*
X0162149Y0089460D01*
X0162139Y0089529D01*
X0162126Y0089597D01*
X0162109Y0089664D01*
X0162089Y0089730D01*
X0162065Y0089795D01*
X0162038Y0089859D01*
X0162007Y0089921D01*
X0161973Y0089981D01*
X0161936Y0090039D01*
X0161895Y0090095D01*
X0161852Y0090149D01*
X0161806Y0090201D01*
X0161757Y0090250D01*
X0161705Y0090296D01*
X0161651Y0090339D01*
X0161595Y0090380D01*
X0161537Y0090417D01*
X0161477Y0090451D01*
X0161415Y0090482D01*
X0161351Y0090509D01*
X0161286Y0090533D01*
X0161220Y0090553D01*
X0161153Y0090570D01*
X0161085Y0090583D01*
X0161016Y0090593D01*
X0160947Y0090598D01*
X0160878Y0090600D01*
X0159600Y0090600D01*
X0159600Y0086000D01*
M02*
