G75*
%MOIN*%
%OFA0B0*%
%FSLAX25Y25*%
%IPPOS*%
%LPD*%
%AMOC8*
5,1,8,0,0,1.08239X$1,22.5*
%
%ADD10C,0.00000*%
D10*
X0017781Y0026588D02*
X0017319Y0309667D01*
X0017319Y0309668D02*
X0017322Y0309953D01*
X0017332Y0310239D01*
X0017349Y0310524D01*
X0017372Y0310809D01*
X0017403Y0311093D01*
X0017440Y0311377D01*
X0017484Y0311659D01*
X0017535Y0311940D01*
X0017593Y0312220D01*
X0017658Y0312498D01*
X0017729Y0312775D01*
X0017807Y0313050D01*
X0017892Y0313323D01*
X0017983Y0313594D01*
X0018080Y0313862D01*
X0018185Y0314128D01*
X0018295Y0314392D01*
X0018412Y0314653D01*
X0018535Y0314910D01*
X0018665Y0315165D01*
X0018800Y0315417D01*
X0018942Y0315665D01*
X0019089Y0315910D01*
X0019243Y0316151D01*
X0019402Y0316388D01*
X0019567Y0316621D01*
X0019737Y0316851D01*
X0019913Y0317076D01*
X0020095Y0317297D01*
X0020281Y0317513D01*
X0020473Y0317725D01*
X0020670Y0317932D01*
X0020872Y0318134D01*
X0021079Y0318332D01*
X0021290Y0318524D01*
X0021506Y0318711D01*
X0021727Y0318893D01*
X0021951Y0319069D01*
X0022180Y0319240D01*
X0022414Y0319405D01*
X0022651Y0319565D01*
X0022891Y0319719D01*
X0023136Y0319867D01*
X0023384Y0320009D01*
X0023635Y0320145D01*
X0023890Y0320275D01*
X0024147Y0320398D01*
X0024408Y0320516D01*
X0024671Y0320627D01*
X0024937Y0320732D01*
X0025205Y0320830D01*
X0025476Y0320922D01*
X0025749Y0321007D01*
X0026024Y0321085D01*
X0026300Y0321157D01*
X0026578Y0321222D01*
X0026858Y0321280D01*
X0027139Y0321332D01*
X0027421Y0321377D01*
X0027705Y0321415D01*
X0027989Y0321446D01*
X0028273Y0321470D01*
X0028559Y0321487D01*
X0028844Y0321498D01*
X0029130Y0321501D01*
X0156429Y0321501D01*
X0150894Y0310300D02*
X0150896Y0310453D01*
X0150902Y0310607D01*
X0150912Y0310760D01*
X0150926Y0310912D01*
X0150944Y0311065D01*
X0150966Y0311216D01*
X0150991Y0311367D01*
X0151021Y0311518D01*
X0151055Y0311668D01*
X0151092Y0311816D01*
X0151133Y0311964D01*
X0151178Y0312110D01*
X0151227Y0312256D01*
X0151280Y0312400D01*
X0151336Y0312542D01*
X0151396Y0312683D01*
X0151460Y0312823D01*
X0151527Y0312961D01*
X0151598Y0313097D01*
X0151673Y0313231D01*
X0151750Y0313363D01*
X0151832Y0313493D01*
X0151916Y0313621D01*
X0152004Y0313747D01*
X0152095Y0313870D01*
X0152189Y0313991D01*
X0152287Y0314109D01*
X0152387Y0314225D01*
X0152491Y0314338D01*
X0152597Y0314449D01*
X0152706Y0314557D01*
X0152818Y0314662D01*
X0152932Y0314763D01*
X0153050Y0314862D01*
X0153169Y0314958D01*
X0153291Y0315051D01*
X0153416Y0315140D01*
X0153543Y0315227D01*
X0153672Y0315309D01*
X0153803Y0315389D01*
X0153936Y0315465D01*
X0154071Y0315538D01*
X0154208Y0315607D01*
X0154347Y0315672D01*
X0154487Y0315734D01*
X0154629Y0315792D01*
X0154772Y0315847D01*
X0154917Y0315898D01*
X0155063Y0315945D01*
X0155210Y0315988D01*
X0155358Y0316027D01*
X0155507Y0316063D01*
X0155657Y0316094D01*
X0155808Y0316122D01*
X0155959Y0316146D01*
X0156112Y0316166D01*
X0156264Y0316182D01*
X0156417Y0316194D01*
X0156570Y0316202D01*
X0156723Y0316206D01*
X0156877Y0316206D01*
X0157030Y0316202D01*
X0157183Y0316194D01*
X0157336Y0316182D01*
X0157488Y0316166D01*
X0157641Y0316146D01*
X0157792Y0316122D01*
X0157943Y0316094D01*
X0158093Y0316063D01*
X0158242Y0316027D01*
X0158390Y0315988D01*
X0158537Y0315945D01*
X0158683Y0315898D01*
X0158828Y0315847D01*
X0158971Y0315792D01*
X0159113Y0315734D01*
X0159253Y0315672D01*
X0159392Y0315607D01*
X0159529Y0315538D01*
X0159664Y0315465D01*
X0159797Y0315389D01*
X0159928Y0315309D01*
X0160057Y0315227D01*
X0160184Y0315140D01*
X0160309Y0315051D01*
X0160431Y0314958D01*
X0160550Y0314862D01*
X0160668Y0314763D01*
X0160782Y0314662D01*
X0160894Y0314557D01*
X0161003Y0314449D01*
X0161109Y0314338D01*
X0161213Y0314225D01*
X0161313Y0314109D01*
X0161411Y0313991D01*
X0161505Y0313870D01*
X0161596Y0313747D01*
X0161684Y0313621D01*
X0161768Y0313493D01*
X0161850Y0313363D01*
X0161927Y0313231D01*
X0162002Y0313097D01*
X0162073Y0312961D01*
X0162140Y0312823D01*
X0162204Y0312683D01*
X0162264Y0312542D01*
X0162320Y0312400D01*
X0162373Y0312256D01*
X0162422Y0312110D01*
X0162467Y0311964D01*
X0162508Y0311816D01*
X0162545Y0311668D01*
X0162579Y0311518D01*
X0162609Y0311367D01*
X0162634Y0311216D01*
X0162656Y0311065D01*
X0162674Y0310912D01*
X0162688Y0310760D01*
X0162698Y0310607D01*
X0162704Y0310453D01*
X0162706Y0310300D01*
X0162704Y0310147D01*
X0162698Y0309993D01*
X0162688Y0309840D01*
X0162674Y0309688D01*
X0162656Y0309535D01*
X0162634Y0309384D01*
X0162609Y0309233D01*
X0162579Y0309082D01*
X0162545Y0308932D01*
X0162508Y0308784D01*
X0162467Y0308636D01*
X0162422Y0308490D01*
X0162373Y0308344D01*
X0162320Y0308200D01*
X0162264Y0308058D01*
X0162204Y0307917D01*
X0162140Y0307777D01*
X0162073Y0307639D01*
X0162002Y0307503D01*
X0161927Y0307369D01*
X0161850Y0307237D01*
X0161768Y0307107D01*
X0161684Y0306979D01*
X0161596Y0306853D01*
X0161505Y0306730D01*
X0161411Y0306609D01*
X0161313Y0306491D01*
X0161213Y0306375D01*
X0161109Y0306262D01*
X0161003Y0306151D01*
X0160894Y0306043D01*
X0160782Y0305938D01*
X0160668Y0305837D01*
X0160550Y0305738D01*
X0160431Y0305642D01*
X0160309Y0305549D01*
X0160184Y0305460D01*
X0160057Y0305373D01*
X0159928Y0305291D01*
X0159797Y0305211D01*
X0159664Y0305135D01*
X0159529Y0305062D01*
X0159392Y0304993D01*
X0159253Y0304928D01*
X0159113Y0304866D01*
X0158971Y0304808D01*
X0158828Y0304753D01*
X0158683Y0304702D01*
X0158537Y0304655D01*
X0158390Y0304612D01*
X0158242Y0304573D01*
X0158093Y0304537D01*
X0157943Y0304506D01*
X0157792Y0304478D01*
X0157641Y0304454D01*
X0157488Y0304434D01*
X0157336Y0304418D01*
X0157183Y0304406D01*
X0157030Y0304398D01*
X0156877Y0304394D01*
X0156723Y0304394D01*
X0156570Y0304398D01*
X0156417Y0304406D01*
X0156264Y0304418D01*
X0156112Y0304434D01*
X0155959Y0304454D01*
X0155808Y0304478D01*
X0155657Y0304506D01*
X0155507Y0304537D01*
X0155358Y0304573D01*
X0155210Y0304612D01*
X0155063Y0304655D01*
X0154917Y0304702D01*
X0154772Y0304753D01*
X0154629Y0304808D01*
X0154487Y0304866D01*
X0154347Y0304928D01*
X0154208Y0304993D01*
X0154071Y0305062D01*
X0153936Y0305135D01*
X0153803Y0305211D01*
X0153672Y0305291D01*
X0153543Y0305373D01*
X0153416Y0305460D01*
X0153291Y0305549D01*
X0153169Y0305642D01*
X0153050Y0305738D01*
X0152932Y0305837D01*
X0152818Y0305938D01*
X0152706Y0306043D01*
X0152597Y0306151D01*
X0152491Y0306262D01*
X0152387Y0306375D01*
X0152287Y0306491D01*
X0152189Y0306609D01*
X0152095Y0306730D01*
X0152004Y0306853D01*
X0151916Y0306979D01*
X0151832Y0307107D01*
X0151750Y0307237D01*
X0151673Y0307369D01*
X0151598Y0307503D01*
X0151527Y0307639D01*
X0151460Y0307777D01*
X0151396Y0307917D01*
X0151336Y0308058D01*
X0151280Y0308200D01*
X0151227Y0308344D01*
X0151178Y0308490D01*
X0151133Y0308636D01*
X0151092Y0308784D01*
X0151055Y0308932D01*
X0151021Y0309082D01*
X0150991Y0309233D01*
X0150966Y0309384D01*
X0150944Y0309535D01*
X0150926Y0309688D01*
X0150912Y0309840D01*
X0150902Y0309993D01*
X0150896Y0310147D01*
X0150894Y0310300D01*
X0156429Y0321501D02*
X0156719Y0321497D01*
X0157008Y0321487D01*
X0157297Y0321469D01*
X0157585Y0321444D01*
X0157873Y0321413D01*
X0158160Y0321374D01*
X0158446Y0321328D01*
X0158731Y0321275D01*
X0159014Y0321215D01*
X0159296Y0321148D01*
X0159576Y0321075D01*
X0159854Y0320994D01*
X0160130Y0320907D01*
X0160404Y0320813D01*
X0160675Y0320712D01*
X0160944Y0320605D01*
X0161210Y0320491D01*
X0161473Y0320370D01*
X0161734Y0320243D01*
X0161991Y0320110D01*
X0162245Y0319971D01*
X0162495Y0319825D01*
X0162741Y0319674D01*
X0162984Y0319516D01*
X0163223Y0319352D01*
X0163458Y0319183D01*
X0163688Y0319008D01*
X0163915Y0318827D01*
X0164136Y0318641D01*
X0164353Y0318449D01*
X0164566Y0318252D01*
X0164773Y0318050D01*
X0164976Y0317843D01*
X0165173Y0317631D01*
X0165365Y0317415D01*
X0165551Y0317193D01*
X0165733Y0316968D01*
X0165908Y0316737D01*
X0166078Y0316503D01*
X0166242Y0316264D01*
X0166400Y0316022D01*
X0166552Y0315775D01*
X0166699Y0315526D01*
X0166838Y0315272D01*
X0166972Y0315015D01*
X0167099Y0314755D01*
X0167220Y0314492D01*
X0167335Y0314226D01*
X0167443Y0313957D01*
X0167544Y0313686D01*
X0167639Y0313413D01*
X0167726Y0313137D01*
X0167807Y0312859D01*
X0167882Y0312579D01*
X0167949Y0312297D01*
X0168009Y0312014D01*
X0168063Y0311730D01*
X0168109Y0311444D01*
X0168149Y0311157D01*
X0168181Y0310869D01*
X0168206Y0310581D01*
X0168225Y0310292D01*
X0168236Y0310003D01*
X0168240Y0309713D01*
X0168702Y0026633D01*
X0168699Y0026348D01*
X0168689Y0026062D01*
X0168672Y0025777D01*
X0168649Y0025492D01*
X0168618Y0025208D01*
X0168581Y0024924D01*
X0168537Y0024642D01*
X0168486Y0024361D01*
X0168428Y0024081D01*
X0168363Y0023803D01*
X0168292Y0023526D01*
X0168214Y0023251D01*
X0168129Y0022978D01*
X0168038Y0022707D01*
X0167941Y0022439D01*
X0167836Y0022173D01*
X0167726Y0021909D01*
X0167609Y0021648D01*
X0167486Y0021391D01*
X0167356Y0021136D01*
X0167221Y0020884D01*
X0167079Y0020636D01*
X0166932Y0020391D01*
X0166778Y0020150D01*
X0166619Y0019913D01*
X0166454Y0019680D01*
X0166284Y0019450D01*
X0166108Y0019225D01*
X0165926Y0019004D01*
X0165740Y0018788D01*
X0165548Y0018576D01*
X0165351Y0018369D01*
X0165149Y0018167D01*
X0164942Y0017969D01*
X0164731Y0017777D01*
X0164515Y0017590D01*
X0164294Y0017408D01*
X0164070Y0017232D01*
X0163841Y0017061D01*
X0163607Y0016896D01*
X0163370Y0016736D01*
X0163130Y0016582D01*
X0162885Y0016434D01*
X0162637Y0016292D01*
X0162386Y0016156D01*
X0162131Y0016026D01*
X0161874Y0015903D01*
X0161613Y0015785D01*
X0161350Y0015674D01*
X0161084Y0015569D01*
X0160816Y0015471D01*
X0160545Y0015379D01*
X0160272Y0015294D01*
X0159997Y0015216D01*
X0159721Y0015144D01*
X0159443Y0015079D01*
X0159163Y0015021D01*
X0158882Y0014969D01*
X0158600Y0014924D01*
X0158316Y0014886D01*
X0158032Y0014855D01*
X0157748Y0014831D01*
X0157462Y0014814D01*
X0157177Y0014803D01*
X0156891Y0014800D01*
X0029592Y0014800D01*
X0029302Y0014804D01*
X0029013Y0014814D01*
X0028724Y0014832D01*
X0028436Y0014857D01*
X0028148Y0014888D01*
X0027861Y0014927D01*
X0027575Y0014973D01*
X0027290Y0015026D01*
X0027007Y0015086D01*
X0026725Y0015153D01*
X0026445Y0015226D01*
X0026167Y0015307D01*
X0025891Y0015394D01*
X0025617Y0015488D01*
X0025346Y0015589D01*
X0025077Y0015696D01*
X0024811Y0015810D01*
X0024548Y0015931D01*
X0024287Y0016058D01*
X0024030Y0016191D01*
X0023776Y0016330D01*
X0023526Y0016476D01*
X0023280Y0016627D01*
X0023037Y0016785D01*
X0022798Y0016949D01*
X0022563Y0017118D01*
X0022333Y0017293D01*
X0022106Y0017474D01*
X0021885Y0017660D01*
X0021668Y0017852D01*
X0021455Y0018049D01*
X0021248Y0018251D01*
X0021045Y0018458D01*
X0020848Y0018670D01*
X0020656Y0018886D01*
X0020470Y0019108D01*
X0020288Y0019333D01*
X0020113Y0019564D01*
X0019943Y0019798D01*
X0019779Y0020037D01*
X0019621Y0020279D01*
X0019469Y0020526D01*
X0019322Y0020775D01*
X0019183Y0021029D01*
X0019049Y0021286D01*
X0018922Y0021546D01*
X0018801Y0021809D01*
X0018686Y0022075D01*
X0018578Y0022344D01*
X0018477Y0022615D01*
X0018382Y0022888D01*
X0018295Y0023164D01*
X0018214Y0023442D01*
X0018139Y0023722D01*
X0018072Y0024004D01*
X0018012Y0024287D01*
X0017958Y0024571D01*
X0017912Y0024857D01*
X0017872Y0025144D01*
X0017840Y0025432D01*
X0017815Y0025720D01*
X0017796Y0026009D01*
X0017785Y0026298D01*
X0017781Y0026588D01*
X0025894Y0027800D02*
X0025896Y0027953D01*
X0025902Y0028107D01*
X0025912Y0028260D01*
X0025926Y0028412D01*
X0025944Y0028565D01*
X0025966Y0028716D01*
X0025991Y0028867D01*
X0026021Y0029018D01*
X0026055Y0029168D01*
X0026092Y0029316D01*
X0026133Y0029464D01*
X0026178Y0029610D01*
X0026227Y0029756D01*
X0026280Y0029900D01*
X0026336Y0030042D01*
X0026396Y0030183D01*
X0026460Y0030323D01*
X0026527Y0030461D01*
X0026598Y0030597D01*
X0026673Y0030731D01*
X0026750Y0030863D01*
X0026832Y0030993D01*
X0026916Y0031121D01*
X0027004Y0031247D01*
X0027095Y0031370D01*
X0027189Y0031491D01*
X0027287Y0031609D01*
X0027387Y0031725D01*
X0027491Y0031838D01*
X0027597Y0031949D01*
X0027706Y0032057D01*
X0027818Y0032162D01*
X0027932Y0032263D01*
X0028050Y0032362D01*
X0028169Y0032458D01*
X0028291Y0032551D01*
X0028416Y0032640D01*
X0028543Y0032727D01*
X0028672Y0032809D01*
X0028803Y0032889D01*
X0028936Y0032965D01*
X0029071Y0033038D01*
X0029208Y0033107D01*
X0029347Y0033172D01*
X0029487Y0033234D01*
X0029629Y0033292D01*
X0029772Y0033347D01*
X0029917Y0033398D01*
X0030063Y0033445D01*
X0030210Y0033488D01*
X0030358Y0033527D01*
X0030507Y0033563D01*
X0030657Y0033594D01*
X0030808Y0033622D01*
X0030959Y0033646D01*
X0031112Y0033666D01*
X0031264Y0033682D01*
X0031417Y0033694D01*
X0031570Y0033702D01*
X0031723Y0033706D01*
X0031877Y0033706D01*
X0032030Y0033702D01*
X0032183Y0033694D01*
X0032336Y0033682D01*
X0032488Y0033666D01*
X0032641Y0033646D01*
X0032792Y0033622D01*
X0032943Y0033594D01*
X0033093Y0033563D01*
X0033242Y0033527D01*
X0033390Y0033488D01*
X0033537Y0033445D01*
X0033683Y0033398D01*
X0033828Y0033347D01*
X0033971Y0033292D01*
X0034113Y0033234D01*
X0034253Y0033172D01*
X0034392Y0033107D01*
X0034529Y0033038D01*
X0034664Y0032965D01*
X0034797Y0032889D01*
X0034928Y0032809D01*
X0035057Y0032727D01*
X0035184Y0032640D01*
X0035309Y0032551D01*
X0035431Y0032458D01*
X0035550Y0032362D01*
X0035668Y0032263D01*
X0035782Y0032162D01*
X0035894Y0032057D01*
X0036003Y0031949D01*
X0036109Y0031838D01*
X0036213Y0031725D01*
X0036313Y0031609D01*
X0036411Y0031491D01*
X0036505Y0031370D01*
X0036596Y0031247D01*
X0036684Y0031121D01*
X0036768Y0030993D01*
X0036850Y0030863D01*
X0036927Y0030731D01*
X0037002Y0030597D01*
X0037073Y0030461D01*
X0037140Y0030323D01*
X0037204Y0030183D01*
X0037264Y0030042D01*
X0037320Y0029900D01*
X0037373Y0029756D01*
X0037422Y0029610D01*
X0037467Y0029464D01*
X0037508Y0029316D01*
X0037545Y0029168D01*
X0037579Y0029018D01*
X0037609Y0028867D01*
X0037634Y0028716D01*
X0037656Y0028565D01*
X0037674Y0028412D01*
X0037688Y0028260D01*
X0037698Y0028107D01*
X0037704Y0027953D01*
X0037706Y0027800D01*
X0037704Y0027647D01*
X0037698Y0027493D01*
X0037688Y0027340D01*
X0037674Y0027188D01*
X0037656Y0027035D01*
X0037634Y0026884D01*
X0037609Y0026733D01*
X0037579Y0026582D01*
X0037545Y0026432D01*
X0037508Y0026284D01*
X0037467Y0026136D01*
X0037422Y0025990D01*
X0037373Y0025844D01*
X0037320Y0025700D01*
X0037264Y0025558D01*
X0037204Y0025417D01*
X0037140Y0025277D01*
X0037073Y0025139D01*
X0037002Y0025003D01*
X0036927Y0024869D01*
X0036850Y0024737D01*
X0036768Y0024607D01*
X0036684Y0024479D01*
X0036596Y0024353D01*
X0036505Y0024230D01*
X0036411Y0024109D01*
X0036313Y0023991D01*
X0036213Y0023875D01*
X0036109Y0023762D01*
X0036003Y0023651D01*
X0035894Y0023543D01*
X0035782Y0023438D01*
X0035668Y0023337D01*
X0035550Y0023238D01*
X0035431Y0023142D01*
X0035309Y0023049D01*
X0035184Y0022960D01*
X0035057Y0022873D01*
X0034928Y0022791D01*
X0034797Y0022711D01*
X0034664Y0022635D01*
X0034529Y0022562D01*
X0034392Y0022493D01*
X0034253Y0022428D01*
X0034113Y0022366D01*
X0033971Y0022308D01*
X0033828Y0022253D01*
X0033683Y0022202D01*
X0033537Y0022155D01*
X0033390Y0022112D01*
X0033242Y0022073D01*
X0033093Y0022037D01*
X0032943Y0022006D01*
X0032792Y0021978D01*
X0032641Y0021954D01*
X0032488Y0021934D01*
X0032336Y0021918D01*
X0032183Y0021906D01*
X0032030Y0021898D01*
X0031877Y0021894D01*
X0031723Y0021894D01*
X0031570Y0021898D01*
X0031417Y0021906D01*
X0031264Y0021918D01*
X0031112Y0021934D01*
X0030959Y0021954D01*
X0030808Y0021978D01*
X0030657Y0022006D01*
X0030507Y0022037D01*
X0030358Y0022073D01*
X0030210Y0022112D01*
X0030063Y0022155D01*
X0029917Y0022202D01*
X0029772Y0022253D01*
X0029629Y0022308D01*
X0029487Y0022366D01*
X0029347Y0022428D01*
X0029208Y0022493D01*
X0029071Y0022562D01*
X0028936Y0022635D01*
X0028803Y0022711D01*
X0028672Y0022791D01*
X0028543Y0022873D01*
X0028416Y0022960D01*
X0028291Y0023049D01*
X0028169Y0023142D01*
X0028050Y0023238D01*
X0027932Y0023337D01*
X0027818Y0023438D01*
X0027706Y0023543D01*
X0027597Y0023651D01*
X0027491Y0023762D01*
X0027387Y0023875D01*
X0027287Y0023991D01*
X0027189Y0024109D01*
X0027095Y0024230D01*
X0027004Y0024353D01*
X0026916Y0024479D01*
X0026832Y0024607D01*
X0026750Y0024737D01*
X0026673Y0024869D01*
X0026598Y0025003D01*
X0026527Y0025139D01*
X0026460Y0025277D01*
X0026396Y0025417D01*
X0026336Y0025558D01*
X0026280Y0025700D01*
X0026227Y0025844D01*
X0026178Y0025990D01*
X0026133Y0026136D01*
X0026092Y0026284D01*
X0026055Y0026432D01*
X0026021Y0026582D01*
X0025991Y0026733D01*
X0025966Y0026884D01*
X0025944Y0027035D01*
X0025926Y0027188D01*
X0025912Y0027340D01*
X0025902Y0027493D01*
X0025896Y0027647D01*
X0025894Y0027800D01*
X0148394Y0028300D02*
X0148396Y0028453D01*
X0148402Y0028607D01*
X0148412Y0028760D01*
X0148426Y0028912D01*
X0148444Y0029065D01*
X0148466Y0029216D01*
X0148491Y0029367D01*
X0148521Y0029518D01*
X0148555Y0029668D01*
X0148592Y0029816D01*
X0148633Y0029964D01*
X0148678Y0030110D01*
X0148727Y0030256D01*
X0148780Y0030400D01*
X0148836Y0030542D01*
X0148896Y0030683D01*
X0148960Y0030823D01*
X0149027Y0030961D01*
X0149098Y0031097D01*
X0149173Y0031231D01*
X0149250Y0031363D01*
X0149332Y0031493D01*
X0149416Y0031621D01*
X0149504Y0031747D01*
X0149595Y0031870D01*
X0149689Y0031991D01*
X0149787Y0032109D01*
X0149887Y0032225D01*
X0149991Y0032338D01*
X0150097Y0032449D01*
X0150206Y0032557D01*
X0150318Y0032662D01*
X0150432Y0032763D01*
X0150550Y0032862D01*
X0150669Y0032958D01*
X0150791Y0033051D01*
X0150916Y0033140D01*
X0151043Y0033227D01*
X0151172Y0033309D01*
X0151303Y0033389D01*
X0151436Y0033465D01*
X0151571Y0033538D01*
X0151708Y0033607D01*
X0151847Y0033672D01*
X0151987Y0033734D01*
X0152129Y0033792D01*
X0152272Y0033847D01*
X0152417Y0033898D01*
X0152563Y0033945D01*
X0152710Y0033988D01*
X0152858Y0034027D01*
X0153007Y0034063D01*
X0153157Y0034094D01*
X0153308Y0034122D01*
X0153459Y0034146D01*
X0153612Y0034166D01*
X0153764Y0034182D01*
X0153917Y0034194D01*
X0154070Y0034202D01*
X0154223Y0034206D01*
X0154377Y0034206D01*
X0154530Y0034202D01*
X0154683Y0034194D01*
X0154836Y0034182D01*
X0154988Y0034166D01*
X0155141Y0034146D01*
X0155292Y0034122D01*
X0155443Y0034094D01*
X0155593Y0034063D01*
X0155742Y0034027D01*
X0155890Y0033988D01*
X0156037Y0033945D01*
X0156183Y0033898D01*
X0156328Y0033847D01*
X0156471Y0033792D01*
X0156613Y0033734D01*
X0156753Y0033672D01*
X0156892Y0033607D01*
X0157029Y0033538D01*
X0157164Y0033465D01*
X0157297Y0033389D01*
X0157428Y0033309D01*
X0157557Y0033227D01*
X0157684Y0033140D01*
X0157809Y0033051D01*
X0157931Y0032958D01*
X0158050Y0032862D01*
X0158168Y0032763D01*
X0158282Y0032662D01*
X0158394Y0032557D01*
X0158503Y0032449D01*
X0158609Y0032338D01*
X0158713Y0032225D01*
X0158813Y0032109D01*
X0158911Y0031991D01*
X0159005Y0031870D01*
X0159096Y0031747D01*
X0159184Y0031621D01*
X0159268Y0031493D01*
X0159350Y0031363D01*
X0159427Y0031231D01*
X0159502Y0031097D01*
X0159573Y0030961D01*
X0159640Y0030823D01*
X0159704Y0030683D01*
X0159764Y0030542D01*
X0159820Y0030400D01*
X0159873Y0030256D01*
X0159922Y0030110D01*
X0159967Y0029964D01*
X0160008Y0029816D01*
X0160045Y0029668D01*
X0160079Y0029518D01*
X0160109Y0029367D01*
X0160134Y0029216D01*
X0160156Y0029065D01*
X0160174Y0028912D01*
X0160188Y0028760D01*
X0160198Y0028607D01*
X0160204Y0028453D01*
X0160206Y0028300D01*
X0160204Y0028147D01*
X0160198Y0027993D01*
X0160188Y0027840D01*
X0160174Y0027688D01*
X0160156Y0027535D01*
X0160134Y0027384D01*
X0160109Y0027233D01*
X0160079Y0027082D01*
X0160045Y0026932D01*
X0160008Y0026784D01*
X0159967Y0026636D01*
X0159922Y0026490D01*
X0159873Y0026344D01*
X0159820Y0026200D01*
X0159764Y0026058D01*
X0159704Y0025917D01*
X0159640Y0025777D01*
X0159573Y0025639D01*
X0159502Y0025503D01*
X0159427Y0025369D01*
X0159350Y0025237D01*
X0159268Y0025107D01*
X0159184Y0024979D01*
X0159096Y0024853D01*
X0159005Y0024730D01*
X0158911Y0024609D01*
X0158813Y0024491D01*
X0158713Y0024375D01*
X0158609Y0024262D01*
X0158503Y0024151D01*
X0158394Y0024043D01*
X0158282Y0023938D01*
X0158168Y0023837D01*
X0158050Y0023738D01*
X0157931Y0023642D01*
X0157809Y0023549D01*
X0157684Y0023460D01*
X0157557Y0023373D01*
X0157428Y0023291D01*
X0157297Y0023211D01*
X0157164Y0023135D01*
X0157029Y0023062D01*
X0156892Y0022993D01*
X0156753Y0022928D01*
X0156613Y0022866D01*
X0156471Y0022808D01*
X0156328Y0022753D01*
X0156183Y0022702D01*
X0156037Y0022655D01*
X0155890Y0022612D01*
X0155742Y0022573D01*
X0155593Y0022537D01*
X0155443Y0022506D01*
X0155292Y0022478D01*
X0155141Y0022454D01*
X0154988Y0022434D01*
X0154836Y0022418D01*
X0154683Y0022406D01*
X0154530Y0022398D01*
X0154377Y0022394D01*
X0154223Y0022394D01*
X0154070Y0022398D01*
X0153917Y0022406D01*
X0153764Y0022418D01*
X0153612Y0022434D01*
X0153459Y0022454D01*
X0153308Y0022478D01*
X0153157Y0022506D01*
X0153007Y0022537D01*
X0152858Y0022573D01*
X0152710Y0022612D01*
X0152563Y0022655D01*
X0152417Y0022702D01*
X0152272Y0022753D01*
X0152129Y0022808D01*
X0151987Y0022866D01*
X0151847Y0022928D01*
X0151708Y0022993D01*
X0151571Y0023062D01*
X0151436Y0023135D01*
X0151303Y0023211D01*
X0151172Y0023291D01*
X0151043Y0023373D01*
X0150916Y0023460D01*
X0150791Y0023549D01*
X0150669Y0023642D01*
X0150550Y0023738D01*
X0150432Y0023837D01*
X0150318Y0023938D01*
X0150206Y0024043D01*
X0150097Y0024151D01*
X0149991Y0024262D01*
X0149887Y0024375D01*
X0149787Y0024491D01*
X0149689Y0024609D01*
X0149595Y0024730D01*
X0149504Y0024853D01*
X0149416Y0024979D01*
X0149332Y0025107D01*
X0149250Y0025237D01*
X0149173Y0025369D01*
X0149098Y0025503D01*
X0149027Y0025639D01*
X0148960Y0025777D01*
X0148896Y0025917D01*
X0148836Y0026058D01*
X0148780Y0026200D01*
X0148727Y0026344D01*
X0148678Y0026490D01*
X0148633Y0026636D01*
X0148592Y0026784D01*
X0148555Y0026932D01*
X0148521Y0027082D01*
X0148491Y0027233D01*
X0148466Y0027384D01*
X0148444Y0027535D01*
X0148426Y0027688D01*
X0148412Y0027840D01*
X0148402Y0027993D01*
X0148396Y0028147D01*
X0148394Y0028300D01*
X0024394Y0308800D02*
X0024396Y0308953D01*
X0024402Y0309107D01*
X0024412Y0309260D01*
X0024426Y0309412D01*
X0024444Y0309565D01*
X0024466Y0309716D01*
X0024491Y0309867D01*
X0024521Y0310018D01*
X0024555Y0310168D01*
X0024592Y0310316D01*
X0024633Y0310464D01*
X0024678Y0310610D01*
X0024727Y0310756D01*
X0024780Y0310900D01*
X0024836Y0311042D01*
X0024896Y0311183D01*
X0024960Y0311323D01*
X0025027Y0311461D01*
X0025098Y0311597D01*
X0025173Y0311731D01*
X0025250Y0311863D01*
X0025332Y0311993D01*
X0025416Y0312121D01*
X0025504Y0312247D01*
X0025595Y0312370D01*
X0025689Y0312491D01*
X0025787Y0312609D01*
X0025887Y0312725D01*
X0025991Y0312838D01*
X0026097Y0312949D01*
X0026206Y0313057D01*
X0026318Y0313162D01*
X0026432Y0313263D01*
X0026550Y0313362D01*
X0026669Y0313458D01*
X0026791Y0313551D01*
X0026916Y0313640D01*
X0027043Y0313727D01*
X0027172Y0313809D01*
X0027303Y0313889D01*
X0027436Y0313965D01*
X0027571Y0314038D01*
X0027708Y0314107D01*
X0027847Y0314172D01*
X0027987Y0314234D01*
X0028129Y0314292D01*
X0028272Y0314347D01*
X0028417Y0314398D01*
X0028563Y0314445D01*
X0028710Y0314488D01*
X0028858Y0314527D01*
X0029007Y0314563D01*
X0029157Y0314594D01*
X0029308Y0314622D01*
X0029459Y0314646D01*
X0029612Y0314666D01*
X0029764Y0314682D01*
X0029917Y0314694D01*
X0030070Y0314702D01*
X0030223Y0314706D01*
X0030377Y0314706D01*
X0030530Y0314702D01*
X0030683Y0314694D01*
X0030836Y0314682D01*
X0030988Y0314666D01*
X0031141Y0314646D01*
X0031292Y0314622D01*
X0031443Y0314594D01*
X0031593Y0314563D01*
X0031742Y0314527D01*
X0031890Y0314488D01*
X0032037Y0314445D01*
X0032183Y0314398D01*
X0032328Y0314347D01*
X0032471Y0314292D01*
X0032613Y0314234D01*
X0032753Y0314172D01*
X0032892Y0314107D01*
X0033029Y0314038D01*
X0033164Y0313965D01*
X0033297Y0313889D01*
X0033428Y0313809D01*
X0033557Y0313727D01*
X0033684Y0313640D01*
X0033809Y0313551D01*
X0033931Y0313458D01*
X0034050Y0313362D01*
X0034168Y0313263D01*
X0034282Y0313162D01*
X0034394Y0313057D01*
X0034503Y0312949D01*
X0034609Y0312838D01*
X0034713Y0312725D01*
X0034813Y0312609D01*
X0034911Y0312491D01*
X0035005Y0312370D01*
X0035096Y0312247D01*
X0035184Y0312121D01*
X0035268Y0311993D01*
X0035350Y0311863D01*
X0035427Y0311731D01*
X0035502Y0311597D01*
X0035573Y0311461D01*
X0035640Y0311323D01*
X0035704Y0311183D01*
X0035764Y0311042D01*
X0035820Y0310900D01*
X0035873Y0310756D01*
X0035922Y0310610D01*
X0035967Y0310464D01*
X0036008Y0310316D01*
X0036045Y0310168D01*
X0036079Y0310018D01*
X0036109Y0309867D01*
X0036134Y0309716D01*
X0036156Y0309565D01*
X0036174Y0309412D01*
X0036188Y0309260D01*
X0036198Y0309107D01*
X0036204Y0308953D01*
X0036206Y0308800D01*
X0036204Y0308647D01*
X0036198Y0308493D01*
X0036188Y0308340D01*
X0036174Y0308188D01*
X0036156Y0308035D01*
X0036134Y0307884D01*
X0036109Y0307733D01*
X0036079Y0307582D01*
X0036045Y0307432D01*
X0036008Y0307284D01*
X0035967Y0307136D01*
X0035922Y0306990D01*
X0035873Y0306844D01*
X0035820Y0306700D01*
X0035764Y0306558D01*
X0035704Y0306417D01*
X0035640Y0306277D01*
X0035573Y0306139D01*
X0035502Y0306003D01*
X0035427Y0305869D01*
X0035350Y0305737D01*
X0035268Y0305607D01*
X0035184Y0305479D01*
X0035096Y0305353D01*
X0035005Y0305230D01*
X0034911Y0305109D01*
X0034813Y0304991D01*
X0034713Y0304875D01*
X0034609Y0304762D01*
X0034503Y0304651D01*
X0034394Y0304543D01*
X0034282Y0304438D01*
X0034168Y0304337D01*
X0034050Y0304238D01*
X0033931Y0304142D01*
X0033809Y0304049D01*
X0033684Y0303960D01*
X0033557Y0303873D01*
X0033428Y0303791D01*
X0033297Y0303711D01*
X0033164Y0303635D01*
X0033029Y0303562D01*
X0032892Y0303493D01*
X0032753Y0303428D01*
X0032613Y0303366D01*
X0032471Y0303308D01*
X0032328Y0303253D01*
X0032183Y0303202D01*
X0032037Y0303155D01*
X0031890Y0303112D01*
X0031742Y0303073D01*
X0031593Y0303037D01*
X0031443Y0303006D01*
X0031292Y0302978D01*
X0031141Y0302954D01*
X0030988Y0302934D01*
X0030836Y0302918D01*
X0030683Y0302906D01*
X0030530Y0302898D01*
X0030377Y0302894D01*
X0030223Y0302894D01*
X0030070Y0302898D01*
X0029917Y0302906D01*
X0029764Y0302918D01*
X0029612Y0302934D01*
X0029459Y0302954D01*
X0029308Y0302978D01*
X0029157Y0303006D01*
X0029007Y0303037D01*
X0028858Y0303073D01*
X0028710Y0303112D01*
X0028563Y0303155D01*
X0028417Y0303202D01*
X0028272Y0303253D01*
X0028129Y0303308D01*
X0027987Y0303366D01*
X0027847Y0303428D01*
X0027708Y0303493D01*
X0027571Y0303562D01*
X0027436Y0303635D01*
X0027303Y0303711D01*
X0027172Y0303791D01*
X0027043Y0303873D01*
X0026916Y0303960D01*
X0026791Y0304049D01*
X0026669Y0304142D01*
X0026550Y0304238D01*
X0026432Y0304337D01*
X0026318Y0304438D01*
X0026206Y0304543D01*
X0026097Y0304651D01*
X0025991Y0304762D01*
X0025887Y0304875D01*
X0025787Y0304991D01*
X0025689Y0305109D01*
X0025595Y0305230D01*
X0025504Y0305353D01*
X0025416Y0305479D01*
X0025332Y0305607D01*
X0025250Y0305737D01*
X0025173Y0305869D01*
X0025098Y0306003D01*
X0025027Y0306139D01*
X0024960Y0306277D01*
X0024896Y0306417D01*
X0024836Y0306558D01*
X0024780Y0306700D01*
X0024727Y0306844D01*
X0024678Y0306990D01*
X0024633Y0307136D01*
X0024592Y0307284D01*
X0024555Y0307432D01*
X0024521Y0307582D01*
X0024491Y0307733D01*
X0024466Y0307884D01*
X0024444Y0308035D01*
X0024426Y0308188D01*
X0024412Y0308340D01*
X0024402Y0308493D01*
X0024396Y0308647D01*
X0024394Y0308800D01*
M02*
