G75*
%MOIN*%
%OFA0B0*%
%FSLAX25Y25*%
%IPPOS*%
%LPD*%
%AMOC8*
5,1,8,0,0,1.08239X$1,22.5*
%
%ADD10R,0.09646X0.03937*%
%ADD11R,0.03937X0.09646*%
%ADD12R,0.06299X0.05118*%
%ADD13R,0.05906X0.10236*%
%ADD14R,0.05118X0.06299*%
%ADD15R,0.07087X0.06299*%
%ADD16C,0.04362*%
%ADD17C,0.04756*%
%ADD18R,0.05315X0.01575*%
%ADD19R,0.07480X0.07087*%
%ADD20R,0.07480X0.06201*%
%ADD21C,0.05150*%
%ADD22C,0.05937*%
%ADD23C,0.05200*%
%ADD24OC8,0.07500*%
%ADD25OC8,0.07000*%
%ADD26C,0.02000*%
%ADD27C,0.01969*%
%ADD28C,0.03150*%
%ADD29C,0.02800*%
%ADD30C,0.02400*%
%ADD31R,0.07000X0.07000*%
%ADD32C,0.00600*%
%ADD33C,0.01600*%
D10*
X0068194Y0279867D03*
X0068194Y0285379D03*
X0068194Y0290891D03*
X0068194Y0296402D03*
X0068194Y0301914D03*
X0068194Y0307426D03*
X0068194Y0312938D03*
X0068194Y0318450D03*
X0117406Y0318450D03*
X0117406Y0312938D03*
X0117406Y0307426D03*
X0117406Y0301914D03*
X0117406Y0296402D03*
X0117406Y0290891D03*
X0117406Y0285379D03*
X0117406Y0279867D03*
D11*
X0112091Y0271009D03*
X0106580Y0271009D03*
X0101068Y0271009D03*
X0095556Y0271009D03*
X0090044Y0271009D03*
X0084532Y0271009D03*
X0079020Y0271009D03*
X0073509Y0271009D03*
D12*
X0136800Y0306060D03*
X0136800Y0313540D03*
D13*
X0110493Y0238800D03*
X0097107Y0238800D03*
X0086993Y0238800D03*
X0073607Y0238800D03*
D14*
X0064040Y0238300D03*
X0056560Y0238300D03*
X0119060Y0238300D03*
X0126540Y0238300D03*
D15*
X0051800Y0273288D03*
X0051800Y0284312D03*
D16*
X0025981Y0076737D02*
X0021619Y0076737D01*
X0021619Y0043863D02*
X0025981Y0043863D01*
D17*
X0033233Y0051540D02*
X0037989Y0051540D01*
X0037989Y0069060D02*
X0033233Y0069060D01*
D18*
X0034824Y0065418D03*
X0034824Y0062859D03*
X0034824Y0060300D03*
X0034824Y0057741D03*
X0034824Y0055182D03*
D19*
X0023800Y0055772D03*
X0023800Y0064828D03*
D20*
X0023800Y0073637D03*
X0023800Y0046963D03*
D21*
X0060225Y0107800D02*
X0065375Y0107800D01*
X0065375Y0117800D02*
X0060225Y0117800D01*
X0060225Y0127800D02*
X0065375Y0127800D01*
X0065375Y0137800D02*
X0060225Y0137800D01*
X0060225Y0147800D02*
X0065375Y0147800D01*
X0065375Y0157800D02*
X0060225Y0157800D01*
X0060225Y0167800D02*
X0065375Y0167800D01*
X0065375Y0187800D02*
X0060225Y0187800D01*
X0075225Y0182800D02*
X0080375Y0182800D01*
X0080375Y0172800D02*
X0075225Y0172800D01*
X0075225Y0142800D02*
X0080375Y0142800D01*
X0080375Y0132800D02*
X0075225Y0132800D01*
X0077800Y0090375D02*
X0077800Y0085225D01*
X0067800Y0085225D02*
X0067800Y0090375D01*
X0087800Y0090375D02*
X0087800Y0085225D01*
X0097800Y0085225D02*
X0097800Y0090375D01*
X0107800Y0090375D02*
X0107800Y0085225D01*
X0117800Y0085225D02*
X0117800Y0090375D01*
X0120225Y0097800D02*
X0125375Y0097800D01*
X0125375Y0107800D02*
X0120225Y0107800D01*
X0120225Y0117800D02*
X0125375Y0117800D01*
X0125375Y0127800D02*
X0120225Y0127800D01*
X0120225Y0147800D02*
X0125375Y0147800D01*
X0125375Y0157800D02*
X0120225Y0157800D01*
X0120225Y0167800D02*
X0125375Y0167800D01*
X0125375Y0177800D02*
X0120225Y0177800D01*
X0120225Y0187800D02*
X0125375Y0187800D01*
X0125375Y0197800D02*
X0120225Y0197800D01*
X0120225Y0207800D02*
X0125375Y0207800D01*
D22*
X0125769Y0137800D02*
X0119831Y0137800D01*
X0065769Y0097800D02*
X0059831Y0097800D01*
X0059831Y0177800D02*
X0065769Y0177800D01*
X0065769Y0197800D02*
X0059831Y0197800D01*
X0059831Y0207800D02*
X0065769Y0207800D01*
D23*
X0138200Y0086800D02*
X0143400Y0086800D01*
X0143400Y0076800D02*
X0138200Y0076800D01*
X0138200Y0066800D02*
X0143400Y0066800D01*
X0143400Y0056800D02*
X0138200Y0056800D01*
X0138200Y0046800D02*
X0143400Y0046800D01*
D24*
X0099300Y0041800D03*
X0099300Y0031800D03*
X0099300Y0051800D03*
X0099300Y0061800D03*
D25*
X0140694Y0207662D03*
X0051300Y0306800D03*
D26*
X0051926Y0307426D01*
X0068194Y0307426D01*
X0067918Y0285965D02*
X0064800Y0285965D01*
X0067918Y0279076D02*
X0062131Y0273288D01*
X0051800Y0273288D01*
X0051800Y0243060D01*
X0056560Y0238300D01*
X0062800Y0177800D02*
X0086300Y0177800D01*
X0091300Y0182800D01*
X0128300Y0182800D01*
X0146800Y0201300D01*
X0146800Y0271800D01*
X0123300Y0295300D01*
X0118509Y0295300D01*
X0117406Y0296402D01*
X0117406Y0290891D02*
X0122245Y0290891D01*
X0140694Y0272442D01*
X0140694Y0207662D01*
X0151800Y0166800D02*
X0151800Y0291060D01*
X0136800Y0306060D01*
X0135434Y0307426D01*
X0117406Y0307426D01*
X0117406Y0312938D02*
X0136198Y0312938D01*
X0136800Y0313540D01*
X0151800Y0166800D02*
X0122800Y0137800D01*
D27*
X0100989Y0199154D02*
X0063784Y0199154D01*
X0062800Y0197800D01*
X0062800Y0207800D02*
X0063784Y0208800D01*
X0106501Y0208800D01*
X0131304Y0233603D01*
X0131304Y0257028D01*
X0117524Y0270808D01*
X0117524Y0279076D01*
X0117406Y0279867D01*
X0117524Y0284587D02*
X0117406Y0285379D01*
X0117524Y0284587D02*
X0123036Y0284587D01*
X0134060Y0273564D01*
X0134060Y0232225D01*
X0100989Y0199154D01*
X0120280Y0230847D02*
X0127170Y0237737D01*
X0126540Y0238300D01*
X0125792Y0239115D01*
X0125792Y0258406D01*
X0113391Y0270808D01*
X0112091Y0271009D01*
X0112013Y0272186D01*
X0110635Y0273564D01*
X0110635Y0276320D01*
X0109257Y0277698D01*
X0109257Y0302501D01*
X0109946Y0303190D01*
X0110635Y0302501D01*
X0116146Y0302501D01*
X0117406Y0301914D01*
X0117524Y0302501D01*
X0117406Y0312938D02*
X0116146Y0313524D01*
X0112013Y0313524D01*
X0109257Y0310769D01*
X0109257Y0303879D01*
X0109946Y0303190D01*
X0096855Y0270808D02*
X0095556Y0271009D01*
X0096855Y0270808D02*
X0096855Y0239115D01*
X0097107Y0238800D01*
X0089965Y0241871D02*
X0087209Y0239115D01*
X0086993Y0238800D01*
X0089965Y0241871D02*
X0089965Y0270808D01*
X0090044Y0271009D01*
X0073430Y0239115D02*
X0073607Y0238800D01*
X0073430Y0239115D02*
X0065162Y0239115D01*
X0064040Y0238300D01*
X0059650Y0234981D02*
X0059650Y0233603D01*
X0062406Y0230847D01*
X0073300Y0230847D01*
X0120280Y0230847D01*
X0119060Y0238300D02*
X0118902Y0239115D01*
X0110635Y0239115D01*
X0110493Y0238800D01*
X0067918Y0279076D02*
X0068194Y0279867D01*
X0067918Y0279076D02*
X0065162Y0276320D01*
X0068194Y0285379D02*
X0067918Y0285965D01*
X0067918Y0290099D01*
X0068194Y0290891D01*
X0067918Y0291477D01*
X0067918Y0295611D01*
X0068194Y0296402D01*
X0056560Y0238300D02*
X0056894Y0237737D01*
X0059650Y0234981D01*
X0087800Y0087800D02*
X0088587Y0087540D01*
D28*
X0079300Y0061800D02*
X0099300Y0061800D01*
X0079300Y0061800D02*
X0058800Y0082300D01*
X0058800Y0093800D01*
X0062800Y0097800D01*
X0056300Y0097800D01*
X0047300Y0106800D01*
X0047300Y0113670D01*
X0047249Y0113721D01*
X0067918Y0285965D02*
X0067918Y0290615D01*
X0068194Y0290891D01*
X0067918Y0290099D02*
X0067918Y0296127D01*
X0068194Y0296402D01*
D29*
X0064800Y0285965D02*
X0062965Y0285965D01*
X0061312Y0284312D01*
X0051800Y0284312D01*
X0048312Y0284312D02*
X0043800Y0279800D01*
X0043800Y0117170D01*
X0047300Y0113670D01*
X0056300Y0097800D02*
X0056300Y0096300D01*
X0058800Y0093800D01*
X0134099Y0294001D02*
X0126186Y0301914D01*
X0117406Y0301914D01*
X0117406Y0312938D02*
X0117406Y0318450D01*
X0134099Y0294001D02*
X0135414Y0294001D01*
D30*
X0073300Y0230847D02*
X0070347Y0230847D01*
X0060800Y0221300D01*
X0051800Y0284312D02*
X0048312Y0284312D01*
X0064800Y0285965D02*
X0067607Y0285965D01*
X0068194Y0285379D01*
D31*
X0060800Y0221300D03*
X0135414Y0294001D03*
D32*
X0019780Y0025039D02*
X0020744Y0022088D01*
X0022572Y0019578D01*
X0025086Y0017755D01*
X0028039Y0016797D01*
X0029591Y0016675D01*
X0029593Y0016675D01*
X0030368Y0016675D01*
X0030368Y0016675D01*
X0156891Y0016675D01*
X0158447Y0016797D01*
X0161407Y0017760D01*
X0163924Y0019592D01*
X0165750Y0022112D01*
X0166707Y0025073D01*
X0166827Y0026630D01*
X0166826Y0027406D01*
X0166826Y0027407D01*
X0166366Y0309709D01*
X0166241Y0311262D01*
X0165277Y0314213D01*
X0163449Y0316723D01*
X0160936Y0318546D01*
X0157982Y0319504D01*
X0156430Y0319626D01*
X0156425Y0319626D01*
X0155653Y0319626D01*
X0155653Y0319626D01*
X0123529Y0319626D01*
X0123529Y0318750D01*
X0117706Y0318750D01*
X0117706Y0318150D01*
X0123529Y0318150D01*
X0123529Y0316310D01*
X0123441Y0315979D01*
X0123276Y0315694D01*
X0123441Y0315408D01*
X0123529Y0315077D01*
X0123529Y0313238D01*
X0117706Y0313238D01*
X0117106Y0313238D01*
X0117106Y0316206D01*
X0117106Y0318150D01*
X0111283Y0318150D01*
X0111283Y0316310D01*
X0111372Y0315979D01*
X0111537Y0315694D01*
X0111372Y0315408D01*
X0111283Y0315077D01*
X0111283Y0313238D01*
X0117106Y0313238D01*
X0117106Y0312638D01*
X0111283Y0312638D01*
X0111283Y0310798D01*
X0111372Y0310468D01*
X0111543Y0310171D01*
X0111683Y0310032D01*
X0111496Y0309845D01*
X0111496Y0305007D01*
X0111683Y0304820D01*
X0111543Y0304681D01*
X0111372Y0304384D01*
X0111283Y0304054D01*
X0111283Y0302214D01*
X0117106Y0302214D01*
X0117106Y0301614D01*
X0111283Y0301614D01*
X0111283Y0299775D01*
X0111372Y0299444D01*
X0111543Y0299147D01*
X0111683Y0299008D01*
X0111496Y0298821D01*
X0111496Y0293983D01*
X0111833Y0293646D01*
X0111496Y0293309D01*
X0111496Y0288472D01*
X0111833Y0288135D01*
X0111496Y0287798D01*
X0111496Y0282960D01*
X0111833Y0282623D01*
X0111496Y0282286D01*
X0111496Y0277448D01*
X0112133Y0276811D01*
X0112391Y0276811D01*
X0112391Y0271309D01*
X0111791Y0271309D01*
X0111791Y0277131D01*
X0109952Y0277131D01*
X0109621Y0277043D01*
X0109325Y0276872D01*
X0109185Y0276732D01*
X0108998Y0276919D01*
X0104161Y0276919D01*
X0103824Y0276582D01*
X0103487Y0276919D01*
X0098649Y0276919D01*
X0098312Y0276582D01*
X0097975Y0276919D01*
X0093137Y0276919D01*
X0092800Y0276582D01*
X0092463Y0276919D01*
X0087625Y0276919D01*
X0087288Y0276582D01*
X0086951Y0276919D01*
X0082113Y0276919D01*
X0081776Y0276582D01*
X0081439Y0276919D01*
X0076602Y0276919D01*
X0076265Y0276582D01*
X0075928Y0276919D01*
X0073875Y0276919D01*
X0074057Y0277100D01*
X0074228Y0277397D01*
X0074317Y0277727D01*
X0074317Y0279567D01*
X0068494Y0279567D01*
X0068494Y0280167D01*
X0074317Y0280167D01*
X0074317Y0282007D01*
X0074228Y0282337D01*
X0074057Y0282634D01*
X0073917Y0282773D01*
X0074104Y0282960D01*
X0074104Y0287798D01*
X0073767Y0288135D01*
X0074104Y0288472D01*
X0074104Y0293309D01*
X0073767Y0293646D01*
X0074104Y0293983D01*
X0074104Y0298821D01*
X0073767Y0299158D01*
X0074104Y0299495D01*
X0074104Y0304333D01*
X0073767Y0304670D01*
X0074104Y0305007D01*
X0074104Y0309845D01*
X0073767Y0310182D01*
X0074104Y0310519D01*
X0074104Y0315357D01*
X0073767Y0315694D01*
X0074104Y0316031D01*
X0074104Y0319626D01*
X0111283Y0319626D01*
X0111283Y0318750D01*
X0117106Y0318750D01*
X0117106Y0318150D01*
X0117706Y0318150D01*
X0117706Y0313238D01*
X0117706Y0312638D01*
X0123529Y0312638D01*
X0123529Y0310798D01*
X0123441Y0310468D01*
X0123269Y0310171D01*
X0123130Y0310032D01*
X0123317Y0309845D01*
X0123317Y0309513D01*
X0133007Y0309513D01*
X0133200Y0309706D01*
X0133385Y0309706D01*
X0133149Y0309770D01*
X0132852Y0309941D01*
X0132610Y0310183D01*
X0132439Y0310479D01*
X0132350Y0310810D01*
X0132350Y0313240D01*
X0136500Y0313240D01*
X0136500Y0313840D01*
X0132350Y0313840D01*
X0132350Y0316270D01*
X0132439Y0316601D01*
X0132610Y0316897D01*
X0132852Y0317139D01*
X0133149Y0317311D01*
X0133479Y0317399D01*
X0136500Y0317399D01*
X0136500Y0313840D01*
X0137100Y0313840D01*
X0141250Y0313840D01*
X0141250Y0316270D01*
X0141161Y0316601D01*
X0140990Y0316897D01*
X0140748Y0317139D01*
X0140451Y0317311D01*
X0140121Y0317399D01*
X0137100Y0317399D01*
X0137100Y0313840D01*
X0137100Y0313240D01*
X0141250Y0313240D01*
X0141250Y0310810D01*
X0141161Y0310479D01*
X0140990Y0310183D01*
X0140748Y0309941D01*
X0140451Y0309770D01*
X0140215Y0309706D01*
X0140400Y0309706D01*
X0141037Y0309069D01*
X0141037Y0304775D01*
X0152665Y0293147D01*
X0153887Y0291924D01*
X0153887Y0165935D01*
X0152665Y0164713D01*
X0128628Y0140676D01*
X0129207Y0140097D01*
X0129824Y0138607D01*
X0129824Y0136993D01*
X0129207Y0135503D01*
X0128066Y0134362D01*
X0126575Y0133744D01*
X0119025Y0133744D01*
X0117534Y0134362D01*
X0116393Y0135503D01*
X0115776Y0136993D01*
X0115776Y0138607D01*
X0116393Y0140097D01*
X0117534Y0141238D01*
X0119025Y0141856D01*
X0123904Y0141856D01*
X0126244Y0144196D01*
X0126103Y0144138D01*
X0119497Y0144138D01*
X0118151Y0144695D01*
X0117121Y0145726D01*
X0116563Y0147072D01*
X0116563Y0148528D01*
X0117121Y0149874D01*
X0118151Y0150905D01*
X0119497Y0151462D01*
X0126103Y0151462D01*
X0127449Y0150905D01*
X0128479Y0149874D01*
X0129037Y0148528D01*
X0129037Y0147072D01*
X0128979Y0146931D01*
X0149713Y0167665D01*
X0149713Y0290195D01*
X0137494Y0302413D01*
X0133200Y0302413D01*
X0132563Y0303050D01*
X0132563Y0305339D01*
X0123317Y0305339D01*
X0123317Y0305007D01*
X0123130Y0304820D01*
X0123269Y0304681D01*
X0123441Y0304384D01*
X0123529Y0304054D01*
X0123529Y0302214D01*
X0117706Y0302214D01*
X0117106Y0302214D01*
X0117106Y0304370D01*
X0117706Y0304370D01*
X0117706Y0302214D01*
X0117706Y0301614D01*
X0123529Y0301614D01*
X0123529Y0299775D01*
X0123441Y0299444D01*
X0123269Y0299147D01*
X0123130Y0299008D01*
X0123317Y0298821D01*
X0123317Y0297387D01*
X0124165Y0297387D01*
X0147665Y0273887D01*
X0148887Y0272665D01*
X0148887Y0200435D01*
X0147665Y0199213D01*
X0130387Y0181935D01*
X0129165Y0180713D01*
X0127641Y0180713D01*
X0128479Y0179874D01*
X0129037Y0178528D01*
X0129037Y0177072D01*
X0128479Y0175726D01*
X0127449Y0174695D01*
X0126103Y0174138D01*
X0119497Y0174138D01*
X0118151Y0174695D01*
X0117121Y0175726D01*
X0116563Y0177072D01*
X0116563Y0178528D01*
X0117121Y0179874D01*
X0117959Y0180713D01*
X0092165Y0180713D01*
X0088387Y0176935D01*
X0087165Y0175713D01*
X0082641Y0175713D01*
X0083479Y0174874D01*
X0084037Y0173528D01*
X0084037Y0172072D01*
X0083479Y0170726D01*
X0082449Y0169695D01*
X0081103Y0169138D01*
X0074497Y0169138D01*
X0073151Y0169695D01*
X0072121Y0170726D01*
X0071563Y0172072D01*
X0071563Y0173528D01*
X0072121Y0174874D01*
X0072959Y0175713D01*
X0069294Y0175713D01*
X0069207Y0175503D01*
X0068066Y0174362D01*
X0066575Y0173744D01*
X0059025Y0173744D01*
X0057534Y0174362D01*
X0056393Y0175503D01*
X0055776Y0176993D01*
X0055776Y0178607D01*
X0056393Y0180097D01*
X0057534Y0181238D01*
X0059025Y0181856D01*
X0066575Y0181856D01*
X0068066Y0181238D01*
X0069207Y0180097D01*
X0069294Y0179887D01*
X0072959Y0179887D01*
X0072121Y0180726D01*
X0071563Y0182072D01*
X0071563Y0183528D01*
X0072121Y0184874D01*
X0073151Y0185905D01*
X0074497Y0186462D01*
X0081103Y0186462D01*
X0082449Y0185905D01*
X0083479Y0184874D01*
X0084037Y0183528D01*
X0084037Y0182072D01*
X0083479Y0180726D01*
X0082641Y0179887D01*
X0085435Y0179887D01*
X0090435Y0184887D01*
X0117959Y0184887D01*
X0117121Y0185726D01*
X0116563Y0187072D01*
X0116563Y0188528D01*
X0117121Y0189874D01*
X0118151Y0190905D01*
X0119497Y0191462D01*
X0126103Y0191462D01*
X0127449Y0190905D01*
X0128479Y0189874D01*
X0129037Y0188528D01*
X0129037Y0187072D01*
X0128625Y0186077D01*
X0144713Y0202165D01*
X0144713Y0205194D01*
X0142594Y0203075D01*
X0138794Y0203075D01*
X0136106Y0205762D01*
X0136106Y0209562D01*
X0138606Y0212062D01*
X0138606Y0271577D01*
X0136131Y0274052D01*
X0136131Y0231367D01*
X0103061Y0198296D01*
X0101847Y0197083D01*
X0069824Y0197083D01*
X0069824Y0196993D01*
X0069207Y0195503D01*
X0068066Y0194362D01*
X0066575Y0193744D01*
X0059025Y0193744D01*
X0057534Y0194362D01*
X0056393Y0195503D01*
X0055776Y0196993D01*
X0055776Y0198607D01*
X0056393Y0200097D01*
X0057534Y0201238D01*
X0059025Y0201856D01*
X0066575Y0201856D01*
X0068066Y0201238D01*
X0068078Y0201226D01*
X0100131Y0201226D01*
X0105633Y0206728D01*
X0069715Y0206728D01*
X0069207Y0205503D01*
X0068066Y0204362D01*
X0066575Y0203744D01*
X0059025Y0203744D01*
X0057534Y0204362D01*
X0056393Y0205503D01*
X0055776Y0206993D01*
X0055776Y0208607D01*
X0056393Y0210097D01*
X0057534Y0211238D01*
X0059025Y0211856D01*
X0066575Y0211856D01*
X0068066Y0211238D01*
X0068433Y0210872D01*
X0105643Y0210872D01*
X0128621Y0233850D01*
X0126840Y0233850D01*
X0126840Y0238000D01*
X0126240Y0238000D01*
X0126240Y0233850D01*
X0123810Y0233850D01*
X0123479Y0233939D01*
X0123183Y0234110D01*
X0122941Y0234352D01*
X0122770Y0234649D01*
X0122706Y0234885D01*
X0122706Y0234700D01*
X0122069Y0234063D01*
X0116050Y0234063D01*
X0115413Y0234700D01*
X0115413Y0237043D01*
X0114533Y0237043D01*
X0114533Y0233231D01*
X0113896Y0232594D01*
X0107090Y0232594D01*
X0106453Y0233231D01*
X0106453Y0244369D01*
X0107090Y0245005D01*
X0113896Y0245005D01*
X0114533Y0244369D01*
X0114533Y0241187D01*
X0115413Y0241187D01*
X0115413Y0241900D01*
X0116050Y0242537D01*
X0122069Y0242537D01*
X0122706Y0241900D01*
X0122706Y0241715D01*
X0122770Y0241951D01*
X0122941Y0242248D01*
X0123183Y0242490D01*
X0123479Y0242661D01*
X0123810Y0242750D01*
X0126240Y0242750D01*
X0126240Y0238600D01*
X0126840Y0238600D01*
X0126840Y0242750D01*
X0129232Y0242750D01*
X0129232Y0256170D01*
X0115453Y0269950D01*
X0115453Y0276811D01*
X0114919Y0276811D01*
X0115100Y0276630D01*
X0115271Y0276333D01*
X0115360Y0276003D01*
X0115360Y0271309D01*
X0112391Y0271309D01*
X0112391Y0270709D01*
X0112391Y0264886D01*
X0114231Y0264886D01*
X0114562Y0264974D01*
X0114858Y0265146D01*
X0115100Y0265388D01*
X0115271Y0265684D01*
X0115360Y0266015D01*
X0115360Y0270709D01*
X0112391Y0270709D01*
X0111791Y0270709D01*
X0111791Y0264886D01*
X0109952Y0264886D01*
X0109621Y0264974D01*
X0109325Y0265146D01*
X0109185Y0265285D01*
X0108998Y0265098D01*
X0104161Y0265098D01*
X0103824Y0265435D01*
X0103487Y0265098D01*
X0098927Y0265098D01*
X0098927Y0245005D01*
X0100510Y0245005D01*
X0101147Y0244369D01*
X0101147Y0233231D01*
X0100510Y0232594D01*
X0093704Y0232594D01*
X0093067Y0233231D01*
X0093067Y0244369D01*
X0093704Y0245005D01*
X0094783Y0245005D01*
X0094783Y0265098D01*
X0093137Y0265098D01*
X0092800Y0265435D01*
X0092463Y0265098D01*
X0092037Y0265098D01*
X0092037Y0241013D01*
X0091033Y0240009D01*
X0091033Y0233231D01*
X0090396Y0232594D01*
X0083590Y0232594D01*
X0082953Y0233231D01*
X0082953Y0244369D01*
X0083590Y0245005D01*
X0087894Y0245005D01*
X0087894Y0265098D01*
X0087625Y0265098D01*
X0087288Y0265435D01*
X0086951Y0265098D01*
X0082113Y0265098D01*
X0081776Y0265435D01*
X0081439Y0265098D01*
X0076602Y0265098D01*
X0076265Y0265435D01*
X0075928Y0265098D01*
X0071090Y0265098D01*
X0070453Y0265735D01*
X0070453Y0276282D01*
X0070769Y0276598D01*
X0068494Y0276598D01*
X0068494Y0279567D01*
X0067894Y0279567D01*
X0067894Y0276598D01*
X0063200Y0276598D01*
X0062869Y0276687D01*
X0062573Y0276858D01*
X0062331Y0277100D01*
X0062159Y0277397D01*
X0062071Y0277727D01*
X0062071Y0279567D01*
X0067894Y0279567D01*
X0067894Y0280167D01*
X0062071Y0280167D01*
X0062071Y0281934D01*
X0061807Y0281824D01*
X0056431Y0281824D01*
X0056431Y0280712D01*
X0055794Y0280075D01*
X0047806Y0280075D01*
X0047699Y0280182D01*
X0046287Y0278770D01*
X0046287Y0118200D01*
X0048335Y0116153D01*
X0048757Y0115978D01*
X0049557Y0115178D01*
X0049962Y0114200D01*
X0049962Y0107903D01*
X0057080Y0100785D01*
X0057534Y0101238D01*
X0059025Y0101856D01*
X0066575Y0101856D01*
X0068066Y0101238D01*
X0069207Y0100097D01*
X0069824Y0098607D01*
X0069824Y0096993D01*
X0069207Y0095503D01*
X0068066Y0094362D01*
X0067282Y0094037D01*
X0068528Y0094037D01*
X0069874Y0093479D01*
X0070905Y0092449D01*
X0071462Y0091103D01*
X0071462Y0084497D01*
X0070905Y0083151D01*
X0069874Y0082121D01*
X0068528Y0081563D01*
X0067072Y0081563D01*
X0065726Y0082121D01*
X0064695Y0083151D01*
X0064138Y0084497D01*
X0064138Y0091103D01*
X0064695Y0092449D01*
X0065726Y0093479D01*
X0066364Y0093744D01*
X0062509Y0093744D01*
X0061462Y0092697D01*
X0061462Y0083403D01*
X0080403Y0064462D01*
X0095121Y0064462D01*
X0097296Y0066637D01*
X0101304Y0066637D01*
X0104137Y0063804D01*
X0104137Y0059796D01*
X0101304Y0056963D01*
X0097296Y0056963D01*
X0095121Y0059138D01*
X0078770Y0059138D01*
X0077792Y0059543D01*
X0077043Y0060292D01*
X0056543Y0080792D01*
X0056138Y0081770D01*
X0056138Y0092944D01*
X0054891Y0094191D01*
X0054891Y0094191D01*
X0054191Y0094891D01*
X0053813Y0095805D01*
X0053813Y0096522D01*
X0045792Y0104543D01*
X0045043Y0105292D01*
X0044638Y0106270D01*
X0044638Y0112815D01*
X0041691Y0115761D01*
X0041313Y0116675D01*
X0041313Y0280295D01*
X0041691Y0281209D01*
X0042391Y0281909D01*
X0046903Y0286421D01*
X0047169Y0286531D01*
X0047169Y0287912D01*
X0047806Y0288549D01*
X0055794Y0288549D01*
X0056431Y0287912D01*
X0056431Y0286799D01*
X0060281Y0286799D01*
X0061556Y0288074D01*
X0062352Y0288403D01*
X0062283Y0288472D01*
X0062283Y0293309D01*
X0062620Y0293646D01*
X0062283Y0293983D01*
X0062283Y0298821D01*
X0062620Y0299158D01*
X0062283Y0299495D01*
X0062283Y0304333D01*
X0062620Y0304670D01*
X0062283Y0305007D01*
X0062283Y0305339D01*
X0055887Y0305339D01*
X0055887Y0304900D01*
X0053200Y0302213D01*
X0049400Y0302213D01*
X0046713Y0304900D01*
X0046713Y0308700D01*
X0049400Y0311387D01*
X0053200Y0311387D01*
X0055074Y0309513D01*
X0062283Y0309513D01*
X0062283Y0309845D01*
X0062620Y0310182D01*
X0062283Y0310519D01*
X0062283Y0315357D01*
X0062620Y0315694D01*
X0062283Y0316031D01*
X0062283Y0319626D01*
X0029130Y0319626D01*
X0027574Y0319503D01*
X0024614Y0318540D01*
X0022098Y0316709D01*
X0020271Y0314189D01*
X0019314Y0311227D01*
X0019194Y0309671D01*
X0019196Y0308894D01*
X0019195Y0308894D01*
X0019572Y0077787D01*
X0019609Y0077824D01*
X0027991Y0077824D01*
X0028628Y0077187D01*
X0028628Y0070086D01*
X0027995Y0069454D01*
X0028628Y0068821D01*
X0028628Y0060834D01*
X0028094Y0060300D01*
X0028628Y0059766D01*
X0028628Y0051779D01*
X0027995Y0051146D01*
X0028628Y0050514D01*
X0028628Y0045839D01*
X0028752Y0045714D01*
X0029250Y0044513D01*
X0029250Y0043213D01*
X0028752Y0042012D01*
X0027833Y0041092D01*
X0026631Y0040594D01*
X0020969Y0040594D01*
X0019767Y0041092D01*
X0019632Y0041228D01*
X0019656Y0026591D01*
X0019780Y0025039D01*
X0019779Y0025057D02*
X0024515Y0025057D01*
X0024763Y0024459D02*
X0019970Y0024459D01*
X0020165Y0023860D02*
X0025011Y0023860D01*
X0025204Y0023393D02*
X0027393Y0021204D01*
X0030252Y0020020D01*
X0033348Y0020020D01*
X0036207Y0021204D01*
X0038396Y0023393D01*
X0039580Y0026252D01*
X0039580Y0029348D01*
X0038396Y0032207D01*
X0036207Y0034396D01*
X0033348Y0035580D01*
X0030252Y0035580D01*
X0027393Y0034396D01*
X0025204Y0032207D01*
X0024020Y0029348D01*
X0024020Y0026252D01*
X0025204Y0023393D01*
X0025335Y0023261D02*
X0020361Y0023261D01*
X0020556Y0022663D02*
X0025934Y0022663D01*
X0026533Y0022064D02*
X0020761Y0022064D01*
X0021197Y0021466D02*
X0027131Y0021466D01*
X0028206Y0020867D02*
X0021633Y0020867D01*
X0022069Y0020269D02*
X0029651Y0020269D01*
X0029552Y0016678D02*
X0156930Y0016678D01*
X0155848Y0020520D02*
X0158707Y0021704D01*
X0160896Y0023893D01*
X0162080Y0026752D01*
X0162080Y0029848D01*
X0160896Y0032707D01*
X0158707Y0034896D01*
X0155848Y0036080D01*
X0152752Y0036080D01*
X0149893Y0034896D01*
X0147704Y0032707D01*
X0146520Y0029848D01*
X0146520Y0026752D01*
X0147704Y0023893D01*
X0149893Y0021704D01*
X0152752Y0020520D01*
X0155848Y0020520D01*
X0156687Y0020867D02*
X0164848Y0020867D01*
X0164414Y0020269D02*
X0033949Y0020269D01*
X0035394Y0020867D02*
X0151913Y0020867D01*
X0150468Y0021466D02*
X0036469Y0021466D01*
X0037067Y0022064D02*
X0149533Y0022064D01*
X0148934Y0022663D02*
X0037666Y0022663D01*
X0038265Y0023261D02*
X0148335Y0023261D01*
X0147737Y0023860D02*
X0038589Y0023860D01*
X0038837Y0024459D02*
X0147470Y0024459D01*
X0147222Y0025057D02*
X0039085Y0025057D01*
X0039333Y0025656D02*
X0146974Y0025656D01*
X0146726Y0026254D02*
X0039580Y0026254D01*
X0039580Y0026853D02*
X0146520Y0026853D01*
X0146520Y0027451D02*
X0101792Y0027451D01*
X0101304Y0026963D02*
X0104137Y0029796D01*
X0104137Y0033804D01*
X0101304Y0036637D01*
X0097296Y0036637D01*
X0094463Y0033804D01*
X0094463Y0029796D01*
X0097296Y0026963D01*
X0101304Y0026963D01*
X0102391Y0028050D02*
X0146520Y0028050D01*
X0146520Y0028648D02*
X0102989Y0028648D01*
X0103588Y0029247D02*
X0146520Y0029247D01*
X0146520Y0029845D02*
X0104137Y0029845D01*
X0104137Y0030444D02*
X0146767Y0030444D01*
X0147014Y0031042D02*
X0104137Y0031042D01*
X0104137Y0031641D02*
X0147262Y0031641D01*
X0147510Y0032239D02*
X0104137Y0032239D01*
X0104137Y0032838D02*
X0147835Y0032838D01*
X0148433Y0033436D02*
X0104137Y0033436D01*
X0103906Y0034035D02*
X0149032Y0034035D01*
X0149630Y0034633D02*
X0103308Y0034633D01*
X0102709Y0035232D02*
X0150704Y0035232D01*
X0152149Y0035830D02*
X0102111Y0035830D01*
X0101512Y0036429D02*
X0166811Y0036429D01*
X0166810Y0037027D02*
X0101368Y0037027D01*
X0101304Y0036963D02*
X0104137Y0039796D01*
X0104137Y0043804D01*
X0101304Y0046637D01*
X0097296Y0046637D01*
X0094463Y0043804D01*
X0094463Y0043687D01*
X0070582Y0043687D01*
X0057200Y0057069D01*
X0038568Y0057069D01*
X0038568Y0058979D01*
X0038527Y0059020D01*
X0038568Y0059062D01*
X0038568Y0061538D01*
X0038527Y0061580D01*
X0038568Y0061621D01*
X0038568Y0063914D01*
X0038692Y0064129D01*
X0038781Y0064460D01*
X0038781Y0065324D01*
X0034917Y0065324D01*
X0034917Y0065512D01*
X0038781Y0065512D01*
X0038781Y0065637D01*
X0039952Y0066122D01*
X0040927Y0067097D01*
X0041454Y0068371D01*
X0041454Y0069749D01*
X0040927Y0071023D01*
X0039952Y0071998D01*
X0038678Y0072525D01*
X0032544Y0072525D01*
X0031270Y0071998D01*
X0030295Y0071023D01*
X0029768Y0069749D01*
X0029768Y0068371D01*
X0030295Y0067097D01*
X0030898Y0066494D01*
X0030866Y0066377D01*
X0030866Y0065512D01*
X0034730Y0065512D01*
X0034730Y0065324D01*
X0030866Y0065324D01*
X0030866Y0064460D01*
X0030955Y0064129D01*
X0031079Y0063914D01*
X0031079Y0061621D01*
X0031120Y0061580D01*
X0031079Y0061538D01*
X0031079Y0059062D01*
X0031120Y0059020D01*
X0031079Y0058979D01*
X0031079Y0056503D01*
X0031120Y0056461D01*
X0031079Y0056420D01*
X0031079Y0054287D01*
X0030295Y0053503D01*
X0029768Y0052229D01*
X0029768Y0050851D01*
X0030295Y0049577D01*
X0031270Y0048602D01*
X0032544Y0048075D01*
X0038678Y0048075D01*
X0039952Y0048602D01*
X0040927Y0049577D01*
X0041454Y0050851D01*
X0041454Y0052229D01*
X0041013Y0053294D01*
X0055636Y0053294D01*
X0067913Y0041018D01*
X0069018Y0039913D01*
X0094463Y0039913D01*
X0094463Y0039796D01*
X0097296Y0036963D01*
X0101304Y0036963D01*
X0101967Y0037626D02*
X0166809Y0037626D01*
X0166808Y0038224D02*
X0102565Y0038224D01*
X0103164Y0038823D02*
X0166807Y0038823D01*
X0166806Y0039421D02*
X0103762Y0039421D01*
X0104137Y0040020D02*
X0166805Y0040020D01*
X0166804Y0040618D02*
X0104137Y0040618D01*
X0104137Y0041217D02*
X0166803Y0041217D01*
X0166802Y0041815D02*
X0104137Y0041815D01*
X0104137Y0042414D02*
X0166801Y0042414D01*
X0166800Y0043012D02*
X0104137Y0043012D01*
X0104137Y0043611D02*
X0136264Y0043611D01*
X0136111Y0043674D02*
X0135074Y0044711D01*
X0134513Y0046067D01*
X0134513Y0047533D01*
X0135074Y0048889D01*
X0136111Y0049926D01*
X0137467Y0050487D01*
X0144133Y0050487D01*
X0145489Y0049926D01*
X0146526Y0048889D01*
X0147087Y0047533D01*
X0147087Y0046067D01*
X0146526Y0044711D01*
X0145489Y0043674D01*
X0144133Y0043113D01*
X0137467Y0043113D01*
X0136111Y0043674D01*
X0135576Y0044209D02*
X0103732Y0044209D01*
X0103133Y0044808D02*
X0135034Y0044808D01*
X0134786Y0045406D02*
X0102535Y0045406D01*
X0101936Y0046005D02*
X0134538Y0046005D01*
X0134513Y0046603D02*
X0101338Y0046603D01*
X0101392Y0046750D02*
X0104350Y0049708D01*
X0104350Y0051500D01*
X0099600Y0051500D01*
X0099600Y0052100D01*
X0099000Y0052100D01*
X0099000Y0056850D01*
X0097208Y0056850D01*
X0094250Y0053892D01*
X0094250Y0052100D01*
X0099000Y0052100D01*
X0099000Y0051500D01*
X0094250Y0051500D01*
X0094250Y0049708D01*
X0097208Y0046750D01*
X0099000Y0046750D01*
X0099000Y0051500D01*
X0099600Y0051500D01*
X0099600Y0046750D01*
X0101392Y0046750D01*
X0101844Y0047202D02*
X0134513Y0047202D01*
X0134623Y0047800D02*
X0102442Y0047800D01*
X0103041Y0048399D02*
X0134871Y0048399D01*
X0135183Y0048997D02*
X0103639Y0048997D01*
X0104238Y0049596D02*
X0135781Y0049596D01*
X0136759Y0050195D02*
X0104350Y0050195D01*
X0104350Y0050793D02*
X0166788Y0050793D01*
X0166789Y0050195D02*
X0144841Y0050195D01*
X0145819Y0049596D02*
X0166790Y0049596D01*
X0166791Y0048997D02*
X0146417Y0048997D01*
X0146729Y0048399D02*
X0166792Y0048399D01*
X0166793Y0047800D02*
X0146977Y0047800D01*
X0147087Y0047202D02*
X0166794Y0047202D01*
X0166795Y0046603D02*
X0147087Y0046603D01*
X0147062Y0046005D02*
X0166796Y0046005D01*
X0166797Y0045406D02*
X0146814Y0045406D01*
X0146566Y0044808D02*
X0166798Y0044808D01*
X0166799Y0044209D02*
X0146024Y0044209D01*
X0145336Y0043611D02*
X0166799Y0043611D01*
X0166812Y0035830D02*
X0156451Y0035830D01*
X0157896Y0035232D02*
X0166813Y0035232D01*
X0166814Y0034633D02*
X0158970Y0034633D01*
X0159568Y0034035D02*
X0166815Y0034035D01*
X0166816Y0033436D02*
X0160167Y0033436D01*
X0160765Y0032838D02*
X0166817Y0032838D01*
X0166818Y0032239D02*
X0161090Y0032239D01*
X0161338Y0031641D02*
X0166819Y0031641D01*
X0166820Y0031042D02*
X0161586Y0031042D01*
X0161833Y0030444D02*
X0166821Y0030444D01*
X0166822Y0029845D02*
X0162080Y0029845D01*
X0162080Y0029247D02*
X0166823Y0029247D01*
X0166824Y0028648D02*
X0162080Y0028648D01*
X0162080Y0028050D02*
X0166825Y0028050D01*
X0166826Y0027451D02*
X0162080Y0027451D01*
X0162080Y0026853D02*
X0166827Y0026853D01*
X0166798Y0026254D02*
X0161874Y0026254D01*
X0161626Y0025656D02*
X0166752Y0025656D01*
X0166702Y0025057D02*
X0161378Y0025057D01*
X0161130Y0024459D02*
X0166509Y0024459D01*
X0166315Y0023860D02*
X0160863Y0023860D01*
X0160265Y0023261D02*
X0166122Y0023261D01*
X0165928Y0022663D02*
X0159666Y0022663D01*
X0159067Y0022064D02*
X0165716Y0022064D01*
X0165282Y0021466D02*
X0158132Y0021466D01*
X0159919Y0017276D02*
X0026560Y0017276D01*
X0024920Y0017875D02*
X0161564Y0017875D01*
X0162387Y0018473D02*
X0024095Y0018473D01*
X0023269Y0019072D02*
X0163209Y0019072D01*
X0163981Y0019670D02*
X0022505Y0019670D01*
X0024267Y0025656D02*
X0019731Y0025656D01*
X0019683Y0026254D02*
X0024020Y0026254D01*
X0024020Y0026853D02*
X0019655Y0026853D01*
X0019654Y0027451D02*
X0024020Y0027451D01*
X0024020Y0028050D02*
X0019653Y0028050D01*
X0019652Y0028648D02*
X0024020Y0028648D01*
X0024020Y0029247D02*
X0019651Y0029247D01*
X0019650Y0029845D02*
X0024226Y0029845D01*
X0024474Y0030444D02*
X0019649Y0030444D01*
X0019648Y0031042D02*
X0024722Y0031042D01*
X0024970Y0031641D02*
X0019647Y0031641D01*
X0019646Y0032239D02*
X0025236Y0032239D01*
X0025835Y0032838D02*
X0019645Y0032838D01*
X0019644Y0033436D02*
X0026433Y0033436D01*
X0027032Y0034035D02*
X0019643Y0034035D01*
X0019642Y0034633D02*
X0027966Y0034633D01*
X0029411Y0035232D02*
X0019641Y0035232D01*
X0019641Y0035830D02*
X0096489Y0035830D01*
X0095891Y0035232D02*
X0034189Y0035232D01*
X0035634Y0034633D02*
X0095292Y0034633D01*
X0094694Y0034035D02*
X0036568Y0034035D01*
X0037167Y0033436D02*
X0094463Y0033436D01*
X0094463Y0032838D02*
X0037765Y0032838D01*
X0038364Y0032239D02*
X0094463Y0032239D01*
X0094463Y0031641D02*
X0038630Y0031641D01*
X0038878Y0031042D02*
X0094463Y0031042D01*
X0094463Y0030444D02*
X0039126Y0030444D01*
X0039374Y0029845D02*
X0094463Y0029845D01*
X0095012Y0029247D02*
X0039580Y0029247D01*
X0039580Y0028648D02*
X0095611Y0028648D01*
X0096209Y0028050D02*
X0039580Y0028050D01*
X0039580Y0027451D02*
X0096808Y0027451D01*
X0097088Y0036429D02*
X0019640Y0036429D01*
X0019639Y0037027D02*
X0097232Y0037027D01*
X0096633Y0037626D02*
X0019638Y0037626D01*
X0019637Y0038224D02*
X0096035Y0038224D01*
X0095436Y0038823D02*
X0019636Y0038823D01*
X0019635Y0039421D02*
X0094838Y0039421D01*
X0094868Y0044209D02*
X0070060Y0044209D01*
X0069461Y0044808D02*
X0095467Y0044808D01*
X0096065Y0045406D02*
X0068863Y0045406D01*
X0068264Y0046005D02*
X0096664Y0046005D01*
X0097262Y0046603D02*
X0067666Y0046603D01*
X0067067Y0047202D02*
X0096756Y0047202D01*
X0096158Y0047800D02*
X0066469Y0047800D01*
X0065870Y0048399D02*
X0095559Y0048399D01*
X0094961Y0048997D02*
X0065272Y0048997D01*
X0064673Y0049596D02*
X0094362Y0049596D01*
X0094250Y0050195D02*
X0064075Y0050195D01*
X0063476Y0050793D02*
X0094250Y0050793D01*
X0094250Y0051392D02*
X0062878Y0051392D01*
X0062279Y0051990D02*
X0099000Y0051990D01*
X0099000Y0051392D02*
X0099600Y0051392D01*
X0099600Y0051990D02*
X0166786Y0051990D01*
X0166787Y0051392D02*
X0104350Y0051392D01*
X0104350Y0052100D02*
X0104350Y0053892D01*
X0101392Y0056850D01*
X0099600Y0056850D01*
X0099600Y0052100D01*
X0104350Y0052100D01*
X0104350Y0052589D02*
X0166785Y0052589D01*
X0166784Y0053187D02*
X0144313Y0053187D01*
X0144133Y0053113D02*
X0145489Y0053674D01*
X0146526Y0054711D01*
X0147087Y0056067D01*
X0147087Y0057533D01*
X0146526Y0058889D01*
X0145489Y0059926D01*
X0144133Y0060487D01*
X0137467Y0060487D01*
X0136111Y0059926D01*
X0135074Y0058889D01*
X0134513Y0057533D01*
X0134513Y0056067D01*
X0135074Y0054711D01*
X0136111Y0053674D01*
X0137467Y0053113D01*
X0144133Y0053113D01*
X0145600Y0053786D02*
X0166783Y0053786D01*
X0166782Y0054384D02*
X0146199Y0054384D01*
X0146638Y0054983D02*
X0166781Y0054983D01*
X0166780Y0055581D02*
X0146886Y0055581D01*
X0147087Y0056180D02*
X0166779Y0056180D01*
X0166778Y0056778D02*
X0147087Y0056778D01*
X0147087Y0057377D02*
X0166777Y0057377D01*
X0166776Y0057975D02*
X0146904Y0057975D01*
X0146657Y0058574D02*
X0166775Y0058574D01*
X0166774Y0059172D02*
X0146243Y0059172D01*
X0145644Y0059771D02*
X0166773Y0059771D01*
X0166772Y0060369D02*
X0144419Y0060369D01*
X0144133Y0063113D02*
X0145489Y0063674D01*
X0146526Y0064711D01*
X0147087Y0066067D01*
X0147087Y0067533D01*
X0146526Y0068889D01*
X0145489Y0069926D01*
X0144133Y0070487D01*
X0137467Y0070487D01*
X0136111Y0069926D01*
X0135074Y0068889D01*
X0134513Y0067533D01*
X0134513Y0066067D01*
X0135074Y0064711D01*
X0136111Y0063674D01*
X0137467Y0063113D01*
X0144133Y0063113D01*
X0144735Y0063362D02*
X0166767Y0063362D01*
X0166766Y0063960D02*
X0145775Y0063960D01*
X0146374Y0064559D02*
X0166765Y0064559D01*
X0166764Y0065157D02*
X0146711Y0065157D01*
X0146959Y0065756D02*
X0166763Y0065756D01*
X0166762Y0066354D02*
X0147087Y0066354D01*
X0147087Y0066953D02*
X0166761Y0066953D01*
X0166760Y0067551D02*
X0147080Y0067551D01*
X0146832Y0068150D02*
X0166759Y0068150D01*
X0166759Y0068748D02*
X0146584Y0068748D01*
X0146068Y0069347D02*
X0166758Y0069347D01*
X0166757Y0069945D02*
X0145442Y0069945D01*
X0144133Y0073113D02*
X0145489Y0073674D01*
X0146526Y0074711D01*
X0147087Y0076067D01*
X0147087Y0077533D01*
X0146526Y0078889D01*
X0145489Y0079926D01*
X0144133Y0080487D01*
X0137467Y0080487D01*
X0136111Y0079926D01*
X0135074Y0078889D01*
X0134513Y0077533D01*
X0134513Y0076067D01*
X0135074Y0074711D01*
X0136111Y0073674D01*
X0137467Y0073113D01*
X0144133Y0073113D01*
X0145157Y0073536D02*
X0166751Y0073536D01*
X0166752Y0072938D02*
X0071927Y0072938D01*
X0071328Y0073536D02*
X0136443Y0073536D01*
X0135650Y0074135D02*
X0070730Y0074135D01*
X0070131Y0074733D02*
X0135065Y0074733D01*
X0134817Y0075332D02*
X0069533Y0075332D01*
X0068934Y0075930D02*
X0134569Y0075930D01*
X0134513Y0076529D02*
X0068336Y0076529D01*
X0067737Y0077128D02*
X0134513Y0077128D01*
X0134592Y0077726D02*
X0067139Y0077726D01*
X0066540Y0078325D02*
X0134840Y0078325D01*
X0135108Y0078923D02*
X0065942Y0078923D01*
X0065343Y0079522D02*
X0135707Y0079522D01*
X0136580Y0080120D02*
X0064745Y0080120D01*
X0064146Y0080719D02*
X0166739Y0080719D01*
X0166738Y0081317D02*
X0063548Y0081317D01*
X0062949Y0081916D02*
X0066220Y0081916D01*
X0065332Y0082514D02*
X0062351Y0082514D01*
X0061752Y0083113D02*
X0064733Y0083113D01*
X0064463Y0083711D02*
X0061462Y0083711D01*
X0061462Y0084310D02*
X0064215Y0084310D01*
X0064138Y0084908D02*
X0061462Y0084908D01*
X0061462Y0085507D02*
X0064138Y0085507D01*
X0064138Y0086105D02*
X0061462Y0086105D01*
X0061462Y0086704D02*
X0064138Y0086704D01*
X0064138Y0087302D02*
X0061462Y0087302D01*
X0061462Y0087901D02*
X0064138Y0087901D01*
X0064138Y0088499D02*
X0061462Y0088499D01*
X0061462Y0089098D02*
X0064138Y0089098D01*
X0064138Y0089696D02*
X0061462Y0089696D01*
X0061462Y0090295D02*
X0064138Y0090295D01*
X0064138Y0090893D02*
X0061462Y0090893D01*
X0061462Y0091492D02*
X0064299Y0091492D01*
X0064547Y0092090D02*
X0061462Y0092090D01*
X0061462Y0092689D02*
X0064935Y0092689D01*
X0065533Y0093287D02*
X0062052Y0093287D01*
X0058567Y0101666D02*
X0056198Y0101666D01*
X0056797Y0101068D02*
X0057364Y0101068D01*
X0055600Y0102265D02*
X0166704Y0102265D01*
X0166703Y0102863D02*
X0055001Y0102863D01*
X0054403Y0103462D02*
X0166702Y0103462D01*
X0166701Y0104061D02*
X0066437Y0104061D01*
X0066505Y0104074D02*
X0067210Y0104366D01*
X0067845Y0104790D01*
X0068385Y0105330D01*
X0068809Y0105965D01*
X0069101Y0106670D01*
X0069250Y0107418D01*
X0069250Y0107500D01*
X0063100Y0107500D01*
X0063100Y0108100D01*
X0062500Y0108100D01*
X0062500Y0111675D01*
X0059844Y0111675D01*
X0059095Y0111526D01*
X0058390Y0111234D01*
X0057755Y0110810D01*
X0057215Y0110270D01*
X0056791Y0109635D01*
X0056499Y0108930D01*
X0056350Y0108182D01*
X0056350Y0108100D01*
X0062500Y0108100D01*
X0062500Y0107500D01*
X0063100Y0107500D01*
X0063100Y0103925D01*
X0065756Y0103925D01*
X0066505Y0104074D01*
X0067648Y0104659D02*
X0118238Y0104659D01*
X0118151Y0104695D02*
X0119497Y0104138D01*
X0126103Y0104138D01*
X0127449Y0104695D01*
X0128479Y0105726D01*
X0129037Y0107072D01*
X0129037Y0108528D01*
X0128479Y0109874D01*
X0127449Y0110905D01*
X0126103Y0111462D01*
X0119497Y0111462D01*
X0118151Y0110905D01*
X0117121Y0109874D01*
X0116563Y0108528D01*
X0116563Y0107072D01*
X0117121Y0105726D01*
X0118151Y0104695D01*
X0117588Y0105258D02*
X0068312Y0105258D01*
X0068736Y0105856D02*
X0117066Y0105856D01*
X0116819Y0106455D02*
X0069012Y0106455D01*
X0069177Y0107053D02*
X0116571Y0107053D01*
X0116563Y0107652D02*
X0063100Y0107652D01*
X0063100Y0108100D02*
X0069250Y0108100D01*
X0069250Y0108182D01*
X0069101Y0108930D01*
X0068809Y0109635D01*
X0068385Y0110270D01*
X0067845Y0110810D01*
X0067210Y0111234D01*
X0066505Y0111526D01*
X0065756Y0111675D01*
X0063100Y0111675D01*
X0063100Y0108100D01*
X0063100Y0108250D02*
X0062500Y0108250D01*
X0062500Y0107652D02*
X0050213Y0107652D01*
X0049962Y0108250D02*
X0056364Y0108250D01*
X0056483Y0108849D02*
X0049962Y0108849D01*
X0049962Y0109447D02*
X0056713Y0109447D01*
X0057066Y0110046D02*
X0049962Y0110046D01*
X0049962Y0110644D02*
X0057590Y0110644D01*
X0058411Y0111243D02*
X0049962Y0111243D01*
X0049962Y0111841D02*
X0166688Y0111841D01*
X0166689Y0111243D02*
X0126633Y0111243D01*
X0127710Y0110644D02*
X0166690Y0110644D01*
X0166691Y0110046D02*
X0128308Y0110046D01*
X0128656Y0109447D02*
X0166692Y0109447D01*
X0166693Y0108849D02*
X0128904Y0108849D01*
X0129037Y0108250D02*
X0166694Y0108250D01*
X0166695Y0107652D02*
X0129037Y0107652D01*
X0129029Y0107053D02*
X0166696Y0107053D01*
X0166697Y0106455D02*
X0128781Y0106455D01*
X0128534Y0105856D02*
X0166698Y0105856D01*
X0166699Y0105258D02*
X0128011Y0105258D01*
X0127362Y0104659D02*
X0166700Y0104659D01*
X0166705Y0101666D02*
X0067033Y0101666D01*
X0068236Y0101068D02*
X0118545Y0101068D01*
X0118151Y0100905D02*
X0117121Y0099874D01*
X0116563Y0098528D01*
X0116563Y0097072D01*
X0117121Y0095726D01*
X0118151Y0094695D01*
X0119497Y0094138D01*
X0126103Y0094138D01*
X0127449Y0094695D01*
X0128479Y0095726D01*
X0129037Y0097072D01*
X0129037Y0098528D01*
X0128479Y0099874D01*
X0127449Y0100905D01*
X0126103Y0101462D01*
X0119497Y0101462D01*
X0118151Y0100905D01*
X0117716Y0100469D02*
X0068835Y0100469D01*
X0069301Y0099871D02*
X0117119Y0099871D01*
X0116871Y0099272D02*
X0069549Y0099272D01*
X0069797Y0098674D02*
X0116623Y0098674D01*
X0116563Y0098075D02*
X0069824Y0098075D01*
X0069824Y0097477D02*
X0116563Y0097477D01*
X0116643Y0096878D02*
X0069777Y0096878D01*
X0069529Y0096280D02*
X0116891Y0096280D01*
X0117165Y0095681D02*
X0069281Y0095681D01*
X0068787Y0095083D02*
X0117763Y0095083D01*
X0118660Y0094484D02*
X0068189Y0094484D01*
X0068893Y0093886D02*
X0076707Y0093886D01*
X0077072Y0094037D02*
X0075726Y0093479D01*
X0074695Y0092449D01*
X0074138Y0091103D01*
X0074138Y0084497D01*
X0074695Y0083151D01*
X0075726Y0082121D01*
X0077072Y0081563D01*
X0078528Y0081563D01*
X0079874Y0082121D01*
X0080905Y0083151D01*
X0081462Y0084497D01*
X0081462Y0091103D01*
X0080905Y0092449D01*
X0079874Y0093479D01*
X0078528Y0094037D01*
X0077072Y0094037D01*
X0075533Y0093287D02*
X0070067Y0093287D01*
X0070665Y0092689D02*
X0074935Y0092689D01*
X0074547Y0092090D02*
X0071053Y0092090D01*
X0071301Y0091492D02*
X0074299Y0091492D01*
X0074138Y0090893D02*
X0071462Y0090893D01*
X0071462Y0090295D02*
X0074138Y0090295D01*
X0074138Y0089696D02*
X0071462Y0089696D01*
X0071462Y0089098D02*
X0074138Y0089098D01*
X0074138Y0088499D02*
X0071462Y0088499D01*
X0071462Y0087901D02*
X0074138Y0087901D01*
X0074138Y0087302D02*
X0071462Y0087302D01*
X0071462Y0086704D02*
X0074138Y0086704D01*
X0074138Y0086105D02*
X0071462Y0086105D01*
X0071462Y0085507D02*
X0074138Y0085507D01*
X0074138Y0084908D02*
X0071462Y0084908D01*
X0071385Y0084310D02*
X0074215Y0084310D01*
X0074463Y0083711D02*
X0071137Y0083711D01*
X0070867Y0083113D02*
X0074733Y0083113D01*
X0075332Y0082514D02*
X0070268Y0082514D01*
X0069380Y0081916D02*
X0076220Y0081916D01*
X0079380Y0081916D02*
X0086220Y0081916D01*
X0085726Y0082121D02*
X0087072Y0081563D01*
X0088528Y0081563D01*
X0089874Y0082121D01*
X0090905Y0083151D01*
X0091462Y0084497D01*
X0091462Y0091103D01*
X0090905Y0092449D01*
X0089874Y0093479D01*
X0088528Y0094037D01*
X0087072Y0094037D01*
X0085726Y0093479D01*
X0084695Y0092449D01*
X0084138Y0091103D01*
X0084138Y0084497D01*
X0084695Y0083151D01*
X0085726Y0082121D01*
X0085332Y0082514D02*
X0080268Y0082514D01*
X0080867Y0083113D02*
X0084733Y0083113D01*
X0084463Y0083711D02*
X0081137Y0083711D01*
X0081385Y0084310D02*
X0084215Y0084310D01*
X0084138Y0084908D02*
X0081462Y0084908D01*
X0081462Y0085507D02*
X0084138Y0085507D01*
X0084138Y0086105D02*
X0081462Y0086105D01*
X0081462Y0086704D02*
X0084138Y0086704D01*
X0084138Y0087302D02*
X0081462Y0087302D01*
X0081462Y0087901D02*
X0084138Y0087901D01*
X0084138Y0088499D02*
X0081462Y0088499D01*
X0081462Y0089098D02*
X0084138Y0089098D01*
X0084138Y0089696D02*
X0081462Y0089696D01*
X0081462Y0090295D02*
X0084138Y0090295D01*
X0084138Y0090893D02*
X0081462Y0090893D01*
X0081301Y0091492D02*
X0084299Y0091492D01*
X0084547Y0092090D02*
X0081053Y0092090D01*
X0080665Y0092689D02*
X0084935Y0092689D01*
X0085533Y0093287D02*
X0080067Y0093287D01*
X0078893Y0093886D02*
X0086707Y0093886D01*
X0088893Y0093886D02*
X0096707Y0093886D01*
X0097072Y0094037D02*
X0095726Y0093479D01*
X0094695Y0092449D01*
X0094138Y0091103D01*
X0094138Y0084497D01*
X0094695Y0083151D01*
X0095726Y0082121D01*
X0097072Y0081563D01*
X0098528Y0081563D01*
X0099874Y0082121D01*
X0100905Y0083151D01*
X0101462Y0084497D01*
X0101462Y0091103D01*
X0100905Y0092449D01*
X0099874Y0093479D01*
X0098528Y0094037D01*
X0097072Y0094037D01*
X0095533Y0093287D02*
X0090067Y0093287D01*
X0090665Y0092689D02*
X0094935Y0092689D01*
X0094547Y0092090D02*
X0091053Y0092090D01*
X0091301Y0091492D02*
X0094299Y0091492D01*
X0094138Y0090893D02*
X0091462Y0090893D01*
X0091462Y0090295D02*
X0094138Y0090295D01*
X0094138Y0089696D02*
X0091462Y0089696D01*
X0091462Y0089098D02*
X0094138Y0089098D01*
X0094138Y0088499D02*
X0091462Y0088499D01*
X0091462Y0087901D02*
X0094138Y0087901D01*
X0094138Y0087302D02*
X0091462Y0087302D01*
X0091462Y0086704D02*
X0094138Y0086704D01*
X0094138Y0086105D02*
X0091462Y0086105D01*
X0091462Y0085507D02*
X0094138Y0085507D01*
X0094138Y0084908D02*
X0091462Y0084908D01*
X0091385Y0084310D02*
X0094215Y0084310D01*
X0094463Y0083711D02*
X0091137Y0083711D01*
X0090867Y0083113D02*
X0094733Y0083113D01*
X0095332Y0082514D02*
X0090268Y0082514D01*
X0089380Y0081916D02*
X0096220Y0081916D01*
X0099380Y0081916D02*
X0106220Y0081916D01*
X0105726Y0082121D02*
X0107072Y0081563D01*
X0108528Y0081563D01*
X0109874Y0082121D01*
X0110905Y0083151D01*
X0111462Y0084497D01*
X0111462Y0091103D01*
X0110905Y0092449D01*
X0109874Y0093479D01*
X0108528Y0094037D01*
X0107072Y0094037D01*
X0105726Y0093479D01*
X0104695Y0092449D01*
X0104138Y0091103D01*
X0104138Y0084497D01*
X0104695Y0083151D01*
X0105726Y0082121D01*
X0105332Y0082514D02*
X0100268Y0082514D01*
X0100867Y0083113D02*
X0104733Y0083113D01*
X0104463Y0083711D02*
X0101137Y0083711D01*
X0101385Y0084310D02*
X0104215Y0084310D01*
X0104138Y0084908D02*
X0101462Y0084908D01*
X0101462Y0085507D02*
X0104138Y0085507D01*
X0104138Y0086105D02*
X0101462Y0086105D01*
X0101462Y0086704D02*
X0104138Y0086704D01*
X0104138Y0087302D02*
X0101462Y0087302D01*
X0101462Y0087901D02*
X0104138Y0087901D01*
X0104138Y0088499D02*
X0101462Y0088499D01*
X0101462Y0089098D02*
X0104138Y0089098D01*
X0104138Y0089696D02*
X0101462Y0089696D01*
X0101462Y0090295D02*
X0104138Y0090295D01*
X0104138Y0090893D02*
X0101462Y0090893D01*
X0101301Y0091492D02*
X0104299Y0091492D01*
X0104547Y0092090D02*
X0101053Y0092090D01*
X0100665Y0092689D02*
X0104935Y0092689D01*
X0105533Y0093287D02*
X0100067Y0093287D01*
X0098893Y0093886D02*
X0106707Y0093886D01*
X0108893Y0093886D02*
X0116707Y0093886D01*
X0117072Y0094037D02*
X0115726Y0093479D01*
X0114695Y0092449D01*
X0114138Y0091103D01*
X0114138Y0084497D01*
X0114695Y0083151D01*
X0115726Y0082121D01*
X0117072Y0081563D01*
X0118528Y0081563D01*
X0119874Y0082121D01*
X0120905Y0083151D01*
X0121462Y0084497D01*
X0121462Y0091103D01*
X0120905Y0092449D01*
X0119874Y0093479D01*
X0118528Y0094037D01*
X0117072Y0094037D01*
X0115533Y0093287D02*
X0110067Y0093287D01*
X0110665Y0092689D02*
X0114935Y0092689D01*
X0114547Y0092090D02*
X0111053Y0092090D01*
X0111301Y0091492D02*
X0114299Y0091492D01*
X0114138Y0090893D02*
X0111462Y0090893D01*
X0111462Y0090295D02*
X0114138Y0090295D01*
X0114138Y0089696D02*
X0111462Y0089696D01*
X0111462Y0089098D02*
X0114138Y0089098D01*
X0114138Y0088499D02*
X0111462Y0088499D01*
X0111462Y0087901D02*
X0114138Y0087901D01*
X0114138Y0087302D02*
X0111462Y0087302D01*
X0111462Y0086704D02*
X0114138Y0086704D01*
X0114138Y0086105D02*
X0111462Y0086105D01*
X0111462Y0085507D02*
X0114138Y0085507D01*
X0114138Y0084908D02*
X0111462Y0084908D01*
X0111385Y0084310D02*
X0114215Y0084310D01*
X0114463Y0083711D02*
X0111137Y0083711D01*
X0110867Y0083113D02*
X0114733Y0083113D01*
X0115332Y0082514D02*
X0110268Y0082514D01*
X0109380Y0081916D02*
X0116220Y0081916D01*
X0119380Y0081916D02*
X0166737Y0081916D01*
X0166736Y0082514D02*
X0120268Y0082514D01*
X0120867Y0083113D02*
X0137466Y0083113D01*
X0137467Y0083113D02*
X0144133Y0083113D01*
X0145489Y0083674D01*
X0146526Y0084711D01*
X0147087Y0086067D01*
X0147087Y0087533D01*
X0146526Y0088889D01*
X0145489Y0089926D01*
X0144133Y0090487D01*
X0137467Y0090487D01*
X0136111Y0089926D01*
X0135074Y0088889D01*
X0134513Y0087533D01*
X0134513Y0086067D01*
X0135074Y0084711D01*
X0136111Y0083674D01*
X0137467Y0083113D01*
X0136074Y0083711D02*
X0121137Y0083711D01*
X0121385Y0084310D02*
X0135476Y0084310D01*
X0134992Y0084908D02*
X0121462Y0084908D01*
X0121462Y0085507D02*
X0134744Y0085507D01*
X0134513Y0086105D02*
X0121462Y0086105D01*
X0121462Y0086704D02*
X0134513Y0086704D01*
X0134513Y0087302D02*
X0121462Y0087302D01*
X0121462Y0087901D02*
X0134665Y0087901D01*
X0134913Y0088499D02*
X0121462Y0088499D01*
X0121462Y0089098D02*
X0135283Y0089098D01*
X0135881Y0089696D02*
X0121462Y0089696D01*
X0121462Y0090295D02*
X0137001Y0090295D01*
X0144599Y0090295D02*
X0166723Y0090295D01*
X0166722Y0090893D02*
X0121462Y0090893D01*
X0121301Y0091492D02*
X0166721Y0091492D01*
X0166720Y0092090D02*
X0121053Y0092090D01*
X0120665Y0092689D02*
X0166719Y0092689D01*
X0166719Y0093287D02*
X0120067Y0093287D01*
X0118893Y0093886D02*
X0166718Y0093886D01*
X0166717Y0094484D02*
X0126940Y0094484D01*
X0127837Y0095083D02*
X0166716Y0095083D01*
X0166715Y0095681D02*
X0128435Y0095681D01*
X0128709Y0096280D02*
X0166714Y0096280D01*
X0166713Y0096878D02*
X0128957Y0096878D01*
X0129037Y0097477D02*
X0166712Y0097477D01*
X0166711Y0098075D02*
X0129037Y0098075D01*
X0128977Y0098674D02*
X0166710Y0098674D01*
X0166709Y0099272D02*
X0128729Y0099272D01*
X0128481Y0099871D02*
X0166708Y0099871D01*
X0166707Y0100469D02*
X0127884Y0100469D01*
X0127055Y0101068D02*
X0166706Y0101068D01*
X0166687Y0112440D02*
X0049962Y0112440D01*
X0049962Y0113038D02*
X0166686Y0113038D01*
X0166685Y0113637D02*
X0049962Y0113637D01*
X0049947Y0114235D02*
X0059262Y0114235D01*
X0059497Y0114138D02*
X0058151Y0114695D01*
X0057121Y0115726D01*
X0056563Y0117072D01*
X0056563Y0118528D01*
X0057121Y0119874D01*
X0058151Y0120905D01*
X0059497Y0121462D01*
X0066103Y0121462D01*
X0067449Y0120905D01*
X0068479Y0119874D01*
X0069037Y0118528D01*
X0069037Y0117072D01*
X0068479Y0115726D01*
X0067449Y0114695D01*
X0066103Y0114138D01*
X0059497Y0114138D01*
X0058012Y0114834D02*
X0049700Y0114834D01*
X0049303Y0115432D02*
X0057414Y0115432D01*
X0056994Y0116031D02*
X0048630Y0116031D01*
X0047859Y0116629D02*
X0056746Y0116629D01*
X0056563Y0117228D02*
X0047260Y0117228D01*
X0046662Y0117826D02*
X0056563Y0117826D01*
X0056563Y0118425D02*
X0046287Y0118425D01*
X0046287Y0119023D02*
X0056768Y0119023D01*
X0057016Y0119622D02*
X0046287Y0119622D01*
X0046287Y0120220D02*
X0057466Y0120220D01*
X0058065Y0120819D02*
X0046287Y0120819D01*
X0046287Y0121417D02*
X0059388Y0121417D01*
X0059497Y0124138D02*
X0058151Y0124695D01*
X0057121Y0125726D01*
X0056563Y0127072D01*
X0056563Y0128528D01*
X0057121Y0129874D01*
X0058151Y0130905D01*
X0059497Y0131462D01*
X0066103Y0131462D01*
X0067449Y0130905D01*
X0068479Y0129874D01*
X0069037Y0128528D01*
X0069037Y0127072D01*
X0068479Y0125726D01*
X0067449Y0124695D01*
X0066103Y0124138D01*
X0059497Y0124138D01*
X0058840Y0124410D02*
X0046287Y0124410D01*
X0046287Y0125008D02*
X0057838Y0125008D01*
X0057239Y0125607D02*
X0046287Y0125607D01*
X0046287Y0126205D02*
X0056922Y0126205D01*
X0056674Y0126804D02*
X0046287Y0126804D01*
X0046287Y0127402D02*
X0056563Y0127402D01*
X0056563Y0128001D02*
X0046287Y0128001D01*
X0046287Y0128599D02*
X0056592Y0128599D01*
X0056840Y0129198D02*
X0046287Y0129198D01*
X0046287Y0129797D02*
X0057088Y0129797D01*
X0057641Y0130395D02*
X0046287Y0130395D01*
X0046287Y0130994D02*
X0058365Y0130994D01*
X0059497Y0134138D02*
X0058151Y0134695D01*
X0057121Y0135726D01*
X0056563Y0137072D01*
X0056563Y0138528D01*
X0057121Y0139874D01*
X0058151Y0140905D01*
X0059497Y0141462D01*
X0066103Y0141462D01*
X0067449Y0140905D01*
X0068479Y0139874D01*
X0069037Y0138528D01*
X0069037Y0137072D01*
X0068479Y0135726D01*
X0067449Y0134695D01*
X0066103Y0134138D01*
X0059497Y0134138D01*
X0058418Y0134585D02*
X0046287Y0134585D01*
X0046287Y0135183D02*
X0057663Y0135183D01*
X0057097Y0135782D02*
X0046287Y0135782D01*
X0046287Y0136380D02*
X0056849Y0136380D01*
X0056601Y0136979D02*
X0046287Y0136979D01*
X0046287Y0137577D02*
X0056563Y0137577D01*
X0056563Y0138176D02*
X0046287Y0138176D01*
X0046287Y0138774D02*
X0056665Y0138774D01*
X0056913Y0139373D02*
X0046287Y0139373D01*
X0046287Y0139971D02*
X0057217Y0139971D01*
X0057816Y0140570D02*
X0046287Y0140570D01*
X0046287Y0141168D02*
X0058787Y0141168D01*
X0059497Y0144138D02*
X0058151Y0144695D01*
X0057121Y0145726D01*
X0056563Y0147072D01*
X0056563Y0148528D01*
X0057121Y0149874D01*
X0058151Y0150905D01*
X0059497Y0151462D01*
X0066103Y0151462D01*
X0067449Y0150905D01*
X0068479Y0149874D01*
X0069037Y0148528D01*
X0069037Y0147072D01*
X0068479Y0145726D01*
X0067449Y0144695D01*
X0066103Y0144138D01*
X0059497Y0144138D01*
X0059441Y0144161D02*
X0046287Y0144161D01*
X0046287Y0144759D02*
X0058087Y0144759D01*
X0057488Y0145358D02*
X0046287Y0145358D01*
X0046287Y0145956D02*
X0057025Y0145956D01*
X0056777Y0146555D02*
X0046287Y0146555D01*
X0046287Y0147153D02*
X0056563Y0147153D01*
X0056563Y0147752D02*
X0046287Y0147752D01*
X0046287Y0148350D02*
X0056563Y0148350D01*
X0056737Y0148949D02*
X0046287Y0148949D01*
X0046287Y0149547D02*
X0056985Y0149547D01*
X0057392Y0150146D02*
X0046287Y0150146D01*
X0046287Y0150744D02*
X0057990Y0150744D01*
X0059209Y0151343D02*
X0046287Y0151343D01*
X0046287Y0151941D02*
X0133989Y0151941D01*
X0133391Y0151343D02*
X0126391Y0151343D01*
X0127610Y0150744D02*
X0132792Y0150744D01*
X0132194Y0150146D02*
X0128208Y0150146D01*
X0128615Y0149547D02*
X0131595Y0149547D01*
X0130997Y0148949D02*
X0128863Y0148949D01*
X0129037Y0148350D02*
X0130398Y0148350D01*
X0129800Y0147752D02*
X0129037Y0147752D01*
X0129037Y0147153D02*
X0129201Y0147153D01*
X0131514Y0143562D02*
X0166637Y0143562D01*
X0166638Y0142964D02*
X0130916Y0142964D01*
X0130317Y0142365D02*
X0166638Y0142365D01*
X0166639Y0141767D02*
X0129719Y0141767D01*
X0129120Y0141168D02*
X0166640Y0141168D01*
X0166641Y0140570D02*
X0128735Y0140570D01*
X0129259Y0139971D02*
X0166642Y0139971D01*
X0166643Y0139373D02*
X0129507Y0139373D01*
X0129755Y0138774D02*
X0166644Y0138774D01*
X0166645Y0138176D02*
X0129824Y0138176D01*
X0129824Y0137577D02*
X0166646Y0137577D01*
X0166647Y0136979D02*
X0129818Y0136979D01*
X0129570Y0136380D02*
X0166648Y0136380D01*
X0166649Y0135782D02*
X0129323Y0135782D01*
X0128888Y0135183D02*
X0166650Y0135183D01*
X0166651Y0134585D02*
X0128289Y0134585D01*
X0127159Y0133986D02*
X0166652Y0133986D01*
X0166653Y0133388D02*
X0084037Y0133388D01*
X0084037Y0133528D02*
X0083479Y0134874D01*
X0082449Y0135905D01*
X0081103Y0136462D01*
X0074497Y0136462D01*
X0073151Y0135905D01*
X0072121Y0134874D01*
X0071563Y0133528D01*
X0071563Y0132072D01*
X0072121Y0130726D01*
X0073151Y0129695D01*
X0074497Y0129138D01*
X0081103Y0129138D01*
X0082449Y0129695D01*
X0083479Y0130726D01*
X0084037Y0132072D01*
X0084037Y0133528D01*
X0083847Y0133986D02*
X0118440Y0133986D01*
X0117311Y0134585D02*
X0083600Y0134585D01*
X0083171Y0135183D02*
X0116712Y0135183D01*
X0116277Y0135782D02*
X0082572Y0135782D01*
X0081301Y0136380D02*
X0116030Y0136380D01*
X0115782Y0136979D02*
X0068999Y0136979D01*
X0069037Y0137577D02*
X0115776Y0137577D01*
X0115776Y0138176D02*
X0069037Y0138176D01*
X0068935Y0138774D02*
X0115845Y0138774D01*
X0116093Y0139373D02*
X0081670Y0139373D01*
X0081103Y0139138D02*
X0082449Y0139695D01*
X0083479Y0140726D01*
X0084037Y0142072D01*
X0084037Y0143528D01*
X0083479Y0144874D01*
X0082449Y0145905D01*
X0081103Y0146462D01*
X0074497Y0146462D01*
X0073151Y0145905D01*
X0072121Y0144874D01*
X0071563Y0143528D01*
X0071563Y0142072D01*
X0072121Y0140726D01*
X0073151Y0139695D01*
X0074497Y0139138D01*
X0081103Y0139138D01*
X0082725Y0139971D02*
X0116341Y0139971D01*
X0116865Y0140570D02*
X0083324Y0140570D01*
X0083663Y0141168D02*
X0117464Y0141168D01*
X0118809Y0141767D02*
X0083911Y0141767D01*
X0084037Y0142365D02*
X0124413Y0142365D01*
X0125012Y0142964D02*
X0084037Y0142964D01*
X0084023Y0143562D02*
X0125610Y0143562D01*
X0126159Y0144161D02*
X0126209Y0144161D01*
X0119441Y0144161D02*
X0083775Y0144161D01*
X0083527Y0144759D02*
X0118087Y0144759D01*
X0117488Y0145358D02*
X0082996Y0145358D01*
X0082325Y0145956D02*
X0117025Y0145956D01*
X0116777Y0146555D02*
X0068823Y0146555D01*
X0069037Y0147153D02*
X0116563Y0147153D01*
X0116563Y0147752D02*
X0069037Y0147752D01*
X0069037Y0148350D02*
X0116563Y0148350D01*
X0116737Y0148949D02*
X0068863Y0148949D01*
X0068615Y0149547D02*
X0116985Y0149547D01*
X0117392Y0150146D02*
X0068208Y0150146D01*
X0067610Y0150744D02*
X0117990Y0150744D01*
X0119209Y0151343D02*
X0066391Y0151343D01*
X0066103Y0154138D02*
X0067449Y0154695D01*
X0068479Y0155726D01*
X0069037Y0157072D01*
X0069037Y0158528D01*
X0068479Y0159874D01*
X0067449Y0160905D01*
X0066103Y0161462D01*
X0059497Y0161462D01*
X0058151Y0160905D01*
X0057121Y0159874D01*
X0056563Y0158528D01*
X0056563Y0157072D01*
X0057121Y0155726D01*
X0058151Y0154695D01*
X0059497Y0154138D01*
X0066103Y0154138D01*
X0066580Y0154335D02*
X0119019Y0154335D01*
X0119497Y0154138D02*
X0118151Y0154695D01*
X0117121Y0155726D01*
X0116563Y0157072D01*
X0116563Y0158528D01*
X0117121Y0159874D01*
X0118151Y0160905D01*
X0119497Y0161462D01*
X0126103Y0161462D01*
X0127449Y0160905D01*
X0128479Y0159874D01*
X0129037Y0158528D01*
X0129037Y0157072D01*
X0128479Y0155726D01*
X0127449Y0154695D01*
X0126103Y0154138D01*
X0119497Y0154138D01*
X0117912Y0154934D02*
X0067688Y0154934D01*
X0068286Y0155532D02*
X0117314Y0155532D01*
X0116953Y0156131D02*
X0068647Y0156131D01*
X0068895Y0156730D02*
X0116705Y0156730D01*
X0116563Y0157328D02*
X0069037Y0157328D01*
X0069037Y0157927D02*
X0116563Y0157927D01*
X0116563Y0158525D02*
X0069037Y0158525D01*
X0068791Y0159124D02*
X0116809Y0159124D01*
X0117057Y0159722D02*
X0068543Y0159722D01*
X0068033Y0160321D02*
X0117567Y0160321D01*
X0118186Y0160919D02*
X0067414Y0160919D01*
X0066103Y0164138D02*
X0067449Y0164695D01*
X0068479Y0165726D01*
X0069037Y0167072D01*
X0069037Y0168528D01*
X0068479Y0169874D01*
X0067449Y0170905D01*
X0066103Y0171462D01*
X0059497Y0171462D01*
X0058151Y0170905D01*
X0057121Y0169874D01*
X0056563Y0168528D01*
X0056563Y0167072D01*
X0057121Y0165726D01*
X0058151Y0164695D01*
X0059497Y0164138D01*
X0066103Y0164138D01*
X0067002Y0164510D02*
X0118598Y0164510D01*
X0118151Y0164695D02*
X0119497Y0164138D01*
X0126103Y0164138D01*
X0127449Y0164695D01*
X0128479Y0165726D01*
X0129037Y0167072D01*
X0129037Y0168528D01*
X0128479Y0169874D01*
X0127449Y0170905D01*
X0126103Y0171462D01*
X0119497Y0171462D01*
X0118151Y0170905D01*
X0117121Y0169874D01*
X0116563Y0168528D01*
X0116563Y0167072D01*
X0117121Y0165726D01*
X0118151Y0164695D01*
X0117737Y0165109D02*
X0067863Y0165109D01*
X0068461Y0165707D02*
X0117139Y0165707D01*
X0116880Y0166306D02*
X0068720Y0166306D01*
X0068968Y0166904D02*
X0116632Y0166904D01*
X0116563Y0167503D02*
X0069037Y0167503D01*
X0069037Y0168101D02*
X0116563Y0168101D01*
X0116634Y0168700D02*
X0068966Y0168700D01*
X0068718Y0169298D02*
X0074109Y0169298D01*
X0072949Y0169897D02*
X0068457Y0169897D01*
X0067859Y0170495D02*
X0072351Y0170495D01*
X0071968Y0171094D02*
X0066993Y0171094D01*
X0067402Y0174086D02*
X0071794Y0174086D01*
X0071563Y0173488D02*
X0046287Y0173488D01*
X0046287Y0174086D02*
X0058198Y0174086D01*
X0057211Y0174685D02*
X0046287Y0174685D01*
X0046287Y0175283D02*
X0056612Y0175283D01*
X0056236Y0175882D02*
X0046287Y0175882D01*
X0046287Y0176480D02*
X0055988Y0176480D01*
X0055776Y0177079D02*
X0046287Y0177079D01*
X0046287Y0177677D02*
X0055776Y0177677D01*
X0055776Y0178276D02*
X0046287Y0178276D01*
X0046287Y0178874D02*
X0055886Y0178874D01*
X0056134Y0179473D02*
X0046287Y0179473D01*
X0046287Y0180071D02*
X0056382Y0180071D01*
X0056966Y0180670D02*
X0046287Y0180670D01*
X0046287Y0181268D02*
X0057607Y0181268D01*
X0059199Y0184261D02*
X0046287Y0184261D01*
X0046287Y0183663D02*
X0071619Y0183663D01*
X0071563Y0183064D02*
X0046287Y0183064D01*
X0046287Y0182466D02*
X0071563Y0182466D01*
X0071648Y0181867D02*
X0046287Y0181867D01*
X0046287Y0184860D02*
X0057986Y0184860D01*
X0058151Y0184695D02*
X0059497Y0184138D01*
X0066103Y0184138D01*
X0067449Y0184695D01*
X0068479Y0185726D01*
X0069037Y0187072D01*
X0069037Y0188528D01*
X0068479Y0189874D01*
X0067449Y0190905D01*
X0066103Y0191462D01*
X0059497Y0191462D01*
X0058151Y0190905D01*
X0057121Y0189874D01*
X0056563Y0188528D01*
X0056563Y0187072D01*
X0057121Y0185726D01*
X0058151Y0184695D01*
X0057388Y0185458D02*
X0046287Y0185458D01*
X0046287Y0186057D02*
X0056983Y0186057D01*
X0056735Y0186655D02*
X0046287Y0186655D01*
X0046287Y0187254D02*
X0056563Y0187254D01*
X0056563Y0187852D02*
X0046287Y0187852D01*
X0046287Y0188451D02*
X0056563Y0188451D01*
X0056779Y0189049D02*
X0046287Y0189049D01*
X0046287Y0189648D02*
X0057027Y0189648D01*
X0057492Y0190246D02*
X0046287Y0190246D01*
X0046287Y0190845D02*
X0058091Y0190845D01*
X0059451Y0191443D02*
X0046287Y0191443D01*
X0046287Y0192042D02*
X0134590Y0192042D01*
X0135188Y0192640D02*
X0046287Y0192640D01*
X0046287Y0193239D02*
X0135787Y0193239D01*
X0136385Y0193837D02*
X0066800Y0193837D01*
X0068140Y0194436D02*
X0118777Y0194436D01*
X0118151Y0194695D02*
X0119497Y0194138D01*
X0126103Y0194138D01*
X0127449Y0194695D01*
X0128479Y0195726D01*
X0129037Y0197072D01*
X0129037Y0198528D01*
X0128479Y0199874D01*
X0127449Y0200905D01*
X0126103Y0201462D01*
X0119497Y0201462D01*
X0118151Y0200905D01*
X0117121Y0199874D01*
X0116563Y0198528D01*
X0116563Y0197072D01*
X0117121Y0195726D01*
X0118151Y0194695D01*
X0117812Y0195034D02*
X0068739Y0195034D01*
X0069261Y0195633D02*
X0117213Y0195633D01*
X0116911Y0196231D02*
X0069509Y0196231D01*
X0069757Y0196830D02*
X0116663Y0196830D01*
X0116563Y0197428D02*
X0102193Y0197428D01*
X0102791Y0198027D02*
X0116563Y0198027D01*
X0116603Y0198625D02*
X0103390Y0198625D01*
X0103988Y0199224D02*
X0116851Y0199224D01*
X0117099Y0199822D02*
X0104587Y0199822D01*
X0105185Y0200421D02*
X0117667Y0200421D01*
X0118428Y0201019D02*
X0105784Y0201019D01*
X0106382Y0201618D02*
X0144166Y0201618D01*
X0144713Y0202216D02*
X0106981Y0202216D01*
X0107579Y0202815D02*
X0144713Y0202815D01*
X0144713Y0203413D02*
X0142932Y0203413D01*
X0143531Y0204012D02*
X0144713Y0204012D01*
X0144713Y0204610D02*
X0144129Y0204610D01*
X0143567Y0201019D02*
X0127172Y0201019D01*
X0127933Y0200421D02*
X0142969Y0200421D01*
X0142370Y0199822D02*
X0128501Y0199822D01*
X0128749Y0199224D02*
X0141772Y0199224D01*
X0141173Y0198625D02*
X0128997Y0198625D01*
X0129037Y0198027D02*
X0140575Y0198027D01*
X0139976Y0197428D02*
X0129037Y0197428D01*
X0128937Y0196830D02*
X0139378Y0196830D01*
X0138779Y0196231D02*
X0128689Y0196231D01*
X0128387Y0195633D02*
X0138181Y0195633D01*
X0137582Y0195034D02*
X0127788Y0195034D01*
X0126823Y0194436D02*
X0136984Y0194436D01*
X0133991Y0191443D02*
X0126149Y0191443D01*
X0127509Y0190845D02*
X0133393Y0190845D01*
X0132794Y0190246D02*
X0128108Y0190246D01*
X0128573Y0189648D02*
X0132196Y0189648D01*
X0131597Y0189049D02*
X0128821Y0189049D01*
X0129037Y0188451D02*
X0130999Y0188451D01*
X0130400Y0187852D02*
X0129037Y0187852D01*
X0129037Y0187254D02*
X0129802Y0187254D01*
X0129203Y0186655D02*
X0128864Y0186655D01*
X0131516Y0183064D02*
X0149713Y0183064D01*
X0149713Y0182466D02*
X0130918Y0182466D01*
X0130319Y0181867D02*
X0149713Y0181867D01*
X0149713Y0181268D02*
X0129721Y0181268D01*
X0128282Y0180071D02*
X0149713Y0180071D01*
X0149713Y0179473D02*
X0128646Y0179473D01*
X0128894Y0178874D02*
X0149713Y0178874D01*
X0149713Y0178276D02*
X0129037Y0178276D01*
X0129037Y0177677D02*
X0149713Y0177677D01*
X0149713Y0177079D02*
X0129037Y0177079D01*
X0128792Y0176480D02*
X0149713Y0176480D01*
X0149713Y0175882D02*
X0128544Y0175882D01*
X0128037Y0175283D02*
X0149713Y0175283D01*
X0149713Y0174685D02*
X0127424Y0174685D01*
X0126993Y0171094D02*
X0149713Y0171094D01*
X0149713Y0171692D02*
X0083880Y0171692D01*
X0084037Y0172291D02*
X0149713Y0172291D01*
X0149713Y0172889D02*
X0084037Y0172889D01*
X0084037Y0173488D02*
X0149713Y0173488D01*
X0149713Y0174086D02*
X0083806Y0174086D01*
X0083558Y0174685D02*
X0118176Y0174685D01*
X0117563Y0175283D02*
X0083071Y0175283D01*
X0083632Y0171094D02*
X0118607Y0171094D01*
X0117741Y0170495D02*
X0083249Y0170495D01*
X0082651Y0169897D02*
X0117143Y0169897D01*
X0116882Y0169298D02*
X0081491Y0169298D01*
X0087334Y0175882D02*
X0117056Y0175882D01*
X0116808Y0176480D02*
X0087932Y0176480D01*
X0088531Y0177079D02*
X0116563Y0177079D01*
X0116563Y0177677D02*
X0089129Y0177677D01*
X0089728Y0178276D02*
X0116563Y0178276D01*
X0116706Y0178874D02*
X0090326Y0178874D01*
X0090925Y0179473D02*
X0116954Y0179473D01*
X0117318Y0180071D02*
X0091523Y0180071D01*
X0092122Y0180670D02*
X0117916Y0180670D01*
X0117388Y0185458D02*
X0082896Y0185458D01*
X0083486Y0184860D02*
X0090408Y0184860D01*
X0089809Y0184261D02*
X0083734Y0184261D01*
X0083981Y0183663D02*
X0089210Y0183663D01*
X0088612Y0183064D02*
X0084037Y0183064D01*
X0084037Y0182466D02*
X0088013Y0182466D01*
X0087415Y0181867D02*
X0083952Y0181867D01*
X0083704Y0181268D02*
X0086816Y0181268D01*
X0086218Y0180670D02*
X0083424Y0180670D01*
X0082825Y0180071D02*
X0085619Y0180071D01*
X0082083Y0186057D02*
X0116983Y0186057D01*
X0116735Y0186655D02*
X0068864Y0186655D01*
X0069037Y0187254D02*
X0116563Y0187254D01*
X0116563Y0187852D02*
X0069037Y0187852D01*
X0069037Y0188451D02*
X0116563Y0188451D01*
X0116779Y0189049D02*
X0068821Y0189049D01*
X0068573Y0189648D02*
X0117027Y0189648D01*
X0117492Y0190246D02*
X0068108Y0190246D01*
X0067509Y0190845D02*
X0118091Y0190845D01*
X0119451Y0191443D02*
X0066149Y0191443D01*
X0068617Y0186057D02*
X0073517Y0186057D01*
X0072704Y0185458D02*
X0068212Y0185458D01*
X0067613Y0184860D02*
X0072114Y0184860D01*
X0071866Y0184261D02*
X0066401Y0184261D01*
X0067993Y0181268D02*
X0071896Y0181268D01*
X0072176Y0180670D02*
X0068634Y0180670D01*
X0069218Y0180071D02*
X0072775Y0180071D01*
X0072529Y0175283D02*
X0068988Y0175283D01*
X0068389Y0174685D02*
X0072042Y0174685D01*
X0071563Y0172889D02*
X0046287Y0172889D01*
X0046287Y0172291D02*
X0071563Y0172291D01*
X0071720Y0171692D02*
X0046287Y0171692D01*
X0046287Y0171094D02*
X0058607Y0171094D01*
X0057741Y0170495D02*
X0046287Y0170495D01*
X0046287Y0169897D02*
X0057143Y0169897D01*
X0056882Y0169298D02*
X0046287Y0169298D01*
X0046287Y0168700D02*
X0056634Y0168700D01*
X0056563Y0168101D02*
X0046287Y0168101D01*
X0046287Y0167503D02*
X0056563Y0167503D01*
X0056632Y0166904D02*
X0046287Y0166904D01*
X0046287Y0166306D02*
X0056880Y0166306D01*
X0057139Y0165707D02*
X0046287Y0165707D01*
X0046287Y0165109D02*
X0057737Y0165109D01*
X0058598Y0164510D02*
X0046287Y0164510D01*
X0046287Y0163912D02*
X0145960Y0163912D01*
X0146558Y0164510D02*
X0127002Y0164510D01*
X0127863Y0165109D02*
X0147157Y0165109D01*
X0147755Y0165707D02*
X0128461Y0165707D01*
X0128720Y0166306D02*
X0148354Y0166306D01*
X0148952Y0166904D02*
X0128968Y0166904D01*
X0129037Y0167503D02*
X0149551Y0167503D01*
X0149713Y0168101D02*
X0129037Y0168101D01*
X0128966Y0168700D02*
X0149713Y0168700D01*
X0149713Y0169298D02*
X0128718Y0169298D01*
X0128457Y0169897D02*
X0149713Y0169897D01*
X0149713Y0170495D02*
X0127859Y0170495D01*
X0127414Y0160919D02*
X0142967Y0160919D01*
X0142369Y0160321D02*
X0128033Y0160321D01*
X0128543Y0159722D02*
X0141770Y0159722D01*
X0141172Y0159124D02*
X0128791Y0159124D01*
X0129037Y0158525D02*
X0140573Y0158525D01*
X0139975Y0157927D02*
X0129037Y0157927D01*
X0129037Y0157328D02*
X0139376Y0157328D01*
X0138777Y0156730D02*
X0128895Y0156730D01*
X0128647Y0156131D02*
X0138179Y0156131D01*
X0137580Y0155532D02*
X0128286Y0155532D01*
X0127688Y0154934D02*
X0136982Y0154934D01*
X0136383Y0154335D02*
X0126580Y0154335D01*
X0133310Y0145358D02*
X0166634Y0145358D01*
X0166633Y0145956D02*
X0133908Y0145956D01*
X0134507Y0146555D02*
X0166632Y0146555D01*
X0166631Y0147153D02*
X0135105Y0147153D01*
X0135704Y0147752D02*
X0166630Y0147752D01*
X0166629Y0148350D02*
X0136302Y0148350D01*
X0136901Y0148949D02*
X0166628Y0148949D01*
X0166627Y0149547D02*
X0137499Y0149547D01*
X0138098Y0150146D02*
X0166626Y0150146D01*
X0166625Y0150744D02*
X0138696Y0150744D01*
X0139295Y0151343D02*
X0166624Y0151343D01*
X0166623Y0151941D02*
X0139893Y0151941D01*
X0140492Y0152540D02*
X0166622Y0152540D01*
X0166621Y0153138D02*
X0141090Y0153138D01*
X0141689Y0153737D02*
X0166620Y0153737D01*
X0166619Y0154335D02*
X0142287Y0154335D01*
X0142886Y0154934D02*
X0166618Y0154934D01*
X0166617Y0155532D02*
X0143485Y0155532D01*
X0144083Y0156131D02*
X0166616Y0156131D01*
X0166615Y0156730D02*
X0144682Y0156730D01*
X0145280Y0157328D02*
X0166614Y0157328D01*
X0166613Y0157927D02*
X0145879Y0157927D01*
X0146477Y0158525D02*
X0166612Y0158525D01*
X0166611Y0159124D02*
X0147076Y0159124D01*
X0147674Y0159722D02*
X0166610Y0159722D01*
X0166609Y0160321D02*
X0148273Y0160321D01*
X0148871Y0160919D02*
X0166608Y0160919D01*
X0166607Y0161518D02*
X0149470Y0161518D01*
X0150068Y0162116D02*
X0166606Y0162116D01*
X0166605Y0162715D02*
X0150667Y0162715D01*
X0151265Y0163313D02*
X0166604Y0163313D01*
X0166603Y0163912D02*
X0151864Y0163912D01*
X0152462Y0164510D02*
X0166602Y0164510D01*
X0166601Y0165109D02*
X0153061Y0165109D01*
X0153659Y0165707D02*
X0166600Y0165707D01*
X0166599Y0166306D02*
X0153887Y0166306D01*
X0153887Y0166904D02*
X0166598Y0166904D01*
X0166598Y0167503D02*
X0153887Y0167503D01*
X0153887Y0168101D02*
X0166597Y0168101D01*
X0166596Y0168700D02*
X0153887Y0168700D01*
X0153887Y0169298D02*
X0166595Y0169298D01*
X0166594Y0169897D02*
X0153887Y0169897D01*
X0153887Y0170495D02*
X0166593Y0170495D01*
X0166592Y0171094D02*
X0153887Y0171094D01*
X0153887Y0171692D02*
X0166591Y0171692D01*
X0166590Y0172291D02*
X0153887Y0172291D01*
X0153887Y0172889D02*
X0166589Y0172889D01*
X0166588Y0173488D02*
X0153887Y0173488D01*
X0153887Y0174086D02*
X0166587Y0174086D01*
X0166586Y0174685D02*
X0153887Y0174685D01*
X0153887Y0175283D02*
X0166585Y0175283D01*
X0166584Y0175882D02*
X0153887Y0175882D01*
X0153887Y0176480D02*
X0166583Y0176480D01*
X0166582Y0177079D02*
X0153887Y0177079D01*
X0153887Y0177677D02*
X0166581Y0177677D01*
X0166580Y0178276D02*
X0153887Y0178276D01*
X0153887Y0178874D02*
X0166579Y0178874D01*
X0166578Y0179473D02*
X0153887Y0179473D01*
X0153887Y0180071D02*
X0166577Y0180071D01*
X0166576Y0180670D02*
X0153887Y0180670D01*
X0153887Y0181268D02*
X0166575Y0181268D01*
X0166574Y0181867D02*
X0153887Y0181867D01*
X0153887Y0182466D02*
X0166573Y0182466D01*
X0166572Y0183064D02*
X0153887Y0183064D01*
X0153887Y0183663D02*
X0166571Y0183663D01*
X0166570Y0184261D02*
X0153887Y0184261D01*
X0153887Y0184860D02*
X0166569Y0184860D01*
X0166568Y0185458D02*
X0153887Y0185458D01*
X0153887Y0186057D02*
X0166567Y0186057D01*
X0166566Y0186655D02*
X0153887Y0186655D01*
X0153887Y0187254D02*
X0166565Y0187254D01*
X0166564Y0187852D02*
X0153887Y0187852D01*
X0153887Y0188451D02*
X0166563Y0188451D01*
X0166562Y0189049D02*
X0153887Y0189049D01*
X0153887Y0189648D02*
X0166561Y0189648D01*
X0166560Y0190246D02*
X0153887Y0190246D01*
X0153887Y0190845D02*
X0166559Y0190845D01*
X0166558Y0191443D02*
X0153887Y0191443D01*
X0153887Y0192042D02*
X0166558Y0192042D01*
X0166557Y0192640D02*
X0153887Y0192640D01*
X0153887Y0193239D02*
X0166556Y0193239D01*
X0166555Y0193837D02*
X0153887Y0193837D01*
X0153887Y0194436D02*
X0166554Y0194436D01*
X0166553Y0195034D02*
X0153887Y0195034D01*
X0153887Y0195633D02*
X0166552Y0195633D01*
X0166551Y0196231D02*
X0153887Y0196231D01*
X0153887Y0196830D02*
X0166550Y0196830D01*
X0166549Y0197428D02*
X0153887Y0197428D01*
X0153887Y0198027D02*
X0166548Y0198027D01*
X0166547Y0198625D02*
X0153887Y0198625D01*
X0153887Y0199224D02*
X0166546Y0199224D01*
X0166545Y0199822D02*
X0153887Y0199822D01*
X0153887Y0200421D02*
X0166544Y0200421D01*
X0166543Y0201019D02*
X0153887Y0201019D01*
X0153887Y0201618D02*
X0166542Y0201618D01*
X0166541Y0202216D02*
X0153887Y0202216D01*
X0153887Y0202815D02*
X0166540Y0202815D01*
X0166539Y0203413D02*
X0153887Y0203413D01*
X0153887Y0204012D02*
X0166538Y0204012D01*
X0166537Y0204610D02*
X0153887Y0204610D01*
X0153887Y0205209D02*
X0166536Y0205209D01*
X0166535Y0205807D02*
X0153887Y0205807D01*
X0153887Y0206406D02*
X0166534Y0206406D01*
X0166533Y0207004D02*
X0153887Y0207004D01*
X0153887Y0207603D02*
X0166532Y0207603D01*
X0166531Y0208201D02*
X0153887Y0208201D01*
X0153887Y0208800D02*
X0166530Y0208800D01*
X0166529Y0209399D02*
X0153887Y0209399D01*
X0153887Y0209997D02*
X0166528Y0209997D01*
X0166527Y0210596D02*
X0153887Y0210596D01*
X0153887Y0211194D02*
X0166526Y0211194D01*
X0166525Y0211793D02*
X0153887Y0211793D01*
X0153887Y0212391D02*
X0166524Y0212391D01*
X0166523Y0212990D02*
X0153887Y0212990D01*
X0153887Y0213588D02*
X0166522Y0213588D01*
X0166521Y0214187D02*
X0153887Y0214187D01*
X0153887Y0214785D02*
X0166520Y0214785D01*
X0166519Y0215384D02*
X0153887Y0215384D01*
X0153887Y0215982D02*
X0166518Y0215982D01*
X0166517Y0216581D02*
X0153887Y0216581D01*
X0153887Y0217179D02*
X0166517Y0217179D01*
X0166516Y0217778D02*
X0153887Y0217778D01*
X0153887Y0218376D02*
X0166515Y0218376D01*
X0166514Y0218975D02*
X0153887Y0218975D01*
X0153887Y0219573D02*
X0166513Y0219573D01*
X0166512Y0220172D02*
X0153887Y0220172D01*
X0153887Y0220770D02*
X0166511Y0220770D01*
X0166510Y0221369D02*
X0153887Y0221369D01*
X0153887Y0221967D02*
X0166509Y0221967D01*
X0166508Y0222566D02*
X0153887Y0222566D01*
X0153887Y0223164D02*
X0166507Y0223164D01*
X0166506Y0223763D02*
X0153887Y0223763D01*
X0153887Y0224361D02*
X0166505Y0224361D01*
X0166504Y0224960D02*
X0153887Y0224960D01*
X0153887Y0225558D02*
X0166503Y0225558D01*
X0166502Y0226157D02*
X0153887Y0226157D01*
X0153887Y0226755D02*
X0166501Y0226755D01*
X0166500Y0227354D02*
X0153887Y0227354D01*
X0153887Y0227952D02*
X0166499Y0227952D01*
X0166498Y0228551D02*
X0153887Y0228551D01*
X0153887Y0229149D02*
X0166497Y0229149D01*
X0166496Y0229748D02*
X0153887Y0229748D01*
X0153887Y0230346D02*
X0166495Y0230346D01*
X0166494Y0230945D02*
X0153887Y0230945D01*
X0153887Y0231543D02*
X0166493Y0231543D01*
X0166492Y0232142D02*
X0153887Y0232142D01*
X0153887Y0232740D02*
X0166491Y0232740D01*
X0166490Y0233339D02*
X0153887Y0233339D01*
X0153887Y0233937D02*
X0166489Y0233937D01*
X0166488Y0234536D02*
X0153887Y0234536D01*
X0153887Y0235134D02*
X0166487Y0235134D01*
X0166486Y0235733D02*
X0153887Y0235733D01*
X0153887Y0236332D02*
X0166485Y0236332D01*
X0166484Y0236930D02*
X0153887Y0236930D01*
X0153887Y0237529D02*
X0166483Y0237529D01*
X0166482Y0238127D02*
X0153887Y0238127D01*
X0153887Y0238726D02*
X0166481Y0238726D01*
X0166480Y0239324D02*
X0153887Y0239324D01*
X0153887Y0239923D02*
X0166479Y0239923D01*
X0166478Y0240521D02*
X0153887Y0240521D01*
X0153887Y0241120D02*
X0166477Y0241120D01*
X0166477Y0241718D02*
X0153887Y0241718D01*
X0153887Y0242317D02*
X0166476Y0242317D01*
X0166475Y0242915D02*
X0153887Y0242915D01*
X0153887Y0243514D02*
X0166474Y0243514D01*
X0166473Y0244112D02*
X0153887Y0244112D01*
X0153887Y0244711D02*
X0166472Y0244711D01*
X0166471Y0245309D02*
X0153887Y0245309D01*
X0153887Y0245908D02*
X0166470Y0245908D01*
X0166469Y0246506D02*
X0153887Y0246506D01*
X0153887Y0247105D02*
X0166468Y0247105D01*
X0166467Y0247703D02*
X0153887Y0247703D01*
X0153887Y0248302D02*
X0166466Y0248302D01*
X0166465Y0248900D02*
X0153887Y0248900D01*
X0153887Y0249499D02*
X0166464Y0249499D01*
X0166463Y0250097D02*
X0153887Y0250097D01*
X0153887Y0250696D02*
X0166462Y0250696D01*
X0166461Y0251294D02*
X0153887Y0251294D01*
X0153887Y0251893D02*
X0166460Y0251893D01*
X0166459Y0252491D02*
X0153887Y0252491D01*
X0153887Y0253090D02*
X0166458Y0253090D01*
X0166457Y0253688D02*
X0153887Y0253688D01*
X0153887Y0254287D02*
X0166456Y0254287D01*
X0166455Y0254885D02*
X0153887Y0254885D01*
X0153887Y0255484D02*
X0166454Y0255484D01*
X0166453Y0256082D02*
X0153887Y0256082D01*
X0153887Y0256681D02*
X0166452Y0256681D01*
X0166451Y0257279D02*
X0153887Y0257279D01*
X0153887Y0257878D02*
X0166450Y0257878D01*
X0166449Y0258476D02*
X0153887Y0258476D01*
X0153887Y0259075D02*
X0166448Y0259075D01*
X0166447Y0259673D02*
X0153887Y0259673D01*
X0153887Y0260272D02*
X0166446Y0260272D01*
X0166445Y0260870D02*
X0153887Y0260870D01*
X0153887Y0261469D02*
X0166444Y0261469D01*
X0166443Y0262068D02*
X0153887Y0262068D01*
X0153887Y0262666D02*
X0166442Y0262666D01*
X0166441Y0263265D02*
X0153887Y0263265D01*
X0153887Y0263863D02*
X0166440Y0263863D01*
X0166439Y0264462D02*
X0153887Y0264462D01*
X0153887Y0265060D02*
X0166438Y0265060D01*
X0166437Y0265659D02*
X0153887Y0265659D01*
X0153887Y0266257D02*
X0166437Y0266257D01*
X0166436Y0266856D02*
X0153887Y0266856D01*
X0153887Y0267454D02*
X0166435Y0267454D01*
X0166434Y0268053D02*
X0153887Y0268053D01*
X0153887Y0268651D02*
X0166433Y0268651D01*
X0166432Y0269250D02*
X0153887Y0269250D01*
X0153887Y0269848D02*
X0166431Y0269848D01*
X0166430Y0270447D02*
X0153887Y0270447D01*
X0153887Y0271045D02*
X0166429Y0271045D01*
X0166428Y0271644D02*
X0153887Y0271644D01*
X0153887Y0272242D02*
X0166427Y0272242D01*
X0166426Y0272841D02*
X0153887Y0272841D01*
X0153887Y0273439D02*
X0166425Y0273439D01*
X0166424Y0274038D02*
X0153887Y0274038D01*
X0153887Y0274636D02*
X0166423Y0274636D01*
X0166422Y0275235D02*
X0153887Y0275235D01*
X0153887Y0275833D02*
X0166421Y0275833D01*
X0166420Y0276432D02*
X0153887Y0276432D01*
X0153887Y0277030D02*
X0166419Y0277030D01*
X0166418Y0277629D02*
X0153887Y0277629D01*
X0153887Y0278227D02*
X0166417Y0278227D01*
X0166416Y0278826D02*
X0153887Y0278826D01*
X0153887Y0279424D02*
X0166415Y0279424D01*
X0166414Y0280023D02*
X0153887Y0280023D01*
X0153887Y0280621D02*
X0166413Y0280621D01*
X0166412Y0281220D02*
X0153887Y0281220D01*
X0153887Y0281818D02*
X0166411Y0281818D01*
X0166410Y0282417D02*
X0153887Y0282417D01*
X0153887Y0283015D02*
X0166409Y0283015D01*
X0166408Y0283614D02*
X0153887Y0283614D01*
X0153887Y0284212D02*
X0166407Y0284212D01*
X0166406Y0284811D02*
X0153887Y0284811D01*
X0153887Y0285409D02*
X0166405Y0285409D01*
X0166404Y0286008D02*
X0153887Y0286008D01*
X0153887Y0286606D02*
X0166403Y0286606D01*
X0166402Y0287205D02*
X0153887Y0287205D01*
X0153887Y0287803D02*
X0166401Y0287803D01*
X0166400Y0288402D02*
X0153887Y0288402D01*
X0153887Y0289001D02*
X0166399Y0289001D01*
X0166398Y0289599D02*
X0153887Y0289599D01*
X0153887Y0290198D02*
X0166397Y0290198D01*
X0166397Y0290796D02*
X0153887Y0290796D01*
X0153887Y0291395D02*
X0166396Y0291395D01*
X0166395Y0291993D02*
X0153819Y0291993D01*
X0153220Y0292592D02*
X0166394Y0292592D01*
X0166393Y0293190D02*
X0152622Y0293190D01*
X0152023Y0293789D02*
X0166392Y0293789D01*
X0166391Y0294387D02*
X0151425Y0294387D01*
X0150826Y0294986D02*
X0166390Y0294986D01*
X0166389Y0295584D02*
X0150228Y0295584D01*
X0149629Y0296183D02*
X0166388Y0296183D01*
X0166387Y0296781D02*
X0149031Y0296781D01*
X0148432Y0297380D02*
X0166386Y0297380D01*
X0166385Y0297978D02*
X0147834Y0297978D01*
X0147235Y0298577D02*
X0166384Y0298577D01*
X0166383Y0299175D02*
X0146637Y0299175D01*
X0146038Y0299774D02*
X0166382Y0299774D01*
X0166381Y0300372D02*
X0145440Y0300372D01*
X0144841Y0300971D02*
X0166380Y0300971D01*
X0166379Y0301569D02*
X0144243Y0301569D01*
X0143644Y0302168D02*
X0166378Y0302168D01*
X0166377Y0302766D02*
X0158943Y0302766D01*
X0158348Y0302520D02*
X0161207Y0303704D01*
X0163396Y0305893D01*
X0164580Y0308752D01*
X0164580Y0311848D01*
X0163396Y0314707D01*
X0161207Y0316896D01*
X0158348Y0318080D01*
X0155252Y0318080D01*
X0152393Y0316896D01*
X0150204Y0314707D01*
X0149020Y0311848D01*
X0149020Y0308752D01*
X0150204Y0305893D01*
X0152393Y0303704D01*
X0155252Y0302520D01*
X0158348Y0302520D01*
X0160388Y0303365D02*
X0166376Y0303365D01*
X0166375Y0303963D02*
X0161466Y0303963D01*
X0162065Y0304562D02*
X0166374Y0304562D01*
X0166373Y0305160D02*
X0162663Y0305160D01*
X0163262Y0305759D02*
X0166372Y0305759D01*
X0166371Y0306357D02*
X0163588Y0306357D01*
X0163836Y0306956D02*
X0166370Y0306956D01*
X0166369Y0307554D02*
X0164084Y0307554D01*
X0164332Y0308153D02*
X0166368Y0308153D01*
X0166367Y0308751D02*
X0164580Y0308751D01*
X0164580Y0309350D02*
X0166366Y0309350D01*
X0166346Y0309948D02*
X0164580Y0309948D01*
X0164580Y0310547D02*
X0166298Y0310547D01*
X0166250Y0311145D02*
X0164580Y0311145D01*
X0164580Y0311744D02*
X0166083Y0311744D01*
X0165888Y0312342D02*
X0164375Y0312342D01*
X0164127Y0312941D02*
X0165692Y0312941D01*
X0165497Y0313539D02*
X0163880Y0313539D01*
X0163632Y0314138D02*
X0165302Y0314138D01*
X0164896Y0314737D02*
X0163366Y0314737D01*
X0162768Y0315335D02*
X0164460Y0315335D01*
X0164024Y0315934D02*
X0162169Y0315934D01*
X0161571Y0316532D02*
X0163588Y0316532D01*
X0162887Y0317131D02*
X0160641Y0317131D01*
X0161237Y0318328D02*
X0117706Y0318328D01*
X0117706Y0317729D02*
X0117106Y0317729D01*
X0117106Y0317131D02*
X0117706Y0317131D01*
X0117706Y0316532D02*
X0117106Y0316532D01*
X0117106Y0315934D02*
X0117706Y0315934D01*
X0117706Y0315335D02*
X0117106Y0315335D01*
X0117106Y0314737D02*
X0117706Y0314737D01*
X0117706Y0314138D02*
X0117106Y0314138D01*
X0117106Y0313539D02*
X0117706Y0313539D01*
X0117706Y0312941D02*
X0132350Y0312941D01*
X0132350Y0312342D02*
X0123529Y0312342D01*
X0123529Y0311744D02*
X0132350Y0311744D01*
X0132350Y0311145D02*
X0123529Y0311145D01*
X0123462Y0310547D02*
X0132421Y0310547D01*
X0132845Y0309948D02*
X0123213Y0309948D01*
X0123529Y0313539D02*
X0136500Y0313539D01*
X0136500Y0314138D02*
X0137100Y0314138D01*
X0137100Y0314737D02*
X0136500Y0314737D01*
X0136500Y0315335D02*
X0137100Y0315335D01*
X0137100Y0315934D02*
X0136500Y0315934D01*
X0136500Y0316532D02*
X0137100Y0316532D01*
X0137100Y0317131D02*
X0136500Y0317131D01*
X0137100Y0313539D02*
X0149720Y0313539D01*
X0149473Y0312941D02*
X0141250Y0312941D01*
X0141250Y0312342D02*
X0149225Y0312342D01*
X0149020Y0311744D02*
X0141250Y0311744D01*
X0141250Y0311145D02*
X0149020Y0311145D01*
X0149020Y0310547D02*
X0141179Y0310547D01*
X0140755Y0309948D02*
X0149020Y0309948D01*
X0149020Y0309350D02*
X0140756Y0309350D01*
X0141037Y0308751D02*
X0149020Y0308751D01*
X0149268Y0308153D02*
X0141037Y0308153D01*
X0141037Y0307554D02*
X0149516Y0307554D01*
X0149764Y0306956D02*
X0141037Y0306956D01*
X0141037Y0306357D02*
X0150012Y0306357D01*
X0150338Y0305759D02*
X0141037Y0305759D01*
X0141037Y0305160D02*
X0150937Y0305160D01*
X0151535Y0304562D02*
X0141250Y0304562D01*
X0141849Y0303963D02*
X0152134Y0303963D01*
X0153212Y0303365D02*
X0142447Y0303365D01*
X0143046Y0302766D02*
X0154657Y0302766D01*
X0149968Y0314138D02*
X0141250Y0314138D01*
X0141250Y0314737D02*
X0150233Y0314737D01*
X0150832Y0315335D02*
X0141250Y0315335D01*
X0141250Y0315934D02*
X0151431Y0315934D01*
X0152029Y0316532D02*
X0141179Y0316532D01*
X0140757Y0317131D02*
X0152959Y0317131D01*
X0154404Y0317729D02*
X0123529Y0317729D01*
X0123529Y0317131D02*
X0132843Y0317131D01*
X0132421Y0316532D02*
X0123529Y0316532D01*
X0123414Y0315934D02*
X0132350Y0315934D01*
X0132350Y0315335D02*
X0123460Y0315335D01*
X0123529Y0314737D02*
X0132350Y0314737D01*
X0132350Y0314138D02*
X0123529Y0314138D01*
X0123529Y0318926D02*
X0159764Y0318926D01*
X0159196Y0317729D02*
X0162062Y0317729D01*
X0157722Y0319525D02*
X0123529Y0319525D01*
X0117106Y0318328D02*
X0074104Y0318328D01*
X0074104Y0318926D02*
X0111283Y0318926D01*
X0111283Y0319525D02*
X0074104Y0319525D01*
X0074104Y0317729D02*
X0111283Y0317729D01*
X0111283Y0317131D02*
X0074104Y0317131D01*
X0074104Y0316532D02*
X0111283Y0316532D01*
X0111398Y0315934D02*
X0074007Y0315934D01*
X0074104Y0315335D02*
X0111352Y0315335D01*
X0111283Y0314737D02*
X0074104Y0314737D01*
X0074104Y0314138D02*
X0111283Y0314138D01*
X0111283Y0313539D02*
X0074104Y0313539D01*
X0074104Y0312941D02*
X0117106Y0312941D01*
X0111283Y0312342D02*
X0074104Y0312342D01*
X0074104Y0311744D02*
X0111283Y0311744D01*
X0111283Y0311145D02*
X0074104Y0311145D01*
X0074104Y0310547D02*
X0111351Y0310547D01*
X0111600Y0309948D02*
X0074000Y0309948D01*
X0074104Y0309350D02*
X0111496Y0309350D01*
X0111496Y0308751D02*
X0074104Y0308751D01*
X0074104Y0308153D02*
X0111496Y0308153D01*
X0111496Y0307554D02*
X0074104Y0307554D01*
X0074104Y0306956D02*
X0111496Y0306956D01*
X0111496Y0306357D02*
X0074104Y0306357D01*
X0074104Y0305759D02*
X0111496Y0305759D01*
X0111496Y0305160D02*
X0074104Y0305160D01*
X0073875Y0304562D02*
X0111474Y0304562D01*
X0111283Y0303963D02*
X0074104Y0303963D01*
X0074104Y0303365D02*
X0111283Y0303365D01*
X0111283Y0302766D02*
X0074104Y0302766D01*
X0074104Y0302168D02*
X0117106Y0302168D01*
X0117106Y0302766D02*
X0117706Y0302766D01*
X0117706Y0302168D02*
X0137740Y0302168D01*
X0138339Y0301569D02*
X0123529Y0301569D01*
X0123529Y0300971D02*
X0138937Y0300971D01*
X0139536Y0300372D02*
X0123529Y0300372D01*
X0123529Y0299774D02*
X0140134Y0299774D01*
X0140733Y0299175D02*
X0123285Y0299175D01*
X0123317Y0298577D02*
X0141331Y0298577D01*
X0141930Y0297978D02*
X0123317Y0297978D01*
X0124172Y0297380D02*
X0142528Y0297380D01*
X0143127Y0296781D02*
X0124771Y0296781D01*
X0125369Y0296183D02*
X0143725Y0296183D01*
X0144324Y0295584D02*
X0125968Y0295584D01*
X0126566Y0294986D02*
X0144922Y0294986D01*
X0145521Y0294387D02*
X0127165Y0294387D01*
X0127763Y0293789D02*
X0146119Y0293789D01*
X0146718Y0293190D02*
X0128362Y0293190D01*
X0128960Y0292592D02*
X0147316Y0292592D01*
X0147915Y0291993D02*
X0129559Y0291993D01*
X0130157Y0291395D02*
X0148513Y0291395D01*
X0149112Y0290796D02*
X0130756Y0290796D01*
X0131354Y0290198D02*
X0149710Y0290198D01*
X0149713Y0289599D02*
X0131953Y0289599D01*
X0132552Y0289001D02*
X0149713Y0289001D01*
X0149713Y0288402D02*
X0133150Y0288402D01*
X0133749Y0287803D02*
X0149713Y0287803D01*
X0149713Y0287205D02*
X0134347Y0287205D01*
X0134946Y0286606D02*
X0149713Y0286606D01*
X0149713Y0286008D02*
X0135544Y0286008D01*
X0136143Y0285409D02*
X0149713Y0285409D01*
X0149713Y0284811D02*
X0136741Y0284811D01*
X0137340Y0284212D02*
X0149713Y0284212D01*
X0149713Y0283614D02*
X0137938Y0283614D01*
X0138537Y0283015D02*
X0149713Y0283015D01*
X0149713Y0282417D02*
X0139135Y0282417D01*
X0139734Y0281818D02*
X0149713Y0281818D01*
X0149713Y0281220D02*
X0140332Y0281220D01*
X0140931Y0280621D02*
X0149713Y0280621D01*
X0149713Y0280023D02*
X0141529Y0280023D01*
X0142128Y0279424D02*
X0149713Y0279424D01*
X0149713Y0278826D02*
X0142726Y0278826D01*
X0143325Y0278227D02*
X0149713Y0278227D01*
X0149713Y0277629D02*
X0143923Y0277629D01*
X0144522Y0277030D02*
X0149713Y0277030D01*
X0149713Y0276432D02*
X0145120Y0276432D01*
X0145719Y0275833D02*
X0149713Y0275833D01*
X0149713Y0275235D02*
X0146317Y0275235D01*
X0146916Y0274636D02*
X0149713Y0274636D01*
X0149713Y0274038D02*
X0147514Y0274038D01*
X0148113Y0273439D02*
X0149713Y0273439D01*
X0149713Y0272841D02*
X0148711Y0272841D01*
X0148887Y0272242D02*
X0149713Y0272242D01*
X0149713Y0271644D02*
X0148887Y0271644D01*
X0148887Y0271045D02*
X0149713Y0271045D01*
X0149713Y0270447D02*
X0148887Y0270447D01*
X0148887Y0269848D02*
X0149713Y0269848D01*
X0149713Y0269250D02*
X0148887Y0269250D01*
X0148887Y0268651D02*
X0149713Y0268651D01*
X0149713Y0268053D02*
X0148887Y0268053D01*
X0148887Y0267454D02*
X0149713Y0267454D01*
X0149713Y0266856D02*
X0148887Y0266856D01*
X0148887Y0266257D02*
X0149713Y0266257D01*
X0149713Y0265659D02*
X0148887Y0265659D01*
X0148887Y0265060D02*
X0149713Y0265060D01*
X0149713Y0264462D02*
X0148887Y0264462D01*
X0148887Y0263863D02*
X0149713Y0263863D01*
X0149713Y0263265D02*
X0148887Y0263265D01*
X0148887Y0262666D02*
X0149713Y0262666D01*
X0149713Y0262068D02*
X0148887Y0262068D01*
X0148887Y0261469D02*
X0149713Y0261469D01*
X0149713Y0260870D02*
X0148887Y0260870D01*
X0148887Y0260272D02*
X0149713Y0260272D01*
X0149713Y0259673D02*
X0148887Y0259673D01*
X0148887Y0259075D02*
X0149713Y0259075D01*
X0149713Y0258476D02*
X0148887Y0258476D01*
X0148887Y0257878D02*
X0149713Y0257878D01*
X0149713Y0257279D02*
X0148887Y0257279D01*
X0148887Y0256681D02*
X0149713Y0256681D01*
X0149713Y0256082D02*
X0148887Y0256082D01*
X0148887Y0255484D02*
X0149713Y0255484D01*
X0149713Y0254885D02*
X0148887Y0254885D01*
X0148887Y0254287D02*
X0149713Y0254287D01*
X0149713Y0253688D02*
X0148887Y0253688D01*
X0148887Y0253090D02*
X0149713Y0253090D01*
X0149713Y0252491D02*
X0148887Y0252491D01*
X0148887Y0251893D02*
X0149713Y0251893D01*
X0149713Y0251294D02*
X0148887Y0251294D01*
X0148887Y0250696D02*
X0149713Y0250696D01*
X0149713Y0250097D02*
X0148887Y0250097D01*
X0148887Y0249499D02*
X0149713Y0249499D01*
X0149713Y0248900D02*
X0148887Y0248900D01*
X0148887Y0248302D02*
X0149713Y0248302D01*
X0149713Y0247703D02*
X0148887Y0247703D01*
X0148887Y0247105D02*
X0149713Y0247105D01*
X0149713Y0246506D02*
X0148887Y0246506D01*
X0148887Y0245908D02*
X0149713Y0245908D01*
X0149713Y0245309D02*
X0148887Y0245309D01*
X0148887Y0244711D02*
X0149713Y0244711D01*
X0149713Y0244112D02*
X0148887Y0244112D01*
X0148887Y0243514D02*
X0149713Y0243514D01*
X0149713Y0242915D02*
X0148887Y0242915D01*
X0148887Y0242317D02*
X0149713Y0242317D01*
X0149713Y0241718D02*
X0148887Y0241718D01*
X0148887Y0241120D02*
X0149713Y0241120D01*
X0149713Y0240521D02*
X0148887Y0240521D01*
X0148887Y0239923D02*
X0149713Y0239923D01*
X0149713Y0239324D02*
X0148887Y0239324D01*
X0148887Y0238726D02*
X0149713Y0238726D01*
X0149713Y0238127D02*
X0148887Y0238127D01*
X0148887Y0237529D02*
X0149713Y0237529D01*
X0149713Y0236930D02*
X0148887Y0236930D01*
X0148887Y0236332D02*
X0149713Y0236332D01*
X0149713Y0235733D02*
X0148887Y0235733D01*
X0148887Y0235134D02*
X0149713Y0235134D01*
X0149713Y0234536D02*
X0148887Y0234536D01*
X0148887Y0233937D02*
X0149713Y0233937D01*
X0149713Y0233339D02*
X0148887Y0233339D01*
X0148887Y0232740D02*
X0149713Y0232740D01*
X0149713Y0232142D02*
X0148887Y0232142D01*
X0148887Y0231543D02*
X0149713Y0231543D01*
X0149713Y0230945D02*
X0148887Y0230945D01*
X0148887Y0230346D02*
X0149713Y0230346D01*
X0149713Y0229748D02*
X0148887Y0229748D01*
X0148887Y0229149D02*
X0149713Y0229149D01*
X0149713Y0228551D02*
X0148887Y0228551D01*
X0148887Y0227952D02*
X0149713Y0227952D01*
X0149713Y0227354D02*
X0148887Y0227354D01*
X0148887Y0226755D02*
X0149713Y0226755D01*
X0149713Y0226157D02*
X0148887Y0226157D01*
X0148887Y0225558D02*
X0149713Y0225558D01*
X0149713Y0224960D02*
X0148887Y0224960D01*
X0148887Y0224361D02*
X0149713Y0224361D01*
X0149713Y0223763D02*
X0148887Y0223763D01*
X0148887Y0223164D02*
X0149713Y0223164D01*
X0149713Y0222566D02*
X0148887Y0222566D01*
X0148887Y0221967D02*
X0149713Y0221967D01*
X0149713Y0221369D02*
X0148887Y0221369D01*
X0148887Y0220770D02*
X0149713Y0220770D01*
X0149713Y0220172D02*
X0148887Y0220172D01*
X0148887Y0219573D02*
X0149713Y0219573D01*
X0149713Y0218975D02*
X0148887Y0218975D01*
X0148887Y0218376D02*
X0149713Y0218376D01*
X0149713Y0217778D02*
X0148887Y0217778D01*
X0148887Y0217179D02*
X0149713Y0217179D01*
X0149713Y0216581D02*
X0148887Y0216581D01*
X0148887Y0215982D02*
X0149713Y0215982D01*
X0149713Y0215384D02*
X0148887Y0215384D01*
X0148887Y0214785D02*
X0149713Y0214785D01*
X0149713Y0214187D02*
X0148887Y0214187D01*
X0148887Y0213588D02*
X0149713Y0213588D01*
X0149713Y0212990D02*
X0148887Y0212990D01*
X0148887Y0212391D02*
X0149713Y0212391D01*
X0149713Y0211793D02*
X0148887Y0211793D01*
X0148887Y0211194D02*
X0149713Y0211194D01*
X0149713Y0210596D02*
X0148887Y0210596D01*
X0148887Y0209997D02*
X0149713Y0209997D01*
X0149713Y0209399D02*
X0148887Y0209399D01*
X0148887Y0208800D02*
X0149713Y0208800D01*
X0149713Y0208201D02*
X0148887Y0208201D01*
X0148887Y0207603D02*
X0149713Y0207603D01*
X0149713Y0207004D02*
X0148887Y0207004D01*
X0148887Y0206406D02*
X0149713Y0206406D01*
X0149713Y0205807D02*
X0148887Y0205807D01*
X0148887Y0205209D02*
X0149713Y0205209D01*
X0149713Y0204610D02*
X0148887Y0204610D01*
X0148887Y0204012D02*
X0149713Y0204012D01*
X0149713Y0203413D02*
X0148887Y0203413D01*
X0148887Y0202815D02*
X0149713Y0202815D01*
X0149713Y0202216D02*
X0148887Y0202216D01*
X0148887Y0201618D02*
X0149713Y0201618D01*
X0149713Y0201019D02*
X0148887Y0201019D01*
X0148873Y0200421D02*
X0149713Y0200421D01*
X0149713Y0199822D02*
X0148274Y0199822D01*
X0147676Y0199224D02*
X0149713Y0199224D01*
X0149713Y0198625D02*
X0147077Y0198625D01*
X0146479Y0198027D02*
X0149713Y0198027D01*
X0149713Y0197428D02*
X0145880Y0197428D01*
X0145282Y0196830D02*
X0149713Y0196830D01*
X0149713Y0196231D02*
X0144683Y0196231D01*
X0144085Y0195633D02*
X0149713Y0195633D01*
X0149713Y0195034D02*
X0143486Y0195034D01*
X0142888Y0194436D02*
X0149713Y0194436D01*
X0149713Y0193837D02*
X0142289Y0193837D01*
X0141691Y0193239D02*
X0149713Y0193239D01*
X0149713Y0192640D02*
X0141092Y0192640D01*
X0140494Y0192042D02*
X0149713Y0192042D01*
X0149713Y0191443D02*
X0139895Y0191443D01*
X0139297Y0190845D02*
X0149713Y0190845D01*
X0149713Y0190246D02*
X0138698Y0190246D01*
X0138100Y0189648D02*
X0149713Y0189648D01*
X0149713Y0189049D02*
X0137501Y0189049D01*
X0136903Y0188451D02*
X0149713Y0188451D01*
X0149713Y0187852D02*
X0136304Y0187852D01*
X0135706Y0187254D02*
X0149713Y0187254D01*
X0149713Y0186655D02*
X0135107Y0186655D01*
X0134509Y0186057D02*
X0149713Y0186057D01*
X0149713Y0185458D02*
X0133910Y0185458D01*
X0133312Y0184860D02*
X0149713Y0184860D01*
X0149713Y0184261D02*
X0132713Y0184261D01*
X0132115Y0183663D02*
X0149713Y0183663D01*
X0149713Y0180670D02*
X0127684Y0180670D01*
X0138455Y0203413D02*
X0108178Y0203413D01*
X0108776Y0204012D02*
X0137856Y0204012D01*
X0137258Y0204610D02*
X0127244Y0204610D01*
X0127449Y0204695D02*
X0128479Y0205726D01*
X0129037Y0207072D01*
X0129037Y0208528D01*
X0128479Y0209874D01*
X0127449Y0210905D01*
X0126103Y0211462D01*
X0119497Y0211462D01*
X0118151Y0210905D01*
X0117121Y0209874D01*
X0116563Y0208528D01*
X0116563Y0207072D01*
X0117121Y0205726D01*
X0118151Y0204695D01*
X0119497Y0204138D01*
X0126103Y0204138D01*
X0127449Y0204695D01*
X0127963Y0205209D02*
X0136659Y0205209D01*
X0136106Y0205807D02*
X0128513Y0205807D01*
X0128761Y0206406D02*
X0136106Y0206406D01*
X0136106Y0207004D02*
X0129009Y0207004D01*
X0129037Y0207603D02*
X0136106Y0207603D01*
X0136106Y0208201D02*
X0129037Y0208201D01*
X0128925Y0208800D02*
X0136106Y0208800D01*
X0136106Y0209399D02*
X0128677Y0209399D01*
X0128357Y0209997D02*
X0136541Y0209997D01*
X0137139Y0210596D02*
X0127758Y0210596D01*
X0126751Y0211194D02*
X0137738Y0211194D01*
X0138337Y0211793D02*
X0116557Y0211793D01*
X0117155Y0212391D02*
X0138606Y0212391D01*
X0138606Y0212990D02*
X0117754Y0212990D01*
X0118352Y0213588D02*
X0138606Y0213588D01*
X0138606Y0214187D02*
X0118951Y0214187D01*
X0119550Y0214785D02*
X0138606Y0214785D01*
X0138606Y0215384D02*
X0120148Y0215384D01*
X0120747Y0215982D02*
X0138606Y0215982D01*
X0138606Y0216581D02*
X0121345Y0216581D01*
X0121944Y0217179D02*
X0138606Y0217179D01*
X0138606Y0217778D02*
X0122542Y0217778D01*
X0123141Y0218376D02*
X0138606Y0218376D01*
X0138606Y0218975D02*
X0123739Y0218975D01*
X0124338Y0219573D02*
X0138606Y0219573D01*
X0138606Y0220172D02*
X0124936Y0220172D01*
X0125535Y0220770D02*
X0138606Y0220770D01*
X0138606Y0221369D02*
X0126133Y0221369D01*
X0126732Y0221967D02*
X0138606Y0221967D01*
X0138606Y0222566D02*
X0127330Y0222566D01*
X0127929Y0223164D02*
X0138606Y0223164D01*
X0138606Y0223763D02*
X0128527Y0223763D01*
X0129126Y0224361D02*
X0138606Y0224361D01*
X0138606Y0224960D02*
X0129724Y0224960D01*
X0130323Y0225558D02*
X0138606Y0225558D01*
X0138606Y0226157D02*
X0130921Y0226157D01*
X0131520Y0226755D02*
X0138606Y0226755D01*
X0138606Y0227354D02*
X0132118Y0227354D01*
X0132717Y0227952D02*
X0138606Y0227952D01*
X0138606Y0228551D02*
X0133315Y0228551D01*
X0133914Y0229149D02*
X0138606Y0229149D01*
X0138606Y0229748D02*
X0134512Y0229748D01*
X0135111Y0230346D02*
X0138606Y0230346D01*
X0138606Y0230945D02*
X0135709Y0230945D01*
X0136131Y0231543D02*
X0138606Y0231543D01*
X0138606Y0232142D02*
X0136131Y0232142D01*
X0136131Y0232740D02*
X0138606Y0232740D01*
X0138606Y0233339D02*
X0136131Y0233339D01*
X0136131Y0233937D02*
X0138606Y0233937D01*
X0138606Y0234536D02*
X0136131Y0234536D01*
X0136131Y0235134D02*
X0138606Y0235134D01*
X0138606Y0235733D02*
X0136131Y0235733D01*
X0136131Y0236332D02*
X0138606Y0236332D01*
X0138606Y0236930D02*
X0136131Y0236930D01*
X0136131Y0237529D02*
X0138606Y0237529D01*
X0138606Y0238127D02*
X0136131Y0238127D01*
X0136131Y0238726D02*
X0138606Y0238726D01*
X0138606Y0239324D02*
X0136131Y0239324D01*
X0136131Y0239923D02*
X0138606Y0239923D01*
X0138606Y0240521D02*
X0136131Y0240521D01*
X0136131Y0241120D02*
X0138606Y0241120D01*
X0138606Y0241718D02*
X0136131Y0241718D01*
X0136131Y0242317D02*
X0138606Y0242317D01*
X0138606Y0242915D02*
X0136131Y0242915D01*
X0136131Y0243514D02*
X0138606Y0243514D01*
X0138606Y0244112D02*
X0136131Y0244112D01*
X0136131Y0244711D02*
X0138606Y0244711D01*
X0138606Y0245309D02*
X0136131Y0245309D01*
X0136131Y0245908D02*
X0138606Y0245908D01*
X0138606Y0246506D02*
X0136131Y0246506D01*
X0136131Y0247105D02*
X0138606Y0247105D01*
X0138606Y0247703D02*
X0136131Y0247703D01*
X0136131Y0248302D02*
X0138606Y0248302D01*
X0138606Y0248900D02*
X0136131Y0248900D01*
X0136131Y0249499D02*
X0138606Y0249499D01*
X0138606Y0250097D02*
X0136131Y0250097D01*
X0136131Y0250696D02*
X0138606Y0250696D01*
X0138606Y0251294D02*
X0136131Y0251294D01*
X0136131Y0251893D02*
X0138606Y0251893D01*
X0138606Y0252491D02*
X0136131Y0252491D01*
X0136131Y0253090D02*
X0138606Y0253090D01*
X0138606Y0253688D02*
X0136131Y0253688D01*
X0136131Y0254287D02*
X0138606Y0254287D01*
X0138606Y0254885D02*
X0136131Y0254885D01*
X0136131Y0255484D02*
X0138606Y0255484D01*
X0138606Y0256082D02*
X0136131Y0256082D01*
X0136131Y0256681D02*
X0138606Y0256681D01*
X0138606Y0257279D02*
X0136131Y0257279D01*
X0136131Y0257878D02*
X0138606Y0257878D01*
X0138606Y0258476D02*
X0136131Y0258476D01*
X0136131Y0259075D02*
X0138606Y0259075D01*
X0138606Y0259673D02*
X0136131Y0259673D01*
X0136131Y0260272D02*
X0138606Y0260272D01*
X0138606Y0260870D02*
X0136131Y0260870D01*
X0136131Y0261469D02*
X0138606Y0261469D01*
X0138606Y0262068D02*
X0136131Y0262068D01*
X0136131Y0262666D02*
X0138606Y0262666D01*
X0138606Y0263265D02*
X0136131Y0263265D01*
X0136131Y0263863D02*
X0138606Y0263863D01*
X0138606Y0264462D02*
X0136131Y0264462D01*
X0136131Y0265060D02*
X0138606Y0265060D01*
X0138606Y0265659D02*
X0136131Y0265659D01*
X0136131Y0266257D02*
X0138606Y0266257D01*
X0138606Y0266856D02*
X0136131Y0266856D01*
X0136131Y0267454D02*
X0138606Y0267454D01*
X0138606Y0268053D02*
X0136131Y0268053D01*
X0136131Y0268651D02*
X0138606Y0268651D01*
X0138606Y0269250D02*
X0136131Y0269250D01*
X0136131Y0269848D02*
X0138606Y0269848D01*
X0138606Y0270447D02*
X0136131Y0270447D01*
X0136131Y0271045D02*
X0138606Y0271045D01*
X0138540Y0271644D02*
X0136131Y0271644D01*
X0136131Y0272242D02*
X0137941Y0272242D01*
X0137343Y0272841D02*
X0136131Y0272841D01*
X0136131Y0273439D02*
X0136744Y0273439D01*
X0136146Y0274038D02*
X0136131Y0274038D01*
X0126926Y0258476D02*
X0098927Y0258476D01*
X0098927Y0257878D02*
X0127525Y0257878D01*
X0128123Y0257279D02*
X0098927Y0257279D01*
X0098927Y0256681D02*
X0128722Y0256681D01*
X0129232Y0256082D02*
X0098927Y0256082D01*
X0098927Y0255484D02*
X0129232Y0255484D01*
X0129232Y0254885D02*
X0098927Y0254885D01*
X0098927Y0254287D02*
X0129232Y0254287D01*
X0129232Y0253688D02*
X0098927Y0253688D01*
X0098927Y0253090D02*
X0129232Y0253090D01*
X0129232Y0252491D02*
X0098927Y0252491D01*
X0098927Y0251893D02*
X0129232Y0251893D01*
X0129232Y0251294D02*
X0098927Y0251294D01*
X0098927Y0250696D02*
X0129232Y0250696D01*
X0129232Y0250097D02*
X0098927Y0250097D01*
X0098927Y0249499D02*
X0129232Y0249499D01*
X0129232Y0248900D02*
X0098927Y0248900D01*
X0098927Y0248302D02*
X0129232Y0248302D01*
X0129232Y0247703D02*
X0098927Y0247703D01*
X0098927Y0247105D02*
X0129232Y0247105D01*
X0129232Y0246506D02*
X0098927Y0246506D01*
X0098927Y0245908D02*
X0129232Y0245908D01*
X0129232Y0245309D02*
X0098927Y0245309D01*
X0100805Y0244711D02*
X0106795Y0244711D01*
X0106453Y0244112D02*
X0101147Y0244112D01*
X0101147Y0243514D02*
X0106453Y0243514D01*
X0106453Y0242915D02*
X0101147Y0242915D01*
X0101147Y0242317D02*
X0106453Y0242317D01*
X0106453Y0241718D02*
X0101147Y0241718D01*
X0101147Y0241120D02*
X0106453Y0241120D01*
X0106453Y0240521D02*
X0101147Y0240521D01*
X0101147Y0239923D02*
X0106453Y0239923D01*
X0106453Y0239324D02*
X0101147Y0239324D01*
X0101147Y0238726D02*
X0106453Y0238726D01*
X0106453Y0238127D02*
X0101147Y0238127D01*
X0101147Y0237529D02*
X0106453Y0237529D01*
X0106453Y0236930D02*
X0101147Y0236930D01*
X0101147Y0236332D02*
X0106453Y0236332D01*
X0106453Y0235733D02*
X0101147Y0235733D01*
X0101147Y0235134D02*
X0106453Y0235134D01*
X0106453Y0234536D02*
X0101147Y0234536D01*
X0101147Y0233937D02*
X0106453Y0233937D01*
X0106453Y0233339D02*
X0101147Y0233339D01*
X0100656Y0232740D02*
X0106944Y0232740D01*
X0114042Y0232740D02*
X0127511Y0232740D01*
X0126913Y0232142D02*
X0046287Y0232142D01*
X0046287Y0232740D02*
X0070058Y0232740D01*
X0070204Y0232594D02*
X0077010Y0232594D01*
X0077647Y0233231D01*
X0077647Y0244369D01*
X0077010Y0245005D01*
X0070204Y0245005D01*
X0069567Y0244369D01*
X0069567Y0241187D01*
X0067687Y0241187D01*
X0067687Y0241900D01*
X0067050Y0242537D01*
X0061031Y0242537D01*
X0060394Y0241900D01*
X0060394Y0241715D01*
X0060330Y0241951D01*
X0060159Y0242248D01*
X0059917Y0242490D01*
X0059621Y0242661D01*
X0059290Y0242750D01*
X0056860Y0242750D01*
X0056860Y0238600D01*
X0056260Y0238600D01*
X0056260Y0242750D01*
X0053830Y0242750D01*
X0053499Y0242661D01*
X0053203Y0242490D01*
X0052961Y0242248D01*
X0052789Y0241951D01*
X0052701Y0241621D01*
X0052701Y0238600D01*
X0056260Y0238600D01*
X0056260Y0238000D01*
X0056860Y0238000D01*
X0056860Y0233850D01*
X0059290Y0233850D01*
X0059621Y0233939D01*
X0059917Y0234110D01*
X0060159Y0234352D01*
X0060330Y0234649D01*
X0060394Y0234885D01*
X0060394Y0234700D01*
X0061031Y0234063D01*
X0067050Y0234063D01*
X0067687Y0234700D01*
X0067687Y0237043D01*
X0069567Y0237043D01*
X0069567Y0233231D01*
X0070204Y0232594D01*
X0069567Y0233339D02*
X0046287Y0233339D01*
X0046287Y0233937D02*
X0053505Y0233937D01*
X0053499Y0233939D02*
X0053830Y0233850D01*
X0056260Y0233850D01*
X0056260Y0238000D01*
X0052701Y0238000D01*
X0052701Y0234979D01*
X0052789Y0234649D01*
X0052961Y0234352D01*
X0053203Y0234110D01*
X0053499Y0233939D01*
X0052854Y0234536D02*
X0046287Y0234536D01*
X0046287Y0235134D02*
X0052701Y0235134D01*
X0052701Y0235733D02*
X0046287Y0235733D01*
X0046287Y0236332D02*
X0052701Y0236332D01*
X0052701Y0236930D02*
X0046287Y0236930D01*
X0046287Y0237529D02*
X0052701Y0237529D01*
X0052701Y0238726D02*
X0046287Y0238726D01*
X0046287Y0239324D02*
X0052701Y0239324D01*
X0052701Y0239923D02*
X0046287Y0239923D01*
X0046287Y0240521D02*
X0052701Y0240521D01*
X0052701Y0241120D02*
X0046287Y0241120D01*
X0046287Y0241718D02*
X0052727Y0241718D01*
X0053029Y0242317D02*
X0046287Y0242317D01*
X0046287Y0242915D02*
X0069567Y0242915D01*
X0069567Y0242317D02*
X0067270Y0242317D01*
X0067687Y0241718D02*
X0069567Y0241718D01*
X0069567Y0243514D02*
X0046287Y0243514D01*
X0046287Y0244112D02*
X0069567Y0244112D01*
X0069909Y0244711D02*
X0046287Y0244711D01*
X0046287Y0245309D02*
X0087894Y0245309D01*
X0087894Y0245908D02*
X0046287Y0245908D01*
X0046287Y0246506D02*
X0087894Y0246506D01*
X0087894Y0247105D02*
X0046287Y0247105D01*
X0046287Y0247703D02*
X0087894Y0247703D01*
X0087894Y0248302D02*
X0046287Y0248302D01*
X0046287Y0248900D02*
X0087894Y0248900D01*
X0087894Y0249499D02*
X0046287Y0249499D01*
X0046287Y0250097D02*
X0087894Y0250097D01*
X0087894Y0250696D02*
X0046287Y0250696D01*
X0046287Y0251294D02*
X0087894Y0251294D01*
X0087894Y0251893D02*
X0046287Y0251893D01*
X0046287Y0252491D02*
X0087894Y0252491D01*
X0087894Y0253090D02*
X0046287Y0253090D01*
X0046287Y0253688D02*
X0087894Y0253688D01*
X0087894Y0254287D02*
X0046287Y0254287D01*
X0046287Y0254885D02*
X0087894Y0254885D01*
X0087894Y0255484D02*
X0046287Y0255484D01*
X0046287Y0256082D02*
X0087894Y0256082D01*
X0087894Y0256681D02*
X0046287Y0256681D01*
X0046287Y0257279D02*
X0087894Y0257279D01*
X0087894Y0257878D02*
X0046287Y0257878D01*
X0046287Y0258476D02*
X0087894Y0258476D01*
X0087894Y0259075D02*
X0046287Y0259075D01*
X0046287Y0259673D02*
X0087894Y0259673D01*
X0087894Y0260272D02*
X0046287Y0260272D01*
X0046287Y0260870D02*
X0087894Y0260870D01*
X0087894Y0261469D02*
X0046287Y0261469D01*
X0046287Y0262068D02*
X0087894Y0262068D01*
X0087894Y0262666D02*
X0046287Y0262666D01*
X0046287Y0263265D02*
X0087894Y0263265D01*
X0087894Y0263863D02*
X0046287Y0263863D01*
X0046287Y0264462D02*
X0087894Y0264462D01*
X0087894Y0265060D02*
X0046287Y0265060D01*
X0046287Y0265659D02*
X0070530Y0265659D01*
X0070453Y0266257D02*
X0046287Y0266257D01*
X0046287Y0266856D02*
X0070453Y0266856D01*
X0070453Y0267454D02*
X0046287Y0267454D01*
X0046287Y0268053D02*
X0070453Y0268053D01*
X0070453Y0268651D02*
X0046287Y0268651D01*
X0046287Y0269250D02*
X0047307Y0269250D01*
X0047216Y0269340D02*
X0047458Y0269098D01*
X0047755Y0268927D01*
X0048086Y0268839D01*
X0051500Y0268839D01*
X0051500Y0272988D01*
X0052100Y0272988D01*
X0052100Y0268839D01*
X0055514Y0268839D01*
X0055845Y0268927D01*
X0056142Y0269098D01*
X0056384Y0269340D01*
X0056555Y0269637D01*
X0056643Y0269967D01*
X0056643Y0272988D01*
X0052100Y0272988D01*
X0052100Y0273588D01*
X0056643Y0273588D01*
X0056643Y0276609D01*
X0056555Y0276940D01*
X0056384Y0277236D01*
X0056142Y0277478D01*
X0055845Y0277649D01*
X0055514Y0277738D01*
X0052100Y0277738D01*
X0052100Y0273588D01*
X0051500Y0273588D01*
X0051500Y0272988D01*
X0046957Y0272988D01*
X0046957Y0269967D01*
X0047045Y0269637D01*
X0047216Y0269340D01*
X0046989Y0269848D02*
X0046287Y0269848D01*
X0046287Y0270447D02*
X0046957Y0270447D01*
X0046957Y0271045D02*
X0046287Y0271045D01*
X0046287Y0271644D02*
X0046957Y0271644D01*
X0046957Y0272242D02*
X0046287Y0272242D01*
X0046287Y0272841D02*
X0046957Y0272841D01*
X0046957Y0273588D02*
X0051500Y0273588D01*
X0051500Y0277738D01*
X0048086Y0277738D01*
X0047755Y0277649D01*
X0047458Y0277478D01*
X0047216Y0277236D01*
X0047045Y0276940D01*
X0046957Y0276609D01*
X0046957Y0273588D01*
X0046957Y0274038D02*
X0046287Y0274038D01*
X0046287Y0274636D02*
X0046957Y0274636D01*
X0046957Y0275235D02*
X0046287Y0275235D01*
X0046287Y0275833D02*
X0046957Y0275833D01*
X0046957Y0276432D02*
X0046287Y0276432D01*
X0046287Y0277030D02*
X0047098Y0277030D01*
X0047720Y0277629D02*
X0046287Y0277629D01*
X0046287Y0278227D02*
X0062071Y0278227D01*
X0062097Y0277629D02*
X0055880Y0277629D01*
X0056502Y0277030D02*
X0062401Y0277030D01*
X0062071Y0278826D02*
X0046344Y0278826D01*
X0046942Y0279424D02*
X0062071Y0279424D01*
X0062071Y0280621D02*
X0056340Y0280621D01*
X0056431Y0281220D02*
X0062071Y0281220D01*
X0062071Y0281818D02*
X0056431Y0281818D01*
X0056643Y0276432D02*
X0070603Y0276432D01*
X0070453Y0275833D02*
X0056643Y0275833D01*
X0056643Y0275235D02*
X0070453Y0275235D01*
X0070453Y0274636D02*
X0056643Y0274636D01*
X0056643Y0274038D02*
X0070453Y0274038D01*
X0070453Y0273439D02*
X0052100Y0273439D01*
X0052100Y0272841D02*
X0051500Y0272841D01*
X0051500Y0273439D02*
X0046287Y0273439D01*
X0047541Y0280023D02*
X0067894Y0280023D01*
X0067894Y0279424D02*
X0068494Y0279424D01*
X0068494Y0278826D02*
X0067894Y0278826D01*
X0067894Y0278227D02*
X0068494Y0278227D01*
X0068494Y0277629D02*
X0067894Y0277629D01*
X0067894Y0277030D02*
X0068494Y0277030D01*
X0068494Y0280023D02*
X0111496Y0280023D01*
X0111496Y0280621D02*
X0074317Y0280621D01*
X0074317Y0281220D02*
X0111496Y0281220D01*
X0111496Y0281818D02*
X0074317Y0281818D01*
X0074182Y0282417D02*
X0111627Y0282417D01*
X0111496Y0283015D02*
X0074104Y0283015D01*
X0074104Y0283614D02*
X0111496Y0283614D01*
X0111496Y0284212D02*
X0074104Y0284212D01*
X0074104Y0284811D02*
X0111496Y0284811D01*
X0111496Y0285409D02*
X0074104Y0285409D01*
X0074104Y0286008D02*
X0111496Y0286008D01*
X0111496Y0286606D02*
X0074104Y0286606D01*
X0074104Y0287205D02*
X0111496Y0287205D01*
X0111502Y0287803D02*
X0074098Y0287803D01*
X0074034Y0288402D02*
X0111566Y0288402D01*
X0111496Y0289001D02*
X0074104Y0289001D01*
X0074104Y0289599D02*
X0111496Y0289599D01*
X0111496Y0290198D02*
X0074104Y0290198D01*
X0074104Y0290796D02*
X0111496Y0290796D01*
X0111496Y0291395D02*
X0074104Y0291395D01*
X0074104Y0291993D02*
X0111496Y0291993D01*
X0111496Y0292592D02*
X0074104Y0292592D01*
X0074104Y0293190D02*
X0111496Y0293190D01*
X0111691Y0293789D02*
X0073909Y0293789D01*
X0074104Y0294387D02*
X0111496Y0294387D01*
X0111496Y0294986D02*
X0074104Y0294986D01*
X0074104Y0295584D02*
X0111496Y0295584D01*
X0111496Y0296183D02*
X0074104Y0296183D01*
X0074104Y0296781D02*
X0111496Y0296781D01*
X0111496Y0297380D02*
X0074104Y0297380D01*
X0074104Y0297978D02*
X0111496Y0297978D01*
X0111496Y0298577D02*
X0074104Y0298577D01*
X0073784Y0299175D02*
X0111527Y0299175D01*
X0111284Y0299774D02*
X0074104Y0299774D01*
X0074104Y0300372D02*
X0111283Y0300372D01*
X0111283Y0300971D02*
X0074104Y0300971D01*
X0074104Y0301569D02*
X0111283Y0301569D01*
X0117106Y0303365D02*
X0117706Y0303365D01*
X0117706Y0303963D02*
X0117106Y0303963D01*
X0123338Y0304562D02*
X0132563Y0304562D01*
X0132563Y0305160D02*
X0123317Y0305160D01*
X0123529Y0303963D02*
X0132563Y0303963D01*
X0132563Y0303365D02*
X0123529Y0303365D01*
X0123529Y0302766D02*
X0132847Y0302766D01*
X0115453Y0276432D02*
X0115214Y0276432D01*
X0115360Y0275833D02*
X0115453Y0275833D01*
X0115453Y0275235D02*
X0115360Y0275235D01*
X0115360Y0274636D02*
X0115453Y0274636D01*
X0115453Y0274038D02*
X0115360Y0274038D01*
X0115360Y0273439D02*
X0115453Y0273439D01*
X0115453Y0272841D02*
X0115360Y0272841D01*
X0115360Y0272242D02*
X0115453Y0272242D01*
X0115453Y0271644D02*
X0115360Y0271644D01*
X0115453Y0271045D02*
X0112391Y0271045D01*
X0112391Y0270447D02*
X0111791Y0270447D01*
X0111791Y0269848D02*
X0112391Y0269848D01*
X0112391Y0269250D02*
X0111791Y0269250D01*
X0111791Y0268651D02*
X0112391Y0268651D01*
X0112391Y0268053D02*
X0111791Y0268053D01*
X0111791Y0267454D02*
X0112391Y0267454D01*
X0112391Y0266856D02*
X0111791Y0266856D01*
X0111791Y0266257D02*
X0112391Y0266257D01*
X0112391Y0265659D02*
X0111791Y0265659D01*
X0111791Y0265060D02*
X0112391Y0265060D01*
X0114710Y0265060D02*
X0120342Y0265060D01*
X0119744Y0265659D02*
X0115257Y0265659D01*
X0115360Y0266257D02*
X0119145Y0266257D01*
X0118547Y0266856D02*
X0115360Y0266856D01*
X0115360Y0267454D02*
X0117948Y0267454D01*
X0117350Y0268053D02*
X0115360Y0268053D01*
X0115360Y0268651D02*
X0116751Y0268651D01*
X0116153Y0269250D02*
X0115360Y0269250D01*
X0115360Y0269848D02*
X0115554Y0269848D01*
X0115453Y0270447D02*
X0115360Y0270447D01*
X0112391Y0271644D02*
X0111791Y0271644D01*
X0111791Y0272242D02*
X0112391Y0272242D01*
X0112391Y0272841D02*
X0111791Y0272841D01*
X0111791Y0273439D02*
X0112391Y0273439D01*
X0112391Y0274038D02*
X0111791Y0274038D01*
X0111791Y0274636D02*
X0112391Y0274636D01*
X0112391Y0275235D02*
X0111791Y0275235D01*
X0111791Y0275833D02*
X0112391Y0275833D01*
X0112391Y0276432D02*
X0111791Y0276432D01*
X0111791Y0277030D02*
X0111914Y0277030D01*
X0111496Y0277629D02*
X0074290Y0277629D01*
X0074317Y0278227D02*
X0111496Y0278227D01*
X0111496Y0278826D02*
X0074317Y0278826D01*
X0074317Y0279424D02*
X0111496Y0279424D01*
X0109599Y0277030D02*
X0073987Y0277030D01*
X0070453Y0272841D02*
X0056643Y0272841D01*
X0056643Y0272242D02*
X0070453Y0272242D01*
X0070453Y0271644D02*
X0056643Y0271644D01*
X0056643Y0271045D02*
X0070453Y0271045D01*
X0070453Y0270447D02*
X0056643Y0270447D01*
X0056611Y0269848D02*
X0070453Y0269848D01*
X0070453Y0269250D02*
X0056293Y0269250D01*
X0052100Y0269250D02*
X0051500Y0269250D01*
X0051500Y0269848D02*
X0052100Y0269848D01*
X0052100Y0270447D02*
X0051500Y0270447D01*
X0051500Y0271045D02*
X0052100Y0271045D01*
X0052100Y0271644D02*
X0051500Y0271644D01*
X0051500Y0272242D02*
X0052100Y0272242D01*
X0052100Y0274038D02*
X0051500Y0274038D01*
X0051500Y0274636D02*
X0052100Y0274636D01*
X0052100Y0275235D02*
X0051500Y0275235D01*
X0051500Y0275833D02*
X0052100Y0275833D01*
X0052100Y0276432D02*
X0051500Y0276432D01*
X0051500Y0277030D02*
X0052100Y0277030D01*
X0052100Y0277629D02*
X0051500Y0277629D01*
X0045892Y0285409D02*
X0019234Y0285409D01*
X0019235Y0284811D02*
X0045293Y0284811D01*
X0044695Y0284212D02*
X0019236Y0284212D01*
X0019237Y0283614D02*
X0044096Y0283614D01*
X0043498Y0283015D02*
X0019238Y0283015D01*
X0019239Y0282417D02*
X0042899Y0282417D01*
X0042301Y0281818D02*
X0019239Y0281818D01*
X0019240Y0281220D02*
X0041702Y0281220D01*
X0041448Y0280621D02*
X0019241Y0280621D01*
X0019242Y0280023D02*
X0041313Y0280023D01*
X0041313Y0279424D02*
X0019243Y0279424D01*
X0019244Y0278826D02*
X0041313Y0278826D01*
X0041313Y0278227D02*
X0019245Y0278227D01*
X0019246Y0277629D02*
X0041313Y0277629D01*
X0041313Y0277030D02*
X0019247Y0277030D01*
X0019248Y0276432D02*
X0041313Y0276432D01*
X0041313Y0275833D02*
X0019249Y0275833D01*
X0019250Y0275235D02*
X0041313Y0275235D01*
X0041313Y0274636D02*
X0019251Y0274636D01*
X0019252Y0274038D02*
X0041313Y0274038D01*
X0041313Y0273439D02*
X0019253Y0273439D01*
X0019254Y0272841D02*
X0041313Y0272841D01*
X0041313Y0272242D02*
X0019255Y0272242D01*
X0019256Y0271644D02*
X0041313Y0271644D01*
X0041313Y0271045D02*
X0019257Y0271045D01*
X0019258Y0270447D02*
X0041313Y0270447D01*
X0041313Y0269848D02*
X0019259Y0269848D01*
X0019260Y0269250D02*
X0041313Y0269250D01*
X0041313Y0268651D02*
X0019261Y0268651D01*
X0019262Y0268053D02*
X0041313Y0268053D01*
X0041313Y0267454D02*
X0019263Y0267454D01*
X0019264Y0266856D02*
X0041313Y0266856D01*
X0041313Y0266257D02*
X0019265Y0266257D01*
X0019266Y0265659D02*
X0041313Y0265659D01*
X0041313Y0265060D02*
X0019267Y0265060D01*
X0019268Y0264462D02*
X0041313Y0264462D01*
X0041313Y0263863D02*
X0019269Y0263863D01*
X0019270Y0263265D02*
X0041313Y0263265D01*
X0041313Y0262666D02*
X0019271Y0262666D01*
X0019272Y0262068D02*
X0041313Y0262068D01*
X0041313Y0261469D02*
X0019273Y0261469D01*
X0019274Y0260870D02*
X0041313Y0260870D01*
X0041313Y0260272D02*
X0019275Y0260272D01*
X0019276Y0259673D02*
X0041313Y0259673D01*
X0041313Y0259075D02*
X0019277Y0259075D01*
X0019278Y0258476D02*
X0041313Y0258476D01*
X0041313Y0257878D02*
X0019279Y0257878D01*
X0019279Y0257279D02*
X0041313Y0257279D01*
X0041313Y0256681D02*
X0019280Y0256681D01*
X0019281Y0256082D02*
X0041313Y0256082D01*
X0041313Y0255484D02*
X0019282Y0255484D01*
X0019283Y0254885D02*
X0041313Y0254885D01*
X0041313Y0254287D02*
X0019284Y0254287D01*
X0019285Y0253688D02*
X0041313Y0253688D01*
X0041313Y0253090D02*
X0019286Y0253090D01*
X0019287Y0252491D02*
X0041313Y0252491D01*
X0041313Y0251893D02*
X0019288Y0251893D01*
X0019289Y0251294D02*
X0041313Y0251294D01*
X0041313Y0250696D02*
X0019290Y0250696D01*
X0019291Y0250097D02*
X0041313Y0250097D01*
X0041313Y0249499D02*
X0019292Y0249499D01*
X0019293Y0248900D02*
X0041313Y0248900D01*
X0041313Y0248302D02*
X0019294Y0248302D01*
X0019295Y0247703D02*
X0041313Y0247703D01*
X0041313Y0247105D02*
X0019296Y0247105D01*
X0019297Y0246506D02*
X0041313Y0246506D01*
X0041313Y0245908D02*
X0019298Y0245908D01*
X0019299Y0245309D02*
X0041313Y0245309D01*
X0041313Y0244711D02*
X0019300Y0244711D01*
X0019301Y0244112D02*
X0041313Y0244112D01*
X0041313Y0243514D02*
X0019302Y0243514D01*
X0019303Y0242915D02*
X0041313Y0242915D01*
X0041313Y0242317D02*
X0019304Y0242317D01*
X0019305Y0241718D02*
X0041313Y0241718D01*
X0041313Y0241120D02*
X0019306Y0241120D01*
X0019307Y0240521D02*
X0041313Y0240521D01*
X0041313Y0239923D02*
X0019308Y0239923D01*
X0019309Y0239324D02*
X0041313Y0239324D01*
X0041313Y0238726D02*
X0019310Y0238726D01*
X0019311Y0238127D02*
X0041313Y0238127D01*
X0041313Y0237529D02*
X0019312Y0237529D01*
X0019313Y0236930D02*
X0041313Y0236930D01*
X0041313Y0236332D02*
X0019314Y0236332D01*
X0019315Y0235733D02*
X0041313Y0235733D01*
X0041313Y0235134D02*
X0019316Y0235134D01*
X0019317Y0234536D02*
X0041313Y0234536D01*
X0041313Y0233937D02*
X0019318Y0233937D01*
X0019319Y0233339D02*
X0041313Y0233339D01*
X0041313Y0232740D02*
X0019320Y0232740D01*
X0019320Y0232142D02*
X0041313Y0232142D01*
X0041313Y0231543D02*
X0019321Y0231543D01*
X0019322Y0230945D02*
X0041313Y0230945D01*
X0041313Y0230346D02*
X0019323Y0230346D01*
X0019324Y0229748D02*
X0041313Y0229748D01*
X0041313Y0229149D02*
X0019325Y0229149D01*
X0019326Y0228551D02*
X0041313Y0228551D01*
X0041313Y0227952D02*
X0019327Y0227952D01*
X0019328Y0227354D02*
X0041313Y0227354D01*
X0041313Y0226755D02*
X0019329Y0226755D01*
X0019330Y0226157D02*
X0041313Y0226157D01*
X0041313Y0225558D02*
X0019331Y0225558D01*
X0019332Y0224960D02*
X0041313Y0224960D01*
X0041313Y0224361D02*
X0019333Y0224361D01*
X0019334Y0223763D02*
X0041313Y0223763D01*
X0041313Y0223164D02*
X0019335Y0223164D01*
X0019336Y0222566D02*
X0041313Y0222566D01*
X0041313Y0221967D02*
X0019337Y0221967D01*
X0019338Y0221369D02*
X0041313Y0221369D01*
X0041313Y0220770D02*
X0019339Y0220770D01*
X0019340Y0220172D02*
X0041313Y0220172D01*
X0041313Y0219573D02*
X0019341Y0219573D01*
X0019342Y0218975D02*
X0041313Y0218975D01*
X0041313Y0218376D02*
X0019343Y0218376D01*
X0019344Y0217778D02*
X0041313Y0217778D01*
X0041313Y0217179D02*
X0019345Y0217179D01*
X0019346Y0216581D02*
X0041313Y0216581D01*
X0041313Y0215982D02*
X0019347Y0215982D01*
X0019348Y0215384D02*
X0041313Y0215384D01*
X0041313Y0214785D02*
X0019349Y0214785D01*
X0019350Y0214187D02*
X0041313Y0214187D01*
X0041313Y0213588D02*
X0019351Y0213588D01*
X0019352Y0212990D02*
X0041313Y0212990D01*
X0041313Y0212391D02*
X0019353Y0212391D01*
X0019354Y0211793D02*
X0041313Y0211793D01*
X0041313Y0211194D02*
X0019355Y0211194D01*
X0019356Y0210596D02*
X0041313Y0210596D01*
X0041313Y0209997D02*
X0019357Y0209997D01*
X0019358Y0209399D02*
X0041313Y0209399D01*
X0041313Y0208800D02*
X0019359Y0208800D01*
X0019359Y0208201D02*
X0041313Y0208201D01*
X0041313Y0207603D02*
X0019360Y0207603D01*
X0019361Y0207004D02*
X0041313Y0207004D01*
X0041313Y0206406D02*
X0019362Y0206406D01*
X0019363Y0205807D02*
X0041313Y0205807D01*
X0041313Y0205209D02*
X0019364Y0205209D01*
X0019365Y0204610D02*
X0041313Y0204610D01*
X0041313Y0204012D02*
X0019366Y0204012D01*
X0019367Y0203413D02*
X0041313Y0203413D01*
X0041313Y0202815D02*
X0019368Y0202815D01*
X0019369Y0202216D02*
X0041313Y0202216D01*
X0041313Y0201618D02*
X0019370Y0201618D01*
X0019371Y0201019D02*
X0041313Y0201019D01*
X0041313Y0200421D02*
X0019372Y0200421D01*
X0019373Y0199822D02*
X0041313Y0199822D01*
X0041313Y0199224D02*
X0019374Y0199224D01*
X0019375Y0198625D02*
X0041313Y0198625D01*
X0041313Y0198027D02*
X0019376Y0198027D01*
X0019377Y0197428D02*
X0041313Y0197428D01*
X0041313Y0196830D02*
X0019378Y0196830D01*
X0019379Y0196231D02*
X0041313Y0196231D01*
X0041313Y0195633D02*
X0019380Y0195633D01*
X0019381Y0195034D02*
X0041313Y0195034D01*
X0041313Y0194436D02*
X0019382Y0194436D01*
X0019383Y0193837D02*
X0041313Y0193837D01*
X0041313Y0193239D02*
X0019384Y0193239D01*
X0019385Y0192640D02*
X0041313Y0192640D01*
X0041313Y0192042D02*
X0019386Y0192042D01*
X0019387Y0191443D02*
X0041313Y0191443D01*
X0041313Y0190845D02*
X0019388Y0190845D01*
X0019389Y0190246D02*
X0041313Y0190246D01*
X0041313Y0189648D02*
X0019390Y0189648D01*
X0019391Y0189049D02*
X0041313Y0189049D01*
X0041313Y0188451D02*
X0019392Y0188451D01*
X0019393Y0187852D02*
X0041313Y0187852D01*
X0041313Y0187254D02*
X0019394Y0187254D01*
X0019395Y0186655D02*
X0041313Y0186655D01*
X0041313Y0186057D02*
X0019396Y0186057D01*
X0019397Y0185458D02*
X0041313Y0185458D01*
X0041313Y0184860D02*
X0019398Y0184860D01*
X0019399Y0184261D02*
X0041313Y0184261D01*
X0041313Y0183663D02*
X0019400Y0183663D01*
X0019400Y0183064D02*
X0041313Y0183064D01*
X0041313Y0182466D02*
X0019401Y0182466D01*
X0019402Y0181867D02*
X0041313Y0181867D01*
X0041313Y0181268D02*
X0019403Y0181268D01*
X0019404Y0180670D02*
X0041313Y0180670D01*
X0041313Y0180071D02*
X0019405Y0180071D01*
X0019406Y0179473D02*
X0041313Y0179473D01*
X0041313Y0178874D02*
X0019407Y0178874D01*
X0019408Y0178276D02*
X0041313Y0178276D01*
X0041313Y0177677D02*
X0019409Y0177677D01*
X0019410Y0177079D02*
X0041313Y0177079D01*
X0041313Y0176480D02*
X0019411Y0176480D01*
X0019412Y0175882D02*
X0041313Y0175882D01*
X0041313Y0175283D02*
X0019413Y0175283D01*
X0019414Y0174685D02*
X0041313Y0174685D01*
X0041313Y0174086D02*
X0019415Y0174086D01*
X0019416Y0173488D02*
X0041313Y0173488D01*
X0041313Y0172889D02*
X0019417Y0172889D01*
X0019418Y0172291D02*
X0041313Y0172291D01*
X0041313Y0171692D02*
X0019419Y0171692D01*
X0019420Y0171094D02*
X0041313Y0171094D01*
X0041313Y0170495D02*
X0019421Y0170495D01*
X0019422Y0169897D02*
X0041313Y0169897D01*
X0041313Y0169298D02*
X0019423Y0169298D01*
X0019424Y0168700D02*
X0041313Y0168700D01*
X0041313Y0168101D02*
X0019425Y0168101D01*
X0019426Y0167503D02*
X0041313Y0167503D01*
X0041313Y0166904D02*
X0019427Y0166904D01*
X0019428Y0166306D02*
X0041313Y0166306D01*
X0041313Y0165707D02*
X0019429Y0165707D01*
X0019430Y0165109D02*
X0041313Y0165109D01*
X0041313Y0164510D02*
X0019431Y0164510D01*
X0019432Y0163912D02*
X0041313Y0163912D01*
X0041313Y0163313D02*
X0019433Y0163313D01*
X0019434Y0162715D02*
X0041313Y0162715D01*
X0041313Y0162116D02*
X0019435Y0162116D01*
X0019436Y0161518D02*
X0041313Y0161518D01*
X0041313Y0160919D02*
X0019437Y0160919D01*
X0019438Y0160321D02*
X0041313Y0160321D01*
X0041313Y0159722D02*
X0019439Y0159722D01*
X0019440Y0159124D02*
X0041313Y0159124D01*
X0041313Y0158525D02*
X0019440Y0158525D01*
X0019441Y0157927D02*
X0041313Y0157927D01*
X0041313Y0157328D02*
X0019442Y0157328D01*
X0019443Y0156730D02*
X0041313Y0156730D01*
X0041313Y0156131D02*
X0019444Y0156131D01*
X0019445Y0155532D02*
X0041313Y0155532D01*
X0041313Y0154934D02*
X0019446Y0154934D01*
X0019447Y0154335D02*
X0041313Y0154335D01*
X0041313Y0153737D02*
X0019448Y0153737D01*
X0019449Y0153138D02*
X0041313Y0153138D01*
X0041313Y0152540D02*
X0019450Y0152540D01*
X0019451Y0151941D02*
X0041313Y0151941D01*
X0041313Y0151343D02*
X0019452Y0151343D01*
X0019453Y0150744D02*
X0041313Y0150744D01*
X0041313Y0150146D02*
X0019454Y0150146D01*
X0019455Y0149547D02*
X0041313Y0149547D01*
X0041313Y0148949D02*
X0019456Y0148949D01*
X0019457Y0148350D02*
X0041313Y0148350D01*
X0041313Y0147752D02*
X0019458Y0147752D01*
X0019459Y0147153D02*
X0041313Y0147153D01*
X0041313Y0146555D02*
X0019460Y0146555D01*
X0019461Y0145956D02*
X0041313Y0145956D01*
X0041313Y0145358D02*
X0019462Y0145358D01*
X0019463Y0144759D02*
X0041313Y0144759D01*
X0041313Y0144161D02*
X0019464Y0144161D01*
X0019465Y0143562D02*
X0041313Y0143562D01*
X0041313Y0142964D02*
X0019466Y0142964D01*
X0019467Y0142365D02*
X0041313Y0142365D01*
X0041313Y0141767D02*
X0019468Y0141767D01*
X0019469Y0141168D02*
X0041313Y0141168D01*
X0041313Y0140570D02*
X0019470Y0140570D01*
X0019471Y0139971D02*
X0041313Y0139971D01*
X0041313Y0139373D02*
X0019472Y0139373D01*
X0019473Y0138774D02*
X0041313Y0138774D01*
X0041313Y0138176D02*
X0019474Y0138176D01*
X0019475Y0137577D02*
X0041313Y0137577D01*
X0041313Y0136979D02*
X0019476Y0136979D01*
X0019477Y0136380D02*
X0041313Y0136380D01*
X0041313Y0135782D02*
X0019478Y0135782D01*
X0019479Y0135183D02*
X0041313Y0135183D01*
X0041313Y0134585D02*
X0019480Y0134585D01*
X0019480Y0133986D02*
X0041313Y0133986D01*
X0041313Y0133388D02*
X0019481Y0133388D01*
X0019482Y0132789D02*
X0041313Y0132789D01*
X0041313Y0132191D02*
X0019483Y0132191D01*
X0019484Y0131592D02*
X0041313Y0131592D01*
X0041313Y0130994D02*
X0019485Y0130994D01*
X0019486Y0130395D02*
X0041313Y0130395D01*
X0041313Y0129797D02*
X0019487Y0129797D01*
X0019488Y0129198D02*
X0041313Y0129198D01*
X0041313Y0128599D02*
X0019489Y0128599D01*
X0019490Y0128001D02*
X0041313Y0128001D01*
X0041313Y0127402D02*
X0019491Y0127402D01*
X0019492Y0126804D02*
X0041313Y0126804D01*
X0041313Y0126205D02*
X0019493Y0126205D01*
X0019494Y0125607D02*
X0041313Y0125607D01*
X0041313Y0125008D02*
X0019495Y0125008D01*
X0019496Y0124410D02*
X0041313Y0124410D01*
X0041313Y0123811D02*
X0019497Y0123811D01*
X0019498Y0123213D02*
X0041313Y0123213D01*
X0041313Y0122614D02*
X0019499Y0122614D01*
X0019500Y0122016D02*
X0041313Y0122016D01*
X0041313Y0121417D02*
X0019501Y0121417D01*
X0019502Y0120819D02*
X0041313Y0120819D01*
X0041313Y0120220D02*
X0019503Y0120220D01*
X0019504Y0119622D02*
X0041313Y0119622D01*
X0041313Y0119023D02*
X0019505Y0119023D01*
X0019506Y0118425D02*
X0041313Y0118425D01*
X0041313Y0117826D02*
X0019507Y0117826D01*
X0019508Y0117228D02*
X0041313Y0117228D01*
X0041332Y0116629D02*
X0019509Y0116629D01*
X0019510Y0116031D02*
X0041580Y0116031D01*
X0042020Y0115432D02*
X0019511Y0115432D01*
X0019512Y0114834D02*
X0042619Y0114834D01*
X0043217Y0114235D02*
X0019513Y0114235D01*
X0019514Y0113637D02*
X0043816Y0113637D01*
X0044414Y0113038D02*
X0019515Y0113038D01*
X0019516Y0112440D02*
X0044638Y0112440D01*
X0044638Y0111841D02*
X0019517Y0111841D01*
X0019518Y0111243D02*
X0044638Y0111243D01*
X0044638Y0110644D02*
X0019519Y0110644D01*
X0019520Y0110046D02*
X0044638Y0110046D01*
X0044638Y0109447D02*
X0019520Y0109447D01*
X0019521Y0108849D02*
X0044638Y0108849D01*
X0044638Y0108250D02*
X0019522Y0108250D01*
X0019523Y0107652D02*
X0044638Y0107652D01*
X0044638Y0107053D02*
X0019524Y0107053D01*
X0019525Y0106455D02*
X0044638Y0106455D01*
X0044809Y0105856D02*
X0019526Y0105856D01*
X0019527Y0105258D02*
X0045078Y0105258D01*
X0045676Y0104659D02*
X0019528Y0104659D01*
X0019529Y0104061D02*
X0046275Y0104061D01*
X0046873Y0103462D02*
X0019530Y0103462D01*
X0019531Y0102863D02*
X0047472Y0102863D01*
X0048070Y0102265D02*
X0019532Y0102265D01*
X0019533Y0101666D02*
X0048669Y0101666D01*
X0049267Y0101068D02*
X0019534Y0101068D01*
X0019535Y0100469D02*
X0049866Y0100469D01*
X0050464Y0099871D02*
X0019536Y0099871D01*
X0019537Y0099272D02*
X0051063Y0099272D01*
X0051661Y0098674D02*
X0019538Y0098674D01*
X0019539Y0098075D02*
X0052260Y0098075D01*
X0052858Y0097477D02*
X0019540Y0097477D01*
X0019541Y0096878D02*
X0053457Y0096878D01*
X0053813Y0096280D02*
X0019542Y0096280D01*
X0019543Y0095681D02*
X0053864Y0095681D01*
X0054112Y0095083D02*
X0019544Y0095083D01*
X0019545Y0094484D02*
X0054598Y0094484D01*
X0055196Y0093886D02*
X0019546Y0093886D01*
X0019547Y0093287D02*
X0055795Y0093287D01*
X0056138Y0092689D02*
X0019548Y0092689D01*
X0019549Y0092090D02*
X0056138Y0092090D01*
X0056138Y0091492D02*
X0019550Y0091492D01*
X0019551Y0090893D02*
X0056138Y0090893D01*
X0056138Y0090295D02*
X0019552Y0090295D01*
X0019553Y0089696D02*
X0056138Y0089696D01*
X0056138Y0089098D02*
X0019554Y0089098D01*
X0019555Y0088499D02*
X0056138Y0088499D01*
X0056138Y0087901D02*
X0019556Y0087901D01*
X0019557Y0087302D02*
X0056138Y0087302D01*
X0056138Y0086704D02*
X0019558Y0086704D01*
X0019559Y0086105D02*
X0056138Y0086105D01*
X0056138Y0085507D02*
X0019560Y0085507D01*
X0019561Y0084908D02*
X0056138Y0084908D01*
X0056138Y0084310D02*
X0019561Y0084310D01*
X0019562Y0083711D02*
X0056138Y0083711D01*
X0056138Y0083113D02*
X0019563Y0083113D01*
X0019564Y0082514D02*
X0056138Y0082514D01*
X0056138Y0081916D02*
X0019565Y0081916D01*
X0019566Y0081317D02*
X0056326Y0081317D01*
X0056616Y0080719D02*
X0019567Y0080719D01*
X0019568Y0080120D02*
X0057215Y0080120D01*
X0057814Y0079522D02*
X0019569Y0079522D01*
X0019570Y0078923D02*
X0058412Y0078923D01*
X0059011Y0078325D02*
X0019571Y0078325D01*
X0028089Y0077726D02*
X0059609Y0077726D01*
X0060208Y0077128D02*
X0028628Y0077128D01*
X0028628Y0076529D02*
X0060806Y0076529D01*
X0061405Y0075930D02*
X0028628Y0075930D01*
X0028628Y0075332D02*
X0062003Y0075332D01*
X0062602Y0074733D02*
X0028628Y0074733D01*
X0028628Y0074135D02*
X0063200Y0074135D01*
X0063799Y0073536D02*
X0028628Y0073536D01*
X0028628Y0072938D02*
X0064397Y0072938D01*
X0064996Y0072339D02*
X0039127Y0072339D01*
X0040209Y0071741D02*
X0065594Y0071741D01*
X0066193Y0071142D02*
X0040807Y0071142D01*
X0041125Y0070544D02*
X0066791Y0070544D01*
X0067390Y0069945D02*
X0041373Y0069945D01*
X0041454Y0069347D02*
X0067988Y0069347D01*
X0068587Y0068748D02*
X0041454Y0068748D01*
X0041363Y0068150D02*
X0069185Y0068150D01*
X0069784Y0067551D02*
X0041115Y0067551D01*
X0040783Y0066953D02*
X0070382Y0066953D01*
X0070981Y0066354D02*
X0040184Y0066354D01*
X0039068Y0065756D02*
X0071579Y0065756D01*
X0072178Y0065157D02*
X0038781Y0065157D01*
X0038781Y0064559D02*
X0072776Y0064559D01*
X0073375Y0063960D02*
X0038595Y0063960D01*
X0038568Y0063362D02*
X0073973Y0063362D01*
X0074572Y0062763D02*
X0038568Y0062763D01*
X0038568Y0062165D02*
X0075170Y0062165D01*
X0075769Y0061566D02*
X0038540Y0061566D01*
X0038568Y0060968D02*
X0076367Y0060968D01*
X0076966Y0060369D02*
X0038568Y0060369D01*
X0038568Y0059771D02*
X0077564Y0059771D01*
X0078687Y0059172D02*
X0038568Y0059172D01*
X0038568Y0058574D02*
X0095685Y0058574D01*
X0096284Y0057975D02*
X0038568Y0057975D01*
X0038568Y0057377D02*
X0096882Y0057377D01*
X0097136Y0056778D02*
X0057491Y0056778D01*
X0058090Y0056180D02*
X0096538Y0056180D01*
X0095939Y0055581D02*
X0058688Y0055581D01*
X0059287Y0054983D02*
X0095341Y0054983D01*
X0094742Y0054384D02*
X0059885Y0054384D01*
X0060484Y0053786D02*
X0094250Y0053786D01*
X0094250Y0053187D02*
X0061082Y0053187D01*
X0061681Y0052589D02*
X0094250Y0052589D01*
X0099000Y0052589D02*
X0099600Y0052589D01*
X0099600Y0053187D02*
X0099000Y0053187D01*
X0099000Y0053786D02*
X0099600Y0053786D01*
X0099600Y0054384D02*
X0099000Y0054384D01*
X0099000Y0054983D02*
X0099600Y0054983D01*
X0099600Y0055581D02*
X0099000Y0055581D01*
X0099000Y0056180D02*
X0099600Y0056180D01*
X0099600Y0056778D02*
X0099000Y0056778D01*
X0101464Y0056778D02*
X0134513Y0056778D01*
X0134513Y0056180D02*
X0102062Y0056180D01*
X0102661Y0055581D02*
X0134714Y0055581D01*
X0134962Y0054983D02*
X0103259Y0054983D01*
X0103858Y0054384D02*
X0135401Y0054384D01*
X0136000Y0053786D02*
X0104350Y0053786D01*
X0104350Y0053187D02*
X0137287Y0053187D01*
X0134513Y0057377D02*
X0101718Y0057377D01*
X0102316Y0057975D02*
X0134696Y0057975D01*
X0134943Y0058574D02*
X0102915Y0058574D01*
X0103513Y0059172D02*
X0135357Y0059172D01*
X0135956Y0059771D02*
X0104112Y0059771D01*
X0104137Y0060369D02*
X0137181Y0060369D01*
X0136865Y0063362D02*
X0104137Y0063362D01*
X0104137Y0062763D02*
X0166768Y0062763D01*
X0166769Y0062165D02*
X0104137Y0062165D01*
X0104137Y0061566D02*
X0166770Y0061566D01*
X0166771Y0060968D02*
X0104137Y0060968D01*
X0103981Y0063960D02*
X0135825Y0063960D01*
X0135226Y0064559D02*
X0103382Y0064559D01*
X0102784Y0065157D02*
X0134889Y0065157D01*
X0134641Y0065756D02*
X0102185Y0065756D01*
X0101587Y0066354D02*
X0134513Y0066354D01*
X0134513Y0066953D02*
X0077912Y0066953D01*
X0077314Y0067551D02*
X0134520Y0067551D01*
X0134768Y0068150D02*
X0076715Y0068150D01*
X0076117Y0068748D02*
X0135016Y0068748D01*
X0135532Y0069347D02*
X0075518Y0069347D01*
X0074920Y0069945D02*
X0136158Y0069945D01*
X0144134Y0083113D02*
X0166735Y0083113D01*
X0166734Y0083711D02*
X0145526Y0083711D01*
X0146124Y0084310D02*
X0166733Y0084310D01*
X0166732Y0084908D02*
X0146608Y0084908D01*
X0146855Y0085507D02*
X0166731Y0085507D01*
X0166730Y0086105D02*
X0147087Y0086105D01*
X0147087Y0086704D02*
X0166729Y0086704D01*
X0166728Y0087302D02*
X0147087Y0087302D01*
X0146935Y0087901D02*
X0166727Y0087901D01*
X0166726Y0088499D02*
X0146687Y0088499D01*
X0146317Y0089098D02*
X0166725Y0089098D01*
X0166724Y0089696D02*
X0145719Y0089696D01*
X0145020Y0080120D02*
X0166740Y0080120D01*
X0166741Y0079522D02*
X0145893Y0079522D01*
X0146492Y0078923D02*
X0166742Y0078923D01*
X0166743Y0078325D02*
X0146760Y0078325D01*
X0147008Y0077726D02*
X0166744Y0077726D01*
X0166745Y0077128D02*
X0147087Y0077128D01*
X0147087Y0076529D02*
X0166746Y0076529D01*
X0166747Y0075930D02*
X0147031Y0075930D01*
X0146783Y0075332D02*
X0166748Y0075332D01*
X0166749Y0074733D02*
X0146535Y0074733D01*
X0145950Y0074135D02*
X0166750Y0074135D01*
X0166753Y0072339D02*
X0072525Y0072339D01*
X0073124Y0071741D02*
X0166754Y0071741D01*
X0166755Y0071142D02*
X0073723Y0071142D01*
X0074321Y0070544D02*
X0166756Y0070544D01*
X0166684Y0114235D02*
X0126338Y0114235D01*
X0126103Y0114138D02*
X0127449Y0114695D01*
X0128479Y0115726D01*
X0129037Y0117072D01*
X0129037Y0118528D01*
X0128479Y0119874D01*
X0127449Y0120905D01*
X0126103Y0121462D01*
X0119497Y0121462D01*
X0118151Y0120905D01*
X0117121Y0119874D01*
X0116563Y0118528D01*
X0116563Y0117072D01*
X0117121Y0115726D01*
X0118151Y0114695D01*
X0119497Y0114138D01*
X0126103Y0114138D01*
X0127588Y0114834D02*
X0166683Y0114834D01*
X0166682Y0115432D02*
X0128186Y0115432D01*
X0128606Y0116031D02*
X0166681Y0116031D01*
X0166680Y0116629D02*
X0128854Y0116629D01*
X0129037Y0117228D02*
X0166679Y0117228D01*
X0166678Y0117826D02*
X0129037Y0117826D01*
X0129037Y0118425D02*
X0166678Y0118425D01*
X0166677Y0119023D02*
X0128832Y0119023D01*
X0128584Y0119622D02*
X0166676Y0119622D01*
X0166675Y0120220D02*
X0128134Y0120220D01*
X0127535Y0120819D02*
X0166674Y0120819D01*
X0166673Y0121417D02*
X0126212Y0121417D01*
X0125756Y0123925D02*
X0123100Y0123925D01*
X0123100Y0127500D01*
X0123100Y0128100D01*
X0122500Y0128100D01*
X0122500Y0131675D01*
X0119844Y0131675D01*
X0119095Y0131526D01*
X0118390Y0131234D01*
X0117755Y0130810D01*
X0117215Y0130270D01*
X0116791Y0129635D01*
X0116499Y0128930D01*
X0116350Y0128182D01*
X0116350Y0128100D01*
X0122500Y0128100D01*
X0122500Y0127500D01*
X0123100Y0127500D01*
X0129250Y0127500D01*
X0129250Y0127418D01*
X0129101Y0126670D01*
X0128809Y0125965D01*
X0128385Y0125330D01*
X0127845Y0124790D01*
X0127210Y0124366D01*
X0126505Y0124074D01*
X0125756Y0123925D01*
X0127276Y0124410D02*
X0166668Y0124410D01*
X0166667Y0125008D02*
X0128063Y0125008D01*
X0128570Y0125607D02*
X0166666Y0125607D01*
X0166665Y0126205D02*
X0128908Y0126205D01*
X0129127Y0126804D02*
X0166664Y0126804D01*
X0166663Y0127402D02*
X0129246Y0127402D01*
X0129250Y0128100D02*
X0129250Y0128182D01*
X0129101Y0128930D01*
X0128809Y0129635D01*
X0128385Y0130270D01*
X0127845Y0130810D01*
X0127210Y0131234D01*
X0126505Y0131526D01*
X0125756Y0131675D01*
X0123100Y0131675D01*
X0123100Y0128100D01*
X0129250Y0128100D01*
X0129166Y0128599D02*
X0166661Y0128599D01*
X0166662Y0128001D02*
X0123100Y0128001D01*
X0123100Y0128599D02*
X0122500Y0128599D01*
X0122500Y0128001D02*
X0069037Y0128001D01*
X0069037Y0127402D02*
X0116354Y0127402D01*
X0116350Y0127418D02*
X0116499Y0126670D01*
X0116791Y0125965D01*
X0117215Y0125330D01*
X0117755Y0124790D01*
X0118390Y0124366D01*
X0119095Y0124074D01*
X0119844Y0123925D01*
X0122500Y0123925D01*
X0122500Y0127500D01*
X0116350Y0127500D01*
X0116350Y0127418D01*
X0116473Y0126804D02*
X0068926Y0126804D01*
X0068678Y0126205D02*
X0116692Y0126205D01*
X0117030Y0125607D02*
X0068361Y0125607D01*
X0067762Y0125008D02*
X0117537Y0125008D01*
X0118324Y0124410D02*
X0066760Y0124410D01*
X0066212Y0121417D02*
X0119388Y0121417D01*
X0118065Y0120819D02*
X0067535Y0120819D01*
X0068134Y0120220D02*
X0117466Y0120220D01*
X0117016Y0119622D02*
X0068584Y0119622D01*
X0068832Y0119023D02*
X0116768Y0119023D01*
X0116563Y0118425D02*
X0069037Y0118425D01*
X0069037Y0117826D02*
X0116563Y0117826D01*
X0116563Y0117228D02*
X0069037Y0117228D01*
X0068854Y0116629D02*
X0116746Y0116629D01*
X0116994Y0116031D02*
X0068606Y0116031D01*
X0068186Y0115432D02*
X0117414Y0115432D01*
X0118012Y0114834D02*
X0067588Y0114834D01*
X0066338Y0114235D02*
X0119262Y0114235D01*
X0118967Y0111243D02*
X0067189Y0111243D01*
X0068010Y0110644D02*
X0117890Y0110644D01*
X0117292Y0110046D02*
X0068534Y0110046D01*
X0068887Y0109447D02*
X0116944Y0109447D01*
X0116696Y0108849D02*
X0069117Y0108849D01*
X0069236Y0108250D02*
X0116563Y0108250D01*
X0122500Y0124410D02*
X0123100Y0124410D01*
X0123100Y0125008D02*
X0122500Y0125008D01*
X0122500Y0125607D02*
X0123100Y0125607D01*
X0123100Y0126205D02*
X0122500Y0126205D01*
X0122500Y0126804D02*
X0123100Y0126804D01*
X0123100Y0127402D02*
X0122500Y0127402D01*
X0122500Y0129198D02*
X0123100Y0129198D01*
X0123100Y0129797D02*
X0122500Y0129797D01*
X0122500Y0130395D02*
X0123100Y0130395D01*
X0123100Y0130994D02*
X0122500Y0130994D01*
X0122500Y0131592D02*
X0123100Y0131592D01*
X0126172Y0131592D02*
X0166656Y0131592D01*
X0166657Y0130994D02*
X0127570Y0130994D01*
X0128260Y0130395D02*
X0166658Y0130395D01*
X0166659Y0129797D02*
X0128701Y0129797D01*
X0128990Y0129198D02*
X0166660Y0129198D01*
X0166655Y0132191D02*
X0084037Y0132191D01*
X0084037Y0132789D02*
X0166654Y0132789D01*
X0166669Y0123811D02*
X0046287Y0123811D01*
X0046287Y0123213D02*
X0166670Y0123213D01*
X0166671Y0122614D02*
X0046287Y0122614D01*
X0046287Y0122016D02*
X0166672Y0122016D01*
X0166636Y0144161D02*
X0132113Y0144161D01*
X0132711Y0144759D02*
X0166635Y0144759D01*
X0145361Y0163313D02*
X0046287Y0163313D01*
X0046287Y0162715D02*
X0144763Y0162715D01*
X0144164Y0162116D02*
X0046287Y0162116D01*
X0046287Y0161518D02*
X0143566Y0161518D01*
X0135785Y0153737D02*
X0046287Y0153737D01*
X0046287Y0154335D02*
X0059019Y0154335D01*
X0057912Y0154934D02*
X0046287Y0154934D01*
X0046287Y0155532D02*
X0057314Y0155532D01*
X0056953Y0156131D02*
X0046287Y0156131D01*
X0046287Y0156730D02*
X0056705Y0156730D01*
X0056563Y0157328D02*
X0046287Y0157328D01*
X0046287Y0157927D02*
X0056563Y0157927D01*
X0056563Y0158525D02*
X0046287Y0158525D01*
X0046287Y0159124D02*
X0056809Y0159124D01*
X0057057Y0159722D02*
X0046287Y0159722D01*
X0046287Y0160321D02*
X0057567Y0160321D01*
X0058186Y0160919D02*
X0046287Y0160919D01*
X0046287Y0153138D02*
X0135186Y0153138D01*
X0134588Y0152540D02*
X0046287Y0152540D01*
X0046287Y0143562D02*
X0071577Y0143562D01*
X0071563Y0142964D02*
X0046287Y0142964D01*
X0046287Y0142365D02*
X0071563Y0142365D01*
X0071689Y0141767D02*
X0046287Y0141767D01*
X0046287Y0133986D02*
X0071753Y0133986D01*
X0071563Y0133388D02*
X0046287Y0133388D01*
X0046287Y0132789D02*
X0071563Y0132789D01*
X0071563Y0132191D02*
X0046287Y0132191D01*
X0046287Y0131592D02*
X0071762Y0131592D01*
X0072009Y0130994D02*
X0067235Y0130994D01*
X0067959Y0130395D02*
X0072451Y0130395D01*
X0073050Y0129797D02*
X0068512Y0129797D01*
X0068760Y0129198D02*
X0074351Y0129198D01*
X0072000Y0134585D02*
X0067182Y0134585D01*
X0067937Y0135183D02*
X0072429Y0135183D01*
X0073028Y0135782D02*
X0068503Y0135782D01*
X0068751Y0136380D02*
X0074299Y0136380D01*
X0073930Y0139373D02*
X0068687Y0139373D01*
X0068383Y0139971D02*
X0072875Y0139971D01*
X0072276Y0140570D02*
X0067784Y0140570D01*
X0066813Y0141168D02*
X0071937Y0141168D01*
X0071825Y0144161D02*
X0066159Y0144161D01*
X0067513Y0144759D02*
X0072073Y0144759D01*
X0072604Y0145358D02*
X0068112Y0145358D01*
X0068575Y0145956D02*
X0073275Y0145956D01*
X0083838Y0131592D02*
X0119428Y0131592D01*
X0118030Y0130994D02*
X0083590Y0130994D01*
X0083149Y0130395D02*
X0117340Y0130395D01*
X0116899Y0129797D02*
X0082550Y0129797D01*
X0081249Y0129198D02*
X0116610Y0129198D01*
X0116434Y0128599D02*
X0069008Y0128599D01*
X0063100Y0111243D02*
X0062500Y0111243D01*
X0062500Y0110644D02*
X0063100Y0110644D01*
X0063100Y0110046D02*
X0062500Y0110046D01*
X0062500Y0109447D02*
X0063100Y0109447D01*
X0063100Y0108849D02*
X0062500Y0108849D01*
X0062500Y0107500D02*
X0056350Y0107500D01*
X0056350Y0107418D01*
X0056499Y0106670D01*
X0056791Y0105965D01*
X0057215Y0105330D01*
X0057755Y0104790D01*
X0058390Y0104366D01*
X0059095Y0104074D01*
X0059844Y0103925D01*
X0062500Y0103925D01*
X0062500Y0107500D01*
X0062500Y0107053D02*
X0063100Y0107053D01*
X0063100Y0106455D02*
X0062500Y0106455D01*
X0062500Y0105856D02*
X0063100Y0105856D01*
X0063100Y0105258D02*
X0062500Y0105258D01*
X0062500Y0104659D02*
X0063100Y0104659D01*
X0063100Y0104061D02*
X0062500Y0104061D01*
X0059163Y0104061D02*
X0053804Y0104061D01*
X0053206Y0104659D02*
X0057952Y0104659D01*
X0057288Y0105258D02*
X0052607Y0105258D01*
X0052009Y0105856D02*
X0056864Y0105856D01*
X0056588Y0106455D02*
X0051410Y0106455D01*
X0050812Y0107053D02*
X0056423Y0107053D01*
X0078511Y0066354D02*
X0097013Y0066354D01*
X0096415Y0065756D02*
X0079109Y0065756D01*
X0079708Y0065157D02*
X0095816Y0065157D01*
X0095218Y0064559D02*
X0080306Y0064559D01*
X0068312Y0040618D02*
X0026689Y0040618D01*
X0027957Y0041217D02*
X0067714Y0041217D01*
X0067115Y0041815D02*
X0028556Y0041815D01*
X0028919Y0042414D02*
X0066517Y0042414D01*
X0065918Y0043012D02*
X0029167Y0043012D01*
X0029250Y0043611D02*
X0065320Y0043611D01*
X0064721Y0044209D02*
X0029250Y0044209D01*
X0029128Y0044808D02*
X0064123Y0044808D01*
X0063524Y0045406D02*
X0028880Y0045406D01*
X0028628Y0046005D02*
X0062926Y0046005D01*
X0062327Y0046603D02*
X0028628Y0046603D01*
X0028628Y0047202D02*
X0061729Y0047202D01*
X0061130Y0047800D02*
X0028628Y0047800D01*
X0028628Y0048399D02*
X0031761Y0048399D01*
X0030875Y0048997D02*
X0028628Y0048997D01*
X0028628Y0049596D02*
X0030287Y0049596D01*
X0030040Y0050195D02*
X0028628Y0050195D01*
X0028349Y0050793D02*
X0029792Y0050793D01*
X0029768Y0051392D02*
X0028240Y0051392D01*
X0028628Y0051990D02*
X0029768Y0051990D01*
X0029916Y0052589D02*
X0028628Y0052589D01*
X0028628Y0053187D02*
X0030164Y0053187D01*
X0030578Y0053786D02*
X0028628Y0053786D01*
X0028628Y0054384D02*
X0031079Y0054384D01*
X0031079Y0054983D02*
X0028628Y0054983D01*
X0028628Y0055581D02*
X0031079Y0055581D01*
X0031079Y0056180D02*
X0028628Y0056180D01*
X0028628Y0056778D02*
X0031079Y0056778D01*
X0031079Y0057377D02*
X0028628Y0057377D01*
X0028628Y0057975D02*
X0031079Y0057975D01*
X0031079Y0058574D02*
X0028628Y0058574D01*
X0028628Y0059172D02*
X0031079Y0059172D01*
X0031079Y0059771D02*
X0028623Y0059771D01*
X0028163Y0060369D02*
X0031079Y0060369D01*
X0031079Y0060968D02*
X0028628Y0060968D01*
X0028628Y0061566D02*
X0031107Y0061566D01*
X0031079Y0062165D02*
X0028628Y0062165D01*
X0028628Y0062763D02*
X0031079Y0062763D01*
X0031079Y0063362D02*
X0028628Y0063362D01*
X0028628Y0063960D02*
X0031052Y0063960D01*
X0030866Y0064559D02*
X0028628Y0064559D01*
X0028628Y0065157D02*
X0030866Y0065157D01*
X0030866Y0065756D02*
X0028628Y0065756D01*
X0028628Y0066354D02*
X0030866Y0066354D01*
X0030439Y0066953D02*
X0028628Y0066953D01*
X0028628Y0067551D02*
X0030107Y0067551D01*
X0029859Y0068150D02*
X0028628Y0068150D01*
X0028628Y0068748D02*
X0029768Y0068748D01*
X0029768Y0069347D02*
X0028102Y0069347D01*
X0028487Y0069945D02*
X0029849Y0069945D01*
X0030097Y0070544D02*
X0028628Y0070544D01*
X0028628Y0071142D02*
X0030415Y0071142D01*
X0031013Y0071741D02*
X0028628Y0071741D01*
X0028628Y0072339D02*
X0032095Y0072339D01*
X0041058Y0053187D02*
X0055744Y0053187D01*
X0056342Y0052589D02*
X0041306Y0052589D01*
X0041454Y0051990D02*
X0056941Y0051990D01*
X0057539Y0051392D02*
X0041454Y0051392D01*
X0041430Y0050793D02*
X0058138Y0050793D01*
X0058736Y0050195D02*
X0041182Y0050195D01*
X0040935Y0049596D02*
X0059335Y0049596D01*
X0059933Y0048997D02*
X0040347Y0048997D01*
X0039461Y0048399D02*
X0060532Y0048399D01*
X0068911Y0040020D02*
X0019634Y0040020D01*
X0019633Y0040618D02*
X0020911Y0040618D01*
X0019643Y0041217D02*
X0019632Y0041217D01*
X0046287Y0193837D02*
X0058800Y0193837D01*
X0057460Y0194436D02*
X0046287Y0194436D01*
X0046287Y0195034D02*
X0056861Y0195034D01*
X0056339Y0195633D02*
X0046287Y0195633D01*
X0046287Y0196231D02*
X0056091Y0196231D01*
X0055843Y0196830D02*
X0046287Y0196830D01*
X0046287Y0197428D02*
X0055776Y0197428D01*
X0055776Y0198027D02*
X0046287Y0198027D01*
X0046287Y0198625D02*
X0055783Y0198625D01*
X0056031Y0199224D02*
X0046287Y0199224D01*
X0046287Y0199822D02*
X0056279Y0199822D01*
X0056716Y0200421D02*
X0046287Y0200421D01*
X0046287Y0201019D02*
X0057315Y0201019D01*
X0058450Y0201618D02*
X0046287Y0201618D01*
X0046287Y0202216D02*
X0101121Y0202216D01*
X0100523Y0201618D02*
X0067150Y0201618D01*
X0067222Y0204012D02*
X0102917Y0204012D01*
X0103515Y0204610D02*
X0068315Y0204610D01*
X0068913Y0205209D02*
X0104114Y0205209D01*
X0104712Y0205807D02*
X0069333Y0205807D01*
X0069581Y0206406D02*
X0105311Y0206406D01*
X0102318Y0203413D02*
X0046287Y0203413D01*
X0046287Y0202815D02*
X0101720Y0202815D01*
X0105965Y0211194D02*
X0068110Y0211194D01*
X0066728Y0211793D02*
X0106564Y0211793D01*
X0107162Y0212391D02*
X0046287Y0212391D01*
X0046287Y0211793D02*
X0058872Y0211793D01*
X0057490Y0211194D02*
X0046287Y0211194D01*
X0046287Y0210596D02*
X0056891Y0210596D01*
X0056351Y0209997D02*
X0046287Y0209997D01*
X0046287Y0209399D02*
X0056104Y0209399D01*
X0055856Y0208800D02*
X0046287Y0208800D01*
X0046287Y0208201D02*
X0055776Y0208201D01*
X0055776Y0207603D02*
X0046287Y0207603D01*
X0046287Y0207004D02*
X0055776Y0207004D01*
X0056019Y0206406D02*
X0046287Y0206406D01*
X0046287Y0205807D02*
X0056267Y0205807D01*
X0056687Y0205209D02*
X0046287Y0205209D01*
X0046287Y0204610D02*
X0057285Y0204610D01*
X0058378Y0204012D02*
X0046287Y0204012D01*
X0046287Y0212990D02*
X0107761Y0212990D01*
X0108359Y0213588D02*
X0046287Y0213588D01*
X0046287Y0214187D02*
X0108958Y0214187D01*
X0109556Y0214785D02*
X0046287Y0214785D01*
X0046287Y0215384D02*
X0110155Y0215384D01*
X0110753Y0215982D02*
X0046287Y0215982D01*
X0046287Y0216581D02*
X0111352Y0216581D01*
X0111950Y0217179D02*
X0046287Y0217179D01*
X0046287Y0217778D02*
X0112549Y0217778D01*
X0113147Y0218376D02*
X0046287Y0218376D01*
X0046287Y0218975D02*
X0113746Y0218975D01*
X0114344Y0219573D02*
X0046287Y0219573D01*
X0046287Y0220172D02*
X0114943Y0220172D01*
X0115541Y0220770D02*
X0046287Y0220770D01*
X0046287Y0221369D02*
X0116140Y0221369D01*
X0116738Y0221967D02*
X0046287Y0221967D01*
X0046287Y0222566D02*
X0117337Y0222566D01*
X0117935Y0223164D02*
X0046287Y0223164D01*
X0046287Y0223763D02*
X0118534Y0223763D01*
X0119132Y0224361D02*
X0046287Y0224361D01*
X0046287Y0224960D02*
X0119731Y0224960D01*
X0120329Y0225558D02*
X0046287Y0225558D01*
X0046287Y0226157D02*
X0120928Y0226157D01*
X0121526Y0226755D02*
X0046287Y0226755D01*
X0046287Y0227354D02*
X0122125Y0227354D01*
X0122723Y0227952D02*
X0046287Y0227952D01*
X0046287Y0228551D02*
X0123322Y0228551D01*
X0123920Y0229149D02*
X0046287Y0229149D01*
X0046287Y0229748D02*
X0124519Y0229748D01*
X0125117Y0230346D02*
X0046287Y0230346D01*
X0046287Y0230945D02*
X0125716Y0230945D01*
X0126314Y0231543D02*
X0046287Y0231543D01*
X0046287Y0238127D02*
X0056260Y0238127D01*
X0056260Y0237529D02*
X0056860Y0237529D01*
X0056860Y0236930D02*
X0056260Y0236930D01*
X0056260Y0236332D02*
X0056860Y0236332D01*
X0056860Y0235733D02*
X0056260Y0235733D01*
X0056260Y0235134D02*
X0056860Y0235134D01*
X0056860Y0234536D02*
X0056260Y0234536D01*
X0056260Y0233937D02*
X0056860Y0233937D01*
X0059615Y0233937D02*
X0069567Y0233937D01*
X0069567Y0234536D02*
X0067523Y0234536D01*
X0067687Y0235134D02*
X0069567Y0235134D01*
X0069567Y0235733D02*
X0067687Y0235733D01*
X0067687Y0236332D02*
X0069567Y0236332D01*
X0069567Y0236930D02*
X0067687Y0236930D01*
X0060558Y0234536D02*
X0060265Y0234536D01*
X0056860Y0238726D02*
X0056260Y0238726D01*
X0056260Y0239324D02*
X0056860Y0239324D01*
X0056860Y0239923D02*
X0056260Y0239923D01*
X0056260Y0240521D02*
X0056860Y0240521D01*
X0056860Y0241120D02*
X0056260Y0241120D01*
X0056260Y0241718D02*
X0056860Y0241718D01*
X0056860Y0242317D02*
X0056260Y0242317D01*
X0060090Y0242317D02*
X0060810Y0242317D01*
X0060393Y0241718D02*
X0060394Y0241718D01*
X0077305Y0244711D02*
X0083295Y0244711D01*
X0082953Y0244112D02*
X0077647Y0244112D01*
X0077647Y0243514D02*
X0082953Y0243514D01*
X0082953Y0242915D02*
X0077647Y0242915D01*
X0077647Y0242317D02*
X0082953Y0242317D01*
X0082953Y0241718D02*
X0077647Y0241718D01*
X0077647Y0241120D02*
X0082953Y0241120D01*
X0082953Y0240521D02*
X0077647Y0240521D01*
X0077647Y0239923D02*
X0082953Y0239923D01*
X0082953Y0239324D02*
X0077647Y0239324D01*
X0077647Y0238726D02*
X0082953Y0238726D01*
X0082953Y0238127D02*
X0077647Y0238127D01*
X0077647Y0237529D02*
X0082953Y0237529D01*
X0082953Y0236930D02*
X0077647Y0236930D01*
X0077647Y0236332D02*
X0082953Y0236332D01*
X0082953Y0235733D02*
X0077647Y0235733D01*
X0077647Y0235134D02*
X0082953Y0235134D01*
X0082953Y0234536D02*
X0077647Y0234536D01*
X0077647Y0233937D02*
X0082953Y0233937D01*
X0082953Y0233339D02*
X0077647Y0233339D01*
X0077156Y0232740D02*
X0083444Y0232740D01*
X0090542Y0232740D02*
X0093558Y0232740D01*
X0093067Y0233339D02*
X0091033Y0233339D01*
X0091033Y0233937D02*
X0093067Y0233937D01*
X0093067Y0234536D02*
X0091033Y0234536D01*
X0091033Y0235134D02*
X0093067Y0235134D01*
X0093067Y0235733D02*
X0091033Y0235733D01*
X0091033Y0236332D02*
X0093067Y0236332D01*
X0093067Y0236930D02*
X0091033Y0236930D01*
X0091033Y0237529D02*
X0093067Y0237529D01*
X0093067Y0238127D02*
X0091033Y0238127D01*
X0091033Y0238726D02*
X0093067Y0238726D01*
X0093067Y0239324D02*
X0091033Y0239324D01*
X0091033Y0239923D02*
X0093067Y0239923D01*
X0093067Y0240521D02*
X0091545Y0240521D01*
X0092037Y0241120D02*
X0093067Y0241120D01*
X0093067Y0241718D02*
X0092037Y0241718D01*
X0092037Y0242317D02*
X0093067Y0242317D01*
X0093067Y0242915D02*
X0092037Y0242915D01*
X0092037Y0243514D02*
X0093067Y0243514D01*
X0093067Y0244112D02*
X0092037Y0244112D01*
X0092037Y0244711D02*
X0093409Y0244711D01*
X0092037Y0245309D02*
X0094783Y0245309D01*
X0094783Y0245908D02*
X0092037Y0245908D01*
X0092037Y0246506D02*
X0094783Y0246506D01*
X0094783Y0247105D02*
X0092037Y0247105D01*
X0092037Y0247703D02*
X0094783Y0247703D01*
X0094783Y0248302D02*
X0092037Y0248302D01*
X0092037Y0248900D02*
X0094783Y0248900D01*
X0094783Y0249499D02*
X0092037Y0249499D01*
X0092037Y0250097D02*
X0094783Y0250097D01*
X0094783Y0250696D02*
X0092037Y0250696D01*
X0092037Y0251294D02*
X0094783Y0251294D01*
X0094783Y0251893D02*
X0092037Y0251893D01*
X0092037Y0252491D02*
X0094783Y0252491D01*
X0094783Y0253090D02*
X0092037Y0253090D01*
X0092037Y0253688D02*
X0094783Y0253688D01*
X0094783Y0254287D02*
X0092037Y0254287D01*
X0092037Y0254885D02*
X0094783Y0254885D01*
X0094783Y0255484D02*
X0092037Y0255484D01*
X0092037Y0256082D02*
X0094783Y0256082D01*
X0094783Y0256681D02*
X0092037Y0256681D01*
X0092037Y0257279D02*
X0094783Y0257279D01*
X0094783Y0257878D02*
X0092037Y0257878D01*
X0092037Y0258476D02*
X0094783Y0258476D01*
X0094783Y0259075D02*
X0092037Y0259075D01*
X0092037Y0259673D02*
X0094783Y0259673D01*
X0094783Y0260272D02*
X0092037Y0260272D01*
X0092037Y0260870D02*
X0094783Y0260870D01*
X0094783Y0261469D02*
X0092037Y0261469D01*
X0092037Y0262068D02*
X0094783Y0262068D01*
X0094783Y0262666D02*
X0092037Y0262666D01*
X0092037Y0263265D02*
X0094783Y0263265D01*
X0094783Y0263863D02*
X0092037Y0263863D01*
X0092037Y0264462D02*
X0094783Y0264462D01*
X0094783Y0265060D02*
X0092037Y0265060D01*
X0098927Y0265060D02*
X0109473Y0265060D01*
X0098927Y0264462D02*
X0120941Y0264462D01*
X0121539Y0263863D02*
X0098927Y0263863D01*
X0098927Y0263265D02*
X0122138Y0263265D01*
X0122736Y0262666D02*
X0098927Y0262666D01*
X0098927Y0262068D02*
X0123335Y0262068D01*
X0123934Y0261469D02*
X0098927Y0261469D01*
X0098927Y0260870D02*
X0124532Y0260870D01*
X0125131Y0260272D02*
X0098927Y0260272D01*
X0098927Y0259673D02*
X0125729Y0259673D01*
X0126328Y0259075D02*
X0098927Y0259075D01*
X0114191Y0244711D02*
X0129232Y0244711D01*
X0129232Y0244112D02*
X0114533Y0244112D01*
X0114533Y0243514D02*
X0129232Y0243514D01*
X0129232Y0242915D02*
X0114533Y0242915D01*
X0114533Y0242317D02*
X0115830Y0242317D01*
X0115413Y0241718D02*
X0114533Y0241718D01*
X0114533Y0236930D02*
X0115413Y0236930D01*
X0115413Y0236332D02*
X0114533Y0236332D01*
X0114533Y0235733D02*
X0115413Y0235733D01*
X0115413Y0235134D02*
X0114533Y0235134D01*
X0114533Y0234536D02*
X0115577Y0234536D01*
X0114533Y0233937D02*
X0123485Y0233937D01*
X0122835Y0234536D02*
X0122542Y0234536D01*
X0126240Y0234536D02*
X0126840Y0234536D01*
X0126840Y0235134D02*
X0126240Y0235134D01*
X0126240Y0235733D02*
X0126840Y0235733D01*
X0126840Y0236332D02*
X0126240Y0236332D01*
X0126240Y0236930D02*
X0126840Y0236930D01*
X0126840Y0237529D02*
X0126240Y0237529D01*
X0126240Y0238726D02*
X0126840Y0238726D01*
X0126840Y0239324D02*
X0126240Y0239324D01*
X0126240Y0239923D02*
X0126840Y0239923D01*
X0126840Y0240521D02*
X0126240Y0240521D01*
X0126240Y0241120D02*
X0126840Y0241120D01*
X0126840Y0241718D02*
X0126240Y0241718D01*
X0126240Y0242317D02*
X0126840Y0242317D01*
X0123010Y0242317D02*
X0122290Y0242317D01*
X0122706Y0241718D02*
X0122707Y0241718D01*
X0126240Y0233937D02*
X0126840Y0233937D01*
X0128110Y0233339D02*
X0114533Y0233339D01*
X0115958Y0211194D02*
X0118849Y0211194D01*
X0117842Y0210596D02*
X0115360Y0210596D01*
X0114761Y0209997D02*
X0117243Y0209997D01*
X0116923Y0209399D02*
X0114163Y0209399D01*
X0113564Y0208800D02*
X0116675Y0208800D01*
X0116563Y0208201D02*
X0112966Y0208201D01*
X0112367Y0207603D02*
X0116563Y0207603D01*
X0116591Y0207004D02*
X0111769Y0207004D01*
X0111170Y0206406D02*
X0116839Y0206406D01*
X0117087Y0205807D02*
X0110572Y0205807D01*
X0109973Y0205209D02*
X0117637Y0205209D01*
X0118356Y0204610D02*
X0109375Y0204610D01*
X0062348Y0288402D02*
X0055941Y0288402D01*
X0056431Y0287803D02*
X0061286Y0287803D01*
X0060687Y0287205D02*
X0056431Y0287205D01*
X0062283Y0289001D02*
X0019228Y0289001D01*
X0019227Y0289599D02*
X0062283Y0289599D01*
X0062283Y0290198D02*
X0019226Y0290198D01*
X0019225Y0290796D02*
X0062283Y0290796D01*
X0062283Y0291395D02*
X0019224Y0291395D01*
X0019223Y0291993D02*
X0062283Y0291993D01*
X0062283Y0292592D02*
X0019222Y0292592D01*
X0019221Y0293190D02*
X0062283Y0293190D01*
X0062478Y0293789D02*
X0019220Y0293789D01*
X0019219Y0294387D02*
X0062283Y0294387D01*
X0062283Y0294986D02*
X0019218Y0294986D01*
X0019217Y0295584D02*
X0062283Y0295584D01*
X0062283Y0296183D02*
X0019216Y0296183D01*
X0019215Y0296781D02*
X0062283Y0296781D01*
X0062283Y0297380D02*
X0019214Y0297380D01*
X0019213Y0297978D02*
X0062283Y0297978D01*
X0062283Y0298577D02*
X0019212Y0298577D01*
X0019211Y0299175D02*
X0062604Y0299175D01*
X0062283Y0299774D02*
X0019210Y0299774D01*
X0019209Y0300372D02*
X0062283Y0300372D01*
X0062283Y0300971D02*
X0019208Y0300971D01*
X0019207Y0301569D02*
X0027426Y0301569D01*
X0028752Y0301020D02*
X0025893Y0302204D01*
X0023704Y0304393D01*
X0022520Y0307252D01*
X0022520Y0310348D01*
X0023704Y0313207D01*
X0025893Y0315396D01*
X0028752Y0316580D01*
X0031848Y0316580D01*
X0034707Y0315396D01*
X0036896Y0313207D01*
X0038080Y0310348D01*
X0038080Y0307252D01*
X0036896Y0304393D01*
X0034707Y0302204D01*
X0031848Y0301020D01*
X0028752Y0301020D01*
X0025981Y0302168D02*
X0019206Y0302168D01*
X0019205Y0302766D02*
X0025331Y0302766D01*
X0024732Y0303365D02*
X0019204Y0303365D01*
X0019203Y0303963D02*
X0024134Y0303963D01*
X0023634Y0304562D02*
X0019202Y0304562D01*
X0019201Y0305160D02*
X0023386Y0305160D01*
X0023138Y0305759D02*
X0019200Y0305759D01*
X0019199Y0306357D02*
X0022890Y0306357D01*
X0022643Y0306956D02*
X0019198Y0306956D01*
X0019198Y0307554D02*
X0022520Y0307554D01*
X0022520Y0308153D02*
X0019197Y0308153D01*
X0019196Y0308751D02*
X0022520Y0308751D01*
X0022520Y0309350D02*
X0019195Y0309350D01*
X0019215Y0309948D02*
X0022520Y0309948D01*
X0022602Y0310547D02*
X0019261Y0310547D01*
X0019307Y0311145D02*
X0022850Y0311145D01*
X0023098Y0311744D02*
X0019481Y0311744D01*
X0019674Y0312342D02*
X0023346Y0312342D01*
X0023594Y0312941D02*
X0019868Y0312941D01*
X0020061Y0313539D02*
X0024036Y0313539D01*
X0024635Y0314138D02*
X0020255Y0314138D01*
X0020668Y0314737D02*
X0025233Y0314737D01*
X0025832Y0315335D02*
X0021102Y0315335D01*
X0021536Y0315934D02*
X0027191Y0315934D01*
X0028636Y0316532D02*
X0021969Y0316532D01*
X0022677Y0317131D02*
X0062283Y0317131D01*
X0062283Y0317729D02*
X0023499Y0317729D01*
X0024322Y0318328D02*
X0062283Y0318328D01*
X0062283Y0318926D02*
X0025800Y0318926D01*
X0027844Y0319525D02*
X0062283Y0319525D01*
X0062283Y0316532D02*
X0031964Y0316532D01*
X0033409Y0315934D02*
X0062381Y0315934D01*
X0062283Y0315335D02*
X0034768Y0315335D01*
X0035366Y0314737D02*
X0062283Y0314737D01*
X0062283Y0314138D02*
X0035965Y0314138D01*
X0036564Y0313539D02*
X0062283Y0313539D01*
X0062283Y0312941D02*
X0037006Y0312941D01*
X0037254Y0312342D02*
X0062283Y0312342D01*
X0062283Y0311744D02*
X0037502Y0311744D01*
X0037750Y0311145D02*
X0049158Y0311145D01*
X0048559Y0310547D02*
X0037998Y0310547D01*
X0038080Y0309948D02*
X0047961Y0309948D01*
X0047362Y0309350D02*
X0038080Y0309350D01*
X0038080Y0308751D02*
X0046764Y0308751D01*
X0046713Y0308153D02*
X0038080Y0308153D01*
X0038080Y0307554D02*
X0046713Y0307554D01*
X0046713Y0306956D02*
X0037957Y0306956D01*
X0037710Y0306357D02*
X0046713Y0306357D01*
X0046713Y0305759D02*
X0037462Y0305759D01*
X0037214Y0305160D02*
X0046713Y0305160D01*
X0047051Y0304562D02*
X0036966Y0304562D01*
X0036466Y0303963D02*
X0047649Y0303963D01*
X0048248Y0303365D02*
X0035868Y0303365D01*
X0035269Y0302766D02*
X0048846Y0302766D01*
X0053754Y0302766D02*
X0062283Y0302766D01*
X0062283Y0302168D02*
X0034619Y0302168D01*
X0033174Y0301569D02*
X0062283Y0301569D01*
X0062283Y0303365D02*
X0054352Y0303365D01*
X0054951Y0303963D02*
X0062283Y0303963D01*
X0062512Y0304562D02*
X0055549Y0304562D01*
X0055887Y0305160D02*
X0062283Y0305160D01*
X0062387Y0309948D02*
X0054639Y0309948D01*
X0054041Y0310547D02*
X0062283Y0310547D01*
X0062283Y0311145D02*
X0053442Y0311145D01*
X0047659Y0288402D02*
X0019229Y0288402D01*
X0019230Y0287803D02*
X0047169Y0287803D01*
X0047169Y0287205D02*
X0019231Y0287205D01*
X0019232Y0286606D02*
X0047169Y0286606D01*
X0046490Y0286008D02*
X0019233Y0286008D01*
X0099000Y0050793D02*
X0099600Y0050793D01*
X0099600Y0050195D02*
X0099000Y0050195D01*
X0099000Y0049596D02*
X0099600Y0049596D01*
X0099600Y0048997D02*
X0099000Y0048997D01*
X0099000Y0048399D02*
X0099600Y0048399D01*
X0099600Y0047800D02*
X0099000Y0047800D01*
X0099000Y0047202D02*
X0099600Y0047202D01*
D33*
X0099300Y0041800D02*
X0069800Y0041800D01*
X0056418Y0055182D01*
X0034824Y0055182D01*
X0034824Y0065418D02*
X0039918Y0065418D01*
X0043800Y0069300D01*
X0043800Y0072800D01*
X0052800Y0063800D01*
X0062800Y0063800D01*
X0074800Y0051800D01*
X0099300Y0051800D01*
X0044300Y0077800D02*
X0028722Y0077800D01*
X0028198Y0078324D01*
X0023800Y0078324D01*
X0043800Y0077300D02*
X0043800Y0072800D01*
X0043800Y0077300D02*
X0044300Y0077800D01*
M02*
