G75*
%MOIN*%
%OFA0B0*%
%FSLAX25Y25*%
%IPPOS*%
%LPD*%
%AMOC8*
5,1,8,0,0,1.08239X$1,22.5*
%
%ADD10C,0.05200*%
%ADD11C,0.02362*%
%ADD12R,0.07000X0.07000*%
%ADD13C,0.01600*%
%ADD14R,0.08000X0.08000*%
D10*
X0054681Y0047081D02*
X0054681Y0052281D01*
X0064681Y0052281D02*
X0064681Y0047081D01*
X0074681Y0047081D02*
X0074681Y0052281D01*
X0084681Y0052281D02*
X0084681Y0047081D01*
X0094681Y0047081D02*
X0094681Y0052281D01*
X0104681Y0052281D02*
X0104681Y0047081D01*
X0114681Y0047081D02*
X0114681Y0052281D01*
X0124681Y0052281D02*
X0124681Y0047081D01*
D11*
X0031437Y0024119D02*
X0031437Y0123244D01*
X0031838Y0122275D01*
X0034275Y0119838D01*
X0037458Y0118520D01*
X0040904Y0118520D01*
X0044087Y0119838D01*
X0046524Y0122275D01*
X0047843Y0125458D01*
X0047843Y0128904D01*
X0046524Y0132087D01*
X0044485Y0134126D01*
X0146877Y0134126D01*
X0144838Y0132087D01*
X0143520Y0128904D01*
X0143520Y0125458D01*
X0144838Y0122275D01*
X0147275Y0119838D01*
X0150458Y0118520D01*
X0153904Y0118520D01*
X0157087Y0119838D01*
X0159524Y0122275D01*
X0159846Y0123054D01*
X0159846Y0024309D01*
X0159524Y0025087D01*
X0157087Y0027524D01*
X0153904Y0028843D01*
X0150458Y0028843D01*
X0147275Y0027524D01*
X0144838Y0025087D01*
X0143520Y0021904D01*
X0143520Y0018458D01*
X0144838Y0015275D01*
X0147275Y0012838D01*
X0148244Y0012437D01*
X0043119Y0012437D01*
X0044087Y0012838D01*
X0046524Y0015275D01*
X0047843Y0018458D01*
X0047843Y0021904D01*
X0046524Y0025087D01*
X0044087Y0027524D01*
X0040904Y0028843D01*
X0037458Y0028843D01*
X0034275Y0027524D01*
X0031838Y0025087D01*
X0031437Y0024119D01*
X0031437Y0025542D02*
X0032293Y0025542D01*
X0031437Y0027903D02*
X0035189Y0027903D01*
X0031437Y0030263D02*
X0159846Y0030263D01*
X0159846Y0032624D02*
X0031437Y0032624D01*
X0031437Y0034985D02*
X0159846Y0034985D01*
X0159846Y0037345D02*
X0031437Y0037345D01*
X0031437Y0039706D02*
X0159846Y0039706D01*
X0159846Y0042067D02*
X0031437Y0042067D01*
X0031437Y0044428D02*
X0051139Y0044428D01*
X0050967Y0044599D02*
X0052199Y0043367D01*
X0053810Y0042700D01*
X0055553Y0042700D01*
X0057163Y0043367D01*
X0058395Y0044599D01*
X0059062Y0046210D01*
X0059062Y0053153D01*
X0058395Y0054763D01*
X0057163Y0055995D01*
X0055553Y0056662D01*
X0053810Y0056662D01*
X0052199Y0055995D01*
X0050967Y0054763D01*
X0050300Y0053153D01*
X0050300Y0046210D01*
X0050967Y0044599D01*
X0050300Y0046788D02*
X0031437Y0046788D01*
X0031437Y0049149D02*
X0050300Y0049149D01*
X0050300Y0051510D02*
X0031437Y0051510D01*
X0031437Y0053870D02*
X0050597Y0053870D01*
X0052769Y0056231D02*
X0031437Y0056231D01*
X0031437Y0058592D02*
X0159846Y0058592D01*
X0159846Y0056231D02*
X0127378Y0056231D01*
X0127187Y0056370D02*
X0126516Y0056712D01*
X0125801Y0056944D01*
X0125057Y0057062D01*
X0124681Y0057062D01*
X0124305Y0057062D01*
X0123562Y0056944D01*
X0122846Y0056712D01*
X0122175Y0056370D01*
X0121566Y0055928D01*
X0121034Y0055396D01*
X0120592Y0054787D01*
X0120250Y0054116D01*
X0120018Y0053401D01*
X0119900Y0052657D01*
X0119900Y0049681D01*
X0119900Y0046705D01*
X0120018Y0045962D01*
X0120250Y0045246D01*
X0120592Y0044575D01*
X0121034Y0043966D01*
X0121566Y0043434D01*
X0122175Y0042992D01*
X0122846Y0042650D01*
X0123562Y0042418D01*
X0124305Y0042300D01*
X0124681Y0042300D01*
X0124681Y0049681D01*
X0119900Y0049681D01*
X0124681Y0049681D01*
X0124681Y0049681D01*
X0124681Y0049681D01*
X0124681Y0042300D01*
X0125057Y0042300D01*
X0125801Y0042418D01*
X0126516Y0042650D01*
X0127187Y0042992D01*
X0127796Y0043434D01*
X0128328Y0043966D01*
X0128770Y0044575D01*
X0129112Y0045246D01*
X0129344Y0045962D01*
X0129462Y0046705D01*
X0129462Y0049681D01*
X0124681Y0049681D01*
X0124681Y0057062D01*
X0124681Y0049681D01*
X0124681Y0049681D01*
X0124681Y0049681D01*
X0129462Y0049681D01*
X0129462Y0052657D01*
X0129344Y0053401D01*
X0129112Y0054116D01*
X0128770Y0054787D01*
X0128328Y0055396D01*
X0127796Y0055928D01*
X0127187Y0056370D01*
X0124681Y0056231D02*
X0124681Y0056231D01*
X0124681Y0053870D02*
X0124681Y0053870D01*
X0124681Y0051510D02*
X0124681Y0051510D01*
X0124681Y0049149D02*
X0124681Y0049149D01*
X0124681Y0046788D02*
X0124681Y0046788D01*
X0124681Y0044428D02*
X0124681Y0044428D01*
X0120699Y0044428D02*
X0118223Y0044428D01*
X0118395Y0044599D02*
X0117163Y0043367D01*
X0115553Y0042700D01*
X0113810Y0042700D01*
X0112199Y0043367D01*
X0110967Y0044599D01*
X0110300Y0046210D01*
X0110300Y0053153D01*
X0110967Y0054763D01*
X0112199Y0055995D01*
X0113810Y0056662D01*
X0115553Y0056662D01*
X0117163Y0055995D01*
X0118395Y0054763D01*
X0119062Y0053153D01*
X0119062Y0046210D01*
X0118395Y0044599D01*
X0119062Y0046788D02*
X0119900Y0046788D01*
X0119900Y0049149D02*
X0119062Y0049149D01*
X0119062Y0051510D02*
X0119900Y0051510D01*
X0120170Y0053870D02*
X0118765Y0053870D01*
X0116593Y0056231D02*
X0121984Y0056231D01*
X0129192Y0053870D02*
X0159846Y0053870D01*
X0159846Y0051510D02*
X0129462Y0051510D01*
X0129462Y0049149D02*
X0159846Y0049149D01*
X0159846Y0046788D02*
X0129462Y0046788D01*
X0128663Y0044428D02*
X0159846Y0044428D01*
X0159846Y0027903D02*
X0156173Y0027903D01*
X0159069Y0025542D02*
X0159846Y0025542D01*
X0148189Y0027903D02*
X0043173Y0027903D01*
X0046069Y0025542D02*
X0145293Y0025542D01*
X0144049Y0023181D02*
X0047314Y0023181D01*
X0047843Y0020820D02*
X0143520Y0020820D01*
X0143520Y0018460D02*
X0047843Y0018460D01*
X0046865Y0016099D02*
X0144497Y0016099D01*
X0146375Y0013738D02*
X0044987Y0013738D01*
X0062199Y0043367D02*
X0063810Y0042700D01*
X0065553Y0042700D01*
X0067163Y0043367D01*
X0068395Y0044599D01*
X0069062Y0046210D01*
X0069062Y0053153D01*
X0068395Y0054763D01*
X0067163Y0055995D01*
X0065553Y0056662D01*
X0063810Y0056662D01*
X0062199Y0055995D01*
X0060967Y0054763D01*
X0060300Y0053153D01*
X0060300Y0046210D01*
X0060967Y0044599D01*
X0062199Y0043367D01*
X0061139Y0044428D02*
X0058223Y0044428D01*
X0059062Y0046788D02*
X0060300Y0046788D01*
X0060300Y0049149D02*
X0059062Y0049149D01*
X0059062Y0051510D02*
X0060300Y0051510D01*
X0060597Y0053870D02*
X0058765Y0053870D01*
X0056593Y0056231D02*
X0062769Y0056231D01*
X0066593Y0056231D02*
X0072769Y0056231D01*
X0072199Y0055995D02*
X0070967Y0054763D01*
X0070300Y0053153D01*
X0070300Y0046210D01*
X0070967Y0044599D01*
X0072199Y0043367D01*
X0073810Y0042700D01*
X0075553Y0042700D01*
X0077163Y0043367D01*
X0078395Y0044599D01*
X0079062Y0046210D01*
X0079062Y0053153D01*
X0078395Y0054763D01*
X0077163Y0055995D01*
X0075553Y0056662D01*
X0073810Y0056662D01*
X0072199Y0055995D01*
X0070597Y0053870D02*
X0068765Y0053870D01*
X0069062Y0051510D02*
X0070300Y0051510D01*
X0070300Y0049149D02*
X0069062Y0049149D01*
X0069062Y0046788D02*
X0070300Y0046788D01*
X0071139Y0044428D02*
X0068223Y0044428D01*
X0078223Y0044428D02*
X0081139Y0044428D01*
X0080967Y0044599D02*
X0082199Y0043367D01*
X0083810Y0042700D01*
X0085553Y0042700D01*
X0087163Y0043367D01*
X0088395Y0044599D01*
X0089062Y0046210D01*
X0089062Y0053153D01*
X0088395Y0054763D01*
X0087163Y0055995D01*
X0085553Y0056662D01*
X0083810Y0056662D01*
X0082199Y0055995D01*
X0080967Y0054763D01*
X0080300Y0053153D01*
X0080300Y0046210D01*
X0080967Y0044599D01*
X0080300Y0046788D02*
X0079062Y0046788D01*
X0079062Y0049149D02*
X0080300Y0049149D01*
X0080300Y0051510D02*
X0079062Y0051510D01*
X0078765Y0053870D02*
X0080597Y0053870D01*
X0082769Y0056231D02*
X0076593Y0056231D01*
X0086593Y0056231D02*
X0092769Y0056231D01*
X0092199Y0055995D02*
X0090967Y0054763D01*
X0090300Y0053153D01*
X0090300Y0046210D01*
X0090967Y0044599D01*
X0092199Y0043367D01*
X0093810Y0042700D01*
X0095553Y0042700D01*
X0097163Y0043367D01*
X0098395Y0044599D01*
X0099062Y0046210D01*
X0099062Y0053153D01*
X0098395Y0054763D01*
X0097163Y0055995D01*
X0095553Y0056662D01*
X0093810Y0056662D01*
X0092199Y0055995D01*
X0090597Y0053870D02*
X0088765Y0053870D01*
X0089062Y0051510D02*
X0090300Y0051510D01*
X0090300Y0049149D02*
X0089062Y0049149D01*
X0089062Y0046788D02*
X0090300Y0046788D01*
X0091139Y0044428D02*
X0088223Y0044428D01*
X0098223Y0044428D02*
X0101139Y0044428D01*
X0100967Y0044599D02*
X0102199Y0043367D01*
X0103810Y0042700D01*
X0105553Y0042700D01*
X0107163Y0043367D01*
X0108395Y0044599D01*
X0109062Y0046210D01*
X0109062Y0053153D01*
X0108395Y0054763D01*
X0107163Y0055995D01*
X0105553Y0056662D01*
X0103810Y0056662D01*
X0102199Y0055995D01*
X0100967Y0054763D01*
X0100300Y0053153D01*
X0100300Y0046210D01*
X0100967Y0044599D01*
X0100300Y0046788D02*
X0099062Y0046788D01*
X0099062Y0049149D02*
X0100300Y0049149D01*
X0100300Y0051510D02*
X0099062Y0051510D01*
X0098765Y0053870D02*
X0100597Y0053870D01*
X0102769Y0056231D02*
X0096593Y0056231D01*
X0106593Y0056231D02*
X0112769Y0056231D01*
X0110597Y0053870D02*
X0108765Y0053870D01*
X0109062Y0051510D02*
X0110300Y0051510D01*
X0110300Y0049149D02*
X0109062Y0049149D01*
X0109062Y0046788D02*
X0110300Y0046788D01*
X0111139Y0044428D02*
X0108223Y0044428D01*
X0159846Y0060953D02*
X0031437Y0060953D01*
X0031437Y0063313D02*
X0159846Y0063313D01*
X0159846Y0065674D02*
X0031437Y0065674D01*
X0031437Y0068035D02*
X0159846Y0068035D01*
X0159846Y0070395D02*
X0031437Y0070395D01*
X0031437Y0072756D02*
X0159846Y0072756D01*
X0159846Y0075117D02*
X0031437Y0075117D01*
X0031437Y0077478D02*
X0159846Y0077478D01*
X0159846Y0079838D02*
X0031437Y0079838D01*
X0031437Y0082199D02*
X0159846Y0082199D01*
X0159846Y0084560D02*
X0031437Y0084560D01*
X0031437Y0086920D02*
X0159846Y0086920D01*
X0159846Y0089281D02*
X0031437Y0089281D01*
X0031437Y0091642D02*
X0159846Y0091642D01*
X0159846Y0094003D02*
X0031437Y0094003D01*
X0031437Y0096363D02*
X0159846Y0096363D01*
X0159846Y0098724D02*
X0031437Y0098724D01*
X0031437Y0101085D02*
X0159846Y0101085D01*
X0159846Y0103445D02*
X0031437Y0103445D01*
X0031437Y0105806D02*
X0159846Y0105806D01*
X0159846Y0108167D02*
X0031437Y0108167D01*
X0031437Y0110528D02*
X0159846Y0110528D01*
X0159846Y0112888D02*
X0031437Y0112888D01*
X0031437Y0115249D02*
X0159846Y0115249D01*
X0159846Y0117610D02*
X0031437Y0117610D01*
X0031437Y0119970D02*
X0034143Y0119970D01*
X0031815Y0122331D02*
X0031437Y0122331D01*
X0044220Y0119970D02*
X0147143Y0119970D01*
X0144815Y0122331D02*
X0046547Y0122331D01*
X0047525Y0124692D02*
X0143837Y0124692D01*
X0143520Y0127053D02*
X0047843Y0127053D01*
X0047632Y0129413D02*
X0143731Y0129413D01*
X0144709Y0131774D02*
X0046654Y0131774D01*
X0157220Y0119970D02*
X0159846Y0119970D01*
X0159846Y0122331D02*
X0159547Y0122331D01*
D12*
X0122181Y0079681D03*
X0065681Y0076173D03*
D13*
X0066173Y0075673D01*
X0065681Y0075181D01*
X0117681Y0075181D01*
X0122181Y0079681D01*
X0152681Y0110181D01*
X0152681Y0110681D01*
D14*
X0152681Y0110681D03*
M02*
