G75*
%MOIN*%
%OFA0B0*%
%FSLAX25Y25*%
%IPPOS*%
%LPD*%
%AMOC8*
5,1,8,0,0,1.08239X$1,22.5*
%
%ADD10R,0.09646X0.03937*%
%ADD11R,0.03937X0.09646*%
%ADD12C,0.05200*%
%ADD13R,0.05118X0.06299*%
%ADD14R,0.05906X0.10236*%
%ADD15R,0.06299X0.07087*%
%ADD16C,0.01600*%
%ADD17C,0.01969*%
%ADD18C,0.02362*%
%ADD19R,0.07000X0.07000*%
%ADD20R,0.08000X0.08000*%
D10*
X0066575Y0094248D03*
X0066575Y0099760D03*
X0066575Y0105272D03*
X0066575Y0110783D03*
X0066575Y0116295D03*
X0066575Y0121807D03*
X0066575Y0127319D03*
X0066575Y0132831D03*
X0115787Y0132831D03*
X0115787Y0127319D03*
X0115787Y0121807D03*
X0115787Y0116295D03*
X0115787Y0110783D03*
X0115787Y0105272D03*
X0115787Y0099760D03*
X0115787Y0094248D03*
D11*
X0110472Y0085390D03*
X0104961Y0085390D03*
X0099449Y0085390D03*
X0093937Y0085390D03*
X0088425Y0085390D03*
X0082913Y0085390D03*
X0077402Y0085390D03*
X0071890Y0085390D03*
D12*
X0074681Y0052281D02*
X0074681Y0047081D01*
X0064681Y0047081D02*
X0064681Y0052281D01*
X0054681Y0052281D02*
X0054681Y0047081D01*
X0084681Y0047081D02*
X0084681Y0052281D01*
X0094681Y0052281D02*
X0094681Y0047081D01*
X0104681Y0047081D02*
X0104681Y0052281D01*
X0114681Y0052281D02*
X0114681Y0047081D01*
X0124681Y0047081D02*
X0124681Y0052281D01*
D13*
X0125421Y0067681D03*
X0117941Y0067681D03*
X0063921Y0067681D03*
X0056441Y0067681D03*
X0131441Y0121681D03*
X0138921Y0121681D03*
D14*
X0109374Y0067681D03*
X0095988Y0067681D03*
X0086874Y0067681D03*
X0073488Y0067681D03*
D15*
X0059193Y0085181D03*
X0048169Y0085181D03*
D16*
X0048169Y0056193D01*
X0054681Y0049681D01*
X0050181Y0039681D02*
X0042681Y0047181D01*
X0042681Y0078681D01*
X0041681Y0079681D01*
X0041681Y0094181D01*
X0056181Y0108681D01*
X0056181Y0119681D01*
X0058307Y0121807D01*
X0066575Y0121807D01*
X0066575Y0110783D02*
X0066575Y0105272D01*
X0066575Y0099760D01*
X0058260Y0099760D01*
X0048169Y0089669D01*
X0048169Y0085181D01*
X0059193Y0085181D02*
X0059193Y0082662D01*
X0065681Y0076173D01*
X0060173Y0076173D01*
X0057681Y0073681D01*
X0057681Y0068921D01*
X0056441Y0067681D01*
X0064681Y0049681D02*
X0064681Y0041681D01*
X0062681Y0039681D01*
X0050181Y0039681D01*
X0066575Y0094248D02*
X0105614Y0094248D01*
X0105614Y0110114D01*
X0112181Y0116681D01*
X0112567Y0116295D01*
X0115787Y0116295D01*
X0110067Y0116295D01*
X0105681Y0120681D01*
X0105681Y0123681D01*
X0109319Y0127319D01*
X0115787Y0127319D01*
X0115787Y0132831D01*
X0134031Y0132831D01*
X0139681Y0127181D01*
X0139681Y0121681D01*
X0141681Y0121681D01*
X0152681Y0110681D01*
X0140681Y0120681D02*
X0139681Y0121681D01*
X0138921Y0121681D01*
X0111181Y0088681D02*
X0105614Y0094248D01*
X0111181Y0088681D02*
X0110472Y0087972D01*
X0110472Y0085390D01*
X0122181Y0079681D02*
X0123181Y0080181D01*
X0123681Y0079681D01*
X0123681Y0072681D01*
X0125421Y0070941D01*
X0125421Y0067681D01*
X0124681Y0066941D01*
X0124681Y0049681D01*
D17*
X0131181Y0045681D02*
X0126181Y0040681D01*
X0111181Y0040681D01*
X0104681Y0049681D01*
X0114681Y0049681D02*
X0103681Y0060681D01*
X0103681Y0073181D01*
X0106181Y0075681D01*
X0111181Y0075681D01*
X0116181Y0080681D01*
X0116181Y0093181D01*
X0115787Y0094248D01*
X0116181Y0098181D02*
X0115787Y0099760D01*
X0116181Y0098181D02*
X0121181Y0098181D01*
X0128681Y0090681D01*
X0128681Y0073181D01*
X0131181Y0070681D01*
X0131181Y0045681D01*
X0135181Y0044181D02*
X0127181Y0036181D01*
X0106681Y0036181D01*
X0094681Y0049681D01*
X0084681Y0049681D02*
X0100681Y0032681D01*
X0128681Y0032681D01*
X0139181Y0043181D01*
X0139681Y0092181D01*
X0121181Y0110681D01*
X0116181Y0110681D01*
X0115787Y0110783D01*
X0116181Y0105681D02*
X0115787Y0105272D01*
X0116181Y0105681D02*
X0121181Y0105681D01*
X0135181Y0091181D01*
X0135181Y0044181D01*
X0143181Y0041681D02*
X0143681Y0108181D01*
X0131181Y0120681D01*
X0131441Y0121681D01*
X0131181Y0123181D01*
X0116181Y0123181D01*
X0115787Y0121807D01*
X0093937Y0085390D02*
X0093681Y0083181D01*
X0093681Y0068181D01*
X0095988Y0067681D01*
X0088681Y0068181D02*
X0086874Y0067681D01*
X0088681Y0068181D02*
X0088681Y0083181D01*
X0088425Y0085390D01*
X0073488Y0067681D02*
X0071181Y0068181D01*
X0066181Y0068181D01*
X0063921Y0067681D01*
X0074681Y0049681D02*
X0095681Y0029181D01*
X0130181Y0029181D01*
X0143181Y0041681D01*
X0117941Y0067681D02*
X0116181Y0068181D01*
X0111181Y0068181D01*
X0109374Y0067681D01*
D18*
X0031437Y0024119D02*
X0031437Y0123244D01*
X0031838Y0122275D01*
X0034275Y0119838D01*
X0037458Y0118520D01*
X0040904Y0118520D01*
X0044087Y0119838D01*
X0046524Y0122275D01*
X0047843Y0125458D01*
X0047843Y0128904D01*
X0046524Y0132087D01*
X0044485Y0134126D01*
X0059971Y0134126D01*
X0059971Y0130124D01*
X0060021Y0130075D01*
X0059971Y0130025D01*
X0059971Y0124613D01*
X0060021Y0124563D01*
X0059971Y0124513D01*
X0059971Y0124388D01*
X0057794Y0124388D01*
X0056845Y0123995D01*
X0056119Y0123269D01*
X0053993Y0121143D01*
X0053600Y0120195D01*
X0053600Y0109750D01*
X0039493Y0095643D01*
X0039100Y0094695D01*
X0039100Y0079168D01*
X0039493Y0078219D01*
X0040100Y0077612D01*
X0040100Y0046668D01*
X0040493Y0045719D01*
X0041219Y0044993D01*
X0048719Y0037493D01*
X0049668Y0037100D01*
X0063195Y0037100D01*
X0064143Y0037493D01*
X0064869Y0038219D01*
X0066869Y0040219D01*
X0067262Y0041168D01*
X0067262Y0043466D01*
X0068395Y0044599D01*
X0069062Y0046210D01*
X0069062Y0053153D01*
X0068395Y0054763D01*
X0067163Y0055995D01*
X0065553Y0056662D01*
X0063810Y0056662D01*
X0062199Y0055995D01*
X0060967Y0054763D01*
X0060300Y0053153D01*
X0060300Y0046210D01*
X0060967Y0044599D01*
X0062100Y0043466D01*
X0062100Y0042750D01*
X0061612Y0042262D01*
X0051250Y0042262D01*
X0045262Y0048250D01*
X0045262Y0079195D01*
X0044988Y0079857D01*
X0045588Y0079857D01*
X0045588Y0055679D01*
X0045981Y0054731D01*
X0046707Y0054005D01*
X0050300Y0050412D01*
X0050300Y0046210D01*
X0050967Y0044599D01*
X0052199Y0043367D01*
X0053810Y0042700D01*
X0055553Y0042700D01*
X0057163Y0043367D01*
X0058395Y0044599D01*
X0059062Y0046210D01*
X0059062Y0053153D01*
X0058395Y0054763D01*
X0057163Y0055995D01*
X0055553Y0056662D01*
X0053810Y0056662D01*
X0052199Y0055995D01*
X0052108Y0055904D01*
X0050750Y0057262D01*
X0050750Y0079857D01*
X0052057Y0079857D01*
X0053100Y0080900D01*
X0053100Y0089462D01*
X0052356Y0090206D01*
X0059329Y0097179D01*
X0059789Y0097179D01*
X0059720Y0097058D01*
X0059571Y0096504D01*
X0059571Y0094248D01*
X0059571Y0091992D01*
X0059720Y0091438D01*
X0060007Y0090940D01*
X0060041Y0090905D01*
X0059587Y0090905D01*
X0059587Y0085575D01*
X0064524Y0085575D01*
X0064524Y0089012D01*
X0064375Y0089566D01*
X0064088Y0090064D01*
X0064053Y0090098D01*
X0066575Y0090098D01*
X0068140Y0090098D01*
X0068140Y0079829D01*
X0069184Y0078786D01*
X0074596Y0078786D01*
X0074646Y0078835D01*
X0074695Y0078786D01*
X0080108Y0078786D01*
X0080157Y0078835D01*
X0080207Y0078786D01*
X0085620Y0078786D01*
X0085669Y0078835D01*
X0085719Y0078786D01*
X0085916Y0078786D01*
X0085916Y0074580D01*
X0083184Y0074580D01*
X0082140Y0073537D01*
X0082140Y0061825D01*
X0083184Y0060782D01*
X0090565Y0060782D01*
X0091431Y0061648D01*
X0092298Y0060782D01*
X0099679Y0060782D01*
X0100722Y0061825D01*
X0100722Y0073537D01*
X0099679Y0074580D01*
X0096446Y0074580D01*
X0096446Y0078786D01*
X0096643Y0078786D01*
X0096693Y0078835D01*
X0096743Y0078786D01*
X0102155Y0078786D01*
X0102205Y0078835D01*
X0102254Y0078786D01*
X0107227Y0078786D01*
X0107662Y0078534D01*
X0107991Y0078446D01*
X0105631Y0078446D01*
X0104615Y0078025D01*
X0101337Y0074748D01*
X0100916Y0073731D01*
X0100916Y0060131D01*
X0101337Y0059115D01*
X0103795Y0056656D01*
X0102199Y0055995D01*
X0100967Y0054763D01*
X0100300Y0053153D01*
X0100300Y0047522D01*
X0099062Y0048915D01*
X0099062Y0053153D01*
X0098395Y0054763D01*
X0097163Y0055995D01*
X0095553Y0056662D01*
X0093810Y0056662D01*
X0092199Y0055995D01*
X0090967Y0054763D01*
X0090300Y0053153D01*
X0090300Y0047746D01*
X0089062Y0049061D01*
X0089062Y0053153D01*
X0088395Y0054763D01*
X0087163Y0055995D01*
X0085553Y0056662D01*
X0083810Y0056662D01*
X0082199Y0055995D01*
X0080967Y0054763D01*
X0080300Y0053153D01*
X0080300Y0048060D01*
X0079062Y0049269D01*
X0079062Y0053153D01*
X0078395Y0054763D01*
X0077163Y0055995D01*
X0075553Y0056662D01*
X0073810Y0056662D01*
X0072199Y0055995D01*
X0070967Y0054763D01*
X0070300Y0053153D01*
X0070300Y0046210D01*
X0070967Y0044599D01*
X0072199Y0043367D01*
X0073810Y0042700D01*
X0075553Y0042700D01*
X0077163Y0043367D01*
X0077176Y0043381D01*
X0093737Y0027214D01*
X0094115Y0026837D01*
X0094131Y0026830D01*
X0094143Y0026818D01*
X0094638Y0026620D01*
X0095131Y0026416D01*
X0095148Y0026416D01*
X0095164Y0026409D01*
X0095698Y0026416D01*
X0130154Y0026416D01*
X0130677Y0026405D01*
X0130703Y0026416D01*
X0130731Y0026416D01*
X0131214Y0026616D01*
X0131701Y0026806D01*
X0131722Y0026826D01*
X0131748Y0026837D01*
X0132117Y0027206D01*
X0144714Y0039319D01*
X0144730Y0039325D01*
X0145110Y0039699D01*
X0145494Y0040069D01*
X0145501Y0040085D01*
X0145514Y0040097D01*
X0145721Y0040588D01*
X0145935Y0041077D01*
X0145935Y0041094D01*
X0145942Y0041110D01*
X0145946Y0041643D01*
X0145957Y0042177D01*
X0145950Y0042193D01*
X0146442Y0107621D01*
X0146446Y0107631D01*
X0146446Y0108170D01*
X0146451Y0108710D01*
X0146446Y0108720D01*
X0146446Y0108731D01*
X0146240Y0109229D01*
X0146037Y0109730D01*
X0146030Y0109738D01*
X0146025Y0109748D01*
X0145644Y0110129D01*
X0145265Y0110514D01*
X0145255Y0110518D01*
X0139423Y0116350D01*
X0141767Y0116350D01*
X0142322Y0116499D01*
X0142820Y0116786D01*
X0143226Y0117192D01*
X0143513Y0117690D01*
X0143661Y0118244D01*
X0143661Y0121583D01*
X0139020Y0121583D01*
X0139020Y0121780D01*
X0138823Y0121780D01*
X0138823Y0127012D01*
X0136075Y0127012D01*
X0135520Y0126863D01*
X0135023Y0126576D01*
X0134898Y0126451D01*
X0134738Y0126612D01*
X0128144Y0126612D01*
X0127479Y0125946D01*
X0122791Y0125946D01*
X0122791Y0127319D01*
X0122791Y0129575D01*
X0122657Y0130075D01*
X0122791Y0130575D01*
X0122791Y0132831D01*
X0122791Y0134126D01*
X0146877Y0134126D01*
X0144838Y0132087D01*
X0143520Y0128904D01*
X0143520Y0125647D01*
X0143513Y0125673D01*
X0143226Y0126170D01*
X0142820Y0126576D01*
X0142322Y0126863D01*
X0141767Y0127012D01*
X0139020Y0127012D01*
X0139020Y0121780D01*
X0143661Y0121780D01*
X0143661Y0125116D01*
X0144838Y0122275D01*
X0147275Y0119838D01*
X0150458Y0118520D01*
X0153904Y0118520D01*
X0157087Y0119838D01*
X0159524Y0122275D01*
X0159846Y0123054D01*
X0159846Y0024309D01*
X0159524Y0025087D01*
X0157087Y0027524D01*
X0153904Y0028843D01*
X0150458Y0028843D01*
X0147275Y0027524D01*
X0144838Y0025087D01*
X0143520Y0021904D01*
X0143520Y0018458D01*
X0144838Y0015275D01*
X0147275Y0012838D01*
X0148244Y0012437D01*
X0043119Y0012437D01*
X0044087Y0012838D01*
X0046524Y0015275D01*
X0047843Y0018458D01*
X0047843Y0021904D01*
X0046524Y0025087D01*
X0044087Y0027524D01*
X0040904Y0028843D01*
X0037458Y0028843D01*
X0034275Y0027524D01*
X0031838Y0025087D01*
X0031437Y0024119D01*
X0031437Y0025542D02*
X0032293Y0025542D01*
X0031437Y0027903D02*
X0035189Y0027903D01*
X0031437Y0030263D02*
X0090614Y0030263D01*
X0088195Y0032624D02*
X0031437Y0032624D01*
X0031437Y0034985D02*
X0085777Y0034985D01*
X0083359Y0037345D02*
X0063787Y0037345D01*
X0066356Y0039706D02*
X0080941Y0039706D01*
X0078522Y0042067D02*
X0067262Y0042067D01*
X0068223Y0044428D02*
X0071139Y0044428D01*
X0070300Y0046788D02*
X0069062Y0046788D01*
X0069062Y0049149D02*
X0070300Y0049149D01*
X0070300Y0051510D02*
X0069062Y0051510D01*
X0068765Y0053870D02*
X0070597Y0053870D01*
X0072769Y0056231D02*
X0066593Y0056231D01*
X0062769Y0056231D02*
X0056593Y0056231D01*
X0058765Y0053870D02*
X0060597Y0053870D01*
X0060300Y0051510D02*
X0059062Y0051510D01*
X0059062Y0049149D02*
X0060300Y0049149D01*
X0060300Y0046788D02*
X0059062Y0046788D01*
X0058223Y0044428D02*
X0061139Y0044428D01*
X0051139Y0044428D02*
X0049085Y0044428D01*
X0050300Y0046788D02*
X0046724Y0046788D01*
X0045262Y0049149D02*
X0050300Y0049149D01*
X0049202Y0051510D02*
X0045262Y0051510D01*
X0045262Y0053870D02*
X0046842Y0053870D01*
X0045588Y0056231D02*
X0045262Y0056231D01*
X0045262Y0058592D02*
X0045588Y0058592D01*
X0045588Y0060953D02*
X0045262Y0060953D01*
X0045262Y0063313D02*
X0045588Y0063313D01*
X0045588Y0065674D02*
X0045262Y0065674D01*
X0045262Y0068035D02*
X0045588Y0068035D01*
X0045588Y0070395D02*
X0045262Y0070395D01*
X0045262Y0072756D02*
X0045588Y0072756D01*
X0045588Y0075117D02*
X0045262Y0075117D01*
X0045262Y0077478D02*
X0045588Y0077478D01*
X0045588Y0079838D02*
X0044996Y0079838D01*
X0040100Y0077478D02*
X0031437Y0077478D01*
X0031437Y0079838D02*
X0039100Y0079838D01*
X0039100Y0082199D02*
X0031437Y0082199D01*
X0031437Y0084560D02*
X0039100Y0084560D01*
X0039100Y0086920D02*
X0031437Y0086920D01*
X0031437Y0089281D02*
X0039100Y0089281D01*
X0039100Y0091642D02*
X0031437Y0091642D01*
X0031437Y0094003D02*
X0039100Y0094003D01*
X0040213Y0096363D02*
X0031437Y0096363D01*
X0031437Y0098724D02*
X0042574Y0098724D01*
X0044935Y0101085D02*
X0031437Y0101085D01*
X0031437Y0103445D02*
X0047295Y0103445D01*
X0049656Y0105806D02*
X0031437Y0105806D01*
X0031437Y0108167D02*
X0052017Y0108167D01*
X0053600Y0110528D02*
X0031437Y0110528D01*
X0031437Y0112888D02*
X0053600Y0112888D01*
X0053600Y0115249D02*
X0031437Y0115249D01*
X0031437Y0117610D02*
X0053600Y0117610D01*
X0053600Y0119970D02*
X0044220Y0119970D01*
X0046547Y0122331D02*
X0055181Y0122331D01*
X0059971Y0124692D02*
X0047525Y0124692D01*
X0047843Y0127053D02*
X0059971Y0127053D01*
X0059971Y0129413D02*
X0047632Y0129413D01*
X0046654Y0131774D02*
X0059971Y0131774D01*
X0073129Y0130075D02*
X0073179Y0130124D01*
X0073179Y0134126D01*
X0108783Y0134126D01*
X0108783Y0132831D01*
X0115787Y0132831D01*
X0115787Y0132831D01*
X0108783Y0132831D01*
X0108783Y0130575D01*
X0108918Y0130075D01*
X0108783Y0129575D01*
X0108783Y0127319D01*
X0115787Y0127319D01*
X0115787Y0127319D01*
X0108783Y0127319D01*
X0108783Y0125063D01*
X0108932Y0124509D01*
X0109183Y0124073D01*
X0109183Y0119541D01*
X0108932Y0119106D01*
X0108783Y0118551D01*
X0108783Y0116295D01*
X0108783Y0114040D01*
X0108932Y0113485D01*
X0109183Y0113050D01*
X0109183Y0108077D01*
X0109233Y0108028D01*
X0109183Y0107978D01*
X0109183Y0102565D01*
X0109233Y0102516D01*
X0109183Y0102466D01*
X0109183Y0097054D01*
X0109233Y0097004D01*
X0109183Y0096954D01*
X0109183Y0092394D01*
X0108217Y0092394D01*
X0107662Y0092245D01*
X0107227Y0091994D01*
X0102254Y0091994D01*
X0102205Y0091944D01*
X0102155Y0091994D01*
X0096743Y0091994D01*
X0096693Y0091944D01*
X0096643Y0091994D01*
X0091231Y0091994D01*
X0091181Y0091944D01*
X0091131Y0091994D01*
X0085719Y0091994D01*
X0085669Y0091944D01*
X0085620Y0091994D01*
X0080207Y0091994D01*
X0080157Y0091944D01*
X0080108Y0091994D01*
X0074695Y0091994D01*
X0074646Y0091944D01*
X0074596Y0091994D01*
X0073579Y0091994D01*
X0073579Y0094248D01*
X0066575Y0094248D01*
X0066575Y0094248D01*
X0073579Y0094248D01*
X0073579Y0096504D01*
X0073430Y0097058D01*
X0073179Y0097494D01*
X0073179Y0102466D01*
X0073129Y0102516D01*
X0073179Y0102565D01*
X0073179Y0107978D01*
X0073129Y0108028D01*
X0073179Y0108077D01*
X0073179Y0113490D01*
X0073129Y0113539D01*
X0073179Y0113589D01*
X0073179Y0119002D01*
X0073129Y0119051D01*
X0073179Y0119101D01*
X0073179Y0124513D01*
X0073129Y0124563D01*
X0073179Y0124613D01*
X0073179Y0130025D01*
X0073129Y0130075D01*
X0073179Y0129413D02*
X0108783Y0129413D01*
X0108783Y0127053D02*
X0073179Y0127053D01*
X0073179Y0124692D02*
X0108883Y0124692D01*
X0109183Y0122331D02*
X0073179Y0122331D01*
X0073179Y0119970D02*
X0109183Y0119970D01*
X0108783Y0117610D02*
X0073179Y0117610D01*
X0073179Y0115249D02*
X0108783Y0115249D01*
X0108783Y0116295D02*
X0115787Y0116295D01*
X0115787Y0116295D01*
X0108783Y0116295D01*
X0109183Y0112888D02*
X0073179Y0112888D01*
X0073179Y0110528D02*
X0109183Y0110528D01*
X0109183Y0108167D02*
X0073179Y0108167D01*
X0073179Y0105806D02*
X0109183Y0105806D01*
X0109183Y0103445D02*
X0073179Y0103445D01*
X0073179Y0101085D02*
X0109183Y0101085D01*
X0109183Y0098724D02*
X0073179Y0098724D01*
X0073579Y0096363D02*
X0109183Y0096363D01*
X0109183Y0094003D02*
X0073579Y0094003D01*
X0068140Y0089281D02*
X0064451Y0089281D01*
X0066575Y0090098D02*
X0066575Y0094248D01*
X0066575Y0090098D01*
X0066575Y0091642D02*
X0066575Y0091642D01*
X0066575Y0094003D02*
X0066575Y0094003D01*
X0066575Y0094248D02*
X0066575Y0094248D01*
X0059571Y0094248D01*
X0066575Y0094248D01*
X0066575Y0094248D01*
X0059571Y0094003D02*
X0056153Y0094003D01*
X0055756Y0090905D02*
X0055201Y0090757D01*
X0054704Y0090470D01*
X0054298Y0090064D01*
X0054011Y0089566D01*
X0053862Y0089012D01*
X0053862Y0085575D01*
X0058799Y0085575D01*
X0058799Y0084787D01*
X0059587Y0084787D01*
X0059587Y0085575D01*
X0058799Y0085575D01*
X0058799Y0090905D01*
X0055756Y0090905D01*
X0053792Y0091642D02*
X0059665Y0091642D01*
X0059587Y0089281D02*
X0058799Y0089281D01*
X0058799Y0086920D02*
X0059587Y0086920D01*
X0059587Y0084787D02*
X0064524Y0084787D01*
X0064524Y0081351D01*
X0064375Y0080796D01*
X0064088Y0080299D01*
X0063682Y0079892D01*
X0063184Y0079605D01*
X0062630Y0079457D01*
X0059587Y0079457D01*
X0059587Y0084787D01*
X0059587Y0084560D02*
X0058799Y0084560D01*
X0058799Y0084787D02*
X0058799Y0079457D01*
X0055756Y0079457D01*
X0055201Y0079605D01*
X0054704Y0079892D01*
X0054298Y0080299D01*
X0054011Y0080796D01*
X0053862Y0081351D01*
X0053862Y0084787D01*
X0058799Y0084787D01*
X0058799Y0082199D02*
X0059587Y0082199D01*
X0059587Y0079838D02*
X0058799Y0079838D01*
X0063588Y0079838D02*
X0068140Y0079838D01*
X0068140Y0082199D02*
X0064524Y0082199D01*
X0064524Y0084560D02*
X0068140Y0084560D01*
X0068140Y0086920D02*
X0064524Y0086920D01*
X0053862Y0086920D02*
X0053100Y0086920D01*
X0053100Y0084560D02*
X0053862Y0084560D01*
X0053862Y0082199D02*
X0053100Y0082199D01*
X0054798Y0079838D02*
X0050750Y0079838D01*
X0050750Y0077478D02*
X0085916Y0077478D01*
X0085916Y0075117D02*
X0050750Y0075117D01*
X0050750Y0072756D02*
X0052855Y0072756D01*
X0053040Y0072863D02*
X0052543Y0072576D01*
X0052137Y0072170D01*
X0051849Y0071673D01*
X0051701Y0071118D01*
X0051701Y0067780D01*
X0056342Y0067780D01*
X0056342Y0067583D01*
X0051701Y0067583D01*
X0051701Y0064244D01*
X0051849Y0063690D01*
X0052137Y0063192D01*
X0052543Y0062786D01*
X0053040Y0062499D01*
X0053595Y0062350D01*
X0056342Y0062350D01*
X0056342Y0067583D01*
X0056539Y0067583D01*
X0056539Y0062350D01*
X0059287Y0062350D01*
X0059842Y0062499D01*
X0060339Y0062786D01*
X0060464Y0062911D01*
X0060624Y0062750D01*
X0067218Y0062750D01*
X0068261Y0063794D01*
X0068261Y0065416D01*
X0068754Y0065416D01*
X0068754Y0061825D01*
X0069798Y0060782D01*
X0077179Y0060782D01*
X0078222Y0061825D01*
X0078222Y0073537D01*
X0077179Y0074580D01*
X0069798Y0074580D01*
X0068754Y0073537D01*
X0068754Y0070946D01*
X0068261Y0070946D01*
X0068261Y0071568D01*
X0067218Y0072612D01*
X0060624Y0072612D01*
X0060464Y0072451D01*
X0060339Y0072576D01*
X0059842Y0072863D01*
X0059287Y0073012D01*
X0056539Y0073012D01*
X0056539Y0067780D01*
X0056342Y0067780D01*
X0056342Y0073012D01*
X0053595Y0073012D01*
X0053040Y0072863D01*
X0051701Y0070395D02*
X0050750Y0070395D01*
X0050750Y0068035D02*
X0051701Y0068035D01*
X0051701Y0065674D02*
X0050750Y0065674D01*
X0050750Y0063313D02*
X0052067Y0063313D01*
X0050750Y0060953D02*
X0069627Y0060953D01*
X0068754Y0063313D02*
X0067781Y0063313D01*
X0076593Y0056231D02*
X0082769Y0056231D01*
X0080597Y0053870D02*
X0078765Y0053870D01*
X0079062Y0051510D02*
X0080300Y0051510D01*
X0080300Y0049149D02*
X0079185Y0049149D01*
X0086593Y0056231D02*
X0092769Y0056231D01*
X0090597Y0053870D02*
X0088765Y0053870D01*
X0089062Y0051510D02*
X0090300Y0051510D01*
X0090300Y0049149D02*
X0089062Y0049149D01*
X0096593Y0056231D02*
X0102769Y0056231D01*
X0101860Y0058592D02*
X0050750Y0058592D01*
X0051781Y0056231D02*
X0052769Y0056231D01*
X0056342Y0063313D02*
X0056539Y0063313D01*
X0056539Y0065674D02*
X0056342Y0065674D01*
X0056342Y0068035D02*
X0056539Y0068035D01*
X0056539Y0070395D02*
X0056342Y0070395D01*
X0056342Y0072756D02*
X0056539Y0072756D01*
X0060027Y0072756D02*
X0068754Y0072756D01*
X0078222Y0072756D02*
X0082140Y0072756D01*
X0082140Y0070395D02*
X0078222Y0070395D01*
X0078222Y0068035D02*
X0082140Y0068035D01*
X0082140Y0065674D02*
X0078222Y0065674D01*
X0078222Y0063313D02*
X0082140Y0063313D01*
X0083013Y0060953D02*
X0077349Y0060953D01*
X0090735Y0060953D02*
X0092127Y0060953D01*
X0099849Y0060953D02*
X0100916Y0060953D01*
X0100916Y0063313D02*
X0100722Y0063313D01*
X0100722Y0065674D02*
X0100916Y0065674D01*
X0100916Y0068035D02*
X0100722Y0068035D01*
X0100722Y0070395D02*
X0100916Y0070395D01*
X0100916Y0072756D02*
X0100722Y0072756D01*
X0101706Y0075117D02*
X0096446Y0075117D01*
X0096446Y0077478D02*
X0104067Y0077478D01*
X0110472Y0085390D02*
X0110472Y0090498D01*
X0110472Y0090498D01*
X0110472Y0085390D01*
X0110472Y0085390D01*
X0110472Y0086920D02*
X0110472Y0086920D01*
X0110472Y0089281D02*
X0110472Y0089281D01*
X0118946Y0089281D02*
X0125916Y0089281D01*
X0125916Y0089536D02*
X0125916Y0073012D01*
X0125520Y0073012D01*
X0125520Y0067780D01*
X0125323Y0067780D01*
X0125323Y0073012D01*
X0122575Y0073012D01*
X0122020Y0072863D01*
X0121523Y0072576D01*
X0121398Y0072451D01*
X0121238Y0072612D01*
X0114644Y0072612D01*
X0114108Y0072076D01*
X0114108Y0073537D01*
X0113528Y0074117D01*
X0118525Y0079115D01*
X0118946Y0080131D01*
X0118946Y0090498D01*
X0121348Y0090498D01*
X0122391Y0091542D01*
X0122391Y0093060D01*
X0125916Y0089536D01*
X0123810Y0091642D02*
X0122391Y0091642D01*
X0118946Y0086920D02*
X0125916Y0086920D01*
X0125916Y0084560D02*
X0118946Y0084560D01*
X0118946Y0082199D02*
X0125916Y0082199D01*
X0125916Y0079838D02*
X0118825Y0079838D01*
X0116888Y0077478D02*
X0125916Y0077478D01*
X0125916Y0075117D02*
X0114528Y0075117D01*
X0114108Y0072756D02*
X0121835Y0072756D01*
X0125323Y0072756D02*
X0125520Y0072756D01*
X0125520Y0070395D02*
X0125323Y0070395D01*
X0125323Y0068035D02*
X0125520Y0068035D01*
X0125520Y0067583D02*
X0125520Y0062350D01*
X0128267Y0062350D01*
X0128416Y0062390D01*
X0128416Y0055275D01*
X0128328Y0055396D01*
X0127796Y0055928D01*
X0127187Y0056370D01*
X0126516Y0056712D01*
X0125801Y0056944D01*
X0125057Y0057062D01*
X0124681Y0057062D01*
X0124305Y0057062D01*
X0123562Y0056944D01*
X0122846Y0056712D01*
X0122175Y0056370D01*
X0121566Y0055928D01*
X0121034Y0055396D01*
X0120592Y0054787D01*
X0120250Y0054116D01*
X0120018Y0053401D01*
X0119900Y0052657D01*
X0119900Y0049681D01*
X0119900Y0046705D01*
X0120018Y0045962D01*
X0120250Y0045246D01*
X0120592Y0044575D01*
X0121034Y0043966D01*
X0121554Y0043446D01*
X0117242Y0043446D01*
X0118395Y0044599D01*
X0119062Y0046210D01*
X0119062Y0053153D01*
X0118395Y0054763D01*
X0117163Y0055995D01*
X0115553Y0056662D01*
X0113810Y0056662D01*
X0112255Y0056018D01*
X0107491Y0060782D01*
X0113065Y0060782D01*
X0114108Y0061825D01*
X0114108Y0063287D01*
X0114644Y0062750D01*
X0121238Y0062750D01*
X0121398Y0062911D01*
X0121523Y0062786D01*
X0122020Y0062499D01*
X0122575Y0062350D01*
X0125323Y0062350D01*
X0125323Y0067583D01*
X0125520Y0067583D01*
X0125520Y0065674D02*
X0125323Y0065674D01*
X0125323Y0063313D02*
X0125520Y0063313D01*
X0128416Y0060953D02*
X0113235Y0060953D01*
X0109681Y0058592D02*
X0128416Y0058592D01*
X0128416Y0056231D02*
X0127378Y0056231D01*
X0124681Y0056231D02*
X0124681Y0056231D01*
X0124681Y0057062D02*
X0124681Y0049681D01*
X0119900Y0049681D01*
X0124681Y0049681D01*
X0124681Y0049681D01*
X0124681Y0049681D01*
X0124681Y0057062D01*
X0121984Y0056231D02*
X0116593Y0056231D01*
X0118765Y0053870D02*
X0120170Y0053870D01*
X0119900Y0051510D02*
X0119062Y0051510D01*
X0119062Y0049149D02*
X0119900Y0049149D01*
X0119900Y0046788D02*
X0119062Y0046788D01*
X0118223Y0044428D02*
X0120699Y0044428D01*
X0124681Y0051510D02*
X0124681Y0051510D01*
X0124681Y0053870D02*
X0124681Y0053870D01*
X0112769Y0056231D02*
X0112042Y0056231D01*
X0100597Y0053870D02*
X0098765Y0053870D01*
X0099062Y0051510D02*
X0100300Y0051510D01*
X0100300Y0049149D02*
X0099062Y0049149D01*
X0093032Y0027903D02*
X0043173Y0027903D01*
X0046069Y0025542D02*
X0145293Y0025542D01*
X0144049Y0023181D02*
X0047314Y0023181D01*
X0047843Y0020820D02*
X0143520Y0020820D01*
X0143520Y0018460D02*
X0047843Y0018460D01*
X0046865Y0016099D02*
X0144497Y0016099D01*
X0146375Y0013738D02*
X0044987Y0013738D01*
X0049075Y0037345D02*
X0031437Y0037345D01*
X0031437Y0039706D02*
X0046506Y0039706D01*
X0044145Y0042067D02*
X0031437Y0042067D01*
X0031437Y0044428D02*
X0041784Y0044428D01*
X0040100Y0046788D02*
X0031437Y0046788D01*
X0031437Y0049149D02*
X0040100Y0049149D01*
X0040100Y0051510D02*
X0031437Y0051510D01*
X0031437Y0053870D02*
X0040100Y0053870D01*
X0040100Y0056231D02*
X0031437Y0056231D01*
X0031437Y0058592D02*
X0040100Y0058592D01*
X0040100Y0060953D02*
X0031437Y0060953D01*
X0031437Y0063313D02*
X0040100Y0063313D01*
X0040100Y0065674D02*
X0031437Y0065674D01*
X0031437Y0068035D02*
X0040100Y0068035D01*
X0040100Y0070395D02*
X0031437Y0070395D01*
X0031437Y0072756D02*
X0040100Y0072756D01*
X0040100Y0075117D02*
X0031437Y0075117D01*
X0053100Y0089281D02*
X0053934Y0089281D01*
X0058514Y0096363D02*
X0059571Y0096363D01*
X0034143Y0119970D02*
X0031437Y0119970D01*
X0031437Y0122331D02*
X0031815Y0122331D01*
X0073179Y0131774D02*
X0108783Y0131774D01*
X0115787Y0131774D02*
X0115787Y0131774D01*
X0115787Y0131468D02*
X0115787Y0132831D01*
X0115787Y0132831D01*
X0115788Y0132831D02*
X0122791Y0132831D01*
X0115788Y0132831D01*
X0115788Y0132831D01*
X0115787Y0132831D02*
X0115787Y0127319D01*
X0115787Y0131468D01*
X0115787Y0129413D02*
X0115787Y0129413D01*
X0115787Y0127319D02*
X0115787Y0127319D01*
X0115788Y0127319D02*
X0122791Y0127319D01*
X0115788Y0127319D01*
X0115788Y0127319D01*
X0122791Y0127053D02*
X0143520Y0127053D01*
X0143661Y0124692D02*
X0143837Y0124692D01*
X0143661Y0122331D02*
X0144815Y0122331D01*
X0143661Y0119970D02*
X0147143Y0119970D01*
X0143467Y0117610D02*
X0159846Y0117610D01*
X0159846Y0119970D02*
X0157220Y0119970D01*
X0159547Y0122331D02*
X0159846Y0122331D01*
X0159846Y0115249D02*
X0140524Y0115249D01*
X0142885Y0112888D02*
X0159846Y0112888D01*
X0159846Y0110528D02*
X0145245Y0110528D01*
X0146446Y0108167D02*
X0159846Y0108167D01*
X0159846Y0105806D02*
X0146429Y0105806D01*
X0146411Y0103445D02*
X0159846Y0103445D01*
X0159846Y0101085D02*
X0146393Y0101085D01*
X0146375Y0098724D02*
X0159846Y0098724D01*
X0159846Y0096363D02*
X0146358Y0096363D01*
X0146340Y0094003D02*
X0159846Y0094003D01*
X0159846Y0091642D02*
X0146322Y0091642D01*
X0146304Y0089281D02*
X0159846Y0089281D01*
X0159846Y0086920D02*
X0146287Y0086920D01*
X0146269Y0084560D02*
X0159846Y0084560D01*
X0159846Y0082199D02*
X0146251Y0082199D01*
X0146233Y0079838D02*
X0159846Y0079838D01*
X0159846Y0077478D02*
X0146216Y0077478D01*
X0146198Y0075117D02*
X0159846Y0075117D01*
X0159846Y0072756D02*
X0146180Y0072756D01*
X0146162Y0070395D02*
X0159846Y0070395D01*
X0159846Y0068035D02*
X0146145Y0068035D01*
X0146127Y0065674D02*
X0159846Y0065674D01*
X0159846Y0063313D02*
X0146109Y0063313D01*
X0146091Y0060953D02*
X0159846Y0060953D01*
X0159846Y0058592D02*
X0146074Y0058592D01*
X0146056Y0056231D02*
X0159846Y0056231D01*
X0159846Y0053870D02*
X0146038Y0053870D01*
X0146020Y0051510D02*
X0159846Y0051510D01*
X0159846Y0049149D02*
X0146003Y0049149D01*
X0145985Y0046788D02*
X0159846Y0046788D01*
X0159846Y0044428D02*
X0145967Y0044428D01*
X0145955Y0042067D02*
X0159846Y0042067D01*
X0159846Y0039706D02*
X0145117Y0039706D01*
X0142662Y0037345D02*
X0159846Y0037345D01*
X0159846Y0034985D02*
X0140207Y0034985D01*
X0137751Y0032624D02*
X0159846Y0032624D01*
X0159846Y0030263D02*
X0135296Y0030263D01*
X0132841Y0027903D02*
X0148189Y0027903D01*
X0156173Y0027903D02*
X0159846Y0027903D01*
X0159846Y0025542D02*
X0159069Y0025542D01*
X0140816Y0094957D02*
X0122748Y0113025D01*
X0122449Y0113149D01*
X0122643Y0113485D01*
X0122791Y0114040D01*
X0122791Y0116295D01*
X0115788Y0116295D01*
X0115788Y0116295D01*
X0122791Y0116295D01*
X0122791Y0118551D01*
X0122643Y0119106D01*
X0122391Y0119541D01*
X0122391Y0120416D01*
X0127101Y0120416D01*
X0127101Y0117794D01*
X0128144Y0116750D01*
X0131201Y0116750D01*
X0140907Y0107044D01*
X0140816Y0094957D01*
X0140827Y0096363D02*
X0139410Y0096363D01*
X0140845Y0098724D02*
X0137049Y0098724D01*
X0134688Y0101085D02*
X0140862Y0101085D01*
X0140880Y0103445D02*
X0132328Y0103445D01*
X0129967Y0105806D02*
X0140898Y0105806D01*
X0139785Y0108167D02*
X0127606Y0108167D01*
X0125245Y0110528D02*
X0137424Y0110528D01*
X0135063Y0112888D02*
X0122885Y0112888D01*
X0122791Y0115249D02*
X0132702Y0115249D01*
X0127285Y0117610D02*
X0122791Y0117610D01*
X0122391Y0119970D02*
X0127101Y0119970D01*
X0122791Y0129413D02*
X0143731Y0129413D01*
X0144709Y0131774D02*
X0122791Y0131774D01*
X0138823Y0124692D02*
X0139020Y0124692D01*
X0139020Y0122331D02*
X0138823Y0122331D01*
D19*
X0122181Y0079681D03*
X0065681Y0076173D03*
D20*
X0152681Y0110681D03*
M02*
