G75*
%MOIN*%
%OFA0B0*%
%FSLAX25Y25*%
%IPPOS*%
%LPD*%
%AMOC8*
5,1,8,0,0,1.08239X$1,22.5*
%
%ADD10R,0.09646X0.03937*%
%ADD11R,0.03937X0.09646*%
%ADD12C,0.06496*%
%ADD13R,0.05118X0.06299*%
%ADD14R,0.05906X0.08661*%
%ADD15R,0.06299X0.07087*%
%ADD16C,0.02100*%
%ADD17C,0.01969*%
%ADD18C,0.01800*%
%ADD19C,0.02400*%
%ADD20C,0.02362*%
%ADD21C,0.01600*%
%ADD22R,0.07000X0.07000*%
%ADD23R,0.08000X0.08000*%
D10*
X0066575Y0094248D03*
X0066575Y0099760D03*
X0066575Y0105272D03*
X0066575Y0110783D03*
X0066575Y0116295D03*
X0066575Y0121807D03*
X0066575Y0127319D03*
X0066575Y0132831D03*
X0115787Y0132831D03*
X0115787Y0127319D03*
X0115787Y0121807D03*
X0115787Y0116295D03*
X0115787Y0110783D03*
X0115787Y0105272D03*
X0115787Y0099760D03*
X0115787Y0094248D03*
D11*
X0110472Y0085390D03*
X0104961Y0085390D03*
X0099449Y0085390D03*
X0093937Y0085390D03*
X0088425Y0085390D03*
X0082913Y0085390D03*
X0077402Y0085390D03*
X0071890Y0085390D03*
D12*
X0074681Y0052929D02*
X0074681Y0046433D01*
X0064681Y0046433D02*
X0064681Y0052929D01*
X0054681Y0052929D02*
X0054681Y0046433D01*
X0084681Y0046433D02*
X0084681Y0052929D01*
X0094681Y0052929D02*
X0094681Y0046433D01*
X0104681Y0046433D02*
X0104681Y0052929D01*
X0114681Y0052929D02*
X0114681Y0046433D01*
X0124681Y0046433D02*
X0124681Y0052929D01*
D13*
X0125421Y0067681D03*
X0117941Y0067681D03*
X0063921Y0067681D03*
X0056441Y0067681D03*
X0131441Y0121681D03*
X0138921Y0121681D03*
D14*
X0110283Y0068181D03*
X0098079Y0068181D03*
X0086283Y0068181D03*
X0074079Y0068181D03*
D15*
X0059193Y0085181D03*
X0048169Y0085181D03*
D16*
X0041681Y0078681D02*
X0041681Y0045681D01*
X0051181Y0037181D01*
X0062181Y0037181D01*
X0064681Y0039681D01*
X0064681Y0049681D01*
X0074681Y0049681D02*
X0074681Y0043681D01*
X0091681Y0026681D01*
X0134181Y0026681D01*
X0145681Y0038181D01*
X0145681Y0106681D01*
X0145181Y0106681D01*
X0143681Y0108181D01*
X0131181Y0120681D01*
X0131181Y0123181D02*
X0116181Y0123181D01*
X0115787Y0127319D02*
X0115787Y0132831D01*
X0134031Y0132831D01*
X0139681Y0127181D01*
X0139681Y0121681D01*
X0140681Y0120681D01*
X0141681Y0121681D02*
X0152681Y0110681D01*
X0139681Y0092181D02*
X0140681Y0091181D01*
X0140681Y0039681D01*
X0131181Y0030181D01*
X0099181Y0030181D01*
X0084681Y0044681D01*
X0084681Y0049681D01*
X0094681Y0043681D02*
X0104181Y0034181D01*
X0129181Y0034181D01*
X0136681Y0041681D01*
X0136681Y0089681D01*
X0135181Y0091181D01*
X0121181Y0105681D01*
X0121181Y0098181D02*
X0128681Y0090681D01*
X0128681Y0073181D01*
X0131181Y0070681D02*
X0132181Y0069681D01*
X0132181Y0042681D01*
X0128181Y0038681D01*
X0105681Y0038681D01*
X0104681Y0039681D01*
X0104681Y0049681D01*
X0114681Y0049681D02*
X0114681Y0058181D01*
X0112181Y0060681D01*
X0106181Y0060681D01*
X0103681Y0063181D01*
X0103681Y0073181D01*
X0106181Y0075681D01*
X0111181Y0075681D01*
X0116181Y0080681D01*
X0116181Y0093181D01*
X0111181Y0088681D02*
X0105614Y0094248D01*
X0105614Y0110114D01*
X0110067Y0116295D02*
X0105681Y0120681D01*
X0105681Y0123681D01*
X0109319Y0127319D01*
X0115787Y0127319D01*
X0115787Y0116295D02*
X0110067Y0116295D01*
X0105614Y0094248D02*
X0066575Y0094248D01*
X0059193Y0082662D02*
X0065681Y0076173D01*
X0060173Y0076173D01*
X0057681Y0073681D01*
X0057681Y0068921D01*
X0041681Y0078681D02*
X0041681Y0094181D01*
X0056181Y0108681D01*
X0056181Y0119681D01*
X0058307Y0121807D01*
X0066575Y0121807D01*
X0123681Y0079681D02*
X0123681Y0072681D01*
X0125421Y0070941D02*
X0125421Y0067681D01*
X0124681Y0066941D02*
X0124681Y0049681D01*
D17*
X0117941Y0067681D02*
X0116181Y0068181D01*
X0110283Y0068181D01*
X0098079Y0068181D02*
X0093681Y0068181D01*
X0093681Y0083181D01*
X0093937Y0085390D01*
X0088425Y0085390D02*
X0088681Y0083181D01*
X0088681Y0068181D01*
X0086283Y0068181D01*
X0074079Y0068181D02*
X0066181Y0068181D01*
X0063921Y0067681D01*
X0116181Y0093181D02*
X0115787Y0094248D01*
X0116181Y0098181D02*
X0115787Y0099760D01*
X0116181Y0098181D02*
X0121181Y0098181D01*
X0121181Y0105681D02*
X0116181Y0105681D01*
X0115787Y0105272D01*
X0116181Y0110681D02*
X0115787Y0110783D01*
X0116181Y0110681D02*
X0121181Y0110681D01*
X0139681Y0092181D01*
X0128681Y0073181D02*
X0131181Y0070681D01*
X0131181Y0120681D02*
X0131441Y0121681D01*
X0131181Y0123181D01*
X0116181Y0123181D02*
X0115787Y0121807D01*
D18*
X0094681Y0049681D02*
X0094681Y0043681D01*
D19*
X0054681Y0049681D02*
X0048169Y0056193D01*
X0048169Y0085181D01*
X0048169Y0089669D01*
X0058260Y0099760D01*
X0066575Y0099760D01*
X0066575Y0105272D01*
X0066575Y0110783D01*
D20*
X0031437Y0123244D02*
X0031437Y0024119D01*
X0031838Y0025087D01*
X0034275Y0027524D01*
X0037458Y0028843D01*
X0040904Y0028843D01*
X0044087Y0027524D01*
X0046524Y0025087D01*
X0047843Y0021904D01*
X0047843Y0018458D01*
X0046524Y0015275D01*
X0044087Y0012838D01*
X0043119Y0012437D01*
X0148244Y0012437D01*
X0147275Y0012838D01*
X0144838Y0015275D01*
X0143520Y0018458D01*
X0143520Y0021904D01*
X0144838Y0025087D01*
X0147275Y0027524D01*
X0150458Y0028843D01*
X0153904Y0028843D01*
X0157087Y0027524D01*
X0159524Y0025087D01*
X0159846Y0024309D01*
X0159846Y0123054D01*
X0159524Y0122275D01*
X0157087Y0119838D01*
X0153904Y0118520D01*
X0150458Y0118520D01*
X0147275Y0119838D01*
X0144838Y0122275D01*
X0143661Y0125116D01*
X0143661Y0121780D01*
X0139020Y0121780D01*
X0138823Y0121780D01*
X0138823Y0127012D01*
X0136075Y0127012D01*
X0135520Y0126863D01*
X0135023Y0126576D01*
X0134898Y0126451D01*
X0134738Y0126612D01*
X0128144Y0126612D01*
X0127545Y0126012D01*
X0122791Y0126012D01*
X0122791Y0127319D01*
X0122791Y0129575D01*
X0122657Y0130075D01*
X0122791Y0130575D01*
X0122791Y0132831D01*
X0122791Y0134126D01*
X0146877Y0134126D01*
X0144838Y0132087D01*
X0143520Y0128904D01*
X0143520Y0125647D01*
X0143513Y0125673D01*
X0143226Y0126170D01*
X0142820Y0126576D01*
X0142322Y0126863D01*
X0141767Y0127012D01*
X0139020Y0127012D01*
X0139020Y0121780D01*
X0139020Y0121583D01*
X0143661Y0121583D01*
X0143661Y0118244D01*
X0143513Y0117690D01*
X0143226Y0117192D01*
X0142820Y0116786D01*
X0142322Y0116499D01*
X0141767Y0116350D01*
X0139516Y0116350D01*
X0145285Y0110581D01*
X0145285Y0110581D01*
X0146431Y0109435D01*
X0147285Y0109081D01*
X0148081Y0108285D01*
X0148512Y0107244D01*
X0148512Y0037618D01*
X0148081Y0036577D01*
X0147285Y0035781D01*
X0135785Y0024281D01*
X0134744Y0023850D01*
X0091118Y0023850D01*
X0090077Y0024281D01*
X0089281Y0025077D01*
X0072441Y0041917D01*
X0071832Y0042170D01*
X0070418Y0043584D01*
X0069681Y0045362D01*
X0068945Y0043584D01*
X0067530Y0042170D01*
X0067512Y0042162D01*
X0067512Y0039118D01*
X0067081Y0038077D01*
X0064581Y0035577D01*
X0063785Y0034781D01*
X0062744Y0034350D01*
X0051260Y0034350D01*
X0050776Y0034323D01*
X0050699Y0034350D01*
X0050618Y0034350D01*
X0050170Y0034535D01*
X0049713Y0034696D01*
X0049652Y0034750D01*
X0049577Y0034781D01*
X0049235Y0035124D01*
X0040152Y0043250D01*
X0040077Y0043281D01*
X0039735Y0043624D01*
X0039374Y0043947D01*
X0039338Y0044020D01*
X0039281Y0044077D01*
X0039096Y0044525D01*
X0038886Y0044962D01*
X0038881Y0045043D01*
X0038850Y0045118D01*
X0038850Y0045602D01*
X0038823Y0046086D01*
X0038850Y0046163D01*
X0038850Y0094744D01*
X0039281Y0095785D01*
X0053350Y0109854D01*
X0053350Y0120244D01*
X0053781Y0121285D01*
X0055907Y0123411D01*
X0056703Y0124207D01*
X0057744Y0124638D01*
X0059971Y0124638D01*
X0059971Y0130025D01*
X0060021Y0130075D01*
X0059971Y0130124D01*
X0059971Y0134126D01*
X0044485Y0134126D01*
X0046524Y0132087D01*
X0047843Y0128904D01*
X0047843Y0125458D01*
X0046524Y0122275D01*
X0044087Y0119838D01*
X0040904Y0118520D01*
X0037458Y0118520D01*
X0034275Y0119838D01*
X0031838Y0122275D01*
X0031437Y0123244D01*
X0031437Y0122331D02*
X0031815Y0122331D01*
X0031437Y0119970D02*
X0034143Y0119970D01*
X0031437Y0117610D02*
X0053350Y0117610D01*
X0053350Y0119970D02*
X0044220Y0119970D01*
X0046547Y0122331D02*
X0054827Y0122331D01*
X0059971Y0124692D02*
X0047525Y0124692D01*
X0047843Y0127053D02*
X0059971Y0127053D01*
X0059971Y0129413D02*
X0047632Y0129413D01*
X0046654Y0131774D02*
X0059971Y0131774D01*
X0073129Y0130075D02*
X0073179Y0130124D01*
X0073179Y0134126D01*
X0108783Y0134126D01*
X0108783Y0132831D01*
X0115787Y0132831D01*
X0115787Y0132831D01*
X0108783Y0132831D01*
X0108783Y0130575D01*
X0108918Y0130075D01*
X0108783Y0129575D01*
X0108783Y0127319D01*
X0115787Y0127319D01*
X0115787Y0127319D01*
X0108783Y0127319D01*
X0108783Y0125063D01*
X0108932Y0124509D01*
X0109183Y0124073D01*
X0109183Y0119541D01*
X0108932Y0119106D01*
X0108783Y0118551D01*
X0108783Y0116295D01*
X0108783Y0114040D01*
X0108932Y0113485D01*
X0109183Y0113050D01*
X0109183Y0108077D01*
X0109233Y0108028D01*
X0109183Y0107978D01*
X0109183Y0102565D01*
X0109233Y0102516D01*
X0109183Y0102466D01*
X0109183Y0097054D01*
X0109233Y0097004D01*
X0109183Y0096954D01*
X0109183Y0092394D01*
X0108217Y0092394D01*
X0107662Y0092245D01*
X0107227Y0091994D01*
X0102254Y0091994D01*
X0102205Y0091944D01*
X0102155Y0091994D01*
X0096743Y0091994D01*
X0096693Y0091944D01*
X0096643Y0091994D01*
X0091231Y0091994D01*
X0091181Y0091944D01*
X0091131Y0091994D01*
X0085719Y0091994D01*
X0085669Y0091944D01*
X0085620Y0091994D01*
X0080207Y0091994D01*
X0080157Y0091944D01*
X0080108Y0091994D01*
X0074695Y0091994D01*
X0074646Y0091944D01*
X0074596Y0091994D01*
X0073579Y0091994D01*
X0073579Y0094248D01*
X0066575Y0094248D01*
X0066575Y0094248D01*
X0073579Y0094248D01*
X0073579Y0096504D01*
X0073430Y0097058D01*
X0073179Y0097494D01*
X0073179Y0102466D01*
X0073129Y0102516D01*
X0073179Y0102565D01*
X0073179Y0107978D01*
X0073129Y0108028D01*
X0073179Y0108077D01*
X0073179Y0113490D01*
X0073129Y0113539D01*
X0073179Y0113589D01*
X0073179Y0119002D01*
X0073129Y0119051D01*
X0073179Y0119101D01*
X0073179Y0124513D01*
X0073129Y0124563D01*
X0073179Y0124613D01*
X0073179Y0130025D01*
X0073129Y0130075D01*
X0073179Y0129413D02*
X0108783Y0129413D01*
X0108783Y0127053D02*
X0073179Y0127053D01*
X0073179Y0124692D02*
X0108883Y0124692D01*
X0109183Y0122331D02*
X0073179Y0122331D01*
X0073179Y0119970D02*
X0109183Y0119970D01*
X0108783Y0117610D02*
X0073179Y0117610D01*
X0073179Y0115249D02*
X0108783Y0115249D01*
X0108783Y0116295D02*
X0115787Y0116295D01*
X0115787Y0116295D01*
X0108783Y0116295D01*
X0109183Y0112888D02*
X0073179Y0112888D01*
X0073179Y0110528D02*
X0109183Y0110528D01*
X0109183Y0108167D02*
X0073179Y0108167D01*
X0073179Y0105806D02*
X0109183Y0105806D01*
X0109183Y0103445D02*
X0073179Y0103445D01*
X0073179Y0101085D02*
X0109183Y0101085D01*
X0109183Y0098724D02*
X0073179Y0098724D01*
X0073579Y0096363D02*
X0109183Y0096363D01*
X0109183Y0094003D02*
X0073579Y0094003D01*
X0068140Y0090098D02*
X0068140Y0079829D01*
X0069184Y0078786D01*
X0074596Y0078786D01*
X0074646Y0078835D01*
X0074695Y0078786D01*
X0080108Y0078786D01*
X0080157Y0078835D01*
X0080207Y0078786D01*
X0085620Y0078786D01*
X0085669Y0078835D01*
X0085719Y0078786D01*
X0085916Y0078786D01*
X0085916Y0074293D01*
X0082593Y0074293D01*
X0081550Y0073250D01*
X0081550Y0063113D01*
X0082593Y0062069D01*
X0089974Y0062069D01*
X0091017Y0063113D01*
X0091017Y0066607D01*
X0091025Y0066615D01*
X0091181Y0066990D01*
X0091337Y0066615D01*
X0092115Y0065837D01*
X0093131Y0065416D01*
X0093345Y0065416D01*
X0093345Y0063113D01*
X0094388Y0062069D01*
X0101077Y0062069D01*
X0101281Y0061577D01*
X0102077Y0060781D01*
X0104577Y0058281D01*
X0105357Y0057958D01*
X0103681Y0057958D01*
X0101832Y0057193D01*
X0100418Y0055778D01*
X0099681Y0054000D01*
X0098945Y0055778D01*
X0097530Y0057193D01*
X0095681Y0057958D01*
X0093681Y0057958D01*
X0091832Y0057193D01*
X0090418Y0055778D01*
X0089681Y0054000D01*
X0088945Y0055778D01*
X0087530Y0057193D01*
X0085681Y0057958D01*
X0083681Y0057958D01*
X0081832Y0057193D01*
X0080418Y0055778D01*
X0079681Y0054000D01*
X0078945Y0055778D01*
X0077530Y0057193D01*
X0075681Y0057958D01*
X0073681Y0057958D01*
X0071832Y0057193D01*
X0070418Y0055778D01*
X0069681Y0054000D01*
X0068945Y0055778D01*
X0067530Y0057193D01*
X0065681Y0057958D01*
X0063681Y0057958D01*
X0061832Y0057193D01*
X0060418Y0055778D01*
X0059681Y0054000D01*
X0058945Y0055778D01*
X0057530Y0057193D01*
X0055681Y0057958D01*
X0053681Y0057958D01*
X0051832Y0057193D01*
X0051609Y0056969D01*
X0051150Y0057428D01*
X0051150Y0079857D01*
X0052057Y0079857D01*
X0053100Y0080900D01*
X0053100Y0089462D01*
X0052639Y0089923D01*
X0059495Y0096779D01*
X0059645Y0096779D01*
X0059571Y0096504D01*
X0059571Y0094248D01*
X0059571Y0091992D01*
X0059720Y0091438D01*
X0060007Y0090940D01*
X0060041Y0090905D01*
X0059587Y0090905D01*
X0059587Y0085575D01*
X0064524Y0085575D01*
X0064524Y0089012D01*
X0064375Y0089566D01*
X0064088Y0090064D01*
X0064053Y0090098D01*
X0066575Y0090098D01*
X0068140Y0090098D01*
X0068140Y0089281D02*
X0064451Y0089281D01*
X0066575Y0090098D02*
X0066575Y0094248D01*
X0066575Y0090098D01*
X0066575Y0091642D02*
X0066575Y0091642D01*
X0066575Y0094003D02*
X0066575Y0094003D01*
X0066575Y0094248D02*
X0066575Y0094248D01*
X0059571Y0094248D01*
X0066575Y0094248D01*
X0066575Y0094248D01*
X0059571Y0094003D02*
X0056719Y0094003D01*
X0055756Y0090905D02*
X0055201Y0090757D01*
X0054704Y0090470D01*
X0054298Y0090064D01*
X0054011Y0089566D01*
X0053862Y0089012D01*
X0053862Y0085575D01*
X0058799Y0085575D01*
X0058799Y0084787D01*
X0059587Y0084787D01*
X0059587Y0085575D01*
X0058799Y0085575D01*
X0058799Y0090905D01*
X0055756Y0090905D01*
X0054358Y0091642D02*
X0059665Y0091642D01*
X0059587Y0089281D02*
X0058799Y0089281D01*
X0058799Y0086920D02*
X0059587Y0086920D01*
X0059587Y0084787D02*
X0064524Y0084787D01*
X0064524Y0081351D01*
X0064375Y0080796D01*
X0064088Y0080299D01*
X0063682Y0079892D01*
X0063184Y0079605D01*
X0062630Y0079457D01*
X0059587Y0079457D01*
X0059587Y0084787D01*
X0059587Y0084560D02*
X0058799Y0084560D01*
X0058799Y0084787D02*
X0058799Y0079457D01*
X0055756Y0079457D01*
X0055201Y0079605D01*
X0054704Y0079892D01*
X0054298Y0080299D01*
X0054011Y0080796D01*
X0053862Y0081351D01*
X0053862Y0084787D01*
X0058799Y0084787D01*
X0058799Y0082199D02*
X0059587Y0082199D01*
X0059587Y0079838D02*
X0058799Y0079838D01*
X0063588Y0079838D02*
X0068140Y0079838D01*
X0068140Y0082199D02*
X0064524Y0082199D01*
X0064524Y0084560D02*
X0068140Y0084560D01*
X0068140Y0086920D02*
X0064524Y0086920D01*
X0053862Y0086920D02*
X0053100Y0086920D01*
X0053100Y0084560D02*
X0053862Y0084560D01*
X0053862Y0082199D02*
X0053100Y0082199D01*
X0054798Y0079838D02*
X0051150Y0079838D01*
X0051150Y0077478D02*
X0085916Y0077478D01*
X0085916Y0075117D02*
X0051150Y0075117D01*
X0051150Y0072756D02*
X0052855Y0072756D01*
X0053040Y0072863D02*
X0052543Y0072576D01*
X0052137Y0072170D01*
X0051849Y0071673D01*
X0051701Y0071118D01*
X0051701Y0067780D01*
X0056342Y0067780D01*
X0056342Y0067583D01*
X0051701Y0067583D01*
X0051701Y0064244D01*
X0051849Y0063690D01*
X0052137Y0063192D01*
X0052543Y0062786D01*
X0053040Y0062499D01*
X0053595Y0062350D01*
X0056342Y0062350D01*
X0056342Y0067583D01*
X0056539Y0067583D01*
X0056539Y0062350D01*
X0059287Y0062350D01*
X0059842Y0062499D01*
X0060339Y0062786D01*
X0060464Y0062911D01*
X0060624Y0062750D01*
X0067218Y0062750D01*
X0068261Y0063794D01*
X0068261Y0065416D01*
X0069345Y0065416D01*
X0069345Y0063113D01*
X0070388Y0062069D01*
X0077769Y0062069D01*
X0078813Y0063113D01*
X0078813Y0073250D01*
X0077769Y0074293D01*
X0070388Y0074293D01*
X0069345Y0073250D01*
X0069345Y0070946D01*
X0068261Y0070946D01*
X0068261Y0071568D01*
X0067218Y0072612D01*
X0060624Y0072612D01*
X0060464Y0072451D01*
X0060339Y0072576D01*
X0059842Y0072863D01*
X0059287Y0073012D01*
X0056539Y0073012D01*
X0056539Y0067780D01*
X0056342Y0067780D01*
X0056342Y0073012D01*
X0053595Y0073012D01*
X0053040Y0072863D01*
X0051701Y0070395D02*
X0051150Y0070395D01*
X0051150Y0068035D02*
X0051701Y0068035D01*
X0051701Y0065674D02*
X0051150Y0065674D01*
X0051150Y0063313D02*
X0052067Y0063313D01*
X0051150Y0060953D02*
X0101906Y0060953D01*
X0104267Y0058592D02*
X0051150Y0058592D01*
X0056342Y0063313D02*
X0056539Y0063313D01*
X0056539Y0065674D02*
X0056342Y0065674D01*
X0056342Y0068035D02*
X0056539Y0068035D01*
X0056539Y0070395D02*
X0056342Y0070395D01*
X0056342Y0072756D02*
X0056539Y0072756D01*
X0060027Y0072756D02*
X0069345Y0072756D01*
X0069345Y0063313D02*
X0067781Y0063313D01*
X0068491Y0056231D02*
X0070871Y0056231D01*
X0078491Y0056231D02*
X0080871Y0056231D01*
X0081550Y0063313D02*
X0078813Y0063313D01*
X0078813Y0065674D02*
X0081550Y0065674D01*
X0081550Y0068035D02*
X0078813Y0068035D01*
X0078813Y0070395D02*
X0081550Y0070395D01*
X0081550Y0072756D02*
X0078813Y0072756D01*
X0091017Y0065674D02*
X0092508Y0065674D01*
X0093345Y0063313D02*
X0091017Y0063313D01*
X0090871Y0056231D02*
X0088491Y0056231D01*
X0098491Y0056231D02*
X0100871Y0056231D01*
X0114385Y0062481D02*
X0114655Y0062750D01*
X0121238Y0062750D01*
X0121398Y0062911D01*
X0121523Y0062786D01*
X0122020Y0062499D01*
X0122575Y0062350D01*
X0125323Y0062350D01*
X0125323Y0067583D01*
X0125520Y0067583D01*
X0125520Y0062350D01*
X0128267Y0062350D01*
X0128822Y0062499D01*
X0129320Y0062786D01*
X0129350Y0062817D01*
X0129350Y0055725D01*
X0129325Y0055775D01*
X0128822Y0056466D01*
X0128218Y0057070D01*
X0127527Y0057573D01*
X0126765Y0057960D01*
X0125952Y0058225D01*
X0125108Y0058358D01*
X0124681Y0058358D01*
X0124254Y0058358D01*
X0123410Y0058225D01*
X0122597Y0057960D01*
X0121836Y0057573D01*
X0121144Y0057070D01*
X0120540Y0056466D01*
X0120038Y0055775D01*
X0119650Y0055013D01*
X0119479Y0054488D01*
X0118945Y0055778D01*
X0117530Y0057193D01*
X0117512Y0057200D01*
X0117512Y0058744D01*
X0117081Y0059785D01*
X0114385Y0062481D01*
X0115913Y0060953D02*
X0129350Y0060953D01*
X0129350Y0058592D02*
X0117512Y0058592D01*
X0118491Y0056231D02*
X0120369Y0056231D01*
X0124681Y0056231D02*
X0124681Y0056231D01*
X0124681Y0058358D02*
X0124681Y0049681D01*
X0124681Y0058358D01*
X0124681Y0053870D02*
X0124681Y0053870D01*
X0124681Y0051510D02*
X0124681Y0051510D01*
X0124681Y0049681D02*
X0124681Y0049681D01*
X0128993Y0056231D02*
X0129350Y0056231D01*
X0125520Y0063313D02*
X0125323Y0063313D01*
X0125323Y0065674D02*
X0125520Y0065674D01*
X0125520Y0067780D02*
X0125323Y0067780D01*
X0125323Y0073012D01*
X0122575Y0073012D01*
X0122020Y0072863D01*
X0121523Y0072576D01*
X0121398Y0072451D01*
X0121238Y0072612D01*
X0115017Y0072612D01*
X0115017Y0073250D01*
X0113974Y0074293D01*
X0113797Y0074293D01*
X0118581Y0079077D01*
X0119012Y0080118D01*
X0119012Y0081244D01*
X0119012Y0090498D01*
X0121348Y0090498D01*
X0122391Y0091542D01*
X0122391Y0092967D01*
X0125850Y0089508D01*
X0125850Y0073012D01*
X0125520Y0073012D01*
X0125520Y0067780D01*
X0125520Y0068035D02*
X0125323Y0068035D01*
X0125323Y0070395D02*
X0125520Y0070395D01*
X0125520Y0072756D02*
X0125323Y0072756D01*
X0125850Y0075117D02*
X0114621Y0075117D01*
X0116981Y0077478D02*
X0125850Y0077478D01*
X0125850Y0079838D02*
X0118896Y0079838D01*
X0119012Y0082199D02*
X0125850Y0082199D01*
X0125850Y0084560D02*
X0119012Y0084560D01*
X0119012Y0086920D02*
X0125850Y0086920D01*
X0125850Y0089281D02*
X0119012Y0089281D01*
X0122391Y0091642D02*
X0123717Y0091642D01*
X0134688Y0101085D02*
X0142850Y0101085D01*
X0142850Y0098724D02*
X0137049Y0098724D01*
X0139410Y0096363D02*
X0142850Y0096363D01*
X0141285Y0094581D02*
X0141126Y0094647D01*
X0122748Y0113025D01*
X0122449Y0113149D01*
X0122643Y0113485D01*
X0122791Y0114040D01*
X0122791Y0116295D01*
X0115788Y0116295D01*
X0115788Y0116295D01*
X0122791Y0116295D01*
X0122791Y0118551D01*
X0122643Y0119106D01*
X0122391Y0119541D01*
X0122391Y0120350D01*
X0127101Y0120350D01*
X0127101Y0117794D01*
X0128144Y0116750D01*
X0131108Y0116750D01*
X0141281Y0106577D01*
X0142850Y0105008D01*
X0142850Y0093016D01*
X0142285Y0093581D01*
X0141285Y0094581D01*
X0141863Y0094003D02*
X0142850Y0094003D01*
X0148512Y0094003D02*
X0159846Y0094003D01*
X0159846Y0091642D02*
X0148512Y0091642D01*
X0148512Y0089281D02*
X0159846Y0089281D01*
X0159846Y0086920D02*
X0148512Y0086920D01*
X0148512Y0084560D02*
X0159846Y0084560D01*
X0159846Y0082199D02*
X0148512Y0082199D01*
X0148512Y0079838D02*
X0159846Y0079838D01*
X0159846Y0077478D02*
X0148512Y0077478D01*
X0148512Y0075117D02*
X0159846Y0075117D01*
X0159846Y0072756D02*
X0148512Y0072756D01*
X0148512Y0070395D02*
X0159846Y0070395D01*
X0159846Y0068035D02*
X0148512Y0068035D01*
X0148512Y0065674D02*
X0159846Y0065674D01*
X0159846Y0063313D02*
X0148512Y0063313D01*
X0148512Y0060953D02*
X0159846Y0060953D01*
X0159846Y0058592D02*
X0148512Y0058592D01*
X0148512Y0056231D02*
X0159846Y0056231D01*
X0159846Y0053870D02*
X0148512Y0053870D01*
X0148512Y0051510D02*
X0159846Y0051510D01*
X0159846Y0049149D02*
X0148512Y0049149D01*
X0148512Y0046788D02*
X0159846Y0046788D01*
X0159846Y0044428D02*
X0148512Y0044428D01*
X0148512Y0042067D02*
X0159846Y0042067D01*
X0159846Y0039706D02*
X0148512Y0039706D01*
X0148399Y0037345D02*
X0159846Y0037345D01*
X0159846Y0034985D02*
X0146488Y0034985D01*
X0144128Y0032624D02*
X0159846Y0032624D01*
X0159846Y0030263D02*
X0141767Y0030263D01*
X0139406Y0027903D02*
X0148189Y0027903D01*
X0145293Y0025542D02*
X0137046Y0025542D01*
X0144049Y0023181D02*
X0047314Y0023181D01*
X0046069Y0025542D02*
X0088817Y0025542D01*
X0086456Y0027903D02*
X0043173Y0027903D01*
X0035189Y0027903D02*
X0031437Y0027903D01*
X0031437Y0025542D02*
X0032293Y0025542D01*
X0031437Y0030263D02*
X0084095Y0030263D01*
X0081734Y0032624D02*
X0031437Y0032624D01*
X0031437Y0034985D02*
X0049374Y0034985D01*
X0046752Y0037345D02*
X0031437Y0037345D01*
X0031437Y0039706D02*
X0044113Y0039706D01*
X0041475Y0042067D02*
X0031437Y0042067D01*
X0031437Y0044428D02*
X0039136Y0044428D01*
X0038850Y0046788D02*
X0031437Y0046788D01*
X0031437Y0049149D02*
X0038850Y0049149D01*
X0038850Y0051510D02*
X0031437Y0051510D01*
X0031437Y0053870D02*
X0038850Y0053870D01*
X0038850Y0056231D02*
X0031437Y0056231D01*
X0031437Y0058592D02*
X0038850Y0058592D01*
X0038850Y0060953D02*
X0031437Y0060953D01*
X0031437Y0063313D02*
X0038850Y0063313D01*
X0038850Y0065674D02*
X0031437Y0065674D01*
X0031437Y0068035D02*
X0038850Y0068035D01*
X0038850Y0070395D02*
X0031437Y0070395D01*
X0031437Y0072756D02*
X0038850Y0072756D01*
X0038850Y0075117D02*
X0031437Y0075117D01*
X0031437Y0077478D02*
X0038850Y0077478D01*
X0038850Y0079838D02*
X0031437Y0079838D01*
X0031437Y0082199D02*
X0038850Y0082199D01*
X0038850Y0084560D02*
X0031437Y0084560D01*
X0031437Y0086920D02*
X0038850Y0086920D01*
X0038850Y0089281D02*
X0031437Y0089281D01*
X0031437Y0091642D02*
X0038850Y0091642D01*
X0038850Y0094003D02*
X0031437Y0094003D01*
X0031437Y0096363D02*
X0039860Y0096363D01*
X0042220Y0098724D02*
X0031437Y0098724D01*
X0031437Y0101085D02*
X0044581Y0101085D01*
X0046942Y0103445D02*
X0031437Y0103445D01*
X0031437Y0105806D02*
X0049302Y0105806D01*
X0051663Y0108167D02*
X0031437Y0108167D01*
X0031437Y0110528D02*
X0053350Y0110528D01*
X0053350Y0112888D02*
X0031437Y0112888D01*
X0031437Y0115249D02*
X0053350Y0115249D01*
X0059079Y0096363D02*
X0059571Y0096363D01*
X0053934Y0089281D02*
X0053100Y0089281D01*
X0058491Y0056231D02*
X0060871Y0056231D01*
X0069294Y0044428D02*
X0070068Y0044428D01*
X0072080Y0042067D02*
X0067512Y0042067D01*
X0067512Y0039706D02*
X0074652Y0039706D01*
X0077013Y0037345D02*
X0066349Y0037345D01*
X0063988Y0034985D02*
X0079374Y0034985D01*
X0047843Y0020820D02*
X0143520Y0020820D01*
X0143520Y0018460D02*
X0047843Y0018460D01*
X0046865Y0016099D02*
X0144497Y0016099D01*
X0146375Y0013738D02*
X0044987Y0013738D01*
X0115017Y0072756D02*
X0121835Y0072756D01*
X0110472Y0085390D02*
X0110472Y0085390D01*
X0110472Y0090498D01*
X0110472Y0090498D01*
X0110472Y0085390D01*
X0110472Y0086920D02*
X0110472Y0086920D01*
X0110472Y0089281D02*
X0110472Y0089281D01*
X0127606Y0108167D02*
X0139692Y0108167D01*
X0141281Y0106577D02*
X0141281Y0106577D01*
X0142052Y0105806D02*
X0129967Y0105806D01*
X0132328Y0103445D02*
X0142850Y0103445D01*
X0148512Y0103445D02*
X0159846Y0103445D01*
X0159846Y0105806D02*
X0148512Y0105806D01*
X0148130Y0108167D02*
X0159846Y0108167D01*
X0159846Y0110528D02*
X0145338Y0110528D01*
X0142978Y0112888D02*
X0159846Y0112888D01*
X0159846Y0115249D02*
X0140617Y0115249D01*
X0143467Y0117610D02*
X0159846Y0117610D01*
X0159846Y0119970D02*
X0157220Y0119970D01*
X0159547Y0122331D02*
X0159846Y0122331D01*
X0147143Y0119970D02*
X0143661Y0119970D01*
X0143661Y0122331D02*
X0144815Y0122331D01*
X0143837Y0124692D02*
X0143661Y0124692D01*
X0143520Y0127053D02*
X0122791Y0127053D01*
X0122791Y0127319D02*
X0115788Y0127319D01*
X0122791Y0127319D01*
X0122791Y0129413D02*
X0143731Y0129413D01*
X0144709Y0131774D02*
X0122791Y0131774D01*
X0122791Y0132831D02*
X0115788Y0132831D01*
X0122791Y0132831D01*
X0115788Y0132831D02*
X0115788Y0132831D01*
X0115787Y0132831D02*
X0115787Y0127319D01*
X0115787Y0131468D01*
X0115787Y0132831D01*
X0115787Y0132831D01*
X0115787Y0131774D02*
X0115787Y0131774D01*
X0115787Y0129413D02*
X0115787Y0129413D01*
X0115787Y0127319D02*
X0115787Y0127319D01*
X0115788Y0127319D02*
X0115788Y0127319D01*
X0108783Y0131774D02*
X0073179Y0131774D01*
X0122391Y0119970D02*
X0127101Y0119970D01*
X0127285Y0117610D02*
X0122791Y0117610D01*
X0122791Y0115249D02*
X0132609Y0115249D01*
X0134970Y0112888D02*
X0122885Y0112888D01*
X0125245Y0110528D02*
X0137331Y0110528D01*
X0138823Y0122331D02*
X0139020Y0122331D01*
X0139020Y0124692D02*
X0138823Y0124692D01*
X0148512Y0101085D02*
X0159846Y0101085D01*
X0159846Y0098724D02*
X0148512Y0098724D01*
X0148512Y0096363D02*
X0159846Y0096363D01*
X0159846Y0027903D02*
X0156173Y0027903D01*
X0159069Y0025542D02*
X0159846Y0025542D01*
D21*
X0124681Y0066941D02*
X0125421Y0067681D01*
X0125421Y0070941D02*
X0123681Y0072681D01*
X0123681Y0079681D02*
X0123181Y0080181D01*
X0122181Y0079681D01*
X0110472Y0085390D02*
X0110472Y0087972D01*
X0111181Y0088681D01*
X0105614Y0110114D02*
X0112181Y0116681D01*
X0112567Y0116295D01*
X0115787Y0116295D01*
X0138921Y0121681D02*
X0139681Y0121681D01*
X0141681Y0121681D01*
X0059193Y0085181D02*
X0059193Y0082662D01*
X0057681Y0068921D02*
X0056441Y0067681D01*
D22*
X0065681Y0076173D03*
X0122181Y0079681D03*
D23*
X0152681Y0110681D03*
M02*
