G75*
%MOIN*%
%OFA0B0*%
%FSLAX25Y25*%
%IPPOS*%
%LPD*%
%AMOC8*
5,1,8,0,0,1.08239X$1,22.5*
%
%ADD10C,0.06496*%
%ADD11C,0.02362*%
%ADD12R,0.07000X0.07000*%
%ADD13C,0.01600*%
%ADD14R,0.08000X0.08000*%
D10*
X0054681Y0046433D02*
X0054681Y0052929D01*
X0064681Y0052929D02*
X0064681Y0046433D01*
X0074681Y0046433D02*
X0074681Y0052929D01*
X0084681Y0052929D02*
X0084681Y0046433D01*
X0094681Y0046433D02*
X0094681Y0052929D01*
X0104681Y0052929D02*
X0104681Y0046433D01*
X0114681Y0046433D02*
X0114681Y0052929D01*
X0124681Y0052929D02*
X0124681Y0046433D01*
D11*
X0031437Y0024119D02*
X0031437Y0123244D01*
X0031838Y0122275D01*
X0034275Y0119838D01*
X0037458Y0118520D01*
X0040904Y0118520D01*
X0044087Y0119838D01*
X0046524Y0122275D01*
X0047843Y0125458D01*
X0047843Y0128904D01*
X0046524Y0132087D01*
X0044485Y0134126D01*
X0146877Y0134126D01*
X0144838Y0132087D01*
X0143520Y0128904D01*
X0143520Y0125458D01*
X0144838Y0122275D01*
X0147275Y0119838D01*
X0150458Y0118520D01*
X0153904Y0118520D01*
X0157087Y0119838D01*
X0159524Y0122275D01*
X0159846Y0123054D01*
X0159846Y0024309D01*
X0159524Y0025087D01*
X0157087Y0027524D01*
X0153904Y0028843D01*
X0150458Y0028843D01*
X0147275Y0027524D01*
X0144838Y0025087D01*
X0143520Y0021904D01*
X0143520Y0018458D01*
X0144838Y0015275D01*
X0147275Y0012838D01*
X0148244Y0012437D01*
X0043119Y0012437D01*
X0044087Y0012838D01*
X0046524Y0015275D01*
X0047843Y0018458D01*
X0047843Y0021904D01*
X0046524Y0025087D01*
X0044087Y0027524D01*
X0040904Y0028843D01*
X0037458Y0028843D01*
X0034275Y0027524D01*
X0031838Y0025087D01*
X0031437Y0024119D01*
X0031437Y0025542D02*
X0032293Y0025542D01*
X0031437Y0027903D02*
X0035189Y0027903D01*
X0031437Y0030263D02*
X0159846Y0030263D01*
X0159846Y0032624D02*
X0031437Y0032624D01*
X0031437Y0034985D02*
X0159846Y0034985D01*
X0159846Y0037345D02*
X0031437Y0037345D01*
X0031437Y0039706D02*
X0159846Y0039706D01*
X0159846Y0042067D02*
X0127908Y0042067D01*
X0128218Y0042292D02*
X0127527Y0041790D01*
X0126765Y0041402D01*
X0125952Y0041138D01*
X0125108Y0041004D01*
X0124681Y0041004D01*
X0124681Y0049681D01*
X0124681Y0049681D01*
X0124681Y0041004D01*
X0124254Y0041004D01*
X0123410Y0041138D01*
X0122597Y0041402D01*
X0121836Y0041790D01*
X0121144Y0042292D01*
X0120540Y0042896D01*
X0120038Y0043588D01*
X0119650Y0044349D01*
X0119479Y0044874D01*
X0118945Y0043584D01*
X0117530Y0042170D01*
X0115681Y0041404D01*
X0113681Y0041404D01*
X0111832Y0042170D01*
X0110418Y0043584D01*
X0109681Y0045362D01*
X0108945Y0043584D01*
X0107530Y0042170D01*
X0105681Y0041404D01*
X0103681Y0041404D01*
X0101832Y0042170D01*
X0100418Y0043584D01*
X0099681Y0045362D01*
X0098945Y0043584D01*
X0097530Y0042170D01*
X0095681Y0041404D01*
X0093681Y0041404D01*
X0091832Y0042170D01*
X0090418Y0043584D01*
X0089681Y0045362D01*
X0088945Y0043584D01*
X0087530Y0042170D01*
X0085681Y0041404D01*
X0083681Y0041404D01*
X0081832Y0042170D01*
X0080418Y0043584D01*
X0079681Y0045362D01*
X0078945Y0043584D01*
X0077530Y0042170D01*
X0075681Y0041404D01*
X0073681Y0041404D01*
X0071832Y0042170D01*
X0070418Y0043584D01*
X0069681Y0045362D01*
X0068945Y0043584D01*
X0067530Y0042170D01*
X0065681Y0041404D01*
X0063681Y0041404D01*
X0061832Y0042170D01*
X0060418Y0043584D01*
X0059681Y0045362D01*
X0058945Y0043584D01*
X0057530Y0042170D01*
X0055681Y0041404D01*
X0053681Y0041404D01*
X0051832Y0042170D01*
X0050418Y0043584D01*
X0049652Y0045433D01*
X0049652Y0053929D01*
X0050418Y0055778D01*
X0051832Y0057193D01*
X0053681Y0057958D01*
X0055681Y0057958D01*
X0057530Y0057193D01*
X0058945Y0055778D01*
X0059681Y0054000D01*
X0060418Y0055778D01*
X0061832Y0057193D01*
X0063681Y0057958D01*
X0065681Y0057958D01*
X0067530Y0057193D01*
X0068945Y0055778D01*
X0069681Y0054000D01*
X0070418Y0055778D01*
X0071832Y0057193D01*
X0073681Y0057958D01*
X0075681Y0057958D01*
X0077530Y0057193D01*
X0078945Y0055778D01*
X0079681Y0054000D01*
X0080418Y0055778D01*
X0081832Y0057193D01*
X0083681Y0057958D01*
X0085681Y0057958D01*
X0087530Y0057193D01*
X0088945Y0055778D01*
X0089681Y0054000D01*
X0090418Y0055778D01*
X0091832Y0057193D01*
X0093681Y0057958D01*
X0095681Y0057958D01*
X0097530Y0057193D01*
X0098945Y0055778D01*
X0099681Y0054000D01*
X0100418Y0055778D01*
X0101832Y0057193D01*
X0103681Y0057958D01*
X0105681Y0057958D01*
X0107530Y0057193D01*
X0108945Y0055778D01*
X0109681Y0054000D01*
X0110418Y0055778D01*
X0111832Y0057193D01*
X0113681Y0057958D01*
X0115681Y0057958D01*
X0117530Y0057193D01*
X0118945Y0055778D01*
X0119479Y0054488D01*
X0119650Y0055013D01*
X0120038Y0055775D01*
X0120540Y0056466D01*
X0121144Y0057070D01*
X0121836Y0057573D01*
X0122597Y0057960D01*
X0123410Y0058225D01*
X0124254Y0058358D01*
X0124681Y0058358D01*
X0124681Y0049681D01*
X0124681Y0049681D01*
X0124681Y0049681D01*
X0130110Y0049681D01*
X0130110Y0046006D01*
X0129977Y0045162D01*
X0129712Y0044349D01*
X0129325Y0043588D01*
X0128822Y0042896D01*
X0128218Y0042292D01*
X0129738Y0044428D02*
X0159846Y0044428D01*
X0159846Y0046788D02*
X0130110Y0046788D01*
X0130110Y0049149D02*
X0159846Y0049149D01*
X0159846Y0051510D02*
X0130110Y0051510D01*
X0130110Y0049681D02*
X0130110Y0053356D01*
X0129977Y0054200D01*
X0129712Y0055013D01*
X0129325Y0055775D01*
X0128822Y0056466D01*
X0128218Y0057070D01*
X0127527Y0057573D01*
X0126765Y0057960D01*
X0125952Y0058225D01*
X0125108Y0058358D01*
X0124681Y0058358D01*
X0124681Y0049681D01*
X0130110Y0049681D01*
X0130029Y0053870D02*
X0159846Y0053870D01*
X0159846Y0056231D02*
X0128993Y0056231D01*
X0124681Y0056231D02*
X0124681Y0056231D01*
X0124681Y0053870D02*
X0124681Y0053870D01*
X0124681Y0051510D02*
X0124681Y0051510D01*
X0124681Y0049149D02*
X0124681Y0049149D01*
X0124681Y0046788D02*
X0124681Y0046788D01*
X0124681Y0044428D02*
X0124681Y0044428D01*
X0124681Y0042067D02*
X0124681Y0042067D01*
X0121454Y0042067D02*
X0117282Y0042067D01*
X0119294Y0044428D02*
X0119624Y0044428D01*
X0112080Y0042067D02*
X0107282Y0042067D01*
X0109294Y0044428D02*
X0110068Y0044428D01*
X0102080Y0042067D02*
X0097282Y0042067D01*
X0099294Y0044428D02*
X0100068Y0044428D01*
X0092080Y0042067D02*
X0087282Y0042067D01*
X0089294Y0044428D02*
X0090068Y0044428D01*
X0082080Y0042067D02*
X0077282Y0042067D01*
X0079294Y0044428D02*
X0080068Y0044428D01*
X0072080Y0042067D02*
X0067282Y0042067D01*
X0069294Y0044428D02*
X0070068Y0044428D01*
X0062080Y0042067D02*
X0057282Y0042067D01*
X0059294Y0044428D02*
X0060068Y0044428D01*
X0052080Y0042067D02*
X0031437Y0042067D01*
X0031437Y0044428D02*
X0050068Y0044428D01*
X0049652Y0046788D02*
X0031437Y0046788D01*
X0031437Y0049149D02*
X0049652Y0049149D01*
X0049652Y0051510D02*
X0031437Y0051510D01*
X0031437Y0053870D02*
X0049652Y0053870D01*
X0050871Y0056231D02*
X0031437Y0056231D01*
X0031437Y0058592D02*
X0159846Y0058592D01*
X0159846Y0060953D02*
X0031437Y0060953D01*
X0031437Y0063313D02*
X0159846Y0063313D01*
X0159846Y0065674D02*
X0031437Y0065674D01*
X0031437Y0068035D02*
X0159846Y0068035D01*
X0159846Y0070395D02*
X0031437Y0070395D01*
X0031437Y0072756D02*
X0159846Y0072756D01*
X0159846Y0075117D02*
X0031437Y0075117D01*
X0031437Y0077478D02*
X0159846Y0077478D01*
X0159846Y0079838D02*
X0031437Y0079838D01*
X0031437Y0082199D02*
X0159846Y0082199D01*
X0159846Y0084560D02*
X0031437Y0084560D01*
X0031437Y0086920D02*
X0159846Y0086920D01*
X0159846Y0089281D02*
X0031437Y0089281D01*
X0031437Y0091642D02*
X0159846Y0091642D01*
X0159846Y0094003D02*
X0031437Y0094003D01*
X0031437Y0096363D02*
X0159846Y0096363D01*
X0159846Y0098724D02*
X0031437Y0098724D01*
X0031437Y0101085D02*
X0159846Y0101085D01*
X0159846Y0103445D02*
X0031437Y0103445D01*
X0031437Y0105806D02*
X0159846Y0105806D01*
X0159846Y0108167D02*
X0031437Y0108167D01*
X0031437Y0110528D02*
X0159846Y0110528D01*
X0159846Y0112888D02*
X0031437Y0112888D01*
X0031437Y0115249D02*
X0159846Y0115249D01*
X0159846Y0117610D02*
X0031437Y0117610D01*
X0031437Y0119970D02*
X0034143Y0119970D01*
X0031815Y0122331D02*
X0031437Y0122331D01*
X0044220Y0119970D02*
X0147143Y0119970D01*
X0144815Y0122331D02*
X0046547Y0122331D01*
X0047525Y0124692D02*
X0143837Y0124692D01*
X0143520Y0127053D02*
X0047843Y0127053D01*
X0047632Y0129413D02*
X0143731Y0129413D01*
X0144709Y0131774D02*
X0046654Y0131774D01*
X0058491Y0056231D02*
X0060871Y0056231D01*
X0068491Y0056231D02*
X0070871Y0056231D01*
X0078491Y0056231D02*
X0080871Y0056231D01*
X0088491Y0056231D02*
X0090871Y0056231D01*
X0098491Y0056231D02*
X0100871Y0056231D01*
X0108491Y0056231D02*
X0110871Y0056231D01*
X0118491Y0056231D02*
X0120369Y0056231D01*
X0148189Y0027903D02*
X0043173Y0027903D01*
X0046069Y0025542D02*
X0145293Y0025542D01*
X0144049Y0023181D02*
X0047314Y0023181D01*
X0047843Y0020820D02*
X0143520Y0020820D01*
X0143520Y0018460D02*
X0047843Y0018460D01*
X0046865Y0016099D02*
X0144497Y0016099D01*
X0146375Y0013738D02*
X0044987Y0013738D01*
X0156173Y0027903D02*
X0159846Y0027903D01*
X0159846Y0025542D02*
X0159069Y0025542D01*
X0159846Y0119970D02*
X0157220Y0119970D01*
X0159547Y0122331D02*
X0159846Y0122331D01*
D12*
X0122181Y0079681D03*
X0065681Y0076173D03*
D13*
X0066173Y0075673D01*
X0065681Y0075181D01*
X0117681Y0075181D01*
X0122181Y0079681D01*
X0152681Y0110181D01*
X0152681Y0110681D01*
D14*
X0152681Y0110681D03*
M02*
